<?xml version="1.0" encoding="utf-8"?>
<!-- Generator: Adobe Illustrator 26.0.0, SVG Export Plug-In . SVG Version: 6.00 Build 0)  -->
<svg version="1.1" id="Capa_1" xmlns="http://www.w3.org/2000/svg" xmlns:xlink="http://www.w3.org/1999/xlink" x="0px" y="0px"
	 viewBox="0 0 500 500" style="enable-background:new 0 0 500 500;" xml:space="preserve">
<style type="text/css">
	.st0{fill:#404040;}
</style>
<g>
	<path class="st0" d="M162.7,18c0,5.1,0.1,10.3-0.1,15.4c-0.4,14.4-10.3,24.3-24.7,24.5c-9.6,0.1-19.3,0-28.9,0
		c-7.2,0-10.2,3-10.3,10.2c-0.1,4.5,0,9,0,13.7c-5.4,0-10.3,0-15.2,0c0-7.3-0.9-14.4,0.2-21.3c1.6-10.1,10.3-17.5,20.5-18
		c10.4-0.6,20.8-0.4,31.2-0.5c8.9-0.1,11.2-2.4,11.2-11.3c0-4.2-0.1-8.4-0.1-12.7C151.9,18,157.3,18,162.7,18z"/>
	<path class="st0" d="M58.8,145.9c32.1,0,63.6,0,95.6,0c0.1,1.6,0.2,3.2,0.2,4.8c0,14.2,0.4,28.3-0.1,42.5
		c-0.8,20.8,2.2,41.1,5,61.6c4.4,32.8,8.8,65.7,13.2,98.5c4.4,33,9.1,65.9,13,99c1.1,9.3,0.2,18.9,0.2,28.7c-52.5,0-105.3,0-158.5,0
		c0-9-1-18.2,0.2-27.1c5.9-46.9,12.3-93.7,18.6-140.6c4.1-30.4,8.2-60.9,12.2-91.3c0.3-2.4,0.4-4.8,0.4-7.2c0-21.1,0-42.2,0-63.3
		C58.8,149.6,58.8,148,58.8,145.9z"/>
	<path class="st0" d="M346.3,289.4c11,0,21.2,0.1,31.4-0.1c2.7,0,3.2,1.5,3.8,3.4c3.9,11.8,7.9,23.7,11.8,35.5c2.7,8,4.1,9,12.7,9
		c20.8,0,41.6,0,62.4,0c1.6,0,3.3,0,5.2,0c0,47.9,0,95.5,0,143.4c-74.1,0-148.3,0-222.8,0c0-63.4,0-127.1,0-191
		c11.1,0,22.1,0,33.8,0c1.8,5.2,3.7,10.7,5.5,16.2c2.7,8.1,5.4,16.3,8.2,24.4c1.9,5.4,4,7,9.6,7c9.6,0,19.3,0.1,28.9,0
		c6.4-0.1,9.4-3,9.4-9.5c0.1-11,0-22,0-33C346.3,293.2,346.3,291.6,346.3,289.4z M386.1,385.6c0-7.7,0.1-15.4,0-23
		c-0.1-6.2-3-9.1-9.2-9.2c-9.8-0.1-19.6-0.1-29.4,0c-6.1,0.1-9.3,3-9.3,9.1c-0.1,15.2-0.1,30.4,0,45.6c0,5.9,3.1,8.9,9,8.9
		c9.9,0.1,19.9,0.1,29.8,0c6.2-0.1,9-3.1,9-9.3C386.2,400.4,386.1,393,386.1,385.6z M266.5,385.7c0,7.4-0.1,14.8,0,22.1
		c0.1,6.3,2.8,9.2,9,9.3c9.9,0.1,19.9,0.1,29.8,0c5.9-0.1,8.9-3,9-9c0.2-15.2,0.2-30.4,0-45.6c-0.1-6.2-3.2-9-9.3-9.1
		c-9.8-0.1-19.6-0.1-29.4,0c-6.2,0.1-9,2.9-9.1,9.2C266.4,370.3,266.5,378,266.5,385.7z M458.1,385.3c0-7.5,0.1-15.1,0-22.6
		c-0.1-6.5-3.1-9.3-9.5-9.3c-9.6-0.1-19.3-0.1-28.9,0c-6.3,0.1-9.3,2.8-9.3,9c-0.1,15.2-0.1,30.4,0,45.6c0,6.3,2.9,9,9.2,9.1
		c9.6,0.1,19.3,0.1,28.9,0c6.7-0.1,9.6-2.8,9.7-9.6C458.2,400.1,458.1,392.7,458.1,385.3z"/>
	<path class="st0" d="M234.4,480.9c-10.9,0-21.1,0-31.6,0c-0.1-0.8-0.3-1.5-0.3-2.2c1.3-24.7-3.8-48.9-6.9-73.2
		c-4.1-32.7-8.7-65.4-13-98.1c-3.8-28.4-7.5-56.7-11.3-85.1c-0.2-1.3-0.3-2.7-0.6-4.4c29.2,0,58.2,0,87.5,0c0,18.3,0,36.5,0,55.5
		c-4.2,0-8.3,0-12.5,0c-8.7,0.1-11.3,2.6-11.3,11.4c0,63.3,0,126.6,0,189.9C234.4,476.6,234.4,478.6,234.4,480.9z"/>
	<path class="st0" d="M202,153.5c-5,0-10,0-15.8,0c0.4-7.3,0-14.4,1.2-21.3c1.9-10.6,11.6-18,22.9-18.3c9.8-0.2,19.6,0,29.4-0.1
		c8.1,0,10.7-2.8,10.8-11c0-4.2,0-8.4,0-12.8c5.4,0,10.5,0,16.4,0c-0.4,7.5-0.1,14.8-1.4,21.8c-2.2,11-11.9,17.7-24.5,18
		c-9.3,0.2-18.7,0-28,0.1c-7.6,0.1-10.3,2.8-10.3,10.4c0,4.1,0,8.1-0.1,12.2C202.4,152.7,202.2,153,202,153.5z"/>
	<path class="st0" d="M242.4,185.6c-3.7,0-6.8,0-9.9,0c-1.8,0-3.5,0-6.3,0c0.4-7.6-0.1-14.9,1.3-21.9c2.2-11.2,11.9-17.9,24.4-18
		c9.5-0.1,19,0,28.5,0c7.1,0,9.8-2.8,9.9-9.9c0-4.5,0-9,0-13.7c5.5,0,10.5,0,16.5,0c-0.4,7.4-0.1,14.7-1.4,21.7
		c-2,10.7-11.9,17.7-23.6,17.9c-9.6,0.2-19.3,0-28.9,0.1c-7.5,0-10.3,2.8-10.3,10.4C242.4,176.4,242.4,180.6,242.4,185.6z"/>
	<path class="st0" d="M187.3,50c4.9,0,9.7,0,15.1,0c-0.3,10.7,2.5,21.7-5.4,31.1c-4.3,5.1-9.6,8.3-16.3,8.5
		c-10.2,0.3-20.5,0.2-30.7,0.3c-8.7,0.1-11.3,2.6-11.3,11.4c0,4,0,8.1,0,12.4c-5.3,0-10.2,0-15.7,0c0.2-8.4-1.7-17.1,1.9-25.2
		c3.9-8.8,11-13.9,20.8-14.3c10.1-0.4,20.2-0.1,30.3-0.2c7.9,0,10.6-2.7,10.7-10.5c0-4.1,0.1-8.1,0.2-12.2
		C186.7,50.9,186.9,50.7,187.3,50z"/>
	<path class="st0" d="M306.2,90.2c0,5.1,0,10,0,15.2c-5.1,0-10.3,0-15.6,0c0-5,0-9.9,0-15.2C295.7,90.2,300.8,90.2,306.2,90.2z"/>
	<path class="st0" d="M354.6,369.5c5.2,0,10.1,0,15.2,0c0,10.6,0,20.9,0,31.5c-5.1,0-10,0-15.2,0
		C354.6,390.6,354.6,380.3,354.6,369.5z"/>
	<path class="st0" d="M282.7,369.5c5.3,0,10.2,0,15.4,0c0,10.5,0,20.8,0,31.5c-4.9,0-9.9,0-15.4,0
		C282.7,390.7,282.7,380.3,282.7,369.5z"/>
	<path class="st0" d="M426.2,401c0-10.6,0-20.8,0-31.4c5.2,0,10.4,0,15.7,0c0,10.5,0,20.8,0,31.4C436.7,401,431.7,401,426.2,401z"/>
</g>
</svg>
