<?xml version="1.0" encoding="utf-8"?>
<!-- Generator: Adobe Illustrator 26.3.1, SVG Export Plug-In . SVG Version: 6.00 Build 0)  -->
<svg version="1.1" id="Layer_1" xmlns="http://www.w3.org/2000/svg" xmlns:xlink="http://www.w3.org/1999/xlink" x="0px" y="0px"
	 viewBox="0 0 453 169" style="enable-background:new 0 0 453 169;" xml:space="preserve">
<style type="text/css">
	.st0{enable-background:new    ;}
</style>
<g>
	<g>
		<g>
			<path d="M410.4,77.8c-0.1,22.2-18.4,40.2-40.6,40c-22-0.2-40-18.2-40-40.2c0-22.2,18.2-40.3,40.4-40.2
				C392.6,37.5,410.5,55.5,410.4,77.8z M370.3,42.8c-19.5-0.1-35,15.3-35,34.7s15.5,34.8,34.9,34.8c19.2,0,34.7-15.3,34.9-34.4
				C405.4,58.7,389.7,42.9,370.3,42.8z"/>
			<path d="M329.9,131.6c0-1.5,0-2.7,0-4.4c26.6,0,53.2,0,80.2,0c0.1,1.2,0.3,2.6,0.5,4.4C383.7,131.6,357.1,131.6,329.9,131.6z"/>
			<path d="M353.5,100.5c0-15.5,0-30.2,0-45.2c8.7,0,17.4-0.8,25.8,0.2c8.1,1,10.9,11.6,5.5,17.7c-0.9,1-1.9,1.8-2.9,2.7
				c6.6,4.3,8.7,8.8,7.1,14.8c-1.6,5.9-6.3,9.4-13.5,9.7C368.4,100.7,361.3,100.5,353.5,100.5z M359.9,79.8c0,5.4,0,10.3,0,15.3
				c5.7,0,11.1,0.2,16.4-0.1c4.5-0.2,6.8-3.2,7.1-7.6c0.3-4.1-2.3-7.2-6.9-7.5C371,79.5,365.5,79.8,359.9,79.8z M359.7,74
				c5.4,0,10.5,0.2,15.5-0.1c4-0.3,6.2-2.9,6.2-7c0-3.9-2.1-6.5-5.9-6.7c-5.2-0.4-10.5-0.1-15.8-0.1C359.7,64.9,359.7,69.3,359.7,74
				z"/>
		</g>
	</g>
	<g class="st0">
		<path d="M74.6,38.3v7H54.5v8.1h18.4V60H54.5v9.3H75v7H46.1v-38H74.6z"/>
		<path d="M86.7,76.3l-9.4-27.5h7.9L91,67.6h0.1l5.8-18.8h7.5l-9.3,27.5H86.7z"/>
		<path d="M107.2,57.3c0.1-1.8,0.5-3.2,1.3-4.4s1.8-2.1,3-2.8c1.2-0.7,2.6-1.2,4.1-1.5c1.5-0.3,3-0.5,4.6-0.5c1.4,0,2.8,0.1,4.2,0.3
			c1.4,0.2,2.7,0.6,3.9,1.1c1.2,0.6,2.1,1.4,2.9,2.4c0.7,1,1.1,2.4,1.1,4v14.3c0,1.2,0.1,2.4,0.2,3.6c0.1,1.1,0.4,2,0.7,2.6h-7.7
			c-0.1-0.4-0.3-0.9-0.3-1.3c-0.1-0.4-0.2-0.9-0.2-1.4c-1.2,1.2-2.6,2.1-4.3,2.6c-1.6,0.5-3.3,0.7-5,0.7c-1.3,0-2.5-0.2-3.7-0.5
			c-1.1-0.3-2.1-0.8-3-1.5c-0.9-0.7-1.5-1.5-2-2.6s-0.7-2.3-0.7-3.7c0-1.6,0.3-2.8,0.8-3.9c0.5-1,1.3-1.8,2.1-2.4
			c0.9-0.6,1.9-1.1,3-1.4c1.1-0.3,2.2-0.5,3.4-0.7c1.1-0.2,2.3-0.3,3.4-0.4c1.1-0.1,2.1-0.3,2.9-0.5c0.9-0.2,1.5-0.5,2-0.9
			c0.5-0.4,0.7-1,0.7-1.8c0-0.8-0.1-1.5-0.4-1.9s-0.6-0.9-1.1-1.1c-0.4-0.3-1-0.4-1.5-0.5c-0.6-0.1-1.2-0.1-1.9-0.1
			c-1.5,0-2.7,0.3-3.5,1c-0.9,0.6-1.3,1.7-1.5,3.2H107.2z M124.7,62.8c-0.3,0.3-0.7,0.5-1.2,0.7c-0.5,0.2-1,0.3-1.5,0.4
			c-0.6,0.1-1.1,0.2-1.7,0.3c-0.6,0.1-1.2,0.2-1.8,0.3c-0.6,0.1-1.1,0.2-1.7,0.4c-0.6,0.2-1,0.4-1.4,0.7c-0.4,0.3-0.7,0.7-1,1.1
			c-0.2,0.5-0.4,1-0.4,1.8c0,0.7,0.1,1.2,0.4,1.7c0.2,0.5,0.6,0.8,1,1.1c0.4,0.3,0.9,0.5,1.5,0.6c0.6,0.1,1.2,0.2,1.8,0.2
			c1.5,0,2.6-0.2,3.5-0.7c0.8-0.5,1.4-1.1,1.8-1.8c0.4-0.7,0.6-1.4,0.7-2.1c0.1-0.7,0.1-1.3,0.1-1.7V62.8z"/>
		<path d="M145.9,38.3v38h-7.6v-38H145.9z"/>
		<path d="M170.5,76.3v-3.8h-0.2c-1,1.6-2.2,2.8-3.7,3.5c-1.5,0.7-3.1,1.1-4.7,1.1c-2,0-3.7-0.3-5-0.8c-1.3-0.5-2.3-1.3-3.1-2.3
			c-0.7-1-1.3-2.2-1.6-3.6c-0.3-1.4-0.5-3-0.5-4.7V48.8h7.6v15.5c0,2.3,0.4,4,1.1,5.1c0.7,1.1,2,1.7,3.8,1.7c2.1,0,3.5-0.6,4.5-1.8
			c0.9-1.2,1.4-3.2,1.4-6V48.8h7.6v27.5H170.5z"/>
		<path d="M183.1,57.3c0.1-1.8,0.5-3.2,1.3-4.4s1.8-2.1,3-2.8c1.2-0.7,2.6-1.2,4.1-1.5c1.5-0.3,3-0.5,4.6-0.5c1.4,0,2.8,0.1,4.2,0.3
			c1.4,0.2,2.7,0.6,3.9,1.1c1.2,0.6,2.1,1.4,2.9,2.4c0.7,1,1.1,2.4,1.1,4v14.3c0,1.2,0.1,2.4,0.2,3.6c0.1,1.1,0.4,2,0.7,2.6h-7.7
			c-0.1-0.4-0.3-0.9-0.3-1.3c-0.1-0.4-0.2-0.9-0.2-1.4c-1.2,1.2-2.6,2.1-4.3,2.6c-1.6,0.5-3.3,0.7-5,0.7c-1.3,0-2.5-0.2-3.7-0.5
			c-1.1-0.3-2.1-0.8-3-1.5c-0.9-0.7-1.5-1.5-2-2.6s-0.7-2.3-0.7-3.7c0-1.6,0.3-2.8,0.8-3.9c0.5-1,1.3-1.8,2.1-2.4
			c0.9-0.6,1.9-1.1,3-1.4c1.1-0.3,2.2-0.5,3.4-0.7c1.1-0.2,2.3-0.3,3.4-0.4c1.1-0.1,2.1-0.3,2.9-0.5c0.9-0.2,1.5-0.5,2-0.9
			c0.5-0.4,0.7-1,0.7-1.8c0-0.8-0.1-1.5-0.4-1.9s-0.6-0.9-1.1-1.1c-0.4-0.3-1-0.4-1.5-0.5c-0.6-0.1-1.2-0.1-1.9-0.1
			c-1.5,0-2.7,0.3-3.5,1c-0.9,0.6-1.3,1.7-1.5,3.2H183.1z M200.5,62.8c-0.3,0.3-0.7,0.5-1.2,0.7c-0.5,0.2-1,0.3-1.5,0.4
			c-0.6,0.1-1.1,0.2-1.7,0.3c-0.6,0.1-1.2,0.2-1.8,0.3c-0.6,0.1-1.1,0.2-1.7,0.4c-0.6,0.2-1,0.4-1.4,0.7c-0.4,0.3-0.7,0.7-1,1.1
			c-0.2,0.5-0.4,1-0.4,1.8c0,0.7,0.1,1.2,0.4,1.7c0.2,0.5,0.6,0.8,1,1.1c0.4,0.3,0.9,0.5,1.5,0.6c0.6,0.1,1.2,0.2,1.8,0.2
			c1.5,0,2.6-0.2,3.5-0.7c0.8-0.5,1.4-1.1,1.8-1.8c0.4-0.7,0.6-1.4,0.7-2.1c0.1-0.7,0.1-1.3,0.1-1.7V62.8z"/>
		<path d="M227.1,53.7c-1.2,0-2.2,0.3-3,0.8c-0.8,0.6-1.5,1.3-2,2.1c-0.5,0.9-0.9,1.8-1.1,2.9c-0.2,1-0.3,2.1-0.3,3.1
			c0,1,0.1,2,0.3,3c0.2,1,0.6,2,1,2.8c0.5,0.8,1.1,1.5,1.9,2c0.8,0.5,1.8,0.8,3,0.8c1.8,0,3.2-0.5,4.2-1.5c1-1,1.6-2.4,1.8-4.1h7.3
			c-0.5,3.7-1.9,6.4-4.3,8.4c-2.3,1.9-5.3,2.9-9,2.9c-2.1,0-3.9-0.3-5.7-1c-1.7-0.7-3.2-1.7-4.4-2.9c-1.2-1.2-2.1-2.7-2.8-4.4
			c-0.7-1.7-1-3.6-1-5.7c0-2.1,0.3-4.1,0.9-5.9c0.6-1.8,1.5-3.4,2.7-4.7c1.2-1.3,2.7-2.4,4.4-3.1c1.7-0.7,3.7-1.1,6-1.1
			c1.6,0,3.2,0.2,4.7,0.6s2.9,1.1,4,1.9s2.2,2,2.9,3.2c0.7,1.3,1.2,2.8,1.3,4.6h-7.4C232.2,55.3,230.3,53.7,227.1,53.7z"/>
		<path d="M244.7,44.5v-6.2h7.6v6.2H244.7z M252.3,48.8v27.5h-7.6V48.8H252.3z"/>
		<path d="M258.4,56.6c0.7-1.8,1.6-3.3,2.9-4.6s2.7-2.2,4.5-2.9c1.7-0.7,3.7-1,5.9-1s4.1,0.3,5.9,1c1.8,0.7,3.3,1.7,4.5,2.9
			s2.2,2.8,2.9,4.6c0.7,1.8,1,3.8,1,6c0,2.2-0.3,4.2-1,6c-0.7,1.8-1.6,3.3-2.9,4.6s-2.7,2.2-4.5,2.9s-3.7,1-5.9,1s-4.1-0.3-5.9-1
			c-1.7-0.7-3.2-1.6-4.5-2.9s-2.2-2.8-2.9-4.6c-0.7-1.8-1-3.8-1-6C257.4,60.4,257.7,58.4,258.4,56.6z M265.3,65.8
			c0.2,1,0.6,2,1.1,2.8c0.5,0.8,1.2,1.5,2,2c0.9,0.5,1.9,0.7,3.2,0.7c1.3,0,2.4-0.2,3.2-0.7c0.9-0.5,1.6-1.2,2.1-2
			c0.5-0.8,0.9-1.8,1.1-2.8c0.2-1,0.3-2.1,0.3-3.2s-0.1-2.2-0.3-3.2c-0.2-1.1-0.6-2-1.1-2.8c-0.5-0.8-1.2-1.5-2.1-2
			c-0.9-0.5-1.9-0.8-3.2-0.8c-1.3,0-2.3,0.3-3.2,0.8c-0.9,0.5-1.5,1.2-2,2c-0.5,0.8-0.9,1.8-1.1,2.8s-0.3,2.1-0.3,3.2
			S265.1,64.8,265.3,65.8z M273.3,34.5l-5.6,9.4h5.3l8.7-9.4H273.3z"/>
		<path d="M298,48.8v3.8h0.2c1-1.6,2.2-2.8,3.7-3.5c1.5-0.7,3.1-1.1,4.7-1.1c2,0,3.7,0.3,5,0.8c1.3,0.6,2.3,1.3,3.1,2.3
			c0.7,1,1.3,2.2,1.6,3.6c0.3,1.4,0.5,3,0.5,4.7v16.9H309V60.8c0-2.3-0.4-4-1.1-5.1s-2-1.7-3.8-1.7c-2.1,0-3.6,0.6-4.5,1.8
			c-0.9,1.2-1.4,3.2-1.4,6v14.4h-7.6V48.8H298z"/>
	</g>
	<g class="st0">
		<path d="M130.9,85.9v36.2h-8V85.9H130.9z"/>
		<path d="M144.2,95.9v3.6h0.1c0.9-1.4,2.1-2.4,3.4-3.1c1.3-0.7,2.9-1.1,4.6-1.1c1.7,0,3.2,0.3,4.5,1c1.4,0.6,2.4,1.8,3.1,3.4
			c0.8-1.1,1.8-2.2,3.2-3c1.3-0.9,2.9-1.3,4.7-1.3c1.4,0,2.7,0.2,3.9,0.5c1.2,0.3,2.2,0.9,3,1.6c0.8,0.7,1.5,1.7,2,2.9
			c0.5,1.2,0.7,2.6,0.7,4.3v17.6h-7.2v-14.9c0-0.9,0-1.7-0.1-2.5c-0.1-0.8-0.3-1.5-0.6-2c-0.3-0.6-0.8-1-1.3-1.4
			c-0.6-0.3-1.4-0.5-2.4-0.5c-1,0-1.8,0.2-2.5,0.6c-0.6,0.4-1.1,0.9-1.5,1.5s-0.6,1.3-0.7,2.1c-0.1,0.8-0.2,1.6-0.2,2.4v14.6h-7.2
			v-14.7c0-0.8,0-1.5-0.1-2.3c0-0.8-0.2-1.5-0.4-2.1c-0.3-0.6-0.7-1.2-1.3-1.5c-0.6-0.4-1.5-0.6-2.6-0.6c-0.3,0-0.8,0.1-1.3,0.2
			s-1.1,0.4-1.6,0.9c-0.5,0.4-1,1-1.3,1.8c-0.4,0.8-0.6,1.8-0.6,3.1v15.2h-7.2V95.9H144.2z"/>
		<path d="M190,95.9v3.3h0.1c0.9-1.4,2-2.5,3.3-3.1c1.4-0.6,2.8-1,4.5-1c2.1,0,3.8,0.4,5.3,1.2c1.5,0.8,2.7,1.8,3.7,3.1
			c1,1.3,1.7,2.8,2.2,4.5c0.5,1.7,0.7,3.5,0.7,5.4c0,1.8-0.2,3.4-0.7,5.1c-0.5,1.6-1.2,3.1-2.2,4.3s-2.2,2.2-3.6,3
			c-1.4,0.7-3.1,1.1-5,1.1c-1.6,0-3.1-0.3-4.5-1c-1.4-0.7-2.5-1.6-3.4-2.9h-0.1v12.4h-7.2V95.9H190z M199.3,116.7
			c0.8-0.5,1.4-1.1,1.9-1.9c0.5-0.8,0.8-1.6,1-2.7c0.2-1,0.3-2,0.3-3.1c0-1-0.1-2.1-0.3-3.1c-0.2-1-0.6-1.9-1.1-2.7s-1.2-1.4-2-1.9
			c-0.8-0.5-1.8-0.7-2.9-0.7c-1.2,0-2.2,0.2-3,0.7c-0.8,0.5-1.4,1.1-1.9,1.9c-0.5,0.8-0.8,1.7-1,2.7c-0.2,1-0.3,2.1-0.3,3.1
			c0,1,0.1,2.1,0.3,3.1c0.2,1,0.6,1.9,1.1,2.7c0.5,0.8,1.1,1.4,2,1.9c0.8,0.5,1.8,0.7,2.9,0.7C197.5,117.4,198.5,117.2,199.3,116.7z
			"/>
		<path d="M213.8,104c0.1-1.7,0.5-3.1,1.3-4.2c0.7-1.1,1.7-2,2.8-2.7c1.1-0.7,2.4-1.2,3.9-1.4c1.4-0.3,2.9-0.4,4.3-0.4
			c1.3,0,2.7,0.1,4,0.3c1.4,0.2,2.6,0.5,3.7,1.1s2,1.3,2.7,2.3c0.7,1,1.1,2.2,1.1,3.8v13.6c0,1.2,0.1,2.3,0.2,3.4
			c0.1,1.1,0.4,1.9,0.7,2.4h-7.3c-0.1-0.4-0.2-0.8-0.3-1.2c-0.1-0.4-0.1-0.9-0.2-1.3c-1.2,1.2-2.5,2-4.1,2.5
			c-1.6,0.5-3.1,0.7-4.8,0.7c-1.3,0-2.4-0.2-3.5-0.5c-1.1-0.3-2-0.8-2.8-1.4c-0.8-0.6-1.4-1.5-1.9-2.4c-0.5-1-0.7-2.1-0.7-3.5
			c0-1.5,0.3-2.7,0.8-3.7c0.5-1,1.2-1.7,2-2.3c0.8-0.6,1.8-1,2.8-1.3s2.1-0.5,3.2-0.7c1.1-0.2,2.1-0.3,3.2-0.4c1-0.1,2-0.3,2.8-0.5
			c0.8-0.2,1.5-0.5,1.9-0.9c0.5-0.4,0.7-1,0.7-1.7c0-0.8-0.1-1.4-0.4-1.9c-0.3-0.5-0.6-0.8-1-1.1c-0.4-0.3-0.9-0.4-1.5-0.5
			c-0.6-0.1-1.2-0.1-1.8-0.1c-1.4,0-2.5,0.3-3.3,0.9s-1.3,1.6-1.4,3H213.8z M230.4,109.3c-0.3,0.3-0.7,0.5-1.1,0.6
			c-0.5,0.2-0.9,0.3-1.5,0.4c-0.5,0.1-1.1,0.2-1.6,0.3c-0.6,0.1-1.2,0.2-1.7,0.3c-0.5,0.1-1.1,0.2-1.6,0.4c-0.5,0.2-1,0.4-1.4,0.7
			c-0.4,0.3-0.7,0.7-0.9,1.1c-0.2,0.4-0.4,1-0.4,1.7c0,0.6,0.1,1.2,0.4,1.6c0.2,0.4,0.6,0.8,1,1s0.9,0.4,1.4,0.5
			c0.5,0.1,1.1,0.2,1.7,0.2c1.4,0,2.5-0.2,3.3-0.7c0.8-0.5,1.4-1,1.7-1.7c0.4-0.7,0.6-1.3,0.7-2c0.1-0.7,0.1-1.2,0.1-1.6V109.3z"/>
		<path d="M255.8,100.6c-1.2,0-2.1,0.3-2.9,0.8c-0.8,0.5-1.4,1.2-1.9,2c-0.5,0.8-0.8,1.7-1,2.7c-0.2,1-0.3,2-0.3,3
			c0,0.9,0.1,1.9,0.3,2.9c0.2,1,0.5,1.9,1,2.7c0.5,0.8,1.1,1.4,1.9,2c0.8,0.5,1.7,0.8,2.8,0.8c1.7,0,3.1-0.5,4-1.4s1.5-2.3,1.8-3.9
			h6.9c-0.5,3.5-1.8,6.1-4.1,8c-2.2,1.8-5.1,2.7-8.6,2.7c-2,0-3.8-0.3-5.4-1c-1.6-0.7-3-1.6-4.2-2.8c-1.2-1.2-2-2.6-2.7-4.2
			c-0.6-1.6-1-3.4-1-5.4c0-2,0.3-3.9,0.9-5.7c0.6-1.7,1.5-3.2,2.6-4.5s2.6-2.3,4.2-3c1.7-0.7,3.6-1.1,5.7-1.1c1.6,0,3.1,0.2,4.5,0.6
			c1.4,0.4,2.7,1,3.9,1.9s2.1,1.9,2.8,3.1c0.7,1.2,1.1,2.7,1.2,4.4h-7.1C260.6,102.1,258.8,100.6,255.8,100.6z"/>
		<path d="M286.7,95.9v4.8h-5.3v13c0,1.2,0.2,2,0.6,2.4c0.4,0.4,1.2,0.6,2.4,0.6c0.4,0,0.8,0,1.2-0.1c0.4,0,0.7-0.1,1.1-0.2v5.6
			c-0.6,0.1-1.3,0.2-2,0.2c-0.7,0-1.5,0.1-2.2,0.1c-1.1,0-2.2-0.1-3.2-0.2c-1-0.2-1.9-0.4-2.6-0.9c-0.8-0.4-1.4-1.1-1.8-1.9
			s-0.7-1.9-0.7-3.2v-15.5h-4.4v-4.8h4.4V88h7.2v7.9H286.7z"/>
		<path d="M290.3,103.3c0.6-1.7,1.6-3.2,2.7-4.4c1.2-1.2,2.6-2.1,4.3-2.8c1.7-0.7,3.5-1,5.6-1s3.9,0.3,5.6,1
			c1.7,0.7,3.1,1.6,4.3,2.8c1.2,1.2,2.1,2.7,2.7,4.4c0.6,1.7,1,3.6,1,5.7c0,2.1-0.3,4-1,5.7c-0.6,1.7-1.6,3.1-2.7,4.3
			c-1.2,1.2-2.6,2.1-4.3,2.8c-1.7,0.6-3.5,1-5.6,1s-3.9-0.3-5.6-1c-1.7-0.6-3.1-1.6-4.3-2.8c-1.2-1.2-2.1-2.6-2.7-4.3
			c-0.6-1.7-1-3.6-1-5.7C289.4,106.9,289.7,105,290.3,103.3z M296.9,112.1c0.2,1,0.5,1.9,1,2.7c0.5,0.8,1.1,1.4,2,1.9s1.8,0.7,3,0.7
			c1.2,0,2.2-0.2,3.1-0.7c0.8-0.5,1.5-1.1,2-1.9c0.5-0.8,0.8-1.7,1-2.7c0.2-1,0.3-2,0.3-3.1c0-1-0.1-2.1-0.3-3.1s-0.6-1.9-1-2.7
			c-0.5-0.8-1.2-1.4-2-1.9c-0.8-0.5-1.9-0.7-3.1-0.7c-1.2,0-2.2,0.2-3,0.7s-1.5,1.1-2,1.9c-0.5,0.8-0.8,1.7-1,2.7s-0.3,2-0.3,3.1
			C296.6,110.1,296.7,111.1,296.9,112.1z"/>
	</g>
	<g class="st0">
		<path d="M66.1,118.4c-0.8,1.4-1.9,2.4-3.3,3c-1.3,0.6-2.9,0.9-4.6,0.9c-1.9,0-3.6-0.4-5.1-1.1c-1.5-0.8-2.7-1.8-3.6-3
			c-0.9-1.3-1.7-2.8-2.1-4.4c-0.5-1.7-0.7-3.4-0.7-5.2c0-1.7,0.2-3.4,0.7-5c0.5-1.6,1.2-3,2.1-4.3c0.9-1.2,2.1-2.2,3.6-3
			c1.4-0.7,3.1-1.1,5-1.1c1.5,0,3,0.3,4.4,1c1.4,0.6,2.5,1.6,3.3,2.9h0.1V86h7.1v35.6h-6.7L66.1,118.4L66.1,118.4z M65.8,105.6
			c-0.2-1-0.5-1.8-1-2.6c-0.5-0.7-1.1-1.4-1.9-1.8c-0.8-0.5-1.7-0.7-2.9-0.7c-1.2,0-2.1,0.2-2.9,0.7c-0.8,0.5-1.4,1.1-1.9,1.8
			c-0.5,0.8-0.8,1.6-1,2.6c-0.2,1-0.3,2-0.3,3.1c0,1,0.1,2,0.3,3c0.2,1,0.6,1.9,1.1,2.7c0.5,0.8,1.2,1.4,1.9,1.9
			c0.8,0.5,1.7,0.7,2.8,0.7c1.2,0,2.1-0.2,2.9-0.7c0.8-0.5,1.4-1.1,1.9-1.9c0.5-0.8,0.8-1.7,1-2.7s0.3-2,0.3-3.1
			S66,106.6,65.8,105.6z"/>
		<path d="M85.9,115.5c1.1,1,2.6,1.5,4.6,1.5c1.4,0,2.7-0.4,3.7-1.1c1-0.7,1.7-1.5,1.9-2.3h6.2c-1,3.1-2.5,5.3-4.6,6.6
			c-2.1,1.3-4.6,2-7.5,2c-2,0-3.9-0.3-5.5-1c-1.6-0.6-3-1.6-4.1-2.8s-2-2.6-2.6-4.3c-0.6-1.7-0.9-3.5-0.9-5.5c0-1.9,0.3-3.7,0.9-5.4
			c0.6-1.7,1.5-3.1,2.7-4.3c1.2-1.2,2.6-2.2,4.2-2.9c1.6-0.7,3.4-1,5.4-1c2.2,0,4.1,0.4,5.7,1.3c1.6,0.8,3,2,4,3.4
			c1,1.4,1.8,3.1,2.3,4.9c0.5,1.8,0.6,3.7,0.5,5.7H84.1C84.2,112.8,84.8,114.5,85.9,115.5z M93.9,101.9c-0.8-0.9-2.1-1.4-3.9-1.4
			c-1.1,0-2.1,0.2-2.8,0.6c-0.7,0.4-1.3,0.9-1.8,1.4c-0.4,0.6-0.8,1.2-0.9,1.8c-0.2,0.6-0.3,1.2-0.3,1.7h11.5
			C95.3,104.2,94.7,102.8,93.9,101.9z"/>
	</g>
</g>
</svg>
