<?xml version="1.0" encoding="UTF-8"?><svg xmlns="http://www.w3.org/2000/svg" viewBox="0 0 63.42 63.43"><g id="a"/><g id="b"><g id="c"><g><path d="M57.08,31.71c-.06,13.95-11.42,25.21-25.37,25.15-13.95-.06-25.21-11.42-25.15-25.37,.06-13.95,11.42-25.21,25.37-25.15,2.29,0,4.56,.33,6.76,.95l4.92-4.92C39.85,.77,35.8-.04,31.71,0,14.2,0,0,14.2,0,31.71s14.2,31.71,31.71,31.71c17.51,0,31.71-14.2,31.71-31.71h-6.34Z"/><polygon points="18.71 25.69 14.27 30.13 28.54 44.4 60.25 12.69 55.81 8.25 28.54 35.36 18.71 25.69"/></g></g></g></svg>