<?xml version="1.0" encoding="utf-8"?>
<!-- Generator: Adobe Illustrator 26.2.1, SVG Export Plug-In . SVG Version: 6.00 Build 0)  -->
<svg version="1.1" id="Capa_1" xmlns="http://www.w3.org/2000/svg" xmlns:xlink="http://www.w3.org/1999/xlink" x="0px" y="0px"
	 viewBox="0 0 90 90" style="enable-background:new 0 0 90 90;" xml:space="preserve">
<style type="text/css">
	.st0{fill:#CC004C;}
	.st1{fill:#FFFFFF;}
</style>
<g>
	<path class="st0" d="M89,47C87.9,71.3,67.3,90,43,89C18.7,87.9,0,67.3,1,43C2.1,18.7,22.7,0,47,1C71.3,2.1,90,22.7,89,47"/>
	<path class="st1" d="M55.7,63.5H34.3V36.1h21.3V63.5z M35.7,62.1h18.5V37.5H35.7V62.1z"/>
	<rect x="39.4" y="52.4" class="st1" width="11.1" height="1.4"/>
	<rect x="39.4" y="50.1" class="st1" width="11.1" height="1.4"/>
	<path class="st1" d="M45.8,30.4c-5.2,0-9.4-4.2-9.4-9.4c0-5.2,4.2-9.4,9.4-9.4c5.2,0,9.4,4.2,9.4,9.4C55.2,26.2,51,30.4,45.8,30.4
		 M45.8,13.1c-4.4,0-8,3.6-8,8c0,4.4,3.6,8,8,8c4.4,0,8-3.6,8-8C53.8,16.6,50.2,13.1,45.8,13.1"/>
	<polygon class="st1" points="44.3,23.3 45.1,16.5 46.5,16.7 45.9,21.6 49.9,20.9 50.1,22.3 	"/>
	<rect x="27.3" y="23.4" class="st1" width="7.1" height="1.4"/>
	<rect x="27.6" y="17.3" class="st1" width="6.6" height="1.4"/>
	<rect x="23.7" y="20.3" class="st1" width="9.2" height="1.4"/>
	<rect x="39.4" y="54.5" class="st1" width="11.1" height="1.4"/>
	<path class="st1" d="M61,28.1c0,0.2-0.1,0.4-0.2,0.6c-0.1,0.2-0.1,0.4-0.2,0.6c5.8,4.6,9.5,11.7,9.5,19.7
		c0,13.9-11.3,25.2-25.2,25.2c-13.9,0-25.2-11.3-25.2-25.2c0-5.9,2.1-11.4,5.5-15.7c-0.3-0.2-0.6-0.4-0.9-0.7
		c-3.6,4.5-5.8,10.2-5.8,16.4c0,14.5,11.8,26.3,26.3,26.3c14.5,0,26.3-11.8,26.3-26.3C71.3,40.5,67.3,32.9,61,28.1"/>
	<path class="st1" d="M45,75.6c-14.7,0-26.6-11.9-26.6-26.6c0-6.1,2-11.8,5.8-16.6l0.2-0.2l0.2,0.2c0.3,0.3,0.6,0.5,0.9,0.7l0.3,0.2
		l-0.2,0.3c-3.6,4.5-5.5,9.8-5.5,15.5c0,13.7,11.2,24.9,24.9,24.9c13.7,0,24.9-11.2,24.9-24.9c0-7.6-3.4-14.7-9.4-19.5l-0.2-0.1
		l0.1-0.2c0.1-0.2,0.1-0.4,0.2-0.6c0.1-0.2,0.1-0.4,0.1-0.5l0.1-0.4l0.4,0.3C67.8,33,71.6,40.7,71.6,49C71.6,63.7,59.7,75.6,45,75.6
		 M24.5,33C20.9,37.6,19,43.2,19,49c0,14.4,11.7,26,26,26c14.4,0,26-11.7,26-26c0-8-3.6-15.4-9.9-20.4c0,0,0,0.1,0,0.1
		c0,0.1-0.1,0.3-0.2,0.4c6,4.9,9.5,12.1,9.5,19.8C70.5,63,59,74.4,45,74.4C31,74.4,19.5,63,19.5,49c0-5.7,1.9-11.1,5.4-15.6
		C24.8,33.3,24.6,33.1,24.5,33"/>
	<polygon class="st1" points="60.1,32.9 59.5,27.1 65.3,27.7 65.2,29.5 61.5,29.1 61.8,32.7 	"/>
</g>
</svg>
