<?xml version="1.0" encoding="utf-8"?>
<!-- Generator: Adobe Illustrator 26.2.1, SVG Export Plug-In . SVG Version: 6.00 Build 0)  -->
<svg version="1.1" id="Capa_1" xmlns="http://www.w3.org/2000/svg" xmlns:xlink="http://www.w3.org/1999/xlink" x="0px" y="0px"
	 viewBox="0 0 13 9" style="enable-background:new 0 0 13 9;" xml:space="preserve">
<style type="text/css">
	.st0{fill:#FFFFFF;}
</style>
<g>
	<path class="st0" d="M9.7,1.5c0,1.8,0,3.6,0,5.3c0,0.3,0,0.5,0,0.8c0,0.3,0.5,0.3,0.5,0c0-1.8,0-3.6,0-5.3c0-0.3,0-0.5,0-0.8
		C10.2,1.1,9.7,1.1,9.7,1.5L9.7,1.5z"/>
</g>
<g>
	<path class="st0" d="M7.7,5.7c0.8,0.8,1.5,1.5,2.3,2.3C10,8,10.2,8,10.3,7.9c0.7-0.8,1.3-1.5,2-2.3c0.2-0.2-0.1-0.6-0.4-0.4
		c-0.7,0.8-1.3,1.5-2,2.3c0.1,0,0.2,0,0.4,0C9.5,6.8,8.8,6.1,8,5.3C7.8,5.1,7.4,5.4,7.7,5.7L7.7,5.7z"/>
</g>
<g>
	<path class="st0" d="M5.7,8.3H1.5C1,8.3,0.6,7.9,0.6,7.4V1.6c0-0.5,0.4-0.9,0.9-0.9h4.1c0.5,0,0.9,0.4,0.9,0.9v5.8
		C6.6,7.9,6.2,8.3,5.7,8.3z M1.9,7.9h3.4c0.5,0,0.9-0.4,0.9-0.9V2c0-0.5-0.4-0.9-0.9-0.9H1.9C1.4,1.1,1,1.5,1,2V7
		C1,7.5,1.4,7.9,1.9,7.9z"/>
	<rect x="2.1" y="5.2" class="st0" width="3.1" height="0.4"/>
	<rect x="2.1" y="4.6" class="st0" width="3.1" height="0.4"/>
	<rect x="2.1" y="5.8" class="st0" width="3.1" height="0.4"/>
</g>
</svg>
