<?xml version="1.0" encoding="utf-8"?>
<!-- Generator: Adobe Illustrator 25.4.1, SVG Export Plug-In . SVG Version: 6.00 Build 0)  -->
<svg version="1.1" xmlns="http://www.w3.org/2000/svg" xmlns:xlink="http://www.w3.org/1999/xlink" x="0px" y="0px"
	 viewBox="0 0 210 210" style="enable-background:new 0 0 210 210;" xml:space="preserve">
<style type="text/css">
	.st0{display:none;}
	.st1{display:inline;}
	.st2{opacity:0.33;fill:#7C7C7C;}
	.st3{fill:#FFFFFF;}
	.st4{fill:#FFFFFF;stroke:#FFFFFF;stroke-width:1.712;stroke-miterlimit:10;}
	.st5{font-family:'NeutraDisp-Bold';}
	.st6{font-size:56.6917px;}
</style>
<g id="Capa_1" class="st0">
	<g class="st1">
		<circle class="st2" cx="105" cy="105" r="100"/>
		<path class="st3" d="M94.1,113c0-6.1,0-12.2,0-18.3c0-0.9,0-1.8-0.1-2.7c-0.3-2.1-2-3.5-4.1-3.5c-2,0.1-3.5,1.6-3.7,3.6
			c-0.1,0.7-0.1,1.4-0.1,2.1c0,8.1,0,16.2,0,24.3c0,0.9-0.1,1.9-0.4,2.7c-0.7,1.7-2,2.4-3.8,2.3c-1.8-0.2-3.2-1.6-3.2-3.6
			c0-9.6-0.1-19.2,0.1-28.7c0.1-4,2.5-6.9,6-8.7c1.2-0.6,1.7-1.3,1.7-2.7c-0.1-11.8,0-23.5,0-35.2c0-0.2,0-0.4,0-0.6
			c-0.1-2.2-1.2-3.5-3-3.7c-1.8-0.2-3.2,0.9-3.6,3.1C78.4,51,77,58.7,75.6,66.4c-2.7,14.6-5.3,29.1-8,43.7
			c-1.2,6.4-4.7,11.3-10.4,14.5c-3.8,2.2-7.7,4.2-11.6,6.3c-2.5,1.3-4.5,0.9-5.6-1.1c-1.1-2-0.4-4.1,2-5.4c3.8-2.1,7.7-4.2,11.6-6.4
			c3.7-2.1,5.9-5.2,6.7-9.4c4-22.2,8.1-44.4,12.1-66.6c1-5.4,5-9.1,10.1-9.3c5.2-0.2,9.7,3,11,7.9c0.3,1.3,0.4,2.8,0.4,4.2
			c0,11.5,0,23.1,0,34.6c0,1.6,0.4,2.5,1.9,3.3c4,2.2,5.8,5.9,5.8,10.4c0,12.9,0,25.7,0,38.6c0,6.2-2.5,11.2-7.8,14.6
			c-2.3,1.5-4.5,3.1-6.7,4.6c-4.5,3.2-9.5,3.5-14.6,2.4c-3.3-0.7-6.3-0.1-9.2,1.5c-5.8,3.2-11.6,6.1-17.5,9c-1.2,0.6-3.1,0.5-4.3,0
			c-0.9-0.4-1.6-2.2-1.5-3.3c0.1-1.1,1.1-2.5,2.1-3c6.9-3.7,13.8-7.4,20.9-10.6c2.4-1.1,5.4-1,8.1-1.1c1.9-0.1,3.7,0.7,5.6,0.6
			c2-0.1,4.1-0.4,5.8-1.3c2.6-1.3,4.8-3.3,7.3-4.9c3.2-2.1,4.5-5,4.5-8.7C94,125.3,94,119.2,94.1,113L94.1,113z"/>
		<path class="st3" d="M109.5,112.7c0-6.4,0-12.9,0-19.3c0-4.9,1.9-8.7,6.3-11c1.3-0.7,1.4-1.6,1.4-2.7c0-11.7,0-23.5,0-35.2
			c0-3.1,0.7-6,2.9-8.3c3-3.1,6.7-4.2,10.9-3c4.3,1.2,6.8,4.3,7.6,8.6c1.4,7.8,2.8,15.5,4.2,23.3c2.7,14.6,5.3,29.3,8,43.9
			c0.7,4,3,7,6.6,9c3.8,2.1,7.6,4.1,11.4,6.3c1.1,0.6,2.2,1.7,2.5,2.8c0.3,1.1-0.3,2.6-1,3.5c-1,1.2-2.6,1.4-4,0.6
			c-4.8-2.6-9.7-5-14.3-8c-4.8-3.1-7.5-7.8-8.5-13.4c-4-21.9-7.9-43.7-11.9-65.6c-0.1-0.6-0.2-1.3-0.4-1.8c-0.6-1.6-1.8-2.5-3.6-2.3
			c-1.7,0.2-2.6,1.3-2.8,3c-0.1,0.6,0,1.1,0,1.7c0,11.5,0,23.1,0,34.6c0,1.5,0.4,2.3,1.8,3.1c3.6,1.9,5.8,4.9,5.9,9
			c0.2,9.4,0.1,18.9,0.1,28.3c0,2.1-1.7,3.6-3.6,3.7c-2,0-3.7-1.5-3.8-3.7c-0.1-2.2,0-4.3,0-6.5c0-6.9,0-13.7,0-20.6
			c0-3-2.4-4.8-5-4.1c-1.7,0.5-2.8,1.6-2.9,3.5c-0.1,1.8-0.1,3.6-0.1,5.4c0,11,0.1,22.1,0,33.1c0,4.3,1.4,7.6,5.1,9.8
			c2.3,1.4,4.4,3.3,6.8,4.5c1.8,0.9,4.2,1.7,6,1.2c6.9-1.7,13-0.5,19,3.1c4.8,2.9,9.9,5.1,14.9,7.7c2.6,1.3,3.4,3.4,2.3,5.4
			c-1.1,2-3.3,2.5-5.8,1.2c-6.1-3.1-12.2-6.2-18.3-9.4c-2.4-1.3-4.7-1.7-7.3-1.1c-6.7,1.6-12.7,0.4-18.1-4c-2.3-1.8-4.8-3.4-7-5.3
			c-3.8-3.3-5.1-7.7-5.1-12.6C109.5,125.2,109.5,119,109.5,112.7"/>
	</g>
</g>
<g id="Capa_2">
	<g>
		<circle class="st2" cx="105" cy="105" r="100"/>
		<g>
			<g>
				<path class="st3" d="M56.6,139.9c1.7-3,3.4-6,5.1-9c4-7.2,8.1-14.4,12.1-21.6c4.9-8.7,9.8-17.5,14.7-26.2
					c4.2-7.5,8.5-15.1,12.7-22.6c1.4-2.5,2.8-5,4.2-7.5c0.7-1.2,1.4-2.3,2-3.6c0-0.1,0.1-0.1,0.1-0.2c-1.6,0-3.3,0-4.9,0
					c1.7,3,3.4,6,5.1,9c4,7.2,8.1,14.4,12.1,21.6c4.9,8.7,9.8,17.5,14.7,26.2c4.2,7.5,8.5,15.1,12.7,22.6c1.4,2.5,2.8,5,4.2,7.5
					c0.7,1.2,1.2,2.4,2,3.6c0,0,0.1,0.1,0.1,0.2c0.8-1.4,1.6-2.9,2.5-4.3c-3.4,0-6.8,0-10.2,0c-8.1,0-16.2,0-24.3,0
					c-9.8,0-19.6,0-29.5,0c-8.5,0-16.9,0-25.4,0c-4.1,0-8.3-0.2-12.4,0c-0.1,0-0.1,0-0.2,0c-3.7,0-3.7,5.7,0,5.7c3.4,0,6.8,0,10.2,0
					c8.1,0,16.2,0,24.3,0c9.8,0,19.6,0,29.5,0c8.5,0,16.9,0,25.4,0c4.1,0,8.3,0.2,12.4,0c0.1,0,0.1,0,0.2,0c2.2,0,3.5-2.4,2.5-4.3
					c-1.7-3-3.4-6-5.1-9c-4-7.2-8.1-14.4-12.1-21.6c-4.9-8.7-9.8-17.5-14.7-26.2c-4.2-7.5-8.5-15.1-12.7-22.6c-2.1-3.7-4-7.5-6.2-11
					c0-0.1-0.1-0.1-0.1-0.2c-1-1.9-3.9-1.9-4.9,0c-1.7,3-3.4,6-5.1,9c-4,7.2-8.1,14.4-12.1,21.6c-4.9,8.7-9.8,17.5-14.7,26.2
					c-4.2,7.5-8.5,15.1-12.7,22.6c-2.1,3.7-4.2,7.3-6.2,11c0,0.1-0.1,0.1-0.1,0.2C49.8,140.2,54.8,143.1,56.6,139.9z"/>
			</g>
		</g>
		<text transform="matrix(1 0 0 1 99.1376 123.6785)" class="st4 st5 st6">!</text>
	</g>
</g>
</svg>
