<?xml version="1.0" encoding="utf-8"?>
<!-- Generator: Adobe Illustrator 25.4.1, SVG Export Plug-In . SVG Version: 6.00 Build 0)  -->
<svg version="1.1" id="Capa_1" xmlns="http://www.w3.org/2000/svg" xmlns:xlink="http://www.w3.org/1999/xlink" x="0px" y="0px"
	 viewBox="0 0 210 210" style="enable-background:new 0 0 210 210;" xml:space="preserve">
<style type="text/css">
	.st0{opacity:0.33;fill:#7C7C7C;}
	.st1{fill:#FFFFFF;}
</style>
<g>
	<circle class="st0" cx="105" cy="105" r="100"/>
	<path class="st1" d="M94.1,113c0-6.1,0-12.2,0-18.3c0-0.9,0-1.8-0.1-2.7c-0.3-2.1-2-3.5-4.1-3.5c-2,0.1-3.5,1.6-3.7,3.6
		c-0.1,0.7-0.1,1.4-0.1,2.1c0,8.1,0,16.2,0,24.3c0,0.9-0.1,1.9-0.4,2.7c-0.7,1.7-2,2.4-3.8,2.3c-1.8-0.2-3.2-1.6-3.2-3.6
		c0-9.6-0.1-19.2,0.1-28.7c0.1-4,2.5-6.9,6-8.7c1.2-0.6,1.7-1.3,1.7-2.7c-0.1-11.8,0-23.5,0-35.2c0-0.2,0-0.4,0-0.6
		c-0.1-2.2-1.2-3.5-3-3.7c-1.8-0.2-3.2,0.9-3.6,3.1C78.4,51,77,58.7,75.6,66.4c-2.7,14.6-5.3,29.1-8,43.7
		c-1.2,6.4-4.7,11.3-10.4,14.5c-3.8,2.2-7.7,4.2-11.6,6.3c-2.5,1.3-4.5,0.9-5.6-1.1c-1.1-2-0.4-4.1,2-5.4c3.8-2.1,7.7-4.2,11.6-6.4
		c3.7-2.1,5.9-5.2,6.7-9.4c4-22.2,8.1-44.4,12.1-66.6c1-5.4,5-9.1,10.1-9.3c5.2-0.2,9.7,3,11,7.9c0.3,1.3,0.4,2.8,0.4,4.2
		c0,11.5,0,23.1,0,34.6c0,1.6,0.4,2.5,1.9,3.3c4,2.2,5.8,5.9,5.8,10.4c0,12.9,0,25.7,0,38.6c0,6.2-2.5,11.2-7.8,14.6
		c-2.3,1.5-4.5,3.1-6.7,4.6c-4.5,3.2-9.5,3.5-14.6,2.4c-3.3-0.7-6.3-0.1-9.2,1.5c-5.8,3.2-11.6,6.1-17.5,9c-1.2,0.6-3.1,0.5-4.3,0
		c-0.9-0.4-1.6-2.2-1.5-3.3c0.1-1.1,1.1-2.5,2.1-3c6.9-3.7,13.8-7.4,20.9-10.6c2.4-1.1,5.4-1,8.1-1.1c1.9-0.1,3.7,0.7,5.6,0.6
		c2-0.1,4.1-0.4,5.8-1.3c2.6-1.3,4.8-3.3,7.3-4.9c3.2-2.1,4.5-5,4.5-8.7C94,125.3,94,119.2,94.1,113L94.1,113z"/>
	<path class="st1" d="M109.5,112.7c0-6.4,0-12.9,0-19.3c0-4.9,1.9-8.7,6.3-11c1.3-0.7,1.4-1.6,1.4-2.7c0-11.7,0-23.5,0-35.2
		c0-3.1,0.7-6,2.9-8.3c3-3.1,6.7-4.2,10.9-3c4.3,1.2,6.8,4.3,7.6,8.6c1.4,7.8,2.8,15.5,4.2,23.3c2.7,14.6,5.3,29.3,8,43.9
		c0.7,4,3,7,6.6,9c3.8,2.1,7.6,4.1,11.4,6.3c1.1,0.6,2.2,1.7,2.5,2.8c0.3,1.1-0.3,2.6-1,3.5c-1,1.2-2.6,1.4-4,0.6
		c-4.8-2.6-9.7-5-14.3-8c-4.8-3.1-7.5-7.8-8.5-13.4c-4-21.9-7.9-43.7-11.9-65.6c-0.1-0.6-0.2-1.3-0.4-1.8c-0.6-1.6-1.8-2.5-3.6-2.3
		c-1.7,0.2-2.6,1.3-2.8,3c-0.1,0.6,0,1.1,0,1.7c0,11.5,0,23.1,0,34.6c0,1.5,0.4,2.3,1.8,3.1c3.6,1.9,5.8,4.9,5.9,9
		c0.2,9.4,0.1,18.9,0.1,28.3c0,2.1-1.7,3.6-3.6,3.7c-2,0-3.7-1.5-3.8-3.7c-0.1-2.2,0-4.3,0-6.5c0-6.9,0-13.7,0-20.6
		c0-3-2.4-4.8-5-4.1c-1.7,0.5-2.8,1.6-2.9,3.5c-0.1,1.8-0.1,3.6-0.1,5.4c0,11,0.1,22.1,0,33.1c0,4.3,1.4,7.6,5.1,9.8
		c2.3,1.4,4.4,3.3,6.8,4.5c1.8,0.9,4.2,1.7,6,1.2c6.9-1.7,13-0.5,19,3.1c4.8,2.9,9.9,5.1,14.9,7.7c2.6,1.3,3.4,3.4,2.3,5.4
		c-1.1,2-3.3,2.5-5.8,1.2c-6.1-3.1-12.2-6.2-18.3-9.4c-2.4-1.3-4.7-1.7-7.3-1.1c-6.7,1.6-12.7,0.4-18.1-4c-2.3-1.8-4.8-3.4-7-5.3
		c-3.8-3.3-5.1-7.7-5.1-12.6C109.5,125.2,109.5,119,109.5,112.7"/>
</g>
</svg>
