<?xml version="1.0" encoding="utf-8"?>
<!-- Generator: Adobe Illustrator 26.2.1, SVG Export Plug-In . SVG Version: 6.00 Build 0)  -->
<svg version="1.1" id="Capa_1" xmlns="http://www.w3.org/2000/svg" xmlns:xlink="http://www.w3.org/1999/xlink" x="0px" y="0px"
	 viewBox="0 0 40 25" style="enable-background:new 0 0 40 25;" xml:space="preserve">
<style type="text/css">
	.st0{fill:#FFFFFF;}
	.st1{fill:#FFED46;}
</style>
<g>
	<g>
		<rect x="11.3" y="8.1" class="st0" width="3.4" height="7.4"/>
		<polygon class="st0" points="26,9.8 26,9.8 23,5.1 16.8,5.1 16.8,15.4 20.2,15.4 20.2,6.3 20.2,6.3 26,15.4 29.4,15.4 29.4,8.1 
			26,8.1 		"/>
		<polygon class="st0" points="9.4,16.8 7.9,16.8 7.9,21.3 7.9,21.3 9,24.3 12.5,24.3 		"/>
		<path class="st0" d="M25.8,21.3H26l2.1-2.3c-1.3-1.6-3.1-2.5-5.7-2.5c-3.2,0-5.7,2-6.7,4.8h3.9c0.7-1.1,1.7-1.8,2.9-1.8
			C23.9,19.5,25,20,25.8,21.3z"/>
		<path class="st0" d="M38.7,5.1c0.5,0.5,0.8,1.2,0.9,1.9V5.1H38.7z"/>
		<path class="st0" d="M36.6,12.3c-0.3,0.1-0.7,0.1-1.1,0.1H35V8.1h-3.4v7.4h4.3c0.2,0,0.5,0,0.7-0.1c1.1-0.1,2.1-0.4,3-0.9V9.1
			C39.3,10.7,38.2,11.9,36.6,12.3z"/>
		<rect x="22.4" y="23.2" class="st0" width="6.8" height="1"/>
		<polygon class="st0" points="35.1,16.8 33.3,21.3 36.6,21.3 36.6,21.3 36.7,21.3 37.8,24.3 39.6,24.3 39.6,20.3 38.2,16.8 		"/>
	</g>
	<g>
		<path class="st1" d="M38.7,5.1H23l1.9,3h11.8v4.2c1.5-0.4,2.6-1.6,3-3.2V7C39.5,6.3,39.1,5.6,38.7,5.1z"/>
		<path class="st1" d="M7.9,21.3V8.2C7.9,8.2,7.9,8.1,8,8.1h8.8v-3H9.2c0-2.4-2-4.4-4.4-4.4c-2.4,0-4.4,2-4.4,4.4
			c0,2.4,2,4.4,4.4,4.4c0,0,0.1,0,0.1,0v14.8H9L7.9,21.3L7.9,21.3z"/>
		<path class="st1" d="M36.6,16.8h1.6l1.4,3.5v-5.8c-0.9,0.5-1.9,0.8-3,0.9V16.8z"/>
		<polygon class="st1" points="36.6,21.3 36.6,21.3 33.3,21.3 11.3,21.3 12.5,24.3 22.4,24.3 22.4,23.2 29.2,23.2 29.2,24.3 
			37.8,24.3 36.7,21.3 		"/>
		<polygon class="st1" points="20.2,6.3 20.2,6.3 20.2,8.1 21.3,8.1 		"/>
	</g>
</g>
</svg>
