<?xml version="1.0" encoding="utf-8"?>
<!-- Generator: Adobe Illustrator 26.2.1, SVG Export Plug-In . SVG Version: 6.00 Build 0)  -->
<svg version="1.1" id="Capa_1" xmlns="http://www.w3.org/2000/svg" xmlns:xlink="http://www.w3.org/1999/xlink" x="0px" y="0px"
	 viewBox="0 0 230 32" style="enable-background:new 0 0 230 32;" xml:space="preserve">
<style type="text/css">
	.st0{fill:#545454;}
	.st1{fill:#01000F;}
	.st2{fill:#09E1CD;}
	.st3{fill-rule:evenodd;clip-rule:evenodd;fill:#E91F2D;}
	.st4{fill-rule:evenodd;clip-rule:evenodd;fill:#A5AEB2;}
	.st5{fill:#E3122B;}
	.st6{fill:#FFFFFF;}
	.st7{fill:#231F20;}
	.st8{fill:#EE3742;}
	.st9{fill:#069548;}
	.st10{fill:#FCD600;}
	.st11{fill:#2A70B7;}
	.st12{fill:#1F3350;}
	.st13{fill:#62B44A;}
	.st14{fill:#DDA737;}
	.st15{fill:#C2212F;}
	.st16{fill:#4B9E46;}
	.st17{fill:#3F7F45;}
	.st18{fill:#F5C11C;}
	.st19{fill:#E8412E;}
	.st20{fill:#F59D2B;}
	.st21{fill:#2193D2;}
	.st22{fill:#A01E46;}
	.st23{fill:#2DBADF;}
	.st24{fill:#ED6C31;}
	.st25{fill:#E3273F;}
	.st26{fill:#DB1B69;}
	.st27{fill:#154B6D;}
	.st28{fill:#BB882D;}
	.st29{fill:#016C9C;}
	.st30{fill:#020203;}
	.st31{enable-background:new    ;}
	.st32{font-family:'HelveticaNeue-Bold';}
	.st33{font-size:4.6917px;}
</style>
<g>
	<path class="st0" d="M5.8,1.6h2.1v0.4H6.2V3h1.6v0.4H6.2v1.2H8v0.4H5.8V1.6z"/>
	<path class="st0" d="M9,5.4c0,0.1,0,0.1,0,0.2c0,0.1,0,0.1-0.1,0.2c0,0.1-0.1,0.1-0.2,0.2S8.4,6.1,8.3,6.1c0,0-0.1,0-0.1,0
		c0,0-0.1,0-0.1,0l0-0.3c0.1,0,0.1,0,0.2,0c0.1,0,0.1,0,0.2,0c0,0,0.1-0.1,0.1-0.1c0,0,0-0.1,0-0.1s0-0.1,0-0.2V2.7H9V5.4z M8.5,1.8
		c0-0.1,0-0.1,0.1-0.2c0.1-0.1,0.1-0.1,0.2-0.1c0.1,0,0.1,0,0.2,0.1C9,1.7,9,1.8,9,1.8C9,1.9,9,2,9,2C8.9,2.1,8.8,2.1,8.8,2.1
		c-0.1,0-0.1,0-0.2-0.1C8.5,2,8.5,1.9,8.5,1.8z"/>
	<path class="st0" d="M11.7,4.5c-0.1,0.2-0.3,0.3-0.4,0.4C11.1,4.9,10.9,5,10.7,5c-0.2,0-0.3,0-0.5-0.1S10,4.7,9.9,4.6
		C9.8,4.5,9.7,4.4,9.6,4.3C9.6,4.1,9.6,4,9.6,3.8c0-0.2,0-0.3,0.1-0.5C9.7,3.2,9.8,3.1,9.9,3c0.1-0.1,0.2-0.2,0.4-0.2
		c0.1-0.1,0.3-0.1,0.5-0.1c0.2,0,0.3,0,0.4,0.1c0.1,0.1,0.2,0.1,0.3,0.2c0.1,0.1,0.2,0.2,0.2,0.4c0.1,0.1,0.1,0.3,0.1,0.5v0.1H10
		C10,4,10,4.1,10,4.2s0.1,0.2,0.2,0.2c0.1,0.1,0.1,0.1,0.2,0.2c0.1,0,0.2,0.1,0.3,0.1c0.2,0,0.3,0,0.4-0.1c0.1-0.1,0.2-0.1,0.3-0.3
		L11.7,4.5z M11.3,3.6c0-0.2-0.1-0.3-0.2-0.5C11,3,10.9,3,10.7,3c-0.2,0-0.4,0.1-0.5,0.2C10.1,3.3,10,3.4,10,3.6H11.3z"/>
	<path class="st0" d="M13.9,3.3c-0.1-0.1-0.2-0.2-0.3-0.2C13.6,3,13.4,3,13.3,3c-0.1,0-0.2,0-0.3,0.1s-0.2,0.1-0.2,0.2
		c-0.1,0.1-0.1,0.2-0.1,0.3s0,0.2,0,0.3c0,0.1,0,0.2,0.1,0.3c0,0.1,0.1,0.2,0.2,0.3c0.1,0.1,0.1,0.1,0.2,0.2c0.1,0,0.2,0.1,0.3,0.1
		c0.2,0,0.4-0.1,0.6-0.3l0.3,0.3c-0.1,0.1-0.2,0.2-0.4,0.3C13.7,4.9,13.5,5,13.3,5c-0.2,0-0.3,0-0.5-0.1s-0.3-0.1-0.4-0.2
		c-0.1-0.1-0.2-0.2-0.2-0.4S12.2,4,12.2,3.8c0-0.2,0-0.3,0.1-0.5c0.1-0.1,0.1-0.3,0.2-0.4c0.1-0.1,0.2-0.2,0.4-0.2
		c0.1-0.1,0.3-0.1,0.5-0.1c0.2,0,0.3,0,0.5,0.1C14,2.8,14.1,2.9,14.2,3L13.9,3.3z"/>
	<path class="st0" d="M16.5,4.4c0,0.1,0,0.2,0,0.3c0,0.1,0,0.2,0,0.2h-0.4c0-0.1,0-0.1,0-0.2c0-0.1,0-0.1,0-0.2h0
		c0,0.1-0.1,0.1-0.1,0.2c0,0-0.1,0.1-0.2,0.1c-0.1,0-0.1,0.1-0.2,0.1c-0.1,0-0.2,0-0.3,0c-0.1,0-0.3,0-0.4-0.1
		c-0.1,0-0.2-0.1-0.3-0.2c-0.1-0.1-0.1-0.2-0.2-0.3c0-0.1,0-0.2,0-0.4V2.7H15V4c0,0.2,0,0.3,0.1,0.4s0.2,0.2,0.4,0.2
		c0.1,0,0.2,0,0.3-0.1s0.2-0.1,0.2-0.2c0.1-0.1,0.1-0.2,0.1-0.3c0-0.1,0-0.2,0-0.3V2.7h0.4V4.4z"/>
	<path class="st0" d="M18.5,3h-0.7v1.1c0,0.1,0,0.1,0,0.2c0,0.1,0,0.1,0,0.2c0,0,0.1,0.1,0.1,0.1c0,0,0.1,0,0.2,0c0.1,0,0.1,0,0.2,0
		c0.1,0,0.1,0,0.2-0.1l0,0.3c-0.1,0-0.1,0-0.2,0.1c-0.1,0-0.2,0-0.2,0c-0.1,0-0.2,0-0.3-0.1c-0.1,0-0.1-0.1-0.2-0.1
		c0-0.1-0.1-0.1-0.1-0.2c0-0.1,0-0.2,0-0.3V3h-0.5V2.7h0.5V2.1h0.4v0.6h0.7V3z"/>
	<path class="st0" d="M18.9,3c0.1-0.1,0.2-0.2,0.4-0.3c0.2-0.1,0.3-0.1,0.5-0.1c0.3,0,0.6,0.1,0.7,0.2c0.1,0.2,0.2,0.4,0.2,0.7v1
		c0,0.1,0,0.1,0,0.2c0,0.1,0,0.1,0,0.2h-0.4c0-0.1,0-0.1,0-0.2c0-0.1,0-0.1,0-0.2h0c-0.1,0.1-0.2,0.2-0.3,0.3
		C19.9,4.9,19.8,5,19.6,5c-0.1,0-0.2,0-0.3,0c-0.1,0-0.2-0.1-0.3-0.1s-0.1-0.1-0.2-0.2c0-0.1-0.1-0.2-0.1-0.3c0-0.2,0-0.3,0.1-0.4
		c0.1-0.1,0.2-0.2,0.4-0.2c0.1-0.1,0.3-0.1,0.5-0.1c0.2,0,0.3,0,0.4,0h0.1V3.5c0-0.2,0-0.3-0.1-0.4S19.9,3,19.8,3
		c-0.1,0-0.2,0-0.4,0.1c-0.1,0-0.2,0.1-0.3,0.2L18.9,3z M19.9,3.9c-0.2,0-0.4,0-0.6,0.1c-0.1,0.1-0.2,0.2-0.2,0.3
		c0,0.1,0,0.2,0.1,0.3c0.1,0.1,0.2,0.1,0.3,0.1c0.1,0,0.2,0,0.3-0.1c0.1,0,0.1-0.1,0.2-0.1c0.1-0.1,0.1-0.1,0.1-0.2
		c0-0.1,0-0.2,0-0.3V3.9H19.9z"/>
	<path class="st0" d="M21.4,3.2c0-0.1,0-0.2,0-0.3c0-0.1,0-0.2,0-0.2h0.4c0,0.1,0,0.1,0,0.2c0,0.1,0,0.1,0,0.2h0
		c0-0.1,0.1-0.1,0.1-0.2s0.1-0.1,0.2-0.1c0.1,0,0.1-0.1,0.2-0.1c0.1,0,0.2,0,0.3,0c0.1,0,0.3,0,0.4,0.1c0.1,0,0.2,0.1,0.3,0.2
		s0.1,0.2,0.2,0.3s0,0.2,0,0.4v1.4h-0.4V3.6c0-0.2,0-0.3-0.1-0.4S22.6,3,22.4,3c-0.1,0-0.2,0-0.3,0.1S22,3.1,21.9,3.2
		c-0.1,0.1-0.1,0.2-0.1,0.3c0,0.1,0,0.2,0,0.3v1.1h-0.4V3.2z"/>
	<path class="st0" d="M24.3,2.6c0.1,0,0.1,0,0.2,0.1c0.1,0.1,0.1,0.1,0.1,0.2s0,0.1-0.1,0.2c-0.1,0.1-0.1,0.1-0.2,0.1
		c-0.1,0-0.1,0-0.2-0.1C24.1,3.1,24,3,24,2.9s0-0.1,0.1-0.2C24.2,2.7,24.2,2.6,24.3,2.6z M24.3,4.4c0.1,0,0.1,0,0.2,0.1
		c0.1,0.1,0.1,0.1,0.1,0.2s0,0.1-0.1,0.2c-0.1,0.1-0.1,0.1-0.2,0.1c-0.1,0-0.1,0-0.2-0.1C24.1,4.8,24,4.7,24,4.7s0-0.1,0.1-0.2
		C24.2,4.4,24.2,4.4,24.3,4.4z"/>
</g>
<g>
	<circle class="st1" cx="11.5" cy="20.2" r="7.5"/>
	<path class="st2" d="M6.6,20.5L7,19.7h1.4c0,0,0.4-2.5,3.5-2.5c0,0,1.1,0,2.1,0.7c0.5,0.4,0.9,0.9,1,1.5c0.1,0.3,0,0.4,0,0.6
		c0,0.1-0.1,0.2-0.2,0.3c-0.1,0.1-0.2,0.1-0.5,0.1l-4.4-0.1c0,0,0.1,1.7,1.8,2c0,0,1.4,0.4,3.1-0.4l0.3,0.7c0,0-1.7,0.8-3.6,0.6
		c0,0-2.8-0.1-3.1-2.6l0-0.3L6.6,20.5z"/>
	<path class="st1" d="M9.9,19.6c0,0,0.3-1.8,1.9-1.7c0,0,1.4-0.1,1.8,1.2c0,0,0.1,0.4-0.4,0.5H9.9z"/>
</g>
<g>
	<path d="M32.3,26.1c-3.4,0-6.2-2.8-6.2-6.2c0-3.4,2.8-6.2,6.2-6.2c3.4,0,6.2,2.8,6.1,6.3C38.4,23.4,35.7,26.1,32.3,26.1z
		 M32.3,25.3c3,0,5.3-2.4,5.4-5.3c0-3-2.3-5.4-5.3-5.5c-3,0-5.4,2.4-5.4,5.4C26.9,22.9,29.3,25.3,32.3,25.3z"/>
	<path d="M26.1,28.2c0-0.3,0-0.5,0-0.8c4.1,0,8.2,0,12.3,0c0,0.3,0,0.5,0,0.8C38.4,28.2,26.3,28.2,26.1,28.2z"/>
	<path d="M34.4,12.7c-0.2,0-0.3,0-0.4,0c0-0.5,0-1.1,0-1.6c0.1,0,0.1,0,0.2,0c0.1,0,0.1,0,0.2,0c0,0.1,0,0.1,0,0.2c0,0,0,0,0.1,0
		c0.2-0.2,0.5-0.2,0.7-0.2c0.1,0,0.2,0.1,0.2,0.2c0,0,0,0,0.1-0.1c0.2-0.2,0.5-0.3,0.8-0.1c0.2,0.1,0.2,0.2,0.2,0.4c0,0,0,0.1,0,0.1
		c0,0.3,0,0.6,0,1c0,0,0,0.1,0,0.1c-0.2,0-0.3,0-0.4,0c0,0,0-0.1,0-0.1c0-0.3,0-0.6,0-0.9c0-0.1,0-0.1,0-0.2c0-0.1-0.1-0.2-0.2-0.2
		c-0.2,0-0.3,0.1-0.4,0.3c0,0.1,0,0.1,0,0.2c0,0.3,0,0.5,0,0.8c0,0,0,0.1,0,0.1c-0.2,0-0.3,0-0.4,0c0,0,0-0.1,0-0.1
		c0-0.3,0-0.6,0-0.9c0,0,0,0,0-0.1c0-0.2-0.1-0.2-0.3-0.2c-0.2,0-0.3,0.1-0.3,0.3c0,0,0,0.1,0,0.1C34.4,12.1,34.4,12.3,34.4,12.7
		C34.4,12.6,34.4,12.6,34.4,12.7z"/>
	<path d="M26.2,12c0.2,0,0.3,0,0.5,0c0,0,0,0,0,0.1c0,0.1,0.1,0.2,0.2,0.3c0.2,0.1,0.4,0.1,0.6,0c0.1,0,0.2-0.1,0.2-0.2
		c0-0.1,0-0.1-0.1-0.2c-0.1,0-0.1-0.1-0.2-0.1c-0.1,0-0.3-0.1-0.4-0.1c-0.1,0-0.2-0.1-0.3-0.1c-0.5-0.2-0.4-0.8-0.1-1
		c0.1-0.1,0.3-0.1,0.4-0.2c0.2,0,0.4,0,0.5,0.1c0.2,0,0.3,0.1,0.4,0.3C28,10.8,28,11,28,11.1c-0.2,0-0.3,0-0.5,0c0,0,0,0,0-0.1
		c0-0.1-0.1-0.2-0.2-0.2c-0.1,0-0.3-0.1-0.4,0c-0.1,0-0.2,0.1-0.2,0.2c0,0.1,0,0.1,0.1,0.2c0.1,0,0.1,0.1,0.2,0.1
		c0.2,0,0.3,0.1,0.5,0.1c0.1,0,0.2,0.1,0.2,0.1c0.3,0.2,0.4,0.7,0.1,1c-0.1,0.1-0.3,0.2-0.5,0.2c-0.2,0-0.5,0-0.7,0
		c-0.2-0.1-0.3-0.1-0.4-0.3C26.2,12.3,26.2,12.1,26.2,12z"/>
	<path d="M37.2,11.6c-0.1,0-0.3,0-0.4,0c0-0.1,0-0.2,0.1-0.3c0.1-0.1,0.2-0.2,0.3-0.2c0.2-0.1,0.4-0.1,0.5,0c0.1,0,0.2,0,0.3,0.1
		c0.2,0.1,0.3,0.2,0.3,0.4c0,0.2,0,0.4,0,0.7c0,0.2,0,0.3,0,0.5c-0.1,0-0.3,0-0.4,0c0,0,0-0.1,0-0.1c-0.1,0.1-0.2,0.1-0.3,0.2
		c-0.1,0-0.3,0-0.4,0c-0.3-0.1-0.4-0.4-0.3-0.7c0.1-0.1,0.2-0.2,0.3-0.2c0.1,0,0.3,0,0.4-0.1c0.1,0,0.2,0,0.2,0
		c0.1,0,0.1-0.1,0.1-0.2c0-0.1-0.1-0.2-0.1-0.2c-0.1,0-0.1,0-0.2,0C37.3,11.3,37.2,11.4,37.2,11.6C37.2,11.5,37.2,11.6,37.2,11.6z
		 M37.8,11.9c-0.1,0-0.2,0-0.3,0.1c-0.1,0-0.1,0-0.2,0.1c-0.1,0-0.1,0.1-0.1,0.2c0,0.1,0.1,0.1,0.2,0.1c0.1,0,0.1,0,0.2,0
		c0.2,0,0.3-0.1,0.3-0.3C37.8,12.1,37.8,12,37.8,11.9z"/>
	<path d="M33.6,12c-0.2,0-0.4,0-0.6,0c-0.2,0-0.4,0-0.6,0c0,0.2,0.1,0.4,0.3,0.4c0.2,0,0.3,0,0.4-0.2c0.1,0,0.2,0,0.4,0
		c0,0,0,0,0,0.1c-0.1,0.3-0.3,0.4-0.6,0.5c-0.1,0-0.2,0-0.4,0c-0.3-0.1-0.4-0.2-0.5-0.5C32,12,32,11.8,32,11.6
		c0.1-0.4,0.5-0.6,0.9-0.6c0.3,0,0.6,0.3,0.6,0.6C33.6,11.8,33.6,11.9,33.6,12z M32.5,11.7c0.2,0,0.5,0,0.7,0c0-0.2-0.1-0.3-0.3-0.3
		C32.6,11.4,32.5,11.5,32.5,11.7z"/>
	<path d="M30.6,11.5c-0.1,0-0.3,0-0.4,0c0,0,0,0,0-0.1c0-0.1-0.1-0.1-0.1-0.1c-0.1,0-0.2,0-0.3,0c-0.1,0-0.1,0-0.1,0.1
		c0,0.1,0,0.1,0.1,0.1c0.1,0,0.1,0,0.2,0.1c0.1,0,0.2,0.1,0.4,0.1c0,0,0,0,0.1,0c0.2,0.1,0.3,0.1,0.3,0.3c0,0.2,0,0.4-0.2,0.5
		c-0.1,0-0.1,0.1-0.2,0.1c-0.2,0.1-0.5,0.1-0.7,0c-0.2-0.1-0.3-0.2-0.4-0.4c0,0,0-0.1,0-0.1c0.1,0,0.3,0,0.4,0
		c0,0.1,0.1,0.2,0.2,0.2c0.1,0,0.2,0,0.4,0c0,0,0,0,0,0c0.1-0.1,0.1-0.2,0-0.3c-0.1,0-0.2-0.1-0.3-0.1c-0.1,0-0.2,0-0.3-0.1
		c0,0-0.1,0-0.1,0c-0.1-0.1-0.3-0.1-0.3-0.3c0-0.2,0-0.4,0.2-0.5c0.1-0.1,0.2-0.1,0.3-0.1c0.2,0,0.3,0,0.5,0
		C30.4,11.1,30.6,11.3,30.6,11.5z"/>
	<path d="M30.8,11.4c0-0.1,0-0.2,0-0.3c0.1,0,0.2,0,0.3,0c0-0.2,0-0.3,0-0.5c0.2,0,0.3,0,0.4,0c0,0.2,0,0.3,0,0.5c0.1,0,0.2,0,0.3,0
		c0,0.1,0,0.2,0,0.3c-0.1,0-0.2,0-0.3,0c0,0,0,0.1,0,0.1c0,0.2,0,0.5,0,0.7c0,0,0,0,0,0c0,0.1,0,0.1,0.1,0.2c0.1,0,0.1,0,0.2,0
		c0,0.1,0,0.2,0,0.3c0,0,0,0,0,0c-0.1,0-0.3,0-0.4,0c-0.2,0-0.3-0.1-0.3-0.3c0-0.3,0-0.6,0-0.9c0,0,0-0.1,0-0.1
		C31,11.4,30.9,11.4,30.8,11.4z"/>
	<path d="M27.6,30c0,0.3-0.2,0.6-0.6,0.6c-0.1,0-0.2,0-0.3,0c-0.2-0.1-0.4-0.2-0.4-0.4c-0.1-0.3-0.1-0.5,0-0.8
		c0.1-0.2,0.3-0.4,0.6-0.4c0.1,0,0.3,0,0.4,0.1c0.2,0.1,0.3,0.2,0.3,0.5c-0.1,0-0.2,0-0.3,0c0,0,0,0,0,0c-0.1-0.1-0.2-0.2-0.3-0.2
		c-0.2,0-0.3,0.1-0.4,0.2c-0.1,0.2-0.1,0.4,0,0.6c0.1,0.2,0.2,0.2,0.4,0.2c0.1,0,0.2-0.1,0.2-0.2c0,0,0-0.1,0-0.1c0,0,0.1,0,0.1,0
		C27.5,30,27.5,30,27.6,30z"/>
	<path d="M28.8,30.5c-0.1,0-0.2,0-0.3,0c0,0,0,0,0-0.1c0-0.2,0-0.4,0-0.5c0,0,0-0.1,0-0.1c0-0.1-0.1-0.1-0.1-0.1
		c-0.1,0-0.2,0-0.2,0.1c0,0.1,0,0.1,0,0.2c0,0.2,0,0.3,0,0.5c0,0,0,0,0,0.1c-0.1,0-0.2,0-0.3,0c0-0.1,0-1.3,0-1.5c0.1,0,0.2,0,0.3,0
		c0,0.2,0,0.4,0,0.5c0,0,0,0,0,0c0.1-0.1,0.3-0.2,0.5-0.1c0.1,0,0.2,0.1,0.2,0.2c0,0.1,0,0.1,0,0.2C28.8,30.1,28.8,30.3,28.8,30.5
		C28.8,30.5,28.8,30.5,28.8,30.5z"/>
	<path d="M30.4,30.1c0,0.1,0,0.2,0.1,0.2c0.1,0,0.3,0,0.3-0.1c0,0,0.1-0.1,0.1-0.1c0.1,0,0.1,0,0.2,0c0,0.1-0.1,0.2-0.2,0.3
		c-0.2,0.1-0.4,0.1-0.6,0c-0.2-0.1-0.2-0.3-0.2-0.5c0-0.2,0.1-0.4,0.3-0.5c0.3-0.2,0.7,0,0.8,0.4c0,0,0,0.1,0,0.1c0,0,0,0,0,0.1
		c-0.1,0-0.3,0-0.4,0C30.6,30.1,30.5,30.1,30.4,30.1z M30.8,29.9c0-0.2-0.1-0.2-0.2-0.2c-0.1,0-0.2,0.1-0.2,0.2
		C30.5,29.9,30.7,29.9,30.8,29.9z"/>
	<path d="M28.4,11.1c0.1,0,0.3,0,0.4,0c0,0.5,0,1.1,0,1.6c-0.1,0-0.3,0-0.4,0C28.4,12.2,28.4,11.6,28.4,11.1z"/>
	<path d="M29.6,29.1c0.1,0,0.2,0,0.3,0c0,0.5,0,1,0,1.5c-0.1,0-0.2,0-0.3,0C29.6,30.1,29.6,29.6,29.6,29.1z"/>
	<path d="M29,29.5c0.1,0,0.2,0,0.3,0c0,0.4,0,0.7,0,1.1c-0.1,0-0.2,0-0.3,0C29,30.2,29,29.8,29,29.5z"/>
	<path d="M28.8,10.8c-0.1,0-0.3,0-0.4,0c0-0.1,0-0.2,0-0.4c0.1,0,0.3,0,0.4,0C28.8,10.6,28.8,10.7,28.8,10.8z"/>
	<path d="M38.1,26.2c0.2,0,0.4,0.2,0.4,0.4c0,0.2-0.2,0.4-0.4,0.4c-0.2,0-0.4-0.2-0.4-0.4C37.7,26.3,37.9,26.1,38.1,26.2z
		 M38.1,26.8c0.2,0,0.3-0.1,0.3-0.3c0-0.2-0.1-0.3-0.3-0.3c-0.2,0-0.3,0.1-0.3,0.3C37.8,26.7,37.9,26.8,38.1,26.8z"/>
	<path d="M29.3,29.3c-0.1,0-0.2,0-0.3,0c0-0.1,0-0.2,0-0.2c0.1,0,0.2,0,0.3,0C29.3,29.1,29.3,29.2,29.3,29.3z"/>
	<path d="M29.7,23.4c0-2.4,0-4.7,0-7.1c0,0,0.1,0,0.1,0c0.9,0,1.8,0,2.7,0c0.3,0,0.6,0,0.9,0c0.2,0,0.3,0,0.5,0.1
		c0.4,0.1,0.7,0.4,0.9,0.8c0.3,0.6,0.2,1.4-0.1,1.9c-0.2,0.2-0.4,0.4-0.6,0.5c0,0-0.1,0-0.1,0c0,0,0.1,0,0.1,0
		c0.1,0,0.3,0.1,0.4,0.2c0.4,0.2,0.7,0.6,0.8,1c0.1,0.5,0.1,1-0.2,1.5c-0.3,0.5-0.7,0.9-1.3,1c-0.2,0-0.4,0.1-0.6,0.1
		C32,23.4,30.9,23.4,29.7,23.4C29.8,23.4,29.7,23.4,29.7,23.4z M30.6,22.6C30.7,22.6,30.7,22.6,30.6,22.6c0.8,0,1.6,0,2.4,0
		c0.1,0,0.2,0,0.4,0c0.4-0.1,0.8-0.3,0.9-0.8c0.1-0.2,0.1-0.4,0.1-0.6c0-0.4-0.2-0.7-0.6-0.8c0,0-0.1,0-0.1-0.1
		c-0.3-0.1-0.5-0.1-0.8-0.1c-0.7,0-1.4,0-2.1,0c0,0-0.1,0-0.1,0C30.6,21,30.6,21.8,30.6,22.6z M30.6,19.4c0,0,0.1,0,0.1,0
		c0.6,0,1.1,0,1.7,0c0.2,0,0.3,0,0.5,0c0.2,0,0.4-0.1,0.5-0.1c0.3-0.1,0.4-0.3,0.5-0.6c0-0.2,0-0.5,0-0.7c-0.1-0.3-0.3-0.5-0.5-0.6
		c0,0-0.1,0-0.1,0c-0.2-0.1-0.4-0.1-0.6-0.1c-0.7,0-1.3,0-2,0c0,0,0,0-0.1,0C30.6,17.9,30.6,18.7,30.6,19.4z"/>
	<path d="M37.9,26.3c0.1,0,0.1,0,0.2,0c0.1,0,0.1,0,0.1,0.1c0,0.1,0,0.1-0.1,0.1c0,0,0,0,0,0c0,0.1,0.1,0.1,0.1,0.2c0,0-0.1,0-0.1,0
		c0,0-0.1-0.1-0.1-0.1c0,0,0,0-0.1,0c0,0.1,0,0.1,0,0.2c0,0-0.1,0-0.1,0C37.9,26.6,37.9,26.4,37.9,26.3z M38,26.5c0,0,0.1,0,0.1,0
		c0,0,0.1,0,0.1-0.1c0,0,0-0.1-0.1-0.1c0,0-0.1,0-0.1,0C38,26.4,38,26.4,38,26.5z"/>
</g>
<g>
	<path class="st0" d="M51.5,2.3c-0.1-0.1-0.2-0.2-0.4-0.3C51,2,50.9,1.9,50.7,1.9c-0.2,0-0.4,0-0.5,0.1c-0.2,0.1-0.3,0.2-0.4,0.3
		c-0.1,0.1-0.2,0.3-0.3,0.4c-0.1,0.2-0.1,0.3-0.1,0.5c0,0.2,0,0.4,0.1,0.5c0.1,0.2,0.2,0.3,0.3,0.4s0.2,0.2,0.4,0.3
		c0.2,0.1,0.3,0.1,0.5,0.1c0.2,0,0.4,0,0.5-0.1c0.2-0.1,0.3-0.2,0.4-0.3L52,4.5c-0.2,0.2-0.3,0.4-0.5,0.4C51.2,5,51,5.1,50.7,5.1
		c-0.2,0-0.5,0-0.7-0.1c-0.2-0.1-0.4-0.2-0.5-0.4c-0.2-0.2-0.3-0.3-0.4-0.6S49,3.6,49,3.3c0-0.2,0-0.5,0.1-0.7
		c0.1-0.2,0.2-0.4,0.4-0.6c0.2-0.2,0.3-0.3,0.5-0.4c0.2-0.1,0.4-0.1,0.7-0.1c0.2,0,0.4,0,0.7,0.1s0.4,0.2,0.5,0.4L51.5,2.3z"/>
	<path class="st0" d="M52.3,3.9c0-0.2,0-0.3,0.1-0.5c0.1-0.1,0.1-0.3,0.2-0.4c0.1-0.1,0.2-0.2,0.4-0.2c0.1-0.1,0.3-0.1,0.5-0.1
		s0.3,0,0.5,0.1c0.1,0.1,0.3,0.1,0.4,0.2c0.1,0.1,0.2,0.2,0.2,0.4c0.1,0.1,0.1,0.3,0.1,0.5s0,0.3-0.1,0.5c-0.1,0.1-0.1,0.3-0.2,0.4
		C54.3,4.8,54.1,4.9,54,5S53.7,5,53.5,5S53.2,5,53,5s-0.3-0.1-0.4-0.2c-0.1-0.1-0.2-0.2-0.2-0.4C52.4,4.2,52.3,4.1,52.3,3.9z
		 M52.7,3.9c0,0.1,0,0.2,0.1,0.3c0,0.1,0.1,0.2,0.2,0.3s0.2,0.1,0.2,0.2c0.1,0,0.2,0.1,0.3,0.1s0.2,0,0.3-0.1c0.1,0,0.2-0.1,0.2-0.2
		s0.1-0.2,0.2-0.3c0-0.1,0.1-0.2,0.1-0.3c0-0.1,0-0.2-0.1-0.3c0-0.1-0.1-0.2-0.2-0.3s-0.2-0.1-0.2-0.2c-0.1,0-0.2-0.1-0.3-0.1
		s-0.2,0-0.3,0.1c-0.1,0-0.2,0.1-0.2,0.2s-0.1,0.2-0.2,0.3C52.8,3.7,52.7,3.8,52.7,3.9z"/>
	<path class="st0" d="M55.3,1.4h0.4V5h-0.4V1.4z"/>
	<path class="st0" d="M56.4,3.1c0.1-0.1,0.2-0.2,0.4-0.3s0.3-0.1,0.5-0.1c0.3,0,0.6,0.1,0.7,0.2c0.1,0.2,0.2,0.4,0.2,0.7v1
		c0,0.1,0,0.1,0,0.2c0,0.1,0,0.1,0,0.2h-0.4c0-0.1,0-0.1,0-0.2c0-0.1,0-0.1,0-0.2h0c-0.1,0.1-0.2,0.2-0.3,0.3C57.4,5,57.3,5,57.1,5
		c-0.1,0-0.2,0-0.3,0c-0.1,0-0.2-0.1-0.3-0.1s-0.1-0.1-0.2-0.2s-0.1-0.2-0.1-0.3c0-0.2,0-0.3,0.1-0.4c0.1-0.1,0.2-0.2,0.4-0.2
		c0.1-0.1,0.3-0.1,0.5-0.1c0.2,0,0.3,0,0.4,0h0.1V3.5c0-0.2,0-0.3-0.1-0.4s-0.2-0.1-0.4-0.1c-0.1,0-0.2,0-0.4,0.1
		c-0.1,0-0.2,0.1-0.3,0.2L56.4,3.1z M57.5,3.9c-0.2,0-0.4,0-0.6,0.1s-0.2,0.2-0.2,0.3c0,0.1,0,0.2,0.1,0.3c0.1,0.1,0.2,0.1,0.3,0.1
		c0.1,0,0.2,0,0.3-0.1c0.1,0,0.1-0.1,0.2-0.1c0.1-0.1,0.1-0.1,0.1-0.2c0-0.1,0-0.2,0-0.3V3.9H57.5z"/>
	<path class="st0" d="M58.9,1.4h0.4v1.7h0c0.1-0.1,0.2-0.2,0.4-0.3c0.1-0.1,0.3-0.1,0.4-0.1c0.2,0,0.3,0,0.5,0.1
		c0.1,0.1,0.3,0.1,0.4,0.2c0.1,0.1,0.2,0.2,0.2,0.4c0.1,0.1,0.1,0.3,0.1,0.5c0,0.2,0,0.3-0.1,0.5c-0.1,0.1-0.1,0.3-0.2,0.4
		c-0.1,0.1-0.2,0.2-0.4,0.2C60.4,5,60.2,5,60.1,5c-0.2,0-0.4,0-0.5-0.1s-0.3-0.2-0.3-0.3h0V5h-0.4V1.4z M59.2,3.9
		c0,0.1,0,0.2,0.1,0.3s0.1,0.2,0.2,0.3c0.1,0.1,0.2,0.1,0.2,0.2c0.1,0,0.2,0.1,0.3,0.1c0.1,0,0.2,0,0.3-0.1c0.1,0,0.2-0.1,0.2-0.2
		c0.1-0.1,0.1-0.2,0.2-0.3s0.1-0.2,0.1-0.3c0-0.1,0-0.2-0.1-0.3s-0.1-0.2-0.2-0.3c-0.1-0.1-0.2-0.1-0.2-0.2c-0.1,0-0.2-0.1-0.3-0.1
		c-0.1,0-0.2,0-0.3,0.1s-0.2,0.1-0.2,0.2c-0.1,0.1-0.1,0.2-0.2,0.3S59.2,3.8,59.2,3.9z"/>
	<path class="st0" d="M61.6,3.9c0-0.2,0-0.3,0.1-0.5C61.8,3.3,61.9,3.1,62,3c0.1-0.1,0.2-0.2,0.4-0.2c0.1-0.1,0.3-0.1,0.5-0.1
		s0.3,0,0.5,0.1c0.1,0.1,0.3,0.1,0.4,0.2c0.1,0.1,0.2,0.2,0.2,0.4C64,3.6,64,3.7,64,3.9s0,0.3-0.1,0.5c-0.1,0.1-0.1,0.3-0.2,0.4
		c-0.1,0.1-0.2,0.2-0.4,0.2S63,5,62.8,5S62.5,5,62.4,5S62.1,4.8,62,4.7c-0.1-0.1-0.2-0.2-0.2-0.4C61.7,4.2,61.6,4.1,61.6,3.9z
		 M62,3.9c0,0.1,0,0.2,0.1,0.3c0,0.1,0.1,0.2,0.2,0.3s0.2,0.1,0.2,0.2c0.1,0,0.2,0.1,0.3,0.1s0.2,0,0.3-0.1c0.1,0,0.2-0.1,0.2-0.2
		s0.1-0.2,0.2-0.3c0-0.1,0.1-0.2,0.1-0.3c0-0.1,0-0.2-0.1-0.3c0-0.1-0.1-0.2-0.2-0.3s-0.2-0.1-0.2-0.2c-0.1,0-0.2-0.1-0.3-0.1
		s-0.2,0-0.3,0.1c-0.1,0-0.2,0.1-0.2,0.2s-0.1,0.2-0.2,0.3C62.1,3.7,62,3.8,62,3.9z"/>
	<path class="st0" d="M64.6,3.3c0-0.1,0-0.2,0-0.3c0-0.1,0-0.2,0-0.2h0.4c0,0.1,0,0.1,0,0.2c0,0.1,0,0.1,0,0.2h0C65,3.1,65,3,65,3
		s0.1-0.1,0.2-0.1c0.1,0,0.1-0.1,0.2-0.1c0.1,0,0.2,0,0.3,0c0,0,0.1,0,0.1,0c0,0,0,0,0.1,0l0,0.4c-0.1,0-0.1,0-0.2,0
		c-0.2,0-0.4,0.1-0.5,0.2C65,3.5,65,3.7,65,3.9V5h-0.4V3.3z"/>
	<path class="st0" d="M66.2,3.1c0.1-0.1,0.2-0.2,0.4-0.3s0.3-0.1,0.5-0.1c0.3,0,0.6,0.1,0.7,0.2C68,3.1,68,3.3,68,3.7v1
		c0,0.1,0,0.1,0,0.2c0,0.1,0,0.1,0,0.2h-0.4c0-0.1,0-0.1,0-0.2c0-0.1,0-0.1,0-0.2h0c-0.1,0.1-0.2,0.2-0.3,0.3C67.3,5,67.1,5,67,5
		c-0.1,0-0.2,0-0.3,0c-0.1,0-0.2-0.1-0.3-0.1s-0.1-0.1-0.2-0.2s-0.1-0.2-0.1-0.3c0-0.2,0-0.3,0.1-0.4c0.1-0.1,0.2-0.2,0.4-0.2
		c0.1-0.1,0.3-0.1,0.5-0.1c0.2,0,0.3,0,0.4,0h0.1V3.5c0-0.2,0-0.3-0.1-0.4s-0.2-0.1-0.4-0.1c-0.1,0-0.2,0-0.4,0.1
		c-0.1,0-0.2,0.1-0.3,0.2L66.2,3.1z M67.3,3.9c-0.2,0-0.4,0-0.6,0.1s-0.2,0.2-0.2,0.3c0,0.1,0,0.2,0.1,0.3c0.1,0.1,0.2,0.1,0.3,0.1
		c0.1,0,0.2,0,0.3-0.1c0.1,0,0.1-0.1,0.2-0.1c0.1-0.1,0.1-0.1,0.1-0.2c0-0.1,0-0.2,0-0.3V3.9H67.3z"/>
	<path class="st0" d="M68.7,3.3c0-0.1,0-0.2,0-0.3c0-0.1,0-0.2,0-0.2H69c0,0.1,0,0.1,0,0.2c0,0.1,0,0.1,0,0.2h0
		c0-0.1,0.1-0.1,0.1-0.2s0.1-0.1,0.2-0.1c0.1,0,0.1-0.1,0.2-0.1c0.1,0,0.2,0,0.3,0c0.1,0,0.3,0,0.4,0.1c0.1,0,0.2,0.1,0.3,0.2
		s0.1,0.2,0.2,0.3s0,0.2,0,0.4V5h-0.4V3.7c0-0.2,0-0.3-0.1-0.4s-0.2-0.2-0.4-0.2c-0.1,0-0.2,0-0.3,0.1s-0.2,0.1-0.2,0.2
		c-0.1,0.1-0.1,0.2-0.1,0.3c0,0.1,0,0.2,0,0.3V5h-0.4V3.3z"/>
	<path class="st0" d="M71.7,2.7c0.1,0,0.1,0,0.2,0.1c0.1,0.1,0.1,0.1,0.1,0.2s0,0.1-0.1,0.2c-0.1,0.1-0.1,0.1-0.2,0.1
		c-0.1,0-0.1,0-0.2-0.1c-0.1-0.1-0.1-0.1-0.1-0.2s0-0.1,0.1-0.2C71.5,2.7,71.6,2.7,71.7,2.7z M71.7,4.5c0.1,0,0.1,0,0.2,0.1
		c0.1,0.1,0.1,0.1,0.1,0.2s0,0.1-0.1,0.2C71.8,5,71.7,5,71.7,5c-0.1,0-0.1,0-0.2-0.1c-0.1-0.1-0.1-0.1-0.1-0.2s0-0.1,0.1-0.2
		C71.5,4.5,71.6,4.5,71.7,4.5z"/>
</g>
<g>
	<polygon class="st3" points="80.2,19.5 85,19.5 85,18.4 81.9,18.4 81.9,17.3 84.8,17.3 84.8,16.2 81.9,16.2 81.9,15.1 85,15.1 
		85,14 80.2,14 	"/>
	<path class="st3" d="M85.7,19.5h3.1c1.6,0,2.2-0.8,2.2-1.5c0-0.7-0.5-1.2-1.3-1.3v0c0.7-0.2,1.1-0.7,1.1-1.3c0-0.7-0.6-1.4-1.9-1.4
		h-3.1V19.5z M87.2,17.2h1.4c0.4,0,0.8,0.2,0.8,0.6c0,0.5-0.4,0.6-0.8,0.6h-1.4V17.2z M87.2,15h1.1c0.6,0,0.9,0.2,0.9,0.6
		c0,0.4-0.4,0.6-1,0.6h-0.9V15z"/>
	<path class="st3" d="M90.9,21.9c0-1.4-1.1-1.9-2.3-1.9c-1.6,0-2.7,0.8-2.7,2.8c0,1.9,1.1,2.7,2.4,2.7c1.4,0,2.5-0.4,2.5-1.9h-1.4
		c0,0.6-0.5,0.8-1,0.8c-0.9,0-1.2-0.8-1.2-1.7c0-1,0.4-1.6,1.3-1.6c0.5,0,0.9,0.2,1,0.8H90.9z"/>
	<path class="st3" d="M92.6,22.8c0-0.9,0.3-1.7,1.4-1.7c1,0,1.4,0.8,1.4,1.7c0,0.9-0.3,1.7-1.4,1.7C92.9,24.5,92.6,23.8,92.6,22.8
		 M91.2,22.8c0,1.6,0.8,2.7,2.7,2.7c1.9,0,2.7-1.2,2.7-2.7c0-1.6-0.8-2.7-2.7-2.7C92,20.1,91.2,21.3,91.2,22.8"/>
	<path class="st4" d="M80.3,20.6c0-0.2,0.2-0.4,0.4-0.4c1.5-0.1,3-0.1,4.5,0c0.2,0,0.4,0.2,0.4,0.4c0.2,1.6,0.2,3.1,0,4.5
		c0,0.2-0.2,0.4-0.4,0.4c-1.5,0.1-3,0.1-4.5,0c-0.2,0-0.4-0.2-0.4-0.4C80.2,23.5,80.2,22,80.3,20.6"/>
	<path class="st4" d="M91.3,14.5c0-0.2,0.2-0.4,0.4-0.4c1.5-0.1,3-0.1,4.5,0c0.2,0,0.4,0.2,0.4,0.4c0.2,1.6,0.2,3.1,0,4.5
		c0,0.2-0.2,0.4-0.4,0.4c-1.5,0.1-3,0.1-4.5,0c-0.2,0-0.4-0.2-0.4-0.4C91.2,17.4,91.2,15.9,91.3,14.5"/>
</g>
<g>
	<g>
		<g>
			<rect x="127.7" y="11.8" class="st5" width="14.4" height="13.5"/>
			<path class="st6" d="M138.8,20.4l-0.1-0.2l0,0.3c0,0.1-0.1,0.2-0.3,0.2c0.1,0,0.2,0,0.2,0c0,0.1-0.1,0.2-0.1,0.3l0.2-0.4l0.2,0
				l-0.1-0.2l0.2-0.4C138.9,20.2,138.9,20.3,138.8,20.4z"/>
			<path class="st6" d="M138.5,18.5c0.1,0.1,0.3,0.3,0.3,0.6c-0.1,0.3-0.2,0.5-0.3,0.7l0.4-0.3c0,0,0.1,0.4,0.1,0.6
				c0.1-0.2,0.1-0.5,0.1-0.8l0.3-0.4l-0.3-0.2c0-0.3-0.1-0.6-0.2-0.9c0,0.3-0.1,0.8-0.1,0.8C138.8,18.5,138.7,18.5,138.5,18.5z"/>
			<path class="st6" d="M137.7,17.5c0,0.2,0,0.4,0,0.6l-0.4,0.2l0.4,0.2l-0.1,0.6l0.3-0.4l0.3,0.3l-0.2-0.6l0.3-0.4L138,18
				L137.7,17.5z"/>
			<polygon class="st6" points="138.4,17.1 138.5,17.5 138.5,17.3 138.7,17.4 138.6,17.1 138.6,16.8 138.4,16.9 138.1,16.6 
				138.3,16.9 138,17 			"/>
			<path class="st6" d="M136.6,17.4l0.1,0.4l0.1-0.2c0.1,0.1,0.2,0.1,0.3,0.2l-0.3-0.4l0-0.2h-0.2l-0.3-0.3l0.2,0.3l-0.3,0
				L136.6,17.4z"/>
			<path class="st6" d="M136.9,15l-0.3,0.3c-0.2-0.1-0.5-0.3-0.8-0.3c0.2,0.2,0.4,0.4,0.6,0.7l-0.5,0.6l0.8-0.1l0.5,0.9l-0.1-1
				l0.6,0c-0.2-0.2-0.5-0.4-0.7-0.6L136.9,15z"/>
			<g>
				<rect x="134.6" y="19.5" class="st6" width="0.4" height="1.6"/>
				<polygon class="st6" points="135.3,21.1 135.7,21.1 135.7,18.7 135.3,18.9 				"/>
				<polygon class="st6" points="135,19 134.6,19.2 134.6,19.4 135,19.4 				"/>
				<path class="st6" d="M133.5,19.3c-0.2,0-0.4,0.1-0.5,0.2v-0.8l-0.4,0.2v2.2h0.4v-1c0-0.3,0.1-0.4,0.4-0.4c0.3,0,0.4,0.1,0.4,0.5
					v1h0.4v-1C134.3,19.6,134,19.3,133.5,19.3z"/>
				<path class="st6" d="M131.5,20.8c-0.5,0-0.7-0.3-0.7-0.8c0-0.5,0.3-0.8,0.7-0.8c0.3,0,0.4,0.1,0.6,0.3l0.4-0.2
					c-0.2-0.3-0.5-0.4-0.9-0.4c-0.7,0-1.1,0.5-1.1,1.2c0,0.7,0.4,1.2,1.1,1.2c0.4,0,0.7-0.2,0.9-0.4l-0.3-0.2
					C131.9,20.7,131.7,20.8,131.5,20.8z"/>
				<path class="st6" d="M137.7,20.2c0-0.5-0.3-0.8-0.8-0.8c-0.5,0-0.9,0.3-0.9,0.9c0,0.6,0.4,0.9,0.9,0.9c0.3,0,0.5-0.1,0.7-0.2
					l-0.2-0.2c-0.1,0.1-0.3,0.1-0.4,0.1c-0.2,0-0.5-0.1-0.5-0.5h1.3C137.7,20.3,137.7,20.3,137.7,20.2z M136.3,20.1
					c0-0.3,0.2-0.4,0.5-0.4c0.3,0,0.5,0.2,0.5,0.4H136.3z"/>
			</g>
		</g>
	</g>
	<g>
		<rect x="140.8" y="27.1" class="st5" width="1.3" height="1.3"/>
	</g>
	<g>
		<path class="st7" d="M128.4,27.3c-0.2,0-0.4,0.2-0.4,0.5c0,0.2,0.1,0.3,0.2,0.3c0.2,0,0.3-0.1,0.3-0.1c0,0,0,0.1,0,0.2
			c0,0.1-0.2,0.2-0.4,0.2c-0.3,0-0.5-0.2-0.5-0.5c0-0.5,0.3-0.8,0.7-0.8c0.2,0,0.3,0.1,0.3,0.2c0,0.1,0,0.1-0.1,0.2
			C128.6,27.4,128.5,27.3,128.4,27.3z"/>
		<path class="st7" d="M129.4,27.5c0,0,0,0.2,0,0.2c0,0-0.1-0.1-0.1-0.1c-0.1,0-0.2,0.1-0.2,0.2l-0.1,0.6h-0.3l0.1-0.9
			c0,0,0.1,0,0.2,0c0.1,0,0.1,0,0.1,0l0,0.2h0c0-0.1,0.1-0.2,0.2-0.2C129.4,27.4,129.4,27.5,129.4,27.5z"/>
		<path class="st7" d="M130.2,28.1c0,0,0,0.1,0,0.1c0,0.1-0.2,0.2-0.4,0.2c-0.2,0-0.4-0.1-0.4-0.4c0-0.3,0.2-0.6,0.5-0.6
			c0.2,0,0.3,0.1,0.3,0.2c0,0.2-0.3,0.3-0.6,0.3c0,0,0,0,0,0c0,0.1,0.1,0.2,0.2,0.2C130,28.2,130.1,28.1,130.2,28.1z M129.7,27.9
			c0.2,0,0.3-0.1,0.3-0.1c0,0,0-0.1-0.1-0.1C129.8,27.7,129.7,27.8,129.7,27.9z"/>
		<path class="st7" d="M131.3,27.5l-0.1,0.9h-0.2l0-0.2h0c-0.1,0.1-0.2,0.2-0.3,0.2c-0.1,0-0.3-0.1-0.3-0.3c0-0.3,0.2-0.6,0.5-0.6
			c0.1,0,0.1,0,0.2,0l0,0c0,0,0.1,0,0.1,0C131.2,27.5,131.3,27.5,131.3,27.5z M130.9,28l0.1-0.3c0,0-0.1,0-0.1,0
			c-0.2,0-0.3,0.2-0.3,0.4c0,0.1,0,0.2,0.1,0.2C130.8,28.2,130.8,28.1,130.9,28z"/>
		<path class="st7" d="M132,27.5l0,0.2c0,0,0,0,0,0l-0.2,0c0,0.3-0.1,0.4-0.1,0.4c0,0.1,0,0.1,0.1,0.1c0.1,0,0.1,0,0.1-0.1
			c0,0,0,0.1,0,0.1c0,0.1-0.1,0.2-0.3,0.2c-0.2,0-0.3-0.1-0.3-0.3c0-0.1,0-0.1,0.1-0.5l-0.1,0l0-0.2c0,0,0,0,0,0h0.1
			c0,0,0-0.1,0-0.1c0.1,0,0.2-0.1,0.2-0.1c0,0,0,0,0,0c0,0.1,0,0.2,0,0.2H132z"/>
		<path class="st7" d="M132.1,27.5c0,0,0.1,0,0.2,0c0.1,0,0.1,0,0.1,0l-0.1,0.9H132L132.1,27.5z M132.2,27.2c0-0.1,0.1-0.2,0.2-0.2
			c0.1,0,0.1,0,0.1,0.1c0,0.1-0.1,0.1-0.2,0.1C132.2,27.3,132.2,27.3,132.2,27.2z"/>
		<path class="st7" d="M133.4,27.7c0,0.1-0.1,0.7-0.1,0.7h-0.3c0,0,0.1-0.6,0.1-0.6c0-0.1,0-0.1-0.1-0.1c-0.1,0-0.2,0.1-0.2,0.2
			l-0.1,0.6h-0.3l0.1-0.9c0,0,0.1,0,0.2,0c0.1,0,0.1,0,0.1,0l0,0.2h0c0.1-0.1,0.2-0.2,0.4-0.2C133.4,27.4,133.4,27.5,133.4,27.7z"/>
		<path class="st7" d="M134.5,27.5l-0.1,0.9c0,0.3-0.2,0.4-0.5,0.4c-0.1,0-0.3-0.1-0.3-0.2c0-0.1,0-0.1,0-0.2c0,0,0.1,0.1,0.3,0.1
			c0.2,0,0.3-0.1,0.3-0.2l0-0.1c-0.1,0.1-0.2,0.2-0.3,0.2c-0.1,0-0.3-0.1-0.3-0.3c0-0.3,0.2-0.6,0.5-0.6c0.1,0,0.1,0,0.2,0
			c0,0,0.1,0,0.1,0C134.4,27.5,134.5,27.5,134.5,27.5z M134.1,28l0-0.3c0,0-0.1,0-0.1,0c-0.2,0-0.3,0.2-0.3,0.3c0,0.1,0,0.2,0.1,0.2
			C134,28.2,134.1,28.1,134.1,28z"/>
		<path class="st7" d="M134.8,27.1h0.8c0,0,0,0.1,0,0.2c0,0.1,0,0.1,0,0.2h-0.4v0.2h0.4c0,0.1,0,0.3,0,0.3h-0.3v0.4h-0.4V27.1z"/>
		<path class="st7" d="M135.8,28.1v-0.7c0,0,0.1,0,0.2,0c0.1,0,0.2,0,0.2,0V28c0,0.1,0,0.1,0.1,0.1c0.1,0,0.1,0,0.1-0.1v-0.5
			c0,0,0.1,0,0.2,0c0.1,0,0.2,0,0.2,0v0.9h-0.4l0-0.1c0,0.1-0.1,0.2-0.3,0.2C135.9,28.4,135.8,28.3,135.8,28.1z"/>
		<path class="st7" d="M137.6,28.2c0,0.1-0.1,0.2-0.3,0.2c-0.2,0-0.4-0.1-0.4-0.4v-0.3l-0.1,0v-0.2c0,0,0,0,0,0h0.1v-0.1
			c0.1,0,0.2-0.1,0.3-0.1c0,0,0.1,0,0.1,0v0.2h0.3v0.3c0,0,0,0,0,0l-0.2,0V28c0,0.1,0.1,0.1,0.1,0.1c0.1,0,0.1,0,0.1-0.1
			C137.6,28,137.6,28.1,137.6,28.2z"/>
		<path class="st7" d="M137.8,28.1v-0.7c0,0,0.1,0,0.2,0c0.1,0,0.2,0,0.2,0V28c0,0.1,0,0.1,0.1,0.1c0.1,0,0.1,0,0.1-0.1v-0.5
			c0,0,0.1,0,0.2,0c0.1,0,0.2,0,0.2,0v0.9h-0.4l0-0.1c0,0.1-0.1,0.2-0.3,0.2C137.9,28.4,137.8,28.3,137.8,28.1z"/>
		<path class="st7" d="M138.9,27.5c0,0,0.1,0,0.2,0c0.1,0,0.2,0,0.2,0c0,0.1,0,0.2,0,0.3h0c0.1-0.2,0.1-0.3,0.3-0.3c0,0,0,0.1,0,0.2
			c0,0.2,0,0.2,0,0.2c-0.2,0-0.3,0.1-0.3,0.3v0.3h-0.4V27.5z"/>
		<path class="st7" d="M139.6,27.9c0-0.3,0.2-0.5,0.5-0.5c0.3,0,0.4,0.1,0.4,0.4c0,0,0,0.1,0,0.2c-0.1,0-0.3,0-0.5,0
			c0,0.1,0.1,0.1,0.2,0.1c0.1,0,0.2,0,0.3-0.1c0,0,0,0.1,0,0.2c0,0.2-0.2,0.2-0.4,0.2C139.9,28.4,139.6,28.3,139.6,27.9z
			 M140.2,27.8C140.2,27.8,140.2,27.8,140.2,27.8c0-0.1,0-0.1-0.1-0.1c0,0-0.1,0-0.1,0.1C140.1,27.8,140.2,27.8,140.2,27.8z"/>
	</g>
</g>
<g>
	<polygon points="109.7,20.2 108.3,20.2 108.3,18.3 107.7,18.3 107.7,20.8 109.7,20.8 	"/>
	<polygon points="109.7,15.3 108.3,15.3 108.3,14.7 109.6,14.7 109.6,14.3 108.3,14.3 108.3,13.7 109.6,13.7 109.6,13.3 107.7,13.3 
		107.7,15.8 109.7,15.8 	"/>
	<polygon points="113,15.8 113.6,14.9 114.3,15.8 115,15.8 114,14.5 114.9,13.3 114.3,13.3 113.7,14.1 113.1,13.3 112.4,13.3 
		113.3,14.5 112.3,15.8 	"/>
	<path d="M108.3,24.8l0.4-1.1l0.4,1.1H108.3z M108.3,23.3l-1,2.5h0.6l0.2-0.5h1.1l0.2,0.5h0.6l-1-2.5H108.3z"/>
	<g>
		<path d="M103.7,24.4h-0.5v-0.7h0.5c0.3,0,0.4,0.1,0.4,0.3C104.1,24.3,104,24.4,103.7,24.4 M104.8,24c0-0.5-0.3-0.8-0.9-0.8h-1.3
			v2.5h0.6v-0.9h0.5l0.5,0.9h0.7l-0.6-1C104.6,24.7,104.8,24.4,104.8,24"/>
		<path d="M103.2,18.7h0.5c0.3,0,0.4,0.2,0.4,0.4c0,0.2-0.2,0.4-0.4,0.4h-0.5V18.7z M103.2,19.9h0.7c0.6,0,0.9-0.3,0.9-0.9
			c0-0.5-0.4-0.8-0.9-0.8h-1.3v2.5h0.6V19.9z"/>
		<path d="M113.7,20.4c-0.4,0-0.7-0.3-0.7-0.9c0-0.5,0.3-0.8,0.7-0.8c0.4,0,0.7,0.3,0.7,0.8C114.4,20,114.1,20.4,113.7,20.4
			 M113.7,18.2c-0.8,0-1.4,0.5-1.4,1.3c0,0.8,0.5,1.3,1.4,1.3c0.8,0,1.4-0.6,1.4-1.3C115,18.7,114.5,18.2,113.7,18.2"/>
	</g>
</g>
<g>
	<g>
		<g>
			<path class="st8" d="M48.9,23.3c0,0.6,0.4,1,1,1.1c0.1,0,0.2,0,0.2,0c0.3,0,0.6-0.1,0.8-0.4c0.2-0.2,0.3-0.5,0.3-0.8
				c0-0.9,0.5-1.4,1.2-2.1c0.7-0.5,1.7-1.1,3.1-1.9c1.8-0.9,2.9-2,3.1-2.9l0,0c0-0.1,0-0.2,0-0.3c0-0.6-0.4-1-1-1.1
				c-0.1,0-0.2,0-0.2,0c-0.3,0-0.6,0.1-0.8,0.4c-0.2,0.2-0.3,0.5-0.3,0.8c0,0.9-0.5,1.5-1.3,2.2c-1.6,1.2-3,1.8-3,1.8
				c-1.8,0.9-2.9,2-3.1,2.9l0,0C48.9,23,48.9,23.1,48.9,23.3z"/>
			<path class="st9" d="M56,19.7c0,0,1.3,0.3,0.9,2.1l0,0c0,0.1,0,0.2,0,0.3c0,0.5,0.5,0.9,1,0.9c0.5,0,0.9-0.5,0.9-1
				c-0.1-1.2-2.4-2.8-2.7-2.7c0,0-0.2,0-0.2,0.2C55.8,19.6,56,19.7,56,19.7z"/>
			<g>
				<path class="st10" d="M55.6,20.2c0,0,0.8,0.2,0.6,1.4l0,0c0,0-0.3,1.1-2,1.4c-2,0.3-2-0.4-2-0.4c0-0.4-0.2-0.8,1.8-2
					C54,20.6,55,20,55.6,20.2z"/>
			</g>
		</g>
		<path class="st11" d="M50.8,14.8c0.1,1.6,2.4,3.5,3.8,4.2c0.4,0.2,0.8,0.2,1,0.1c0.6-0.3,0-0.5,0-0.5s-2.1-0.6-1.5-3.6l0,0
			c0-0.2,0.1-0.3,0-0.5c-0.1-0.9-0.9-1.6-1.7-1.5C51.4,13.2,50.7,13.9,50.8,14.8z"/>
	</g>
	<path class="st7" d="M72.4,23.5h1.5V17h-1.5V23.5z M73.2,16.3c0.5,0,0.8-0.4,0.8-0.8c0-0.5-0.4-0.8-0.8-0.8c-0.5,0-0.8,0.4-0.8,0.8
		C72.3,16,72.7,16.3,73.2,16.3z M61.9,24.7c-0.2,0-0.3,0.1-0.4,0.1l0.1,0.2c0.1-0.1,0.2-0.1,0.3-0.1c0.1,0,0.2,0,0.2,0.1v0.1
		c-0.1,0-0.1,0-0.2,0c-0.2,0-0.4,0.1-0.4,0.3c0,0.2,0.2,0.3,0.3,0.3c0.1,0,0.2,0,0.2-0.1v0.1h0.3v-0.6C62.3,24.8,62,24.7,61.9,24.7z
		 M62,25.4c0,0-0.1,0.1-0.2,0.1c-0.1,0-0.1,0-0.1-0.1c0-0.1,0.1-0.1,0.2-0.1C61.9,25.3,62,25.3,62,25.4L62,25.4z M63.5,24.7
		c-0.1,0-0.2,0-0.3,0.1c0-0.1-0.1-0.1-0.2-0.1c-0.1,0-0.2,0-0.2,0.1v-0.1h-0.3v0.9h0.3v-0.5c0-0.2,0-0.2,0.1-0.2
		c0.1,0,0.1,0.1,0.1,0.2v0.5h0.3v-0.5c0-0.2,0-0.2,0.1-0.2c0.1,0,0.1,0.1,0.1,0.2v0.5h0.3v-0.6C63.9,24.8,63.7,24.7,63.5,24.7z
		 M64.5,24.7c-0.3,0-0.4,0.2-0.4,0.5c0,0.3,0.2,0.5,0.4,0.5c0.3,0,0.4-0.2,0.4-0.5C64.9,24.9,64.8,24.7,64.5,24.7z M64.5,25.4
		c-0.1,0-0.2-0.1-0.2-0.2c0-0.1,0.1-0.2,0.2-0.2c0.1,0,0.2,0.1,0.2,0.2C64.7,25.3,64.6,25.4,64.5,25.4z M60.8,24.7
		c-0.3,0-0.4,0.2-0.4,0.5c0,0.3,0.2,0.5,0.4,0.5c0.2,0,0.3-0.1,0.4-0.2l-0.2-0.2c-0.1,0.1-0.1,0.1-0.2,0.1c-0.1,0-0.2,0-0.2-0.2h0.6
		c0,0,0-0.1,0-0.1C61.3,24.9,61.1,24.7,60.8,24.7z M60.7,25.1c0-0.1,0.1-0.2,0.2-0.2c0.1,0,0.2,0.1,0.2,0.2H60.7z M65.5,21
		c0-0.8-0.3-1.5-0.9-1.9c0.4-0.4,0.6-1,0.6-1.6c0-1.3-0.7-2.4-2.8-2.4h-2.9v8.4h3C64.7,23.5,65.5,22.4,65.5,21z M61,16.6h1.5
		c0.9,0,1.1,0.5,1.1,0.9c0,0.4-0.2,0.9-1,0.9H61V16.6z M61,19.9h1.6c0.9,0,1.3,0.3,1.3,1.1c0,0.5-0.2,1-1.3,1H61V19.9z M59.9,25.1
		c-0.1,0-0.2-0.1-0.2-0.1c0,0,0-0.1,0.1-0.1c0.1,0,0.1,0,0.2,0.1l0.2-0.1c-0.1-0.1-0.2-0.2-0.3-0.2c-0.2,0-0.3,0.1-0.3,0.3
		s0.1,0.2,0.3,0.3c0.1,0,0.2,0.1,0.2,0.1c0,0.1-0.1,0.1-0.1,0.1c-0.1,0-0.2-0.1-0.2-0.1l-0.2,0.1c0.1,0.1,0.2,0.2,0.4,0.2
		c0.2,0,0.4-0.1,0.4-0.3C60.2,25.2,60.1,25.1,59.9,25.1z M68.5,24.7c-0.2,0-0.4,0.2-0.4,0.5c0,0.3,0.2,0.5,0.4,0.5
		c0.1,0,0.2,0,0.3-0.1l-0.1-0.1c-0.1,0.1-0.1,0.1-0.2,0.1c-0.2,0-0.3-0.1-0.3-0.3h0.6c0,0,0-0.1,0-0.1
		C68.8,24.8,68.7,24.7,68.5,24.7z M68.2,25.1c0-0.2,0.1-0.3,0.3-0.3c0.1,0,0.2,0.1,0.2,0.3H68.2z M70.1,24.7c-0.2,0-0.4,0.2-0.4,0.5
		c0,0.3,0.2,0.5,0.4,0.5c0.1,0,0.2,0,0.3-0.1l-0.1-0.1c-0.1,0.1-0.1,0.1-0.2,0.1c-0.2,0-0.3-0.1-0.3-0.3h0.6c0,0,0-0.1,0-0.1
		C70.5,24.8,70.3,24.7,70.1,24.7z M69.8,25.1c0-0.2,0.1-0.3,0.3-0.3c0.1,0,0.2,0.1,0.2,0.3H69.8z M69.3,22.2c-1,0-1.8-0.8-1.8-1.8v0
		c0-1,0.8-1.8,1.7-1.8c0.5,0,0.9,0.2,1.4,0.6l1-1.1c-0.5-0.5-1.2-1-2.4-1c-1.8,0-3.3,1.5-3.3,3.3v0c0,1.8,1.5,3.3,3.3,3.3
		c0.9,0,1.7-0.3,2.3-1l-1.1-1C70.2,22,69.8,22.2,69.3,22.2z M71.1,24.7c-0.1,0-0.2,0-0.2,0.1v-0.1h-0.1v0.9h0.1v-0.6
		c0-0.2,0.1-0.3,0.2-0.3c0.1,0,0.2,0.1,0.2,0.3v0.6h0.1v-0.5C71.4,24.8,71.3,24.7,71.1,24.7z M71.9,25.4v-0.6h0.2v-0.1h-0.2v-0.4
		l-0.1,0.1v0.3h-0.2v0.1h0.2v0.6c0,0.1,0.1,0.2,0.2,0.2c0.1,0,0.1,0,0.2,0l0-0.1c0,0-0.1,0.1-0.1,0.1C71.9,25.6,71.9,25.5,71.9,25.4
		z M72.7,24.7c-0.2,0-0.4,0.2-0.4,0.5c0,0.3,0.2,0.5,0.4,0.5c0.1,0,0.2,0,0.3-0.1l-0.1-0.1c-0.1,0.1-0.1,0.1-0.2,0.1
		c-0.2,0-0.3-0.1-0.3-0.3h0.6c0,0,0-0.1,0-0.1C73.1,24.8,72.9,24.7,72.7,24.7z M72.5,25.1c0-0.2,0.1-0.3,0.3-0.3
		c0.1,0,0.2,0.1,0.2,0.3H72.5z M73.6,25.1c-0.1,0-0.2-0.1-0.2-0.2c0-0.1,0.1-0.1,0.2-0.1c0.1,0,0.2,0.1,0.2,0.1l0.1-0.1
		c-0.1-0.1-0.2-0.1-0.3-0.1c-0.2,0-0.3,0.1-0.3,0.2c0,0.2,0.1,0.2,0.3,0.3c0.1,0,0.2,0.1,0.2,0.2c0,0.1-0.1,0.1-0.2,0.1
		c-0.1,0-0.2-0.1-0.2-0.1l-0.1,0.1c0.1,0.1,0.2,0.2,0.3,0.2c0.2,0,0.3-0.1,0.3-0.3C73.9,25.2,73.8,25.2,73.6,25.1z M66.7,24.8
		c-0.1,0-0.1-0.1-0.2-0.1c-0.2,0-0.4,0.2-0.4,0.5c0,0.3,0.1,0.5,0.4,0.5c0.1,0,0.2,0,0.2-0.1v0.1h0.1v-1.3l-0.1,0.1V24.8z
		 M66.7,25.4c-0.1,0.1-0.1,0.1-0.2,0.1c-0.2,0-0.3-0.2-0.3-0.4c0-0.2,0.1-0.4,0.3-0.4c0.1,0,0.2,0.1,0.2,0.1V25.4z M65.5,25.1
		c-0.1,0-0.2-0.1-0.2-0.1c0,0,0-0.1,0.1-0.1c0.1,0,0.1,0,0.2,0.1l0.2-0.1c-0.1-0.1-0.2-0.2-0.3-0.2c-0.2,0-0.3,0.1-0.3,0.3
		s0.1,0.2,0.3,0.3c0.1,0,0.2,0.1,0.2,0.1c0,0.1-0.1,0.1-0.1,0.1c-0.1,0-0.2-0.1-0.2-0.1l-0.2,0.1c0.1,0.1,0.2,0.2,0.4,0.2
		c0.2,0,0.4-0.1,0.4-0.3C65.8,25.2,65.7,25.1,65.5,25.1z M67.1,25.7h0.1v-0.9h-0.1V25.7z M69.2,24.9v-0.1h-0.1v0.9h0.1v-0.5
		c0-0.2,0.1-0.3,0.2-0.3c0.1,0,0.1,0,0.1,0l0-0.1c0,0-0.1,0-0.1,0C69.3,24.7,69.2,24.8,69.2,24.9z M67.2,24.4
		C67.1,24.4,67.1,24.4,67.2,24.4c-0.1,0.1,0,0.2,0,0.2C67.2,24.5,67.3,24.5,67.2,24.4C67.3,24.4,67.2,24.4,67.2,24.4z M67.6,24.6
		v0.2h-0.1v0.1h0.1v0.8h0.1v-0.8H68v-0.1h-0.2v-0.1c0-0.1,0-0.1,0.1-0.1c0.1,0,0.1,0,0.1,0v-0.1c0,0-0.1,0-0.2,0
		C67.7,24.4,67.6,24.4,67.6,24.6z"/>
</g>
<g>
	<path class="st0" d="M155.7,2.6h0.4V4h1.8V2.6h0.4V6h-0.4V4.4h-1.8V6h-0.4V2.6z"/>
	<path class="st0" d="M161.1,5.6c-0.1,0.2-0.3,0.3-0.4,0.4C160.5,6,160.3,6,160.1,6c-0.2,0-0.3,0-0.5-0.1c-0.1-0.1-0.3-0.1-0.4-0.2
		s-0.2-0.2-0.2-0.4C159,5.2,159,5,159,4.9c0-0.2,0-0.3,0.1-0.5c0.1-0.1,0.1-0.3,0.2-0.4c0.1-0.1,0.2-0.2,0.4-0.2
		c0.1-0.1,0.3-0.1,0.5-0.1c0.2,0,0.3,0,0.4,0.1c0.1,0.1,0.2,0.1,0.3,0.2c0.1,0.1,0.2,0.2,0.2,0.4c0.1,0.1,0.1,0.3,0.1,0.5V5h-1.8
		c0,0.1,0,0.2,0.1,0.3c0,0.1,0.1,0.2,0.2,0.2c0.1,0.1,0.1,0.1,0.2,0.2c0.1,0,0.2,0.1,0.3,0.1c0.2,0,0.3,0,0.4-0.1
		c0.1-0.1,0.2-0.1,0.3-0.3L161.1,5.6z M160.8,4.7c0-0.2-0.1-0.3-0.2-0.5c-0.1-0.1-0.3-0.2-0.5-0.2s-0.4,0.1-0.5,0.2
		c-0.1,0.1-0.2,0.3-0.2,0.5H160.8z"/>
	<path class="st0" d="M161.7,4.3c0-0.1,0-0.2,0-0.3c0-0.1,0-0.2,0-0.2h0.4c0,0.1,0,0.1,0,0.2c0,0.1,0,0.1,0,0.2h0
		c0-0.1,0.1-0.1,0.1-0.2s0.1-0.1,0.2-0.1c0.1,0,0.1-0.1,0.2-0.1c0.1,0,0.2,0,0.3,0c0,0,0.1,0,0.1,0c0,0,0,0,0.1,0l0,0.4
		c-0.1,0-0.1,0-0.2,0c-0.2,0-0.4,0.1-0.5,0.2c-0.1,0.1-0.2,0.3-0.2,0.6V6h-0.4V4.3z"/>
	<path class="st0" d="M163.4,4.3c0-0.1,0-0.2,0-0.3c0-0.1,0-0.2,0-0.2h0.4c0,0.1,0,0.1,0,0.2c0,0.1,0,0.1,0,0.2h0
		c0-0.1,0.1-0.1,0.1-0.2s0.1-0.1,0.2-0.1c0.1,0,0.1-0.1,0.2-0.1c0.1,0,0.2,0,0.3,0c0,0,0.1,0,0.1,0c0,0,0,0,0.1,0l0,0.4
		c-0.1,0-0.1,0-0.2,0c-0.2,0-0.4,0.1-0.5,0.2c-0.1,0.1-0.2,0.3-0.2,0.6V6h-0.4V4.3z"/>
	<path class="st0" d="M165,4c0.1-0.1,0.2-0.2,0.4-0.3s0.3-0.1,0.5-0.1c0.3,0,0.6,0.1,0.7,0.2c0.1,0.2,0.2,0.4,0.2,0.7v1
		c0,0.1,0,0.1,0,0.2c0,0.1,0,0.1,0,0.2h-0.4c0-0.1,0-0.1,0-0.2c0-0.1,0-0.1,0-0.2h0c-0.1,0.1-0.2,0.2-0.3,0.3
		C166.1,6,165.9,6,165.8,6c-0.1,0-0.2,0-0.3,0c-0.1,0-0.2-0.1-0.3-0.1S165,5.7,165,5.7s-0.1-0.2-0.1-0.3c0-0.2,0-0.3,0.1-0.4
		c0.1-0.1,0.2-0.2,0.4-0.2c0.1-0.1,0.3-0.1,0.5-0.1c0.2,0,0.3,0,0.4,0h0.1V4.5c0-0.2,0-0.3-0.1-0.4S166.1,4,165.9,4
		c-0.1,0-0.2,0-0.4,0.1c-0.1,0-0.2,0.1-0.3,0.2L165,4z M166.1,4.9c-0.2,0-0.4,0-0.6,0.1s-0.2,0.2-0.2,0.3c0,0.1,0,0.2,0.1,0.3
		c0.1,0.1,0.2,0.1,0.3,0.1c0.1,0,0.2,0,0.3-0.1c0.1,0,0.1-0.1,0.2-0.1c0.1-0.1,0.1-0.1,0.1-0.2c0-0.1,0-0.2,0-0.3V4.9H166.1z"/>
	<path class="st0" d="M167.5,4.3c0-0.1,0-0.2,0-0.3c0-0.1,0-0.2,0-0.2h0.4c0,0.1,0,0.1,0,0.2c0,0.1,0,0.1,0,0.2h0
		c0-0.1,0.1-0.1,0.1-0.2s0.1-0.1,0.2-0.1c0.1,0,0.1-0.1,0.2-0.1c0.1,0,0.2,0,0.3,0c0.1,0,0.2,0,0.3,0c0.1,0,0.1,0.1,0.2,0.1
		c0.1,0,0.1,0.1,0.1,0.1c0,0,0.1,0.1,0.1,0.1c0.1-0.1,0.2-0.2,0.3-0.3s0.2-0.1,0.4-0.1c0.2,0,0.3,0,0.4,0.1c0.1,0,0.2,0.1,0.3,0.2
		c0.1,0.1,0.1,0.2,0.1,0.3s0,0.2,0,0.4V6h-0.4V4.7c0-0.1,0-0.1,0-0.2c0-0.1,0-0.1-0.1-0.2c0-0.1-0.1-0.1-0.2-0.1
		c-0.1,0-0.2-0.1-0.3-0.1c-0.1,0-0.2,0-0.2,0s-0.1,0.1-0.2,0.1c-0.1,0.1-0.1,0.1-0.1,0.2c0,0.1,0,0.2,0,0.3V6H169V4.7
		c0-0.2,0-0.4-0.1-0.5S168.7,4,168.6,4c-0.1,0-0.2,0-0.3,0.1s-0.2,0.1-0.2,0.2c-0.1,0.1-0.1,0.2-0.1,0.3c0,0.1,0,0.2,0,0.3V6h-0.4
		V4.3z"/>
	<path class="st0" d="M171.5,2.9c0-0.1,0-0.1,0.1-0.2c0.1-0.1,0.1-0.1,0.2-0.1c0.1,0,0.1,0,0.2,0.1c0.1,0.1,0.1,0.1,0.1,0.2
		c0,0.1,0,0.1-0.1,0.2c-0.1,0.1-0.1,0.1-0.2,0.1s-0.1,0-0.2-0.1C171.5,3,171.5,3,171.5,2.9z M171.6,3.8h0.4V6h-0.4V3.8z"/>
	<path class="st0" d="M174.7,5.6c-0.1,0.2-0.3,0.3-0.4,0.4C174.1,6,173.9,6,173.7,6c-0.2,0-0.3,0-0.5-0.1c-0.1-0.1-0.3-0.1-0.4-0.2
		s-0.2-0.2-0.2-0.4c-0.1-0.1-0.1-0.3-0.1-0.5c0-0.2,0-0.3,0.1-0.5c0.1-0.1,0.1-0.3,0.2-0.4c0.1-0.1,0.2-0.2,0.4-0.2
		c0.1-0.1,0.3-0.1,0.5-0.1c0.2,0,0.3,0,0.4,0.1c0.1,0.1,0.2,0.1,0.3,0.2c0.1,0.1,0.2,0.2,0.2,0.4c0.1,0.1,0.1,0.3,0.1,0.5V5H173
		c0,0.1,0,0.2,0.1,0.3c0,0.1,0.1,0.2,0.2,0.2c0.1,0.1,0.1,0.1,0.2,0.2c0.1,0,0.2,0.1,0.3,0.1c0.2,0,0.3,0,0.4-0.1
		c0.1-0.1,0.2-0.1,0.3-0.3L174.7,5.6z M174.4,4.7c0-0.2-0.1-0.3-0.2-0.5c-0.1-0.1-0.3-0.2-0.5-0.2s-0.4,0.1-0.5,0.2
		c-0.1,0.1-0.2,0.3-0.2,0.5H174.4z"/>
	<path class="st0" d="M175.3,4.3c0-0.1,0-0.2,0-0.3c0-0.1,0-0.2,0-0.2h0.4c0,0.1,0,0.1,0,0.2c0,0.1,0,0.1,0,0.2h0
		c0-0.1,0.1-0.1,0.1-0.2s0.1-0.1,0.2-0.1c0.1,0,0.1-0.1,0.2-0.1c0.1,0,0.2,0,0.3,0c0.1,0,0.3,0,0.4,0.1c0.1,0,0.2,0.1,0.3,0.2
		s0.1,0.2,0.2,0.3s0,0.2,0,0.4V6h-0.4V4.7c0-0.2,0-0.3-0.1-0.4S176.6,4,176.4,4c-0.1,0-0.2,0-0.3,0.1s-0.2,0.1-0.2,0.2
		c-0.1,0.1-0.1,0.2-0.1,0.3c0,0.1,0,0.2,0,0.3V6h-0.4V4.3z"/>
	<path class="st0" d="M179.2,4.1h-0.7v1.1c0,0.1,0,0.1,0,0.2c0,0.1,0,0.1,0,0.2c0,0,0.1,0.1,0.1,0.1c0,0,0.1,0,0.2,0
		c0.1,0,0.1,0,0.2,0c0.1,0,0.1,0,0.2-0.1l0,0.3c-0.1,0-0.1,0-0.2,0.1c-0.1,0-0.2,0-0.2,0c-0.1,0-0.2,0-0.3-0.1
		c-0.1,0-0.1-0.1-0.2-0.1c0-0.1-0.1-0.1-0.1-0.2c0-0.1,0-0.2,0-0.3V4.1h-0.5V3.8h0.5V3.1h0.4v0.6h0.7V4.1z"/>
	<path class="st0" d="M179.6,4c0.1-0.1,0.2-0.2,0.4-0.3s0.3-0.1,0.5-0.1c0.3,0,0.6,0.1,0.7,0.2c0.1,0.2,0.2,0.4,0.2,0.7v1
		c0,0.1,0,0.1,0,0.2c0,0.1,0,0.1,0,0.2h-0.4c0-0.1,0-0.1,0-0.2c0-0.1,0-0.1,0-0.2h0c-0.1,0.1-0.2,0.2-0.3,0.3
		C180.6,6,180.5,6,180.3,6c-0.1,0-0.2,0-0.3,0c-0.1,0-0.2-0.1-0.3-0.1s-0.1-0.1-0.2-0.2s-0.1-0.2-0.1-0.3c0-0.2,0-0.3,0.1-0.4
		c0.1-0.1,0.2-0.2,0.4-0.2c0.1-0.1,0.3-0.1,0.5-0.1c0.2,0,0.3,0,0.4,0h0.1V4.5c0-0.2,0-0.3-0.1-0.4S180.7,4,180.5,4
		c-0.1,0-0.2,0-0.4,0.1c-0.1,0-0.2,0.1-0.3,0.2L179.6,4z M180.7,4.9c-0.2,0-0.4,0-0.6,0.1s-0.2,0.2-0.2,0.3c0,0.1,0,0.2,0.1,0.3
		c0.1,0.1,0.2,0.1,0.3,0.1c0.1,0,0.2,0,0.3-0.1c0.1,0,0.1-0.1,0.2-0.1c0.1-0.1,0.1-0.1,0.1-0.2c0-0.1,0-0.2,0-0.3V4.9H180.7z"/>
	<path class="st0" d="M185.6,5.9c0,0.4-0.1,0.7-0.3,0.9s-0.5,0.3-0.9,0.3c-0.2,0-0.4,0-0.6-0.1c-0.2-0.1-0.3-0.2-0.5-0.3l0.3-0.3
		c0.1,0.1,0.2,0.2,0.4,0.3c0.1,0.1,0.3,0.1,0.5,0.1c0.2,0,0.3,0,0.4-0.1c0.1,0,0.2-0.1,0.3-0.2c0.1-0.1,0.1-0.2,0.1-0.3
		c0-0.1,0-0.2,0-0.3V5.6h0c-0.1,0.1-0.2,0.2-0.3,0.3C184.8,6,184.6,6,184.5,6c-0.2,0-0.3,0-0.5-0.1s-0.3-0.1-0.4-0.2
		c-0.1-0.1-0.2-0.2-0.2-0.4c-0.1-0.1-0.1-0.3-0.1-0.5c0-0.2,0-0.3,0.1-0.5c0.1-0.1,0.1-0.3,0.2-0.4s0.2-0.2,0.4-0.2s0.3-0.1,0.5-0.1
		c0.1,0,0.2,0,0.2,0s0.1,0,0.2,0.1c0.1,0,0.1,0.1,0.2,0.1s0.1,0.1,0.1,0.2h0V3.8h0.4V5.9z M183.7,4.9c0,0.1,0,0.2,0.1,0.3
		c0,0.1,0.1,0.2,0.2,0.3c0.1,0.1,0.2,0.1,0.2,0.2s0.2,0.1,0.3,0.1c0.1,0,0.2,0,0.3-0.1c0.1,0,0.2-0.1,0.2-0.2
		c0.1-0.1,0.1-0.2,0.2-0.3s0.1-0.2,0.1-0.3c0-0.1,0-0.2-0.1-0.3s-0.1-0.2-0.2-0.3c-0.1-0.1-0.2-0.1-0.3-0.2c-0.1,0-0.2-0.1-0.3-0.1
		s-0.2,0-0.3,0.1c-0.1,0-0.2,0.1-0.2,0.2c-0.1,0.1-0.1,0.2-0.2,0.3S183.7,4.8,183.7,4.9z"/>
	<path class="st0" d="M188.3,5.6c-0.1,0.2-0.3,0.3-0.4,0.4C187.7,6,187.5,6,187.3,6c-0.2,0-0.3,0-0.5-0.1c-0.1-0.1-0.3-0.1-0.4-0.2
		s-0.2-0.2-0.2-0.4c-0.1-0.1-0.1-0.3-0.1-0.5c0-0.2,0-0.3,0.1-0.5c0.1-0.1,0.1-0.3,0.2-0.4c0.1-0.1,0.2-0.2,0.4-0.2
		c0.1-0.1,0.3-0.1,0.5-0.1c0.2,0,0.3,0,0.4,0.1c0.1,0.1,0.2,0.1,0.3,0.2c0.1,0.1,0.2,0.2,0.2,0.4c0.1,0.1,0.1,0.3,0.1,0.5V5h-1.8
		c0,0.1,0,0.2,0.1,0.3c0,0.1,0.1,0.2,0.2,0.2c0.1,0.1,0.1,0.1,0.2,0.2c0.1,0,0.2,0.1,0.3,0.1c0.2,0,0.3,0,0.4-0.1
		c0.1-0.1,0.2-0.1,0.3-0.3L188.3,5.6z M188,4.7c0-0.2-0.1-0.3-0.2-0.5c-0.1-0.1-0.3-0.2-0.5-0.2s-0.4,0.1-0.5,0.2
		c-0.1,0.1-0.2,0.3-0.2,0.5H188z"/>
	<path class="st0" d="M188.9,4.3c0-0.1,0-0.2,0-0.3c0-0.1,0-0.2,0-0.2h0.4c0,0.1,0,0.1,0,0.2c0,0.1,0,0.1,0,0.2h0
		c0-0.1,0.1-0.1,0.1-0.2s0.1-0.1,0.2-0.1c0.1,0,0.1-0.1,0.2-0.1c0.1,0,0.2,0,0.3,0c0.1,0,0.3,0,0.4,0.1c0.1,0,0.2,0.1,0.3,0.2
		s0.1,0.2,0.2,0.3s0,0.2,0,0.4V6h-0.4V4.7c0-0.2,0-0.3-0.1-0.4S190.2,4,190,4c-0.1,0-0.2,0-0.3,0.1s-0.2,0.1-0.2,0.2
		c-0.1,0.1-0.1,0.2-0.1,0.3c0,0.1,0,0.2,0,0.3V6h-0.4V4.3z"/>
	<path class="st0" d="M193.5,5.6c-0.1,0.2-0.3,0.3-0.4,0.4C193,6,192.8,6,192.6,6c-0.2,0-0.3,0-0.5-0.1c-0.1-0.1-0.3-0.1-0.4-0.2
		s-0.2-0.2-0.2-0.4c-0.1-0.1-0.1-0.3-0.1-0.5c0-0.2,0-0.3,0.1-0.5c0.1-0.1,0.1-0.3,0.2-0.4c0.1-0.1,0.2-0.2,0.4-0.2
		c0.1-0.1,0.3-0.1,0.5-0.1c0.2,0,0.3,0,0.4,0.1c0.1,0.1,0.2,0.1,0.3,0.2c0.1,0.1,0.2,0.2,0.2,0.4c0.1,0.1,0.1,0.3,0.1,0.5V5h-1.8
		c0,0.1,0,0.2,0.1,0.3c0,0.1,0.1,0.2,0.2,0.2c0.1,0.1,0.1,0.1,0.2,0.2c0.1,0,0.2,0.1,0.3,0.1c0.2,0,0.3,0,0.4-0.1
		c0.1-0.1,0.2-0.1,0.3-0.3L193.5,5.6z M193.2,4.7c0-0.2-0.1-0.3-0.2-0.5c-0.1-0.1-0.3-0.2-0.5-0.2s-0.4,0.1-0.5,0.2
		c-0.1,0.1-0.2,0.3-0.2,0.5H193.2z"/>
	<path class="st0" d="M194.2,4.3c0-0.1,0-0.2,0-0.3c0-0.1,0-0.2,0-0.2h0.4c0,0.1,0,0.1,0,0.2c0,0.1,0,0.1,0,0.2h0
		c0-0.1,0.1-0.1,0.1-0.2s0.1-0.1,0.2-0.1c0.1,0,0.1-0.1,0.2-0.1c0.1,0,0.2,0,0.3,0c0,0,0.1,0,0.1,0c0,0,0,0,0.1,0l0,0.4
		c-0.1,0-0.1,0-0.2,0c-0.2,0-0.4,0.1-0.5,0.2c-0.1,0.1-0.2,0.3-0.2,0.6V6h-0.4V4.3z"/>
	<path class="st0" d="M195.8,4c0.1-0.1,0.2-0.2,0.4-0.3s0.3-0.1,0.5-0.1c0.3,0,0.6,0.1,0.7,0.2c0.1,0.2,0.2,0.4,0.2,0.7v1
		c0,0.1,0,0.1,0,0.2c0,0.1,0,0.1,0,0.2h-0.4c0-0.1,0-0.1,0-0.2c0-0.1,0-0.1,0-0.2h0c-0.1,0.1-0.2,0.2-0.3,0.3
		C196.9,6,196.7,6,196.6,6c-0.1,0-0.2,0-0.3,0c-0.1,0-0.2-0.1-0.3-0.1s-0.1-0.1-0.2-0.2s-0.1-0.2-0.1-0.3c0-0.2,0-0.3,0.1-0.4
		c0.1-0.1,0.2-0.2,0.4-0.2c0.1-0.1,0.3-0.1,0.5-0.1c0.2,0,0.3,0,0.4,0h0.1V4.5c0-0.2,0-0.3-0.1-0.4S196.9,4,196.7,4
		c-0.1,0-0.2,0-0.4,0.1c-0.1,0-0.2,0.1-0.3,0.2L195.8,4z M196.9,4.9c-0.2,0-0.4,0-0.6,0.1s-0.2,0.2-0.2,0.3c0,0.1,0,0.2,0.1,0.3
		c0.1,0.1,0.2,0.1,0.3,0.1c0.1,0,0.2,0,0.3-0.1c0.1,0,0.1-0.1,0.2-0.1c0.1-0.1,0.1-0.1,0.1-0.2c0-0.1,0-0.2,0-0.3V4.9H196.9z"/>
	<path class="st0" d="M200.2,5.6L200.2,5.6c-0.1,0.1-0.2,0.2-0.3,0.3C199.7,6,199.5,6,199.3,6c-0.2,0-0.3,0-0.4-0.1
		c-0.1-0.1-0.3-0.1-0.4-0.2c-0.1-0.1-0.2-0.2-0.2-0.4c-0.1-0.1-0.1-0.3-0.1-0.5c0-0.2,0-0.3,0.1-0.5c0.1-0.1,0.1-0.3,0.2-0.4
		c0.1-0.1,0.2-0.2,0.4-0.2s0.3-0.1,0.5-0.1c0.2,0,0.3,0,0.4,0.1c0.1,0.1,0.3,0.2,0.4,0.3h0V2.4h0.4V6h-0.4V5.6z M200.2,4.9
		c0-0.1,0-0.2-0.1-0.3c0-0.1-0.1-0.2-0.2-0.3s-0.2-0.1-0.2-0.2c-0.1,0-0.2-0.1-0.3-0.1s-0.2,0-0.3,0.1c-0.1,0-0.2,0.1-0.2,0.2
		s-0.1,0.2-0.2,0.3c0,0.1-0.1,0.2-0.1,0.3c0,0.1,0,0.2,0.1,0.3c0,0.1,0.1,0.2,0.2,0.3s0.2,0.1,0.2,0.2c0.1,0,0.2,0.1,0.3,0.1
		s0.2,0,0.3-0.1c0.1,0,0.2-0.1,0.2-0.2s0.1-0.2,0.2-0.3C200.2,5.1,200.2,5,200.2,4.9z"/>
	<path class="st0" d="M201.2,4c0.1-0.1,0.2-0.2,0.4-0.3s0.3-0.1,0.5-0.1c0.3,0,0.6,0.1,0.7,0.2c0.1,0.2,0.2,0.4,0.2,0.7v1
		c0,0.1,0,0.1,0,0.2c0,0.1,0,0.1,0,0.2h-0.4c0-0.1,0-0.1,0-0.2c0-0.1,0-0.1,0-0.2h0c-0.1,0.1-0.2,0.2-0.3,0.3
		C202.2,6,202.1,6,201.9,6c-0.1,0-0.2,0-0.3,0c-0.1,0-0.2-0.1-0.3-0.1s-0.1-0.1-0.2-0.2s-0.1-0.2-0.1-0.3c0-0.2,0-0.3,0.1-0.4
		c0.1-0.1,0.2-0.2,0.4-0.2c0.1-0.1,0.3-0.1,0.5-0.1c0.2,0,0.3,0,0.4,0h0.1V4.5c0-0.2,0-0.3-0.1-0.4S202.3,4,202.1,4
		c-0.1,0-0.2,0-0.4,0.1c-0.1,0-0.2,0.1-0.3,0.2L201.2,4z M202.3,4.9c-0.2,0-0.4,0-0.6,0.1s-0.2,0.2-0.2,0.3c0,0.1,0,0.2,0.1,0.3
		c0.1,0.1,0.2,0.1,0.3,0.1c0.1,0,0.2,0,0.3-0.1c0.1,0,0.1-0.1,0.2-0.1c0.1-0.1,0.1-0.1,0.1-0.2c0-0.1,0-0.2,0-0.3V4.9H202.3z"/>
	<path class="st0" d="M207,5.6c-0.1,0.2-0.3,0.3-0.4,0.4C206.4,6,206.2,6,206,6c-0.2,0-0.3,0-0.5-0.1c-0.1-0.1-0.3-0.1-0.4-0.2
		S205,5.5,205,5.3c-0.1-0.1-0.1-0.3-0.1-0.5c0-0.2,0-0.3,0.1-0.5c0.1-0.1,0.1-0.3,0.2-0.4c0.1-0.1,0.2-0.2,0.4-0.2
		c0.1-0.1,0.3-0.1,0.5-0.1c0.2,0,0.3,0,0.4,0.1c0.1,0.1,0.2,0.1,0.3,0.2c0.1,0.1,0.2,0.2,0.2,0.4c0.1,0.1,0.1,0.3,0.1,0.5V5h-1.8
		c0,0.1,0,0.2,0.1,0.3c0,0.1,0.1,0.2,0.2,0.2c0.1,0.1,0.1,0.1,0.2,0.2c0.1,0,0.2,0.1,0.3,0.1c0.2,0,0.3,0,0.4-0.1
		c0.1-0.1,0.2-0.1,0.3-0.3L207,5.6z M206.7,4.7c0-0.2-0.1-0.3-0.2-0.5C206.4,4.1,206.2,4,206,4s-0.4,0.1-0.5,0.2
		c-0.1,0.1-0.2,0.3-0.2,0.5H206.7z"/>
	<path class="st0" d="M207.6,4.3c0-0.1,0-0.2,0-0.3c0-0.1,0-0.2,0-0.2h0.4c0,0.1,0,0.1,0,0.2c0,0.1,0,0.1,0,0.2h0
		c0-0.1,0.1-0.1,0.1-0.2s0.1-0.1,0.2-0.1c0.1,0,0.1-0.1,0.2-0.1c0.1,0,0.2,0,0.3,0c0.1,0,0.3,0,0.4,0.1c0.1,0,0.2,0.1,0.3,0.2
		s0.1,0.2,0.2,0.3s0,0.2,0,0.4V6h-0.4V4.7c0-0.2,0-0.3-0.1-0.4S208.9,4,208.7,4c-0.1,0-0.2,0-0.3,0.1s-0.2,0.1-0.2,0.2
		c-0.1,0.1-0.1,0.2-0.1,0.3c0,0.1,0,0.2,0,0.3V6h-0.4V4.3z"/>
	<path class="st0" d="M211.6,2.4h0.4v1.7h0c0.1-0.1,0.2-0.2,0.4-0.3c0.1-0.1,0.3-0.1,0.4-0.1c0.2,0,0.3,0,0.5,0.1
		c0.1,0.1,0.3,0.1,0.4,0.2c0.1,0.1,0.2,0.2,0.2,0.4c0.1,0.1,0.1,0.3,0.1,0.5c0,0.2,0,0.3-0.1,0.5c-0.1,0.1-0.1,0.3-0.2,0.4
		c-0.1,0.1-0.2,0.2-0.4,0.2C213.1,6,213,6,212.8,6c-0.2,0-0.4,0-0.5-0.1s-0.3-0.2-0.3-0.3h0V6h-0.4V2.4z M211.9,4.9
		c0,0.1,0,0.2,0.1,0.3s0.1,0.2,0.2,0.3c0.1,0.1,0.2,0.1,0.2,0.2c0.1,0,0.2,0.1,0.3,0.1c0.1,0,0.2,0,0.3-0.1c0.1,0,0.2-0.1,0.2-0.2
		c0.1-0.1,0.1-0.2,0.2-0.3s0.1-0.2,0.1-0.3c0-0.1,0-0.2-0.1-0.3s-0.1-0.2-0.2-0.3c-0.1-0.1-0.2-0.1-0.2-0.2c-0.1,0-0.2-0.1-0.3-0.1
		c-0.1,0-0.2,0-0.3,0.1s-0.2,0.1-0.2,0.2c-0.1,0.1-0.1,0.2-0.2,0.3S211.9,4.8,211.9,4.9z"/>
	<path class="st0" d="M214.5,4c0.1-0.1,0.2-0.2,0.4-0.3s0.3-0.1,0.5-0.1c0.3,0,0.6,0.1,0.7,0.2c0.1,0.2,0.2,0.4,0.2,0.7v1
		c0,0.1,0,0.1,0,0.2c0,0.1,0,0.1,0,0.2h-0.4c0-0.1,0-0.1,0-0.2c0-0.1,0-0.1,0-0.2h0c-0.1,0.1-0.2,0.2-0.3,0.3
		C215.5,6,215.3,6,215.2,6c-0.1,0-0.2,0-0.3,0c-0.1,0-0.2-0.1-0.3-0.1s-0.1-0.1-0.2-0.2s-0.1-0.2-0.1-0.3c0-0.2,0-0.3,0.1-0.4
		c0.1-0.1,0.2-0.2,0.4-0.2c0.1-0.1,0.3-0.1,0.5-0.1c0.2,0,0.3,0,0.4,0h0.1V4.5c0-0.2,0-0.3-0.1-0.4S215.5,4,215.3,4
		c-0.1,0-0.2,0-0.4,0.1c-0.1,0-0.2,0.1-0.3,0.2L214.5,4z M215.5,4.9c-0.2,0-0.4,0-0.6,0.1s-0.2,0.2-0.2,0.3c0,0.1,0,0.2,0.1,0.3
		c0.1,0.1,0.2,0.1,0.3,0.1c0.1,0,0.2,0,0.3-0.1c0.1,0,0.1-0.1,0.2-0.1c0.1-0.1,0.1-0.1,0.1-0.2c0-0.1,0-0.2,0-0.3V4.9H215.5z"/>
	<path class="st0" d="M217,5.4c0.1,0.1,0.2,0.2,0.2,0.2s0.2,0.1,0.3,0.1c0.1,0,0.1,0,0.2,0c0.1,0,0.1,0,0.2-0.1c0,0,0.1-0.1,0.1-0.1
		c0,0,0-0.1,0-0.2c0-0.1,0-0.1,0-0.1c0,0-0.1-0.1-0.1-0.1c0,0-0.1,0-0.2-0.1s-0.1,0-0.2,0c-0.1,0-0.2,0-0.3-0.1s-0.2-0.1-0.2-0.1
		s-0.1-0.1-0.2-0.2c0-0.1-0.1-0.2-0.1-0.3c0-0.1,0-0.2,0.1-0.3c0-0.1,0.1-0.2,0.2-0.2c0.1-0.1,0.2-0.1,0.3-0.1c0.1,0,0.2,0,0.3,0
		c0.2,0,0.3,0,0.4,0.1c0.1,0.1,0.2,0.2,0.3,0.3l-0.3,0.2c0-0.1-0.1-0.1-0.2-0.2c-0.1,0-0.2-0.1-0.3-0.1c-0.1,0-0.1,0-0.2,0
		s-0.1,0-0.1,0.1s-0.1,0.1-0.1,0.1c0,0,0,0.1,0,0.1c0,0,0,0.1,0,0.1c0,0,0.1,0.1,0.1,0.1c0.1,0,0.1,0,0.2,0.1c0.1,0,0.1,0,0.2,0
		c0.1,0,0.2,0,0.3,0.1s0.2,0.1,0.2,0.1c0.1,0,0.1,0.1,0.2,0.2c0,0.1,0.1,0.2,0.1,0.3c0,0.1,0,0.2-0.1,0.3c0,0.1-0.1,0.2-0.2,0.2
		C218.1,5.9,218,6,217.9,6c-0.1,0-0.2,0-0.3,0c-0.2,0-0.4,0-0.5-0.1c-0.1-0.1-0.3-0.2-0.4-0.3L217,5.4z"/>
	<path class="st0" d="M220.9,5.6c-0.1,0.2-0.3,0.3-0.4,0.4C220.3,6,220.2,6,220,6c-0.2,0-0.3,0-0.5-0.1c-0.1-0.1-0.3-0.1-0.4-0.2
		s-0.2-0.2-0.2-0.4c-0.1-0.1-0.1-0.3-0.1-0.5c0-0.2,0-0.3,0.1-0.5c0.1-0.1,0.1-0.3,0.2-0.4c0.1-0.1,0.2-0.2,0.4-0.2
		c0.1-0.1,0.3-0.1,0.5-0.1c0.2,0,0.3,0,0.4,0.1c0.1,0.1,0.2,0.1,0.3,0.2c0.1,0.1,0.2,0.2,0.2,0.4c0.1,0.1,0.1,0.3,0.1,0.5V5h-1.8
		c0,0.1,0,0.2,0.1,0.3c0,0.1,0.1,0.2,0.2,0.2c0.1,0.1,0.1,0.1,0.2,0.2c0.1,0,0.2,0.1,0.3,0.1c0.2,0,0.3,0,0.4-0.1
		c0.1-0.1,0.2-0.1,0.3-0.3L220.9,5.6z M220.6,4.7c0-0.2-0.1-0.3-0.2-0.5C220.3,4.1,220.2,4,220,4s-0.4,0.1-0.5,0.2
		c-0.1,0.1-0.2,0.3-0.2,0.5H220.6z"/>
	<path class="st0" d="M222.9,4c0.1-0.1,0.2-0.2,0.4-0.3s0.3-0.1,0.5-0.1c0.3,0,0.6,0.1,0.7,0.2c0.1,0.2,0.2,0.4,0.2,0.7v1
		c0,0.1,0,0.1,0,0.2c0,0.1,0,0.1,0,0.2h-0.4c0-0.1,0-0.1,0-0.2c0-0.1,0-0.1,0-0.2h0c-0.1,0.1-0.2,0.2-0.3,0.3
		C223.9,6,223.8,6,223.6,6c-0.1,0-0.2,0-0.3,0c-0.1,0-0.2-0.1-0.3-0.1s-0.1-0.1-0.2-0.2s-0.1-0.2-0.1-0.3c0-0.2,0-0.3,0.1-0.4
		c0.1-0.1,0.2-0.2,0.4-0.2c0.1-0.1,0.3-0.1,0.5-0.1c0.2,0,0.3,0,0.4,0h0.1V4.5c0-0.2,0-0.3-0.1-0.4S223.9,4,223.8,4
		c-0.1,0-0.2,0-0.4,0.1c-0.1,0-0.2,0.1-0.3,0.2L222.9,4z M224,4.9c-0.2,0-0.4,0-0.6,0.1s-0.2,0.2-0.2,0.3c0,0.1,0,0.2,0.1,0.3
		c0.1,0.1,0.2,0.1,0.3,0.1c0.1,0,0.2,0,0.3-0.1c0.1,0,0.1-0.1,0.2-0.1c0.1-0.1,0.1-0.1,0.1-0.2c0-0.1,0-0.2,0-0.3V4.9H224z"/>
	<path class="st0" d="M225.7,3.7c0.1,0,0.1,0,0.2,0.1c0.1,0.1,0.1,0.1,0.1,0.2s0,0.1-0.1,0.2c-0.1,0.1-0.1,0.1-0.2,0.1
		c-0.1,0-0.1,0-0.2-0.1c-0.1-0.1-0.1-0.1-0.1-0.2s0-0.1,0.1-0.2C225.5,3.7,225.6,3.7,225.7,3.7z M225.7,5.4c0.1,0,0.1,0,0.2,0.1
		c0.1,0.1,0.1,0.1,0.1,0.2s0,0.1-0.1,0.2C225.8,6,225.8,6,225.7,6c-0.1,0-0.1,0-0.2-0.1c-0.1-0.1-0.1-0.1-0.1-0.2s0-0.1,0.1-0.2
		C225.5,5.5,225.6,5.4,225.7,5.4z"/>
</g>
<g>
	<g transform="translate(-65 -23.387)">
		<g transform="translate(65 23.387)">
			<rect x="155.5" y="26.1" class="st12" width="13.3" height="0.9"/>
			<rect x="155.5" y="12.9" class="st12" width="13.3" height="0.9"/>
			<g transform="translate(0 33.712)">
				<path class="st12" d="M156.5-15.6c0.1,0.1,0.1,0.2,0.2,0.3c0.1,0.1,0.2,0.1,0.3,0.1c0.1,0.1,0.3,0.1,0.4,0.1s0.2,0,0.3,0
					c0.1,0,0.2-0.1,0.3-0.1c0.1,0,0.2-0.1,0.2-0.2s0.1-0.2,0.1-0.3s-0.1-0.2-0.1-0.3c-0.1-0.1-0.2-0.2-0.3-0.2
					c-0.1-0.1-0.3-0.1-0.5-0.1c-0.2-0.1-0.3-0.1-0.5-0.2c-0.2,0-0.3-0.1-0.5-0.1c-0.2-0.1-0.3-0.1-0.5-0.2c-0.1-0.1-0.2-0.2-0.3-0.4
					c-0.1-0.2-0.1-0.3-0.1-0.6s0.1-0.5,0.2-0.6c0.1-0.2,0.2-0.3,0.4-0.5s0.3-0.2,0.6-0.3c0.2-0.1,0.4-0.1,0.6-0.1s0.5,0.1,0.7,0.1
					c0.2,0.1,0.4,0.1,0.6,0.3c0.2,0.1,0.3,0.3,0.4,0.5c0.1,0.2,0.2,0.5,0.2,0.7h-1c0-0.1-0.1-0.2-0.1-0.3c-0.1-0.1-0.1-0.2-0.2-0.2
					c-0.1-0.1-0.2-0.1-0.3-0.1s-0.2,0-0.3,0s-0.2,0-0.2,0.1c-0.1,0-0.2,0.1-0.2,0.1c-0.1,0.1-0.1,0.1-0.2,0.2
					c-0.1,0.1-0.1,0.2-0.1,0.2c0,0.1,0,0.2,0.1,0.2c0.1,0.1,0.1,0.1,0.2,0.2c0.1,0.1,0.3,0.1,0.5,0.1c0.2,0.1,0.4,0.1,0.7,0.2
					c0.1,0,0.2,0.1,0.3,0.1c0.2,0.1,0.3,0.1,0.5,0.2c0.2,0.1,0.3,0.2,0.4,0.4c0.1,0.1,0.1,0.3,0.1,0.6c0,0.2-0.1,0.4-0.1,0.6
					s-0.2,0.3-0.3,0.5c-0.2,0.1-0.4,0.2-0.6,0.3c-0.3,0.1-0.6,0.1-0.9,0.1c-0.2,0-0.5-0.1-0.7-0.1c-0.2-0.1-0.5-0.2-0.6-0.3
					c-0.2-0.1-0.3-0.3-0.5-0.5c-0.1-0.2-0.2-0.5-0.2-0.7h1C156.5-15.9,156.5-15.7,156.5-15.6z"/>
				<path class="st12" d="M162-19.1c0.3,0,0.6,0.1,0.9,0.1c0.3,0.1,0.5,0.2,0.7,0.5c0.2,0.2,0.3,0.5,0.5,0.7c0.1,0.3,0.2,0.7,0.2,1
					c0,0.3-0.1,0.6-0.1,0.9c-0.1,0.3-0.3,0.5-0.5,0.7c-0.2,0.2-0.4,0.4-0.7,0.5s-0.6,0.2-0.9,0.2h-2v-4.7H162z M161.9-15.3
					c0.2,0,0.3,0,0.5-0.1s0.3-0.1,0.4-0.2s0.2-0.3,0.3-0.5c0.1-0.2,0.1-0.5,0.1-0.7s0-0.4-0.1-0.6c-0.1-0.2-0.1-0.3-0.2-0.5
					c-0.1-0.1-0.2-0.2-0.4-0.3c-0.2-0.1-0.4-0.1-0.6-0.1h-0.7v3H161.9z"/>
				<path class="st12" d="M167.4-14.5c-0.2,0.1-0.5,0.1-0.7,0.1c-0.3,0-0.7-0.1-1-0.2s-0.5-0.3-0.7-0.5s-0.3-0.5-0.5-0.7
					c-0.1-0.3-0.1-0.6-0.1-1s0.1-0.7,0.2-1c0.1-0.3,0.2-0.6,0.5-0.8s0.5-0.4,0.7-0.5s0.6-0.2,1-0.2c0.2,0,0.5,0.1,0.7,0.1
					c0.2,0.1,0.5,0.2,0.6,0.3c0.4,0.3,0.6,0.7,0.7,1.2h-1c-0.1-0.3-0.2-0.5-0.3-0.6c-0.2-0.1-0.4-0.2-0.6-0.2
					c-0.2,0-0.4,0.1-0.6,0.1c-0.2,0.1-0.3,0.2-0.4,0.3c-0.1,0.2-0.2,0.3-0.2,0.5c-0.1,0.2-0.1,0.4-0.1,0.6c0,0.2,0,0.4,0.1,0.6
					c0.1,0.2,0.1,0.3,0.2,0.5c0.1,0.1,0.2,0.3,0.4,0.3c0.2,0.1,0.4,0.1,0.6,0.1c0.3,0,0.6-0.1,0.8-0.2c0.2-0.1,0.3-0.4,0.3-0.7h-1
					V-17h1.9v2.6h-0.6l-0.1-0.5C167.9-14.7,167.7-14.6,167.4-14.5z"/>
			</g>
			<g transform="translate(0 146.526)">
				<path class="st12" d="M157-126.4l1,2.6h-0.6l-0.2-0.6h-1l-0.2,0.6h-0.6l1-2.6H157z M157-124.9l-0.3-0.9l0,0l-0.3,0.9H157z"/>
				<path class="st12" d="M159.8-125.7c-0.1-0.1-0.1-0.1-0.1-0.1c-0.1,0-0.1-0.1-0.2-0.1c-0.1,0-0.1-0.1-0.2-0.1s-0.2,0-0.3,0.1
					c-0.1,0.1-0.2,0.1-0.2,0.2c-0.1,0.1-0.1,0.2-0.1,0.3s-0.1,0.2-0.1,0.3c0,0.1,0,0.2,0.1,0.3c0,0.1,0.1,0.2,0.1,0.3
					c0.1,0.1,0.1,0.2,0.2,0.2c0.1,0.1,0.2,0.1,0.3,0.1c0.2,0,0.3-0.1,0.4-0.2c0.1-0.1,0.2-0.3,0.2-0.4h0.5c0,0.2-0.1,0.3-0.1,0.5
					c-0.1,0.1-0.1,0.2-0.2,0.3c-0.1,0.1-0.2,0.2-0.3,0.2c-0.1,0.1-0.3,0.1-0.5,0.1s-0.3-0.1-0.5-0.1c-0.2-0.1-0.3-0.2-0.4-0.3
					c-0.1-0.1-0.2-0.3-0.2-0.4c-0.1-0.2-0.1-0.3-0.1-0.5c0-0.2,0.1-0.3,0.1-0.5c0.1-0.2,0.1-0.3,0.2-0.5s0.2-0.2,0.4-0.3
					c0.3-0.1,0.6-0.1,0.9-0.1c0.1,0.1,0.2,0.1,0.3,0.2s0.2,0.2,0.2,0.3c0.1,0.1,0.1,0.2,0.1,0.4h-0.5
					C159.9-125.6,159.8-125.7,159.8-125.7z"/>
				<path class="st12" d="M160.6-125.9v-0.5h2.1v0.5H162v2.1h-0.6v-2.1H160.6z"/>
				<path class="st12" d="M163.6-126.4v2.6H163v-2.6H163.6z"/>
				<path class="st12" d="M167.2-126.4l1.1,1.7l0,0v-1.7h0.5v2.6h-0.6l-1.1-1.7l0,0v1.7h-0.5v-2.6H167.2z"/>
			</g>
			<g transform="translate(170.94 148.19)">
				<path class="st13" d="M-6.4-127.2c0.1-0.1,0.1-0.1,0.1-0.2l-0.3-0.4c-0.1,0.1-0.2,0.2-0.2,0.3L-6.4-127.2z"/>
				<path class="st14" d="M-5.5-127.5c0.1,0.1,0.1,0.1,0.2,0.1l0.3-0.4c-0.1-0.1-0.2-0.2-0.3-0.2L-5.5-127.5z"/>
				<path class="st15" d="M-4.7-127.3l-0.5,0.2c0,0.1,0.1,0.1,0.1,0.2l0.6-0.1C-4.6-127.1-4.6-127.2-4.7-127.3"/>
				<path class="st16" d="M-5.2-127.1l0.5-0.2c-0.1-0.1-0.1-0.2-0.2-0.3l-0.3,0.4C-5.2-127.2-5.2-127.2-5.2-127.1"/>
				<path class="st17" d="M-6.5-126.8C-6.5-126.8-6.5-126.8-6.5-126.8l-0.6-0.1c0,0.1,0,0.1,0,0.1c0,0.1,0,0.2,0.1,0.3l0.5-0.2
					C-6.5-126.7-6.5-126.7-6.5-126.8"/>
				<path class="st18" d="M-5.2-126.3c-0.1,0.1-0.1,0.1-0.1,0.1l0.3,0.5c0.1-0.1,0.2-0.2,0.3-0.3L-5.2-126.3z"/>
				<path class="st19" d="M-5.1-126.8c0,0.1,0,0.1,0,0.2l0.5,0.2c0-0.1,0.1-0.2,0.1-0.3c0-0.1,0-0.1,0-0.1L-5.1-126.8
					C-5.1-126.8-5.1-126.8-5.1-126.8"/>
				<path class="st20" d="M-6.4-126.3l-0.5,0.3c0.1,0.1,0.2,0.2,0.3,0.3l0.3-0.5C-6.3-126.3-6.3-126.3-6.4-126.3"/>
				<path class="st21" d="M-6.5-126.9c0-0.1,0.1-0.1,0.1-0.2l-0.5-0.2c-0.1,0.1-0.1,0.2-0.1,0.4L-6.5-126.9z"/>
				<path class="st22" d="M-5.2-125.7l-0.3-0.5c-0.1,0.1-0.1,0.1-0.2,0.1l0.1,0.5C-5.4-125.6-5.3-125.6-5.2-125.7"/>
				<path class="st23" d="M-5.1-126.5c0,0.1-0.1,0.1-0.1,0.2l0.5,0.3c0.1-0.1,0.1-0.2,0.2-0.3L-5.1-126.5z"/>
				<path class="st24" d="M-5.7-126.1c-0.1,0-0.1,0-0.2,0l-0.1,0.5c0.1,0,0.3,0,0.4,0L-5.7-126.1z"/>
				<path class="st25" d="M-5.8-127.5c0.1,0,0.1,0,0.2,0.1l0.2-0.5c-0.1-0.1-0.2-0.1-0.4-0.1V-127.5z"/>
				<path class="st26" d="M-6-126.1c-0.1,0-0.1-0.1-0.2-0.1l-0.3,0.5c0.1,0.1,0.2,0.1,0.3,0.1L-6-126.1z"/>
				<path class="st27" d="M-6-127.5c0.1,0,0.1-0.1,0.2-0.1v-0.6c-0.1,0-0.2,0.1-0.4,0.1L-6-127.5z"/>
				<path class="st28" d="M-6.4-126.4c-0.1-0.1-0.1-0.1-0.1-0.2l-0.5,0.2c0.1,0.1,0.1,0.2,0.2,0.3L-6.4-126.4z"/>
				<path class="st29" d="M-6.3-127.3c0.1-0.1,0.1-0.1,0.2-0.1l-0.2-0.5c-0.1,0.1-0.2,0.1-0.3,0.2L-6.3-127.3z"/>
			</g>
			<g transform="translate(0 211.098)">
				<path class="st12" d="M156.1-187.8l0.5,1.3l0,0l0.4-1.3h0.6v1.9h-0.4v-1.4l0,0l-0.5,1.4h-0.3l-0.5-1.3l0,0v1.3h-0.4v-1.9H156.1z
					"/>
				<path class="st12" d="M158.8-187.8l0.7,1.9h-0.4l-0.1-0.4h-0.7l-0.2,0.4h-0.4l0.7-1.9H158.8z M158.9-186.7l-0.2-0.7l0,0
					l-0.2,0.7H158.9z"/>
				<path class="st12" d="M160.1-187.8l0.8,1.2l0,0v-1.2h0.4v1.9h-0.4l-0.8-1.2l0,0v1.2h-0.4v-1.9H160.1z"/>
				<path class="st12" d="M162.6-187.8l0.7,1.9h-0.5l-0.1-0.4H162l-0.2,0.4h-0.4l0.7-1.9H162.6z M162.6-186.7l-0.2-0.7l0,0l-0.2,0.7
					H162.6z"/>
				<path class="st12" d="M164.6-185.9c-0.1,0.1-0.2,0.1-0.3,0.1s-0.3,0-0.4-0.1s-0.2-0.1-0.3-0.2s-0.1-0.2-0.2-0.3
					c-0.1-0.1-0.1-0.2-0.1-0.4c0-0.1,0-0.3,0.1-0.4c0.1-0.1,0.1-0.2,0.2-0.3c0.1-0.1,0.2-0.2,0.3-0.2s0.3-0.1,0.4-0.1s0.2,0,0.3,0.1
					c0.1,0.1,0.2,0.1,0.2,0.1c0.2,0.1,0.3,0.3,0.3,0.5h-0.4c0-0.1-0.1-0.2-0.1-0.2s-0.2-0.1-0.3-0.1c-0.1,0-0.2,0-0.2,0.1
					c-0.1,0.1-0.1,0.1-0.2,0.2c-0.1,0.1-0.1,0.1-0.1,0.2c0,0.1,0,0.2,0,0.2c0,0.1,0,0.2,0,0.2s0.1,0.1,0.1,0.2
					c0.1,0.1,0.1,0.1,0.2,0.1c0.1,0.1,0.2,0.1,0.2,0.1c0.1,0,0.2-0.1,0.3-0.1c0.1-0.1,0.1-0.2,0.1-0.3h-0.4v-0.3h0.8v1h-0.3
					l-0.1-0.2C164.8-186,164.7-186,164.6-185.9z"/>
				<path class="st12" d="M166.9-187.8v0.3h-1v0.4h0.9v0.3h-0.9v0.5h1v0.3h-1.4v-1.9H166.9L166.9-187.8z"/>
				<path class="st12" d="M168.2-187.8c0.1,0,0.2,0,0.2,0.1c0.1,0,0.1,0.1,0.2,0.1c0.1,0.1,0.1,0.1,0.1,0.2c0.1,0.1,0.1,0.1,0.1,0.2
					s0,0.2-0.1,0.3c-0.1,0.1-0.1,0.2-0.2,0.2l0,0c0.1,0,0.1,0.1,0.1,0.1s0.1,0.1,0.1,0.1s0.1,0.1,0.1,0.1c0,0.1,0,0.1,0,0.1
					c0,0.1,0,0.1,0,0.1s0,0.1,0,0.1s0,0.1,0,0.1c0,0.1,0,0.1,0.1,0.1h-0.4c0-0.1-0.1-0.1-0.1-0.2c0-0.1,0-0.2,0-0.2
					s-0.1-0.2-0.1-0.2c-0.1-0.1-0.1-0.1-0.2-0.1h-0.4v0.7h-0.4v-1.9H168.2L168.2-187.8z M168.1-187c0.1,0,0.2,0,0.2-0.1
					c0.1-0.1,0.1-0.1,0.1-0.2c0-0.1,0-0.2-0.1-0.2c-0.1-0.1-0.1-0.1-0.2-0.1h-0.5v0.5L168.1-187z"/>
			</g>
		</g>
		<g transform="translate(385.049 23.754)">
			<path class="st12" d="M-148.7,12.5c0.1,0,0.1,0,0.1,0c0,0,0.1,0,0.1,0.1l0.1,0.1c0,0.1,0,0.1,0,0.1c0,0.1,0,0.1,0,0.1
				c0,0,0,0.1-0.1,0.1l-0.1,0.1c-0.1,0-0.1,0-0.1,0h-0.2v-0.5L-148.7,12.5L-148.7,12.5z M-148.7,12.9
				C-148.6,12.9-148.6,12.9-148.7,12.9C-148.6,12.9-148.6,12.9-148.7,12.9c0.1-0.1,0.1-0.1,0.1-0.1v-0.1v-0.1v-0.1c0,0,0,0-0.1-0.1
				h-0.1h-0.1v0.3L-148.7,12.9L-148.7,12.9z"/>
			<path class="st12" d="M-148.3,12.9c0.1,0,0.1,0,0.1,0c0,0,0,0,0-0.1h0.1c0,0.1-0.1,0.1-0.1,0.1C-148.2,13-148.2,13-148.3,12.9
				L-148.3,12.9C-148.3,13-148.3,13-148.3,12.9c-0.1,0-0.1-0.1-0.1-0.1v-0.1v-0.1c0-0.1,0.1-0.1,0.1-0.1h0.1h0.1c0,0,0.1,0,0.1,0.1
				s0,0.1,0.1,0.1v0.1h-0.3C-148.3,12.9-148.3,12.9-148.3,12.9z M-148.2,12.8L-148.2,12.8c-0.1,0-0.1,0-0.1,0l0,0l0,0l0,0H-148.2
				C-148.1,12.8-148.1,12.8-148.2,12.8z"/>
			<path class="st12" d="M-147.9,13l-0.1-0.3h0.1l0.1,0.2l0,0l0.1-0.2h0.1l-0.1,0.3H-147.9z"/>
			<path class="st12" d="M-147.5,12.9c0.1,0,0.1,0,0.1,0c0,0,0,0,0-0.1h0.1c0,0.1-0.1,0.1-0.1,0.1C-147.4,13-147.4,13-147.5,12.9
				L-147.5,12.9C-147.5,13-147.5,13-147.5,12.9c-0.1,0-0.1-0.1-0.1-0.1v-0.1v-0.1c0-0.1,0.1-0.1,0.1-0.1h0.1h0.1c0,0,0.1,0,0.1,0.1
				s0,0.1,0.1,0.1v0.1h-0.3C-147.5,12.9-147.5,12.9-147.5,12.9z M-147.4,12.8L-147.4,12.8c-0.1,0-0.1,0-0.1,0l0,0l0,0l0,0H-147.4
				C-147.4,12.8-147.4,12.8-147.4,12.8z"/>
			<path class="st12" d="M-147.1,12.5V13h-0.1v-0.5H-147.1z"/>
			<path class="st12" d="M-147,12.8c0-0.1,0.1-0.1,0.1-0.1c0.1,0,0.1,0,0.2,0c0.1,0,0.1,0.1,0.1,0.1v0.1v0.1c0,0,0,0.1-0.1,0.1
				s-0.1,0-0.1,0.1c-0.1,0-0.1,0-0.2,0c0,0-0.1,0-0.1-0.1s0-0.1-0.1-0.1V12.8C-147.1,12.8-147,12.8-147,12.8z M-147,12.9
				C-147,12.9-147,12.9-147,12.9C-147,12.9-146.9,12.9-147,12.9c0.1,0.1,0.1,0.1,0.1,0.1s0,0,0.1,0l0,0c0,0,0,0,0-0.1c0,0,0,0,0-0.1
				c0-0.1,0,0,0-0.1c0,0,0,0,0-0.1l0,0c0,0,0,0-0.1,0c0,0-0.1,0-0.1,0.1C-146.9,12.8-146.9,12.8-147,12.9
				C-147,12.8-147,12.8-147,12.9L-147,12.9z"/>
			<path class="st12" d="M-146.5,12.6L-146.5,12.6L-146.5,12.6C-146.5,12.7-146.5,12.7-146.5,12.6c0.1,0,0.1,0,0.1,0h0.1
				c0,0,0.1,0,0.1,0.1v0.1v0.1v0.1v0.1c0,0,0,0.1-0.1,0.1h-0.1h-0.1c0,0-0.1,0-0.1-0.1l0,0v0.2h-0.1v-0.5L-146.5,12.6L-146.5,12.6z
				 M-146.4,12.9C-146.4,12.9-146.3,12.9-146.4,12.9C-146.3,12.9-146.3,12.9-146.4,12.9c0.1-0.1,0.1-0.1,0.1-0.1c0-0.1,0,0,0-0.1
				c0,0,0,0,0-0.1l0,0c0,0,0,0-0.1,0c0,0,0,0-0.1,0l0,0c0,0,0,0,0,0.1c0,0.1,0,0,0,0.1C-146.5,12.9-146.5,12.8-146.4,12.9
				C-146.5,12.9-146.5,12.9-146.4,12.9L-146.4,12.9C-146.5,13-146.5,13-146.4,12.9C-146.4,13-146.4,13-146.4,12.9L-146.4,12.9z"/>
			<path class="st12" d="M-146.1,12.9c0.1,0,0.1,0,0.1,0c0,0,0,0,0-0.1h0.1c0,0.1-0.1,0.1-0.1,0.1C-146,13-146,13-146.1,12.9
				L-146.1,12.9C-146.1,13-146.2,13-146.1,12.9c-0.1,0-0.1-0.1-0.1-0.1v-0.1v-0.1c0-0.1,0.1-0.1,0.1-0.1h0.1h0.1c0,0,0.1,0,0.1,0.1
				s0,0.1,0.1,0.1v0.1h-0.3C-146.1,12.9-146.1,12.9-146.1,12.9z M-146,12.8L-146,12.8c-0.1,0-0.1,0-0.1,0l0,0l0,0l0,0H-146
				C-145.9,12.8-145.9,12.8-146,12.8z"/>
			<path class="st12" d="M-145.6,13C-145.6,13-145.6,13-145.6,13c-0.1,0.1-0.1,0.1-0.1,0.1h-0.1c0,0-0.1,0-0.1-0.1v-0.1v-0.1v-0.1
				v-0.1c0,0,0-0.1,0.1-0.1h0.1h0.1c0,0,0.1,0,0.1,0.1l0,0v-0.2h0.1V13L-145.6,13L-145.6,13L-145.6,13z M-145.6,12.8
				C-145.6,12.8-145.6,12.8-145.6,12.8C-145.6,12.8-145.6,12.8-145.6,12.8c-0.1-0.1-0.1-0.1-0.1-0.1c0,0,0,0-0.1,0l0,0
				c0,0,0,0,0,0.1c0,0.1,0,0,0,0.1s0,0,0,0.1c0,0,0,0,0,0.1l0,0c0,0,0,0,0.1,0c0,0,0,0,0.1,0l0,0c0,0,0,0,0-0.1
				S-145.6,12.9-145.6,12.8L-145.6,12.8L-145.6,12.8z"/>
			<path class="st12" d="M-145.1,12.5v0.2l0,0c0,0,0-0.1,0.1-0.1h0.1c0.1,0,0.1,0,0.1,0.1c0,0,0,0.1,0.1,0.1c0,0.1,0,0.1,0,0.2
				c0,0,0,0.1-0.1,0.1c0,0-0.1,0.1-0.1,0.1h-0.1c0,0-0.1,0-0.1-0.1l0,0V13h-0.1v-0.5H-145.1L-145.1,12.5L-145.1,12.5z M-144.9,12.8
				C-144.9,12.8-144.9,12.8-144.9,12.8C-144.9,12.8-145,12.8-144.9,12.8c-0.1-0.1-0.1-0.1-0.1-0.1c0,0,0,0-0.1,0l0,0c0,0,0,0,0,0.1
				c0,0.1,0,0,0,0.1s0,0,0,0.1c0,0,0,0,0,0.1l0,0c0,0,0,0,0.1,0c0,0,0,0,0.1,0l0,0c0,0,0,0,0-0.1S-144.9,12.9-144.9,12.8
				L-144.9,12.8z"/>
			<path class="st12" d="M-144.6,13.2L-144.6,13.2L-144.6,13.2L-144.6,13.2L-144.6,13.2L-144.6,13.2L-144.6,13.2L-144.6,13.2
				L-144.6,13.2L-144.6,13.2l-0.2-0.4h0.1l0.1,0.3l0,0l0.1-0.3h0.1L-144.6,13.2C-144.6,13.1-144.6,13.1-144.6,13.2z"/>
		</g>
		<g transform="translate(481.516 45.855)">
			<path class="st12" d="M-240.6-6.1l0.3,0.1c0.1,0,0.1,0,0.1-0.1v-0.1c0,0-0.1-0.1-0.1-0.1l-0.3-0.1v0.1l0,0v-0.2l0,0v0.1h0.2
				c0.1,0,0.1,0,0.1,0.1s0,0.1,0,0.1c0,0.1-0.1,0.2-0.2,0.2l-0.3-0.1V-6l0,0v-0.2l0,0"/>
			<path class="st12" d="M-240.4-6.6l0.3,0.1l0.1-0.1l0,0l-0.1,0.2l0,0v-0.1L-240.4-6.6l-0.1,0.1l0,0L-240.4-6.6l0.3-0.1l-0.2-0.1
				l-0.1,0.1l0,0l0.1-0.1l0,0v0.1l0.4,0.1v0.1"/>
			<path class="st12" d="M-239.8-7.4l0.1,0.1c0,0.1-0.1,0.1-0.1,0.1c-0.1,0.1-0.2,0.1-0.3,0.1s-0.1-0.2-0.1-0.3
				c0-0.1,0.1-0.1,0.1-0.1l0,0l0.1,0.1l0,0h-0.1c-0.1,0.1-0.1,0.1-0.1,0.2c0,0.1,0.1,0.1,0.1,0.1c0.1,0.1,0.2,0.1,0.3-0.1l0,0
				L-239.8-7.4L-239.8-7.4L-239.8-7.4l0.1-0.1l0,0"/>
			<path class="st12" d="M-239.5-7.4l-0.2-0.3h-0.1l0,0l0.2-0.1l0,0v0.1l0.3,0.3l0.1-0.1v-0.1l0,0l0.1,0.1l-0.2,0.2l0,0"/>
			<path class="st12" d="M-239.4-7.8c0.1,0.1,0.2,0.1,0.2,0.1c0.1-0.1,0.1-0.1,0-0.2c-0.1-0.1-0.2-0.1-0.2-0.1
				C-239.4-8-239.4-7.9-239.4-7.8 M-239.4-7.8c-0.1-0.1-0.1-0.2,0.1-0.3l0,0c0.1-0.1,0.2-0.1,0.3,0.1l0,0c0.1,0.1,0.1,0.2-0.1,0.3
				l0,0C-239.3-7.6-239.4-7.6-239.4-7.8L-239.4-7.8"/>
			<path class="st12" d="M-238.8-7.9L-238.8-7.9c0.1,0,0.1-0.1,0.1-0.1V-8c0-0.1-0.1-0.1-0.1-0.1l0,0l0,0 M-238.9-8.1L-238.9-8.1
				c0.1,0,0.1-0.1,0.1-0.1l0,0c0-0.1-0.1-0.1-0.1-0.1l0,0l0,0L-238.9-8.1z M-238.9-7.9l-0.1-0.3h-0.1l0,0l0.2-0.1c0.1,0,0.1,0,0.1,0
				c0,0,0.1,0,0.1,0.1s0,0.1-0.1,0.2c0.1,0,0.2,0,0.2,0.1s0,0.1,0,0.1c0,0.1-0.1,0.1-0.1,0.1L-238.9-7.9L-238.9-7.9L-238.9-7.9z"/>
			<path class="st12" d="M-238.5-8.2h0.1l-0.1-0.1v-0.1 M-238.5-8.2V-8h0.1l0,0h-0.2l0,0L-238.5-8.2l0.1-0.4h0.1l0.2,0.4h0.1l0,0
				l-0.2,0.1l0,0l0.1-0.1l-0.1-0.1L-238.5-8.2z"/>
			<path class="st12" d="M-238-8.1v-0.3h-0.1l0,0h0.2l0,0h-0.1V-8h0.1l0.1-0.1l0,0V-8L-238-8.1L-238-8.1"/>
			<path class="st12" d="M-237.2-8L-237.2-8L-237.2-8L-237.2-8L-237.2-8c0,0.1-0.1,0-0.1,0c-0.1,0-0.2-0.1-0.2-0.2c0,0,0,0,0-0.1
				c0.1-0.1,0.2-0.2,0.3-0.2c0.1,0,0.1,0,0.1,0.1v0.1l0,0v-0.1l0,0c-0.1,0-0.1,0-0.2,0c-0.1,0-0.1,0.1-0.1,0.1
				C-237.4-8.1-237.4-8-237.2-8C-237.3-8-237.2-8-237.2-8"/>
			<path class="st12" d="M-236.9-8c-0.1,0.1-0.1,0.2,0,0.2c0.1,0,0.2,0,0.2-0.1c0.1-0.1,0.1-0.2,0-0.2C-236.8-8.2-236.9-8.2-236.9-8
				 M-237-8.1c0.1-0.1,0.2-0.2,0.3-0.1l0,0c0.1,0.1,0.2,0.2,0.1,0.3l0,0c-0.1,0.1-0.2,0.2-0.3,0.1l0,0C-237-7.9-237.1-8-237-8.1
				L-237-8.1"/>
			<path class="st12" d="M-236.4-7.6l0.3-0.2l0.1,0.1l0,0h-0.1l-0.2,0.3v0.1l0,0l-0.2-0.1l0,0h0.1l0.2-0.2l-0.3,0.2l0,0l0.1-0.3
				l-0.2,0.2v0.1l0,0l-0.1-0.1l0,0h0.1l0.2-0.3V-8l0,0l0.1,0.1"/>
			<path class="st12" d="M-236-7.3L-236-7.3C-236-7.2-236-7.2-236-7.3l0.1,0.1l0.1-0.1v-0.1l0,0 M-236-7.3l-0.1,0.1v0.1l0,0
				l-0.1-0.2l0,0l0.1,0.1l0.3-0.2v-0.1l0,0l0.1,0.1c0.1,0.1,0.1,0.1,0.1,0.1c0,0.1,0,0.1-0.1,0.1C-235.9-7.1-236-7.2-236-7.3
				L-236-7.3z"/>
			<path class="st12" d="M-235.9-7l0.1,0.1l0.1-0.1c0,0,0,0,0.1-0.1 M-235.9-7h-0.1V-7l0,0l-0.1-0.1l0,0L-236-7h0.5l0,0l-0.3,0.3
				v0.1l0,0l-0.1-0.2l0,0l0.1,0.1l0.1-0.1L-235.9-7z"/>
			<path class="st12" d="M-235.7-6.4h0.1l0,0H-235.7L-235.7-6.4C-235.8-6.4-235.8-6.5-235.7-6.4c-0.1-0.2-0.1-0.3,0.1-0.3
				c0,0,0,0,0.1,0c0.1-0.1,0.3,0,0.3,0.2c0,0.1,0,0.1,0,0.1h-0.1l0,0l0.1-0.1l0,0c0-0.1-0.1-0.1-0.1-0.1c-0.1,0-0.1,0-0.2,0
				C-235.7-6.6-235.8-6.5-235.7-6.4L-235.7-6.4"/>
			<path class="st12" d="M-235.3-6.1l-0.3,0.1V-6l0,0v-0.2l0,0v0.1l0.3-0.1v-0.1h-0.1v-0.1h0.1l0.1,0.4h-0.1l0,0l0.1-0.1"/>
			<path class="st12" d="M-240-4.1c0.2,0.1,0.4,0.1,0.6,0.2c-0.2-0.2-0.2-0.5-0.3-0.7c-0.1-0.1-0.1-0.3-0.2-0.4
				c0.1,0.2,0.1,0.5,0.2,0.7c0.1,0.1,0.1,0.1,0.1,0.2l0,0c-0.1-0.1-0.1-0.1-0.1-0.1c-0.2-0.2-0.6-0.2-0.7-0.6
				C-240.4-4.4-240.2-4.2-240-4.1"/>
			<path class="st12" d="M-238.6-3.7L-238.6-3.7c-0.1-0.1-0.3-0.1-0.4-0.2c-0.2-0.2-0.3-0.3-0.6-0.5c0,0,0.2,0.3,0.2,0.4
				c0.1,0.1,0.2,0.2,0.3,0.2c0.1,0,0.1,0,0.1,0.1c0,0,0,0-0.1,0c-0.1-0.1-0.3-0.1-0.5-0.1c-0.6,0-0.7-0.2-0.7-0.2
				c0.2,0.3,0.6,0.5,0.8,0.5C-239.1-3.6-238.8-3.7-238.6-3.7"/>
			<path class="st12" d="M-236.4-3.6c0.2,0,0.6-0.1,0.8-0.5c0,0-0.2,0.2-0.7,0.2c-0.1,0-0.3,0.1-0.5,0.1c0,0,0,0-0.1,0
				c0.1,0,0.1,0,0.1-0.1c0.1,0,0.2-0.1,0.3-0.2c0.1-0.2,0.2-0.4,0.2-0.4c-0.2,0.1-0.3,0.3-0.6,0.5c-0.1,0.1-0.3,0.2-0.5,0.2h0.1
				C-237-3.7-236.8-3.6-236.4-3.6"/>
			<path class="st12" d="M-240.2-4.5c0.1,0.1,0.1,0.1,0.2,0.2c0,0,0-0.1,0-0.1c0-0.1-0.1-0.2-0.1-0.3s-0.2-0.4-0.3-0.6
				C-240.3-5.3-240.4-4.7-240.2-4.5"/>
			<path class="st12" d="M-236.4-3.8c0.2-0.1,0.4-0.1,0.6-0.2c0.2-0.1,0.3-0.4,0.4-0.6c-0.1,0.3-0.5,0.4-0.7,0.6
				c-0.1,0.1-0.1,0.1-0.1,0.1l0,0c0.1-0.1,0.1-0.1,0.1-0.2c0.1-0.2,0.1-0.5,0.2-0.7c-0.1,0.1-0.2,0.2-0.2,0.4
				C-236.2-4.3-236.2-4-236.4-3.8"/>
			<path class="st12" d="M-236.9-3.5c-0.3-0.1-0.6-0.3-1-0.2c-0.1,0-0.2,0-0.2,0c-0.3-0.1-0.7,0.1-1,0.2c-0.2,0.1-0.5,0.1-0.7-0.1
				c0.1,0.1,0.2,0.2,0.3,0.2c0.2,0.1,0.6,0.1,0.7-0.1c0.2-0.1,0.3-0.3,0.6-0.2c-0.2,0.1-0.5,0.2-0.6,0.5l0.1,0.1
				c0.2-0.2,0.4-0.4,0.6-0.5c0.2,0.1,0.5,0.3,0.6,0.5l0.1-0.1c-0.2-0.2-0.4-0.3-0.6-0.5c0.2-0.1,0.4,0.1,0.6,0.2
				c0.2,0.1,0.5,0.2,0.7,0.1c0.1-0.1,0.3-0.1,0.3-0.2C-236.4-3.4-236.6-3.4-236.9-3.5"/>
			<path class="st12" d="M-235.7-4.5c0.3-0.3,0.2-0.8,0.2-0.8c-0.1,0.2-0.2,0.5-0.3,0.6c-0.1,0.1-0.1,0.2-0.1,0.3c0,0.1,0,0.1,0,0.1
				C-235.8-4.4-235.7-4.5-235.7-4.5"/>
			<path class="st12" d="M-236.8-6.5L-236.8-6.5L-236.8-6.5c-0.1,0.1-0.2,0.2-0.3,0.2c0,0-0.1,0-0.1,0.1s0,0,0,0
				c0.1,0.2,0.1,0.5,0.2,0.7v0.1h0.1c0.1-0.1,0.2-0.2,0.3-0.2l0.1-0.1v-0.1C-236.6-6.1-236.6-6.3-236.8-6.5
				C-236.8-6.5-236.8-6.5-236.8-6.5"/>
			<path class="st12" d="M-237.1-5.3c-0.2,0.1-0.5,0.1-0.7,0.1c-0.1,0-0.1,0-0.1,0.1c0,0.2,0,0.5,0,0.6c0,0,0,0,0,0.1s0,0,0,0
				c0.2,0,0.5-0.1,0.7-0.2c0.1,0,0.1-0.1,0.1-0.1C-237-4.9-237-5.1-237.1-5.3C-237-5.3-237-5.3-237.1-5.3
				C-237-5.3-237-5.3-237.1-5.3L-237.1-5.3"/>
			<path class="st12" d="M-237.6-7.1c0.2,0.2,0.3,0.4,0.4,0.6v0.1c0,0,0,0,0.1,0c0.1-0.1,0.2-0.1,0.3-0.2c0,0,0,0,0-0.1
				c0-0.1,0-0.1,0-0.1c-0.1-0.2-0.3-0.3-0.5-0.5C-237.4-7.1-237.5-7.1-237.6-7.1"/>
			<path class="st12" d="M-237.9-7c0,0.2,0,0.5,0,0.7c0,0,0,0,0,0.1l0,0c0.2,0,0.3-0.1,0.5-0.1l0,0c0,0,0,0,0-0.1
				c-0.1-0.2-0.2-0.5-0.3-0.6C-237.7-7-237.8-7-237.9-7"/>
			<path class="st12" d="M-237.2-4.5L-237.2-4.5c-0.3,0.1-0.5,0.1-0.7,0.1c0,0,0,0,0,0.1v0.2c0.2,0,0.5-0.1,0.6-0.1
				C-237.2-4.3-237.2-4.4-237.2-4.5L-237.2-4.5L-237.2-4.5L-237.2-4.5"/>
			<path class="st12" d="M-236.5-5.7c-0.1,0.1-0.2,0.2-0.4,0.3c-0.1,0-0.1,0.1-0.1,0.1c0,0.2,0,0.4-0.1,0.6l0,0
				c0.2-0.1,0.3-0.2,0.4-0.3c0.1-0.1,0.1-0.1,0.1-0.2C-236.5-5.3-236.5-5.5-236.5-5.7L-236.5-5.7L-236.5-5.7"/>
			<path class="st12" d="M-236.6-6.9c0,0.1,0,0.1-0.1,0.2v0.1c0,0,0,0,0,0.1c0.1,0.2,0.2,0.4,0.3,0.6c0.1-0.1,0.1-0.2,0.1-0.3l0,0
				C-236.4-6.6-236.5-6.8-236.6-6.9L-236.6-6.9"/>
			<path class="st12" d="M-239.6-5.8c0,0.9,0.8,1.7,1.6,1.7v-0.2c0,0,0-0.1-0.1-0.1c0,0-0.4-0.1-0.5-0.1l0,0
				c0.2,0.1,0.3,0.1,0.5,0.1c0,0,0,0,0-0.1l0,0c0-0.1,0-0.6,0-0.6c0-0.1,0-0.1-0.1-0.1c-0.3,0-0.5-0.1-0.8-0.2l0,0l0,0
				c0,0.2,0,0.4,0,0.6l0,0l0,0c-0.1-0.2-0.1-0.3-0.1-0.5v-0.1v-0.1c-0.1-0.1-0.2-0.1-0.3-0.2l0,0l0,0l0,0c0.1,0.1,0.2,0.1,0.3,0.2
				l0,0l0,0c0-0.3,0.1-0.6,0.2-0.8l0,0l0,0c-0.2-0.1-0.3-0.2-0.4-0.3l0,0l0,0c0.1,0.1,0.2,0.2,0.4,0.2l0,0l0,0
				c0.1-0.2,0.2-0.5,0.4-0.7c-0.1-0.1-0.3-0.1-0.3-0.2l0,0l0,0c0.2,0.2,0.6,0.2,0.6,0.2c0.2,0,0.6-0.1,0.6-0.2
				c0-0.1-0.2-0.2-0.6-0.2C-239-7.5-239.6-6.6-239.6-5.8"/>
			<path class="st12" d="M-237.3-7.3c0,0.1,0,0.1-0.1,0.1c0.2,0.1,0.3,0.2,0.5,0.4c0,0,0,0.1,0.1,0.1s0,0,0,0c0.1-0.1,0.1-0.2,0-0.2
				c0-0.1-0.1-0.1-0.1-0.1C-237-7.2-237.1-7.2-237.3-7.3C-237.3-7.4-237.3-7.4-237.3-7.3"/>
			<path class="st12" d="M-236.3-5.9c0,0.1-0.1,0.1-0.1,0.1c0,0.1,0,0.2,0,0.2c0,0.1,0,0.2-0.1,0.3C-236.3-5.4-236.2-5.7-236.3-5.9
				c0.1-0.1,0.1-0.2,0.1-0.2C-236.2-6-236.3-5.9-236.3-5.9"/>
			<path class="st12" d="M-237-4.5L-237-4.5c-0.1,0.1-0.1,0.2-0.2,0.2c0.2-0.1,0.5-0.3,0.6-0.5C-236.8-4.7-236.9-4.6-237-4.5"/>
			<path class="st12" d="M-238.6-6.3L-238.6-6.3c-0.1,0.3-0.2,0.6-0.2,0.9l0,0c0.2,0.1,0.5,0.1,0.7,0.1c0,0,0,0,0.1,0c0,0,0,0,0-0.1
				c0-0.2,0-0.7,0-0.7s0-0.1-0.1-0.1l0,0C-238.2-6.2-238.4-6.2-238.6-6.3C-238.6-6.3-238.6-6.3-238.6-6.3"/>
			<path class="st12" d="M-238.6-6.3L-238.6-6.3L-238.6-6.3L-238.6-6.3c0.2,0.1,0.3,0.1,0.6,0.1c0,0,0,0,0.1,0c0,0,0,0,0-0.1l0,0
				c0-0.2,0-0.5,0-0.7c-0.1,0-0.2,0-0.2-0.1C-238.3-6.8-238.5-6.6-238.6-6.3"/>
			<path class="st12" d="M-237.3-6.2L-237.3-6.2c-0.2,0.1-0.4,0.1-0.6,0.1c0,0-0.1,0-0.1,0.1l0,0c0,0.1,0,0.3,0,0.6
				c0,0.1,0,0.2,0,0.2l0,0l0,0c0.2,0,0.5-0.1,0.7-0.2c0.1,0,0.1-0.1,0.1-0.1l0,0C-237.1-5.8-237.2-6-237.3-6.2L-237.3-6.2"/>
		</g>
		<g transform="translate(388.755 45.945)">
			<g transform="translate(0.062 82.064)">
				<path class="st12" d="M-152.2-86.6v1.1h0.7v0.2h-1v-1.4H-152.2z"/>
				<path class="st12" d="M-151.3-86.1c0-0.1,0.1-0.1,0.1-0.1c0.1-0.1,0.1-0.1,0.2-0.1c0.1,0,0.1,0,0.2,0c0.1,0,0.1,0,0.2,0
					s0.1,0,0.1,0.1c0.1,0,0.1,0.1,0.1,0.1c0,0.1,0.1,0.1,0.1,0.1v0.5c0,0.1,0,0.1,0,0.1c0,0.1,0,0.1,0,0.1h-0.3v-0.1v-0.1
					c-0.1,0.1-0.1,0.1-0.2,0.1c-0.1,0-0.1,0.1-0.2,0.1c-0.1,0-0.1,0-0.1,0s-0.1-0.1-0.1-0.1c0,0-0.1-0.1-0.1-0.1s0-0.1,0-0.1v-0.1
					c0-0.1,0.1-0.1,0.1-0.1c0.1,0,0.1-0.1,0.1-0.1s0.1,0,0.1-0.1c0.1,0,0.1,0,0.1,0s0.1,0,0.1,0c0,0,0.1,0,0.1-0.1v-0.1V-86
					c0,0,0-0.1-0.1-0.1s-0.1,0-0.1,0h-0.1c-0.1,0-0.1,0-0.1,0.1c-0.1,0.1-0.1,0.1-0.1,0.1h-0.3C-151.4-86-151.3-86-151.3-86.1z
					 M-150.8-85.7L-150.8-85.7h-0.1h-0.1h-0.1c0,0-0.1,0-0.1,0.1c0,0,0,0-0.1,0.1v0.1v0.1c0,0,0,0.1,0.1,0.1h0.1h0.1
					c0.1,0,0.1,0,0.1-0.1l0.1-0.1v-0.1V-85.7L-150.8-85.7L-150.8-85.7L-150.8-85.7z"/>
				<path class="st12" d="M-150-86.6v0.5l0,0c0.1-0.1,0.1-0.1,0.1-0.1c0.1,0,0.1-0.1,0.2-0.1c0.1,0,0.2,0.1,0.3,0.1
					c0.1,0.1,0.1,0.1,0.1,0.2c0.1,0.2,0.1,0.3,0,0.5c0,0.1-0.1,0.1-0.1,0.2c-0.1,0.1-0.2,0.1-0.3,0.1c-0.1,0-0.1,0-0.2-0.1
					c-0.1,0-0.1-0.1-0.1-0.1l0,0v0.1h-0.3v-1.4L-150-86.6L-150-86.6L-150-86.6z M-149.6-85.9c0-0.1,0-0.1-0.1-0.1
					c0-0.1-0.1-0.1-0.1-0.1c-0.1-0.1-0.1-0.1-0.2,0L-150-86c0,0-0.1,0.1-0.1,0.1s0,0.1,0,0.1c0,0.1,0,0.1,0,0.1s0,0.1,0.1,0.1
					c0,0.1,0.1,0.1,0.1,0.1c0.1,0.1,0.1,0.1,0.2,0l0.1-0.1c0-0.1,0.1-0.1,0.1-0.1s0-0.1,0-0.1C-149.6-85.8-149.6-85.9-149.6-85.9
					L-149.6-85.9z"/>
			</g>
			<path class="st12" d="M-151.5-7.9h0.6c0.2,0,0.3,0,0.5,0.1s0.2,0.2,0.2,0.4s-0.1,0.3-0.3,0.4l0,0c0.2,0.1,0.3,0.2,0.3,0.5
				c0,0.3-0.2,0.5-0.6,0.5h-0.9L-151.5-7.9L-151.5-7.9z M-151.2-7.1h0.5c0.3,0,0.4-0.1,0.4-0.3c0-0.2-0.2-0.3-0.4-0.3h-0.5V-7.1z
				 M-151.2-6.3h0.6c0.2,0,0.3-0.1,0.3-0.3c0-0.2-0.2-0.3-0.4-0.3h-0.6V-6.3z"/>
			<path class="st12" d="M-149.4-7c0,0.7-0.6,1.4-1.4,1.4c-0.7,0-1.4-0.6-1.4-1.4s0.6-1.4,1.4-1.4C-150-8.4-149.4-7.7-149.4-7
				L-149.4-7z M-150.8-8.6c-0.9,0-1.6,0.7-1.6,1.6s0.7,1.6,1.6,1.6s1.6-0.7,1.6-1.6S-149.9-8.6-150.8-8.6L-150.8-8.6L-150.8-8.6z"/>
			<rect x="-152.4" y="-5.1" class="st12" width="3.2" height="0.2"/>
			<path class="st12" d="M-149.3-5.3L-149.3-5.3L-149.3-5.3L-149.3-5.3L-149.3-5.3C-149.3-5.4-149.3-5.4-149.3-5.3L-149.3-5.3
				L-149.3-5.3C-149.3-5.4-149.3-5.4-149.3-5.3L-149.3-5.3L-149.3-5.3L-149.3-5.3z M-149.3-5.4L-149.3-5.4L-149.3-5.4
				C-149.3-5.3-149.3-5.3-149.3-5.4C-149.3-5.3-149.3-5.3-149.3-5.4l0.1,0.1l0,0L-149.3-5.4L-149.3-5.4l0.1,0.1l0,0L-149.3-5.4
				L-149.3-5.4z M-149.4-5.3C-149.4-5.2-149.4-5.2-149.4-5.3C-149.4-5.2-149.4-5.2-149.4-5.3C-149.4-5.2-149.4-5.2-149.4-5.3
				L-149.4-5.3L-149.4-5.3L-149.4-5.3C-149.4-5.2-149.4-5.2-149.4-5.3C-149.4-5.4-149.4-5.3-149.4-5.3
				C-149.4-5.4-149.4-5.4-149.4-5.3L-149.4-5.3L-149.4-5.3L-149.4-5.3L-149.4-5.3L-149.4-5.3C-149.4-5.4-149.4-5.3-149.4-5.3
				L-149.4-5.3 M-149.4-5.4L-149.4-5.4C-149.4-5.4-149.4-5.4-149.4-5.4C-149.4-5.4-149.4-5.4-149.4-5.4c0.1-0.1,0.1-0.1,0.1,0
				c0,0,0,0,0,0.1c0,0,0,0,0,0.1s0,0,0,0l0,0c0,0,0,0-0.1,0c0,0,0,0-0.1,0s0,0,0,0l0,0C-149.4-5.2-149.4-5.3-149.4-5.4
				C-149.4-5.3-149.4-5.4-149.4-5.4"/>
		</g>
	</g>
	<g>
		<g>
			<g>
				<g>
					<path class="st30" d="M219,18.9c0,2-1.6,3.5-3.6,3.5c-1.9,0-3.5-1.6-3.5-3.5c0-2,1.6-3.5,3.5-3.5C217.4,15.4,219,16.9,219,18.9
						z M215.4,15.9c-1.7,0-3.1,1.4-3.1,3s1.4,3,3.1,3c1.7,0,3-1.4,3.1-3C218.5,17.2,217.1,15.9,215.4,15.9z"/>
					<path class="st30" d="M211.9,23.7c0-0.1,0-0.2,0-0.4c2.4,0,4.7,0,7.1,0c0,0.1,0,0.2,0,0.4C216.6,23.7,214.3,23.7,211.9,23.7z"
						/>
					<path class="st30" d="M213.9,20.9c0-1.4,0-2.7,0-4c0.8,0,1.5,0,2.3,0c0.7,0.1,1,1,0.5,1.6c-0.1,0.1-0.1,0.1-0.2,0.2
						c0.6,0.4,0.8,0.8,0.6,1.3s-0.5,0.8-1.2,0.8S214.6,20.9,213.9,20.9z M214.5,19.1c0,0.5,0,0.9,0,1.4c0.5,0,1,0,1.4,0
						c0.4,0,0.6-0.3,0.6-0.7c0-0.3-0.2-0.6-0.6-0.7C215.5,19.1,215,19.1,214.5,19.1z M214.5,18.6c0.5,0,0.9,0,1.4,0
						c0.3,0,0.5-0.2,0.5-0.6c0-0.3-0.2-0.6-0.5-0.6c-0.4,0-0.9,0-1.4,0C214.5,17.8,214.5,18.2,214.5,18.6z"/>
				</g>
			</g>
			<g class="st31">
				<path class="st30" d="M189.4,15.5v0.6h-1.8v0.7h1.6v0.5h-1.6v0.8h1.8v0.6h-2.6v-3.3H189.4z"/>
				<path class="st30" d="M190.4,18.8l-0.8-2.5h0.7l0.5,1.7l0,0l0.5-1.7h0.6l-0.7,2.5H190.4z"/>
				<path class="st30" d="M192.2,17.1c0-0.1,0-0.3,0.1-0.4s0.1-0.2,0.2-0.2c0.1,0,0.2-0.1,0.3-0.1c0.1,0,0.2,0,0.4,0
					c0.1,0,0.2,0,0.4,0c0.1,0,0.2,0,0.3,0.1s0.2,0.1,0.2,0.2c0,0.1,0.1,0.2,0.1,0.3v1.3c0,0.1,0,0.2,0,0.3s0,0.2,0,0.2h-0.7
					c0,0,0,0,0-0.1s0-0.1,0-0.1c-0.1,0.1-0.2,0.2-0.4,0.2c-0.1,0-0.3,0-0.4,0c-0.1,0-0.2,0-0.3,0s-0.2,0-0.2-0.1
					c0-0.1-0.1-0.1-0.2-0.2c0-0.1,0-0.2,0-0.3c0-0.1,0-0.2,0.1-0.3c0-0.1,0.1-0.1,0.2-0.2s0.1-0.1,0.2-0.1s0.2,0,0.3,0s0.2,0,0.3,0
					c0.1,0,0.2,0,0.2,0c0.1,0,0.1,0,0.2-0.1c0,0,0-0.1,0-0.1c0,0,0-0.1,0-0.2c0,0,0,0-0.1-0.1s-0.1,0-0.1,0c0,0-0.1,0-0.1,0
					c-0.1,0-0.2,0-0.3,0.1c-0.1,0-0.1,0.1-0.1,0.3L192.2,17.1L192.2,17.1z M193.8,17.6C193.7,17.6,193.7,17.7,193.8,17.6
					c-0.1,0-0.2,0-0.2,0.1s-0.1,0-0.1,0c0,0-0.1,0-0.1,0s-0.1,0-0.1,0c0,0-0.1,0-0.1,0s0,0-0.1,0.1s0,0.1,0,0.1c0,0,0,0.1,0,0.1
					s0,0,0.1,0.1c0,0,0.1,0,0.1,0c0,0,0.1,0,0.1,0c0.1,0,0.2,0,0.3,0c0,0,0.1-0.1,0.1-0.1c0,0,0-0.1,0-0.2s0-0.1,0-0.1
					C193.8,17.9,193.8,17.6,193.8,17.6z"/>
				<path class="st30" d="M195.7,15.5v3.3H195v-3.3H195.7z"/>
				<path class="st30" d="M197.8,18.8v-0.3l0,0c-0.1,0.1-0.2,0.2-0.3,0.3c-0.1,0-0.3,0.1-0.4,0.1c-0.2,0-0.3,0-0.4,0
					c-0.1,0-0.2-0.1-0.3-0.2c0-0.1-0.1-0.2-0.1-0.3c0-0.1,0-0.2,0-0.4v-1.5h0.7v1.4c0,0.2,0,0.3,0.1,0.4c0,0.1,0.1,0.1,0.3,0.1
					s0.3,0,0.4-0.1c0.1-0.1,0.1-0.3,0.1-0.5v-1.4h0.7v2.5H197.8L197.8,18.8z"/>
				<path class="st30" d="M198.9,17.1c0-0.1,0-0.3,0.1-0.4c0-0.1,0.1-0.2,0.2-0.2s0.2-0.1,0.3-0.1c0.1,0,0.2,0,0.4,0
					c0.1,0,0.2,0,0.4,0c0.1,0,0.2,0,0.3,0.1s0.2,0.1,0.2,0.2c0,0.1,0.1,0.2,0.1,0.3v1.3c0,0.1,0,0.2,0,0.3s0,0.2,0,0.2h-0.7
					c0,0,0,0,0-0.1s0-0.1,0-0.1c-0.1,0.1-0.2,0.2-0.4,0.2c-0.1,0-0.3,0-0.4,0c-0.1,0-0.2,0-0.3,0c-0.1,0-0.2,0-0.2-0.1
					c0-0.1-0.1-0.1-0.2-0.2c0-0.1,0-0.2,0-0.3c0-0.1,0-0.2,0.1-0.3c0-0.1,0.1-0.1,0.2-0.2c0.1,0,0.1-0.1,0.2-0.1s0.2,0,0.3,0
					c0.1,0,0.2,0,0.3,0s0.2,0,0.2,0c0.1,0,0.1,0,0.2-0.1c0,0,0-0.1,0-0.1c0,0,0-0.1,0-0.2c0,0,0,0-0.1-0.1c0,0-0.1,0-0.1,0
					c0,0-0.1,0-0.1,0c-0.1,0-0.2,0-0.3,0.1c-0.1,0-0.1,0.1-0.1,0.3C199.6,17.1,198.9,17.1,198.9,17.1z M200.5,17.6
					C200.4,17.6,200.4,17.7,200.5,17.6c-0.1,0-0.2,0-0.2,0.1s-0.1,0-0.1,0c0,0-0.1,0-0.1,0s-0.1,0-0.1,0c0,0-0.1,0-0.1,0
					c0,0,0,0-0.1,0.1c0,0,0,0.1,0,0.1c0,0,0,0.1,0,0.1c0,0,0,0,0.1,0.1c0,0,0.1,0,0.1,0c0,0,0.1,0,0.1,0c0.1,0,0.2,0,0.3,0
					c0,0,0.1-0.1,0.1-0.1c0,0,0-0.1,0-0.2s0-0.1,0-0.1C200.5,17.9,200.5,17.6,200.5,17.6z"/>
				<path class="st30" d="M202.8,16.8c-0.1,0-0.2,0-0.2,0s-0.1,0.1-0.2,0.2c0,0.1-0.1,0.1-0.1,0.2c0,0.1,0,0.2,0,0.3
					c0,0.1,0,0.2,0,0.2c0,0,0,0.2,0.1,0.2c0,0,0.1,0.1,0.1,0.2c0,0,0.1,0,0.2,0c0.1,0,0.3,0,0.4-0.1s0.1-0.2,0.1-0.3h0.6
					c0,0.3-0.1,0.6-0.4,0.7c-0.2,0.1-0.5,0.2-0.8,0.2c-0.2,0-0.3,0-0.5-0.1c-0.1,0-0.3-0.1-0.4-0.2c-0.1-0.1-0.2-0.2-0.2-0.4
					c0-0.1-0.1-0.3-0.1-0.5c0-0.2,0-0.3,0.1-0.5c0-0.2,0.1-0.3,0.2-0.4c0.1-0.1,0.2-0.2,0.4-0.3c0.1-0.1,0.3-0.1,0.5-0.1
					c0.1,0,0.3,0,0.4,0c0.1,0,0.2,0.1,0.3,0.2c0.1,0.1,0.2,0.2,0.2,0.3c0,0.1,0.1,0.2,0.1,0.4h-0.6
					C203.3,16.9,203.1,16.8,202.8,16.8z"/>
				<path class="st30" d="M204.3,16v-0.5h0.7V16H204.3z M205,16.4v2.5h-0.7v-2.5H205z"/>
				<path class="st30" d="M205.6,17c0-0.1,0.1-0.3,0.2-0.4c0.1-0.1,0.2-0.2,0.4-0.2c0.1,0,0.3-0.1,0.5-0.1s0.3,0,0.5,0.1
					c0.1,0,0.3,0.1,0.4,0.2c0.1,0.1,0.2,0.2,0.2,0.4s0.1,0.3,0.1,0.5c0,0.2,0,0.4-0.1,0.5c0,0.1-0.1,0.3-0.2,0.4
					c-0.1,0.1-0.2,0.2-0.4,0.2c-0.1,0-0.3,0.1-0.5,0.1s-0.3,0-0.5-0.1c-0.2,0-0.3-0.1-0.4-0.2s-0.2-0.2-0.2-0.4
					c0-0.1-0.1-0.3-0.1-0.5C205.5,17.4,205.5,17.2,205.6,17z M206.2,17.9c0,0.1,0,0.2,0.1,0.2c0,0,0.1,0.1,0.2,0.2s0.1,0,0.3,0
					c0.1,0,0.2,0,0.3,0s0.1-0.1,0.2-0.2c0,0,0.1-0.1,0.1-0.2s0-0.2,0-0.3c0-0.1,0-0.2,0-0.3c0-0.1,0-0.2-0.1-0.2
					c0,0-0.1-0.1-0.2-0.2s-0.1,0-0.3,0c-0.1,0-0.2,0-0.3,0s-0.1,0.1-0.2,0.2c0,0.1-0.1,0.1-0.1,0.2c0,0.1,0,0.2,0,0.3
					C206.1,17.7,206.2,17.8,206.2,17.9z M206.8,15.1l-0.5,0.8h0.4l0.8-0.8H206.8z"/>
				<path class="st30" d="M209.1,16.4v0.3l0,0c0.1-0.1,0.2-0.2,0.3-0.3c0.1,0,0.3-0.1,0.4-0.1c0.2,0,0.3,0,0.4,0s0.2,0.1,0.3,0.2
					c0.1,0.1,0.1,0.2,0.1,0.3c0,0.1,0,0.2,0,0.4v1.5H210v-1.4c0-0.2,0-0.3-0.1-0.4c0-0.1-0.1-0.1-0.3-0.1c-0.2,0-0.3,0-0.4,0.1
					s-0.1,0.3-0.1,0.5v1.4h-0.7v-2.5H209.1z"/>
			</g>
			<text transform="matrix(1 0 0 1 186.5325 22.8551)" class="st30 st32 st33"> </text>
			<g class="st31">
				<path class="st30" d="M194.3,19.6v3.2h-0.7v-3.2H194.3z"/>
				<path class="st30" d="M195.5,20.5v0.3l0,0c0.1-0.1,0.2-0.2,0.3-0.3c0.1-0.1,0.2-0.1,0.4-0.1c0.1,0,0.3,0,0.4,0.1
					s0.2,0.1,0.3,0.3c0-0.1,0.1-0.2,0.3-0.2c0.1,0,0.2-0.1,0.4-0.1c0.1,0,0.2,0,0.3,0s0.2,0.1,0.3,0.1c0.1,0,0.1,0.1,0.1,0.2
					c0,0.1,0,0.2,0,0.4v1.5h-0.6v-1.3c0-0.1,0-0.1,0-0.2s0-0.1,0-0.2c0,0,0-0.1-0.1-0.1c0,0-0.1,0-0.2,0s-0.1,0-0.2,0
					c0,0-0.1,0.1-0.1,0.1c0,0,0,0.1,0,0.2s0,0.1,0,0.2v1.3h-0.7v-1.3c0,0,0-0.1,0-0.2s0-0.1,0-0.2c0,0,0-0.1-0.1-0.1
					c0,0-0.1,0-0.2,0c0,0,0,0-0.1,0c0,0-0.1,0-0.1,0.1c0,0-0.1,0.1-0.1,0.1c0,0,0,0.1,0,0.3v1.3h-0.6v-2.3L195.5,20.5L195.5,20.5z"
					/>
				<path class="st30" d="M199.5,20.5v0.3l0,0c0.1-0.1,0.2-0.2,0.3-0.2s0.2-0.1,0.4-0.1c0.2,0,0.3,0,0.5,0.1c0.1,0,0.2,0.1,0.3,0.2
					c0.1,0.1,0.1,0.2,0.2,0.4c0,0.1,0,0.3,0,0.5c0,0.1,0,0.3,0,0.4c0,0.1-0.1,0.2-0.2,0.4s-0.2,0.2-0.3,0.2c-0.1,0-0.3,0.1-0.4,0.1
					c-0.1,0-0.3,0-0.4-0.1c-0.1,0-0.2-0.1-0.3-0.2l0,0v1.1h-0.6v-3.1L199.5,20.5L199.5,20.5z M200.4,22.3c0,0,0.1-0.1,0.1-0.1
					c0,0,0.1-0.1,0.1-0.2c0-0.1,0-0.2,0-0.3s0-0.2,0-0.2c0,0,0-0.1-0.1-0.2c0,0-0.1-0.1-0.1-0.2c0,0-0.1,0-0.2,0s-0.2,0-0.2,0
					c0,0-0.1,0.1-0.1,0.1s-0.1,0.1-0.1,0.2c0,0.1,0,0.2,0,0.3s0,0.2,0,0.3c0,0.1,0,0.1,0.1,0.2c0,0,0.1,0.1,0.1,0.1c0,0,0.1,0,0.2,0
					C200.2,22.4,200.3,22.4,200.4,22.3z"/>
				<path class="st30" d="M201.6,21.2c0-0.1,0-0.3,0.1-0.4c0-0.1,0.1-0.2,0.2-0.2c0.1,0,0.2-0.1,0.3-0.1c0.1,0,0.2,0,0.4,0
					c0.1,0,0.2,0,0.3,0s0.2,0,0.3,0.1s0.2,0.1,0.2,0.2c0,0.1,0.1,0.2,0.1,0.3v1.2c0,0.1,0,0.2,0,0.3s0,0.1,0,0.2h-0.6
					c0,0,0-0.1,0-0.1c0,0,0-0.1,0-0.1c-0.1,0.1-0.2,0.2-0.3,0.2c-0.1,0-0.3,0-0.4,0c-0.1,0-0.2,0-0.3,0c-0.1,0-0.2,0-0.2-0.1
					c-0.1,0-0.1-0.1-0.1-0.2s0-0.2,0-0.3c0-0.1,0-0.2,0-0.3c0-0.1,0.1-0.1,0.2-0.2s0.1-0.1,0.2-0.1s0.2,0,0.3,0s0.2,0,0.3,0
					c0.1,0,0.1,0,0.2,0c0.1,0,0.1,0,0.1-0.1c0,0,0-0.1,0-0.1c0,0,0-0.1,0-0.1c0,0,0,0-0.1-0.1c0,0-0.1,0-0.1,0c0,0-0.1,0-0.1,0
					c-0.1,0-0.2,0-0.3,0.1c-0.1,0-0.1,0.1-0.1,0.2H201.6L201.6,21.2L201.6,21.2z M203.1,21.7C203.1,21.7,203.1,21.8,203.1,21.7
					c-0.1,0-0.2,0-0.2,0.1c0,0-0.1,0-0.1,0c0,0-0.1,0-0.1,0c0,0-0.1,0-0.1,0c0,0-0.1,0-0.1,0l-0.1,0.1c0,0,0,0.1,0,0.1
					c0,0,0,0.1,0,0.1c0,0,0,0,0.1,0.1c0,0,0.1,0,0.1,0c0,0,0.1,0,0.1,0c0.1,0,0.2,0,0.3,0c0,0,0.1-0.1,0.1-0.1c0,0,0-0.1,0-0.2
					c0-0.1,0-0.1,0-0.1L203.1,21.7C203.1,21.7,203.1,21.7,203.1,21.7z"/>
				<path class="st30" d="M205.3,20.9c-0.1,0-0.2,0-0.2,0c0,0-0.1,0.1-0.1,0.2c0,0-0.1,0.1-0.1,0.2c0,0.1,0,0.2,0,0.2
					c0,0,0,0.1,0,0.2c0,0.1,0,0.1,0.1,0.2c0,0.1,0.1,0.1,0.1,0.1s0.1,0,0.2,0c0.1,0,0.3,0,0.3-0.1c0.1-0.1,0.1-0.2,0.1-0.3h0.6
					c0,0.3-0.1,0.5-0.3,0.7c-0.2,0.1-0.4,0.2-0.7,0.2c-0.1,0-0.3,0-0.5-0.1c-0.1,0-0.2-0.1-0.4-0.2c-0.1-0.1-0.2-0.2-0.2-0.4
					c0-0.1-0.1-0.3-0.1-0.5s0-0.3,0.1-0.5c0-0.1,0.1-0.3,0.2-0.4s0.2-0.2,0.4-0.2c0.1,0,0.3-0.1,0.5-0.1c0.1,0,0.3,0,0.4,0
					c0.1,0,0.2,0.1,0.3,0.1s0.2,0.1,0.2,0.2c0,0.1,0.1,0.2,0.1,0.4h-0.6C205.8,21.1,205.6,20.9,205.3,20.9z"/>
				<path class="st30" d="M208.1,20.5V21h-0.4v1.1c0,0.1,0,0.2,0,0.2c0,0,0.1,0,0.2,0c0,0,0,0,0.1,0c0,0,0,0,0.1,0v0.5
					c0,0-0.1,0-0.2,0c0,0-0.1,0-0.2,0c-0.1,0-0.2,0-0.3,0c-0.1,0-0.1,0-0.2-0.1c0,0-0.1-0.1-0.1-0.1c0,0,0-0.1,0-0.3v-1.4h-0.4v-0.4
					h0.4v-0.7h0.6v0.7C207.6,20.5,208.1,20.5,208.1,20.5z"/>
				<path class="st30" d="M208.4,21.2c0-0.1,0.1-0.3,0.2-0.4s0.2-0.2,0.4-0.2c0.1,0,0.3-0.1,0.5-0.1s0.3,0,0.5,0.1
					c0.1,0,0.3,0.1,0.4,0.2c0.1,0.1,0.2,0.2,0.2,0.4c0,0.1,0.1,0.3,0.1,0.5c0,0.2,0,0.3-0.1,0.5c0,0.1-0.1,0.3-0.2,0.4
					c-0.1,0.1-0.2,0.2-0.4,0.2c-0.1,0-0.3,0.1-0.5,0.1s-0.3,0-0.5-0.1c-0.1,0-0.3-0.1-0.4-0.2s-0.2-0.2-0.2-0.4
					c0-0.1-0.1-0.3-0.1-0.5C208.3,21.5,208.3,21.3,208.4,21.2z M209,22c0,0.1,0,0.1,0.1,0.2c0,0,0.1,0.1,0.1,0.1c0,0,0.1,0,0.3,0
					c0.1,0,0.2,0,0.3,0s0.1-0.1,0.1-0.1c0,0,0.1-0.1,0.1-0.2c0-0.1,0-0.2,0-0.2c0-0.1,0-0.2,0-0.2c0-0.1,0-0.1-0.1-0.2
					c0-0.1-0.1-0.1-0.1-0.1c-0.1,0-0.1,0-0.3,0c-0.1,0-0.2,0-0.3,0s-0.1,0.1-0.1,0.1s-0.1,0.1-0.1,0.2c0,0.1,0,0.2,0,0.2
					S209,21.9,209,22z"/>
			</g>
			<g class="st31">
				<path class="st30" d="M188.6,22.5c-0.1,0.1-0.1,0.2-0.3,0.2c-0.1,0-0.2,0.1-0.4,0.1s-0.3,0-0.4-0.1c-0.1,0-0.2-0.1-0.3-0.2
					c-0.1-0.1-0.1-0.2-0.2-0.4c0-0.1,0-0.3,0-0.4s0-0.3,0-0.4c0-0.1,0.1-0.2,0.2-0.4c0.1-0.1,0.2-0.2,0.3-0.2c0.1,0,0.3-0.1,0.4-0.1
					c0.1,0,0.2,0,0.4,0.1c0.1,0,0.2,0.1,0.3,0.2l0,0v-1.1h0.6v3.1h-0.6L188.6,22.5L188.6,22.5L188.6,22.5z M188.6,21.4
					c0-0.1,0-0.1-0.1-0.2c0,0-0.1-0.1-0.1-0.1c0,0-0.1,0-0.2,0s-0.2,0-0.2,0c0,0-0.1,0.1-0.1,0.1c0,0-0.1,0.1-0.1,0.2
					c0,0.1,0,0.2,0,0.2c0,0.1,0,0.2,0,0.2c0,0,0,0.1,0.1,0.2c0,0.1,0.1,0.1,0.2,0.1s0.1,0,0.2,0s0.2,0,0.2,0c0,0,0.1,0,0.1-0.1
					c0,0,0-0.1,0.1-0.2c0-0.1,0-0.2,0-0.3C188.6,21.6,188.6,21.5,188.6,21.4z"/>
				<path class="st30" d="M190.3,22.3c0.1,0.1,0.2,0.1,0.4,0.1c0.1,0,0.2,0,0.3-0.1c0.1,0,0.1-0.1,0.1-0.2h0.5
					c-0.1,0.2-0.2,0.5-0.4,0.6c-0.2,0.1-0.4,0.2-0.6,0.2c-0.2,0-0.3,0-0.5-0.1c-0.1,0-0.2-0.1-0.3-0.2c-0.1-0.1-0.2-0.2-0.2-0.4
					c0-0.1-0.1-0.3-0.1-0.5c0-0.2,0-0.3,0.1-0.5c0-0.1,0.1-0.3,0.2-0.4c0.1-0.1,0.2-0.2,0.4-0.2c0.1,0,0.3-0.1,0.5-0.1
					s0.3,0,0.5,0.1c0.1,0,0.2,0.2,0.3,0.3c0.1,0.1,0.1,0.2,0.2,0.4c0,0.1,0,0.3,0,0.5h-1.6C190.2,22,190.2,22.2,190.3,22.3z
					 M191.1,21.1c-0.1-0.1-0.2-0.1-0.3-0.1c-0.1,0-0.2,0-0.2,0c0,0-0.1,0-0.1,0.1c0,0,0,0.1-0.1,0.1c0,0,0,0.1,0,0.1h1
					C191.2,21.3,191.1,21.1,191.1,21.1z"/>
			</g>
		</g>
	</g>
</g>
<g>
	<path class="st0" d="M129.1,2.6h0.4l1.4,3.4h-0.5l-0.3-0.8h-1.7L128,6h-0.5L129.1,2.6z M129.3,3.2L129.3,3.2l-0.7,1.6h1.4
		L129.3,3.2z"/>
	<path class="st0" d="M131.2,3.8h0.4v0.3h0c0.1-0.1,0.2-0.2,0.4-0.3c0.1-0.1,0.3-0.1,0.4-0.1c0.2,0,0.3,0,0.5,0.1
		c0.1,0.1,0.3,0.1,0.4,0.2c0.1,0.1,0.2,0.2,0.2,0.4c0.1,0.1,0.1,0.3,0.1,0.5c0,0.2,0,0.3-0.1,0.5c-0.1,0.1-0.1,0.3-0.2,0.4
		c-0.1,0.1-0.2,0.2-0.4,0.2c-0.1,0.1-0.3,0.1-0.4,0.1c-0.2,0-0.4,0-0.5-0.1s-0.3-0.2-0.3-0.3h0v1.5h-0.4V3.8z M131.6,4.9
		c0,0.1,0,0.2,0.1,0.3s0.1,0.2,0.2,0.3c0.1,0.1,0.2,0.1,0.2,0.2c0.1,0,0.2,0.1,0.3,0.1c0.1,0,0.2,0,0.3-0.1c0.1,0,0.2-0.1,0.2-0.2
		c0.1-0.1,0.1-0.2,0.2-0.3s0.1-0.2,0.1-0.3c0-0.1,0-0.2-0.1-0.3S133,4.4,133,4.3c-0.1-0.1-0.2-0.1-0.2-0.2c-0.1,0-0.2-0.1-0.3-0.1
		c-0.1,0-0.2,0-0.3,0.1s-0.2,0.1-0.2,0.2c-0.1,0.1-0.1,0.2-0.2,0.3S131.6,4.8,131.6,4.9z"/>
	<path class="st0" d="M134,4.9c0-0.2,0-0.3,0.1-0.5c0.1-0.1,0.1-0.3,0.2-0.4c0.1-0.1,0.2-0.2,0.4-0.2c0.1-0.1,0.3-0.1,0.5-0.1
		s0.3,0,0.5,0.1c0.1,0.1,0.3,0.1,0.4,0.2c0.1,0.1,0.2,0.2,0.2,0.4c0.1,0.1,0.1,0.3,0.1,0.5s0,0.3-0.1,0.5c-0.1,0.1-0.1,0.3-0.2,0.4
		c-0.1,0.1-0.2,0.2-0.4,0.2s-0.3,0.1-0.5,0.1s-0.3,0-0.5-0.1s-0.3-0.1-0.4-0.2c-0.1-0.1-0.2-0.2-0.2-0.4C134.1,5.2,134,5.1,134,4.9z
		 M134.4,4.9c0,0.1,0,0.2,0.1,0.3c0,0.1,0.1,0.2,0.2,0.3s0.2,0.1,0.2,0.2c0.1,0,0.2,0.1,0.3,0.1s0.2,0,0.3-0.1
		c0.1,0,0.2-0.1,0.2-0.2s0.1-0.2,0.2-0.3c0-0.1,0.1-0.2,0.1-0.3c0-0.1,0-0.2-0.1-0.3c0-0.1-0.1-0.2-0.2-0.3s-0.2-0.1-0.2-0.2
		c-0.1,0-0.2-0.1-0.3-0.1s-0.2,0-0.3,0.1c-0.1,0-0.2,0.1-0.2,0.2s-0.1,0.2-0.2,0.3C134.4,4.7,134.4,4.8,134.4,4.9z"/>
	<path class="st0" d="M137.8,6.5c0,0.1-0.1,0.2-0.1,0.3c0,0.1-0.1,0.1-0.1,0.2c-0.1,0.1-0.1,0.1-0.2,0.1c-0.1,0-0.2,0-0.3,0
		c-0.1,0-0.1,0-0.2,0c-0.1,0-0.1,0-0.2,0l0-0.3c0,0,0.1,0,0.1,0s0.1,0,0.1,0c0.1,0,0.2,0,0.3-0.1s0.1-0.2,0.1-0.3l0.2-0.4l-0.9-2.2
		h0.4l0.7,1.7h0l0.7-1.7h0.4L137.8,6.5z"/>
	<path class="st0" d="M139.2,4.1c0.1-0.1,0.2-0.2,0.4-0.3s0.3-0.1,0.5-0.1c0.3,0,0.6,0.1,0.7,0.2c0.1,0.2,0.2,0.4,0.2,0.7v1
		c0,0.1,0,0.1,0,0.2c0,0.1,0,0.1,0,0.2h-0.4c0-0.1,0-0.1,0-0.2c0-0.1,0-0.1,0-0.2h0c-0.1,0.1-0.2,0.2-0.3,0.3
		c-0.1,0.1-0.3,0.1-0.4,0.1c-0.1,0-0.2,0-0.3,0c-0.1,0-0.2-0.1-0.3-0.1s-0.1-0.1-0.2-0.2s-0.1-0.2-0.1-0.3c0-0.2,0-0.3,0.1-0.4
		c0.1-0.1,0.2-0.2,0.4-0.2c0.1-0.1,0.3-0.1,0.5-0.1c0.2,0,0.3,0,0.4,0h0.1V4.6c0-0.2,0-0.3-0.1-0.4s-0.2-0.1-0.4-0.1
		c-0.1,0-0.2,0-0.4,0.1c-0.1,0-0.2,0.1-0.3,0.2L139.2,4.1z M140.3,4.9c-0.2,0-0.4,0-0.6,0.1s-0.2,0.2-0.2,0.3c0,0.1,0,0.2,0.1,0.3
		c0.1,0.1,0.2,0.1,0.3,0.1c0.1,0,0.2,0,0.3-0.1c0.1,0,0.1-0.1,0.2-0.1c0.1-0.1,0.1-0.1,0.1-0.2c0-0.1,0-0.2,0-0.3V4.9H140.3z"/>
	<path class="st0" d="M142,3.7c0.1,0,0.1,0,0.2,0.1c0.1,0.1,0.1,0.1,0.1,0.2s0,0.1-0.1,0.2c-0.1,0.1-0.1,0.1-0.2,0.1
		c-0.1,0-0.1,0-0.2-0.1c-0.1-0.1-0.1-0.1-0.1-0.2s0-0.1,0.1-0.2C141.9,3.7,141.9,3.7,142,3.7z M142,5.5c0.1,0,0.1,0,0.2,0.1
		c0.1,0.1,0.1,0.1,0.1,0.2s0,0.1-0.1,0.2C142.2,6,142.1,6,142,6c-0.1,0-0.1,0-0.2-0.1c-0.1-0.1-0.1-0.1-0.1-0.2s0-0.1,0.1-0.2
		C141.9,5.5,141.9,5.5,142,5.5z"/>
</g>
</svg>
