<?xml version="1.0" encoding="utf-8"?>
<!-- Generator: Adobe Illustrator 26.3.1, SVG Export Plug-In . SVG Version: 6.00 Build 0)  -->
<svg version="1.1" id="Capa_1" xmlns="http://www.w3.org/2000/svg" xmlns:xlink="http://www.w3.org/1999/xlink" x="0px" y="0px"
	 viewBox="0 0 290 32" style="enable-background:new 0 0 290 32;" xml:space="preserve">
<style type="text/css">
	.st0{fill:#545454;}
	.st1{font-family:'Avenir-Roman';}
	.st2{font-size:4.74px;}
	.st3{fill:#01000F;}
	.st4{fill:#09E1CD;}
	.st5{fill-rule:evenodd;clip-rule:evenodd;fill:#E91F2D;}
	.st6{fill-rule:evenodd;clip-rule:evenodd;fill:#A5AEB2;}
	.st7{fill:#E3122B;}
	.st8{fill:#FFFFFF;}
	.st9{fill:#231F20;}
	.st10{fill:#EE3742;}
	.st11{fill:#069548;}
	.st12{fill:#FCD600;}
	.st13{fill:#2A70B7;}
	.st14{fill:#1F3350;}
	.st15{fill:#62B44A;}
	.st16{fill:#DDA737;}
	.st17{fill:#C2212F;}
	.st18{fill:#4B9E46;}
	.st19{fill:#3F7F45;}
	.st20{fill:#F5C11C;}
	.st21{fill:#E8412E;}
	.st22{fill:#F59D2B;}
	.st23{fill:#2193D2;}
	.st24{fill:#A01E46;}
	.st25{fill:#2DBADF;}
	.st26{fill:#ED6C31;}
	.st27{fill:#E3273F;}
	.st28{fill:#DB1B69;}
	.st29{fill:#154B6D;}
	.st30{fill:#BB882D;}
	.st31{fill:#016C9C;}
	.st32{fill:#020203;}
	.st33{fill:#FCB711;}
	.st34{fill:#292929;}
	.st35{fill:#15171A;}
</style>
<g id="Capa_2_00000008116538680655061240000006443422026620706201_">
	<g id="Layer_1">
		<text transform="matrix(1 0 0 1 85.56 5.19)" class="st0 st1 st2">Impulsan:</text>
		<circle class="st3" cx="91.7" cy="20.5" r="7.5"/>
		<path class="st4" d="M86.8,20.8l0.4-0.8h1.4c0.4-1.6,1.8-2.7,3.5-2.5c0.8,0,1.5,0.3,2.1,0.7c0.5,0.4,0.9,0.9,1,1.5
			c0,0.2,0,0.4,0,0.6c0,0.1-0.1,0.2-0.2,0.3c-0.1,0.1-0.3,0.1-0.5,0.1L90,20.7c0.1,1,0.8,1.8,1.8,2c1,0.2,2.1,0.1,3.1-0.4l0.3,0.7
			c-1.1,0.5-2.4,0.7-3.6,0.6c0,0-2.8-0.1-3.1-2.6v-0.3L86.8,20.8z"/>
		<path class="st3" d="M90.1,19.9c0,0,0.2-1.8,1.9-1.7c0.8,0,1.5,0.5,1.8,1.2c0,0.2-0.1,0.4-0.3,0.5c0,0,0,0,0,0L90.1,19.9z"/>
		<path d="M112.5,26.3c-3.4,0-6.2-2.8-6.2-6.2c0-3.4,2.8-6.2,6.2-6.2s6.2,2.8,6.2,6.2c0,0,0,0.1,0,0.1
			C118.6,23.6,115.9,26.4,112.5,26.3z M112.5,25.5c3,0,5.4-2.4,5.3-5.4c0-3-2.4-5.4-5.4-5.3c-2.9,0-5.3,2.4-5.3,5.3
			C107.1,23.1,109.5,25.5,112.5,25.5C112.5,25.5,112.5,25.5,112.5,25.5z"/>
		<path d="M106.3,28.5v-0.8h12.3v0.8C118.6,28.5,106.4,28.5,106.3,28.5z"/>
		<path d="M114.6,13h-0.4v-1.6c0.1,0,0.1,0,0.2,0h0.2v0.2v-0.1c0.2-0.2,0.4-0.3,0.7-0.2c0.1,0,0.2,0.1,0.2,0.2l0.1-0.1
			c0.2-0.2,0.5-0.3,0.8-0.1c0.1,0.1,0.2,0.2,0.2,0.4V13H116v-1c0-0.1,0-0.1,0-0.2c0-0.1-0.1-0.2-0.2-0.2c-0.1,0-0.3,0-0.3,0.2
			c0,0,0,0.1,0,0.1c0,0.1,0,0.1,0,0.2v0.9h-0.4v-1c0,0,0,0,0-0.1c0-0.1-0.1-0.2-0.3-0.2c-0.1,0-0.3,0.1-0.3,0.3L114.6,13L114.6,13z"
			/>
		<path d="M106.4,12.2h0.5c0,0,0,0,0,0.1c0,0.1,0.1,0.2,0.2,0.3c0.2,0.1,0.4,0.1,0.6,0c0.1,0,0.2-0.1,0.2-0.2c0-0.1,0-0.1-0.1-0.2
			c-0.1,0-0.1,0-0.2,0l-0.4-0.1c-0.1,0-0.2-0.1-0.3-0.1c-0.3-0.1-0.4-0.5-0.3-0.8c0-0.1,0.1-0.2,0.2-0.2c0.1-0.1,0.3-0.2,0.4-0.2
			c0.2,0,0.4,0,0.5,0.1c0.2,0,0.3,0.1,0.4,0.3c0.1,0.1,0.1,0.3,0.1,0.4h-0.5c0,0,0-0.1,0-0.1c0-0.1-0.1-0.2-0.2-0.2
			c-0.1,0-0.3,0-0.4,0c-0.1,0-0.2,0.1-0.2,0.2c0,0.1,0,0.1,0.1,0.2l0.2,0.1l0.5,0.1c0.1,0,0.2,0,0.2,0.1c0.3,0.2,0.4,0.6,0.2,0.9
			c0,0.1-0.1,0.1-0.1,0.1c-0.1,0.1-0.3,0.2-0.5,0.2c-0.2,0.1-0.5,0.1-0.7,0c-0.2,0-0.3-0.1-0.4-0.3
			C106.4,12.6,106.3,12.4,106.4,12.2z"/>
		<path d="M117.4,11.8H117c0-0.1,0-0.2,0.1-0.3c0.1-0.1,0.2-0.2,0.3-0.2c0.2,0,0.4,0,0.5,0c0.1,0,0.2,0,0.3,0.1
			c0.2,0.1,0.3,0.2,0.3,0.4v0.7c0,0.2,0,0.3,0,0.5H118v-0.1c-0.1,0.1-0.2,0.2-0.3,0.2c-0.1,0-0.3,0-0.4,0c-0.3-0.1-0.4-0.3-0.3-0.6
			c0,0,0-0.1,0-0.1c0.1-0.1,0.2-0.2,0.3-0.2l0.4-0.1h0.2c0.1,0,0.1-0.1,0.1-0.1c0,0,0,0,0,0c0-0.1-0.1-0.2-0.2-0.2h-0.2
			C117.5,11.7,117.4,11.8,117.4,11.8L117.4,11.8z M118,12.2h-0.3l-0.2,0.1c-0.1,0-0.1,0.1-0.1,0.2c0,0.1,0.1,0.1,0.2,0.1h0.2
			c0.2,0,0.3-0.1,0.3-0.3C118,12.3,118,12.2,118,12.2z"/>
		<path d="M113.8,12.3h-1.2c0,0.2,0.1,0.4,0.3,0.4c0,0,0,0,0.1,0c0.2,0,0.3-0.1,0.4-0.2h0.4c0,0,0,0,0,0.1c-0.1,0.3-0.3,0.5-0.6,0.5
			c-0.1,0-0.2,0-0.3,0c-0.3,0-0.5-0.2-0.6-0.5c-0.1-0.2-0.1-0.4,0-0.6c0.1-0.4,0.5-0.6,0.9-0.6c0.3,0,0.6,0.3,0.6,0.6
			C113.8,12.1,113.8,12.2,113.8,12.3z M112.6,12h0.7c0-0.2-0.2-0.3-0.4-0.3C112.8,11.6,112.6,11.8,112.6,12z"/>
		<path d="M110.8,11.8h-0.4c0,0,0,0,0-0.1c0-0.1-0.1-0.1-0.1-0.1c-0.1,0-0.2,0-0.3,0c-0.1,0-0.1,0.1-0.1,0.1c0,0.1,0,0.1,0.1,0.1
			l0.2,0.1l0.3,0.1h0.1c0.2,0.1,0.3,0.1,0.3,0.3c0,0.2,0,0.4-0.2,0.5c-0.1,0-0.1,0.1-0.2,0.1c-0.2,0.1-0.5,0.1-0.7,0
			c-0.2-0.1-0.4-0.3-0.4-0.5h0.4c0,0.1,0.1,0.2,0.2,0.2c0.1,0.1,0.2,0.1,0.4,0l0,0c0.1,0,0.1-0.1,0.1-0.2c0,0,0,0-0.1-0.1l-0.3-0.1
			l-0.3-0.1h-0.1c-0.1,0-0.3-0.2-0.3-0.3c0-0.2,0.1-0.4,0.2-0.5c0.1-0.1,0.2-0.1,0.3-0.1c0.2,0,0.3,0,0.5,0
			C110.6,11.4,110.7,11.6,110.8,11.8z"/>
		<path d="M111,11.6v-0.3h0.3v-0.5h0.4v0.5h0.3v0.3h-0.3c0,0,0,0.1,0,0.1v0.8c0,0.1,0,0.1,0.2,0.1h0.2v0.3l0,0c-0.1,0-0.3,0-0.4,0
			c-0.2,0-0.3-0.2-0.3-0.3c0,0,0,0,0,0c0-0.3,0-0.6,0-0.9v-0.1L111,11.6z"/>
		<path d="M107.8,30.2c0,0.3-0.2,0.6-0.6,0.6c-0.1,0-0.2,0-0.3,0c-0.2-0.1-0.4-0.2-0.4-0.4c-0.1-0.2-0.1-0.5,0-0.8
			c0.1-0.2,0.3-0.4,0.6-0.4c0.1,0,0.3,0,0.4,0.1c0.2,0.1,0.3,0.3,0.3,0.5h-0.3l0,0c0-0.1-0.2-0.2-0.3-0.2c-0.2,0-0.3,0.1-0.4,0.2
			c-0.1,0.2-0.1,0.4,0,0.6c0.1,0.2,0.3,0.3,0.4,0.2c0.1,0,0.2-0.1,0.2-0.2c0,0,0-0.1,0-0.1L107.8,30.2L107.8,30.2z"/>
		<path d="M109,30.8h-0.3c0,0,0,0,0-0.1v-0.5c0,0,0-0.1,0-0.1c0-0.1-0.1-0.1-0.2-0.1s-0.2,0-0.2,0.1c0,0.1,0,0.1,0,0.2
			c0,0.2,0,0.3,0,0.5v0.1c-0.1,0-0.2,0-0.3,0c0-0.1,0-1.3,0-1.5h0.3v0.5l0,0c0.1-0.1,0.3-0.2,0.4-0.1c0.1,0,0.2,0.1,0.2,0.2
			c0,0.1,0,0.1,0,0.2L109,30.8C109,30.8,109,30.8,109,30.8z"/>
		<path d="M110.5,30.3c0,0.1,0,0.2,0.1,0.2c0.1,0,0.2,0,0.3-0.1c0,0,0.1,0,0.1,0h0.2c0,0.1-0.1,0.2-0.2,0.3c-0.2,0.1-0.4,0.1-0.6,0
			c-0.2-0.1-0.3-0.3-0.2-0.5c0-0.2,0.1-0.4,0.3-0.5c0.3-0.1,0.6,0,0.7,0.2c0,0.1,0,0.1,0.1,0.2c0,0,0,0.1,0,0.1c0,0,0,0,0,0.1
			L110.5,30.3L110.5,30.3z M111,30.1c0-0.1-0.2-0.2-0.3-0.2c-0.1,0-0.2,0.1-0.2,0.2H111z"/>
		<path d="M108.6,11.4h0.4V13h-0.4V11.4z"/>
		<path d="M109.8,29.3h0.3v1.5h-0.3V29.3z"/>
		<path d="M109.2,29.7h0.3v1.1h-0.3V29.7z"/>
		<path d="M109,11.1h-0.4v-0.4h0.4V11.1z"/>
		<path d="M118.3,26.4c0.2,0,0.4,0.2,0.4,0.4c0,0,0,0,0,0c0,0.2-0.2,0.4-0.4,0.4c-0.2,0-0.4-0.2-0.4-0.4
			C117.9,26.6,118.1,26.4,118.3,26.4C118.3,26.4,118.3,26.4,118.3,26.4z M118.3,27.1c0.2,0,0.3-0.1,0.3-0.3c0,0,0,0,0,0
			c0-0.2-0.1-0.3-0.2-0.4s-0.3,0.1-0.4,0.2c0,0,0,0.1,0,0.1C117.9,27,118,27.1,118.3,27.1C118.2,27.1,118.2,27.1,118.3,27.1
			L118.3,27.1z"/>
		<path d="M109.5,29.6h-0.3v-0.2h0.3V29.6z"/>
		<path d="M109.9,23.7v-7.1h2.8c0.3,0,0.6,0,0.9,0l0.5,0.1c0.4,0.1,0.7,0.4,0.9,0.8c0.3,0.6,0.3,1.3-0.1,1.9
			c-0.2,0.2-0.4,0.4-0.6,0.5h-0.1c0,0,0.1,0,0.1,0c0.1,0,0.3,0.1,0.4,0.2c0.4,0.2,0.7,0.6,0.8,1c0.1,0.5,0.1,1-0.2,1.5
			c-0.3,0.5-0.7,0.9-1.3,1c-0.2,0-0.4,0.1-0.6,0.1h-3.4L109.9,23.7z M110.8,22.9h2.4c0.1,0,0.2,0,0.3,0c0.4-0.1,0.8-0.4,0.9-0.8
			c0-0.2,0-0.4,0-0.6c0-0.4-0.2-0.7-0.6-0.8l-0.1,0c-0.3-0.1-0.5-0.1-0.8-0.1h-2.2L110.8,22.9z M110.8,19.7h1.8c0.2,0,0.3,0,0.5,0
			c0.2,0,0.4-0.1,0.5-0.1c0.3-0.1,0.5-0.4,0.5-0.6c0.1-0.2,0.1-0.5,0-0.7c-0.1-0.3-0.3-0.5-0.5-0.6l-0.2,0c-0.2-0.1-0.4-0.1-0.6-0.1
			h-2L110.8,19.7z"/>
		<path d="M118.1,26.6h0.2c0.1,0,0.1,0,0.1,0.1c0,0.1,0,0.1-0.1,0.2l0,0l0.1,0.2c0,0,0,0-0.1,0c0,0,0,0,0,0l-0.1-0.1c0,0,0,0-0.1,0
			V27h-0.1L118.1,26.6z M118.2,26.8h0.1c0,0,0.1,0,0.1-0.1s0-0.1-0.1-0.1h-0.1V26.8z"/>
		<text transform="matrix(1 0 0 1 128.95 5.19)" class="st0 st1 st2">Co-organizan:</text>
		<polygon class="st5" points="160.4,19.8 165.2,19.8 165.2,18.7 162.1,18.7 162.1,17.5 164.9,17.5 164.9,16.4 162.1,16.4 
			162.1,15.4 165.2,15.4 165.2,14.3 160.4,14.3 		"/>
		<path class="st5" d="M165.9,19.8h3.1c1.6,0,2.2-0.8,2.2-1.5c0-0.7-0.6-1.3-1.3-1.3l0,0c0.6-0.1,1.1-0.7,1.1-1.3
			c0-0.7-0.6-1.4-1.9-1.4h-3.1L165.9,19.8z M167.3,17.5h1.4c0.4,0,0.8,0.2,0.8,0.6s-0.4,0.6-0.8,0.6h-1.4V17.5z M167.3,15.3h1.1
			c0.6,0,0.9,0.1,0.9,0.6s-0.4,0.6-1,0.6h-1L167.3,15.3z"/>
		<path class="st5" d="M171.1,22.2c0-1.4-1.1-1.8-2.3-1.8c-1.6,0-2.7,0.8-2.7,2.8c0,2,1.1,2.7,2.4,2.7s2.5-0.4,2.5-1.9h-1.4
			c0,0.5-0.4,0.9-0.9,0.8c0,0-0.1,0-0.1,0c-0.9,0-1.2-0.8-1.2-1.7s0.4-1.6,1.3-1.6c0.5-0.1,0.9,0.2,1,0.7c0,0,0,0.1,0,0.1H171.1z"/>
		<path class="st5" d="M172.7,23.1c0-0.9,0.3-1.7,1.4-1.7s1.4,0.7,1.4,1.7s-0.3,1.7-1.4,1.7S172.8,24.1,172.7,23.1 M171.4,23.1
			c-0.1,1.5,1.1,2.8,2.6,2.9c1.5,0.1,2.8-1.1,2.9-2.6c0-0.1,0-0.2,0-0.3c0.1-1.5-1.1-2.8-2.6-2.9c-1.5-0.1-2.8,1.1-2.9,2.6
			C171.4,22.9,171.4,23,171.4,23.1"/>
		<path class="st6" d="M160.5,20.9c0-0.2,0.2-0.4,0.4-0.4c1.5-0.1,3-0.1,4.5,0c0.2,0,0.4,0.2,0.4,0.4c0.2,1.5,0.2,3,0,4.5
			c0,0.2-0.2,0.4-0.4,0.4c0,0,0,0,0,0c-1.5,0.1-3,0.1-4.5,0c-0.2,0-0.4-0.2-0.4-0.4c0,0,0,0,0,0C160.3,23.9,160.3,22.4,160.5,20.9"
			/>
		<path class="st6" d="M171.5,14.8c0-0.2,0.2-0.4,0.4-0.4c0,0,0,0,0,0c1.5-0.1,3-0.1,4.5,0c0.2,0,0.4,0.2,0.4,0.4
			c0.2,1.5,0.2,3,0,4.5c0,0.2-0.2,0.4-0.4,0.4c-1.5,0.1-3,0.1-4.5,0c-0.2,0-0.4-0.2-0.4-0.4C171.3,17.8,171.3,16.3,171.5,14.8"/>
		<rect x="207.9" y="12.1" class="st7" width="14.4" height="13.6"/>
		<path class="st8" d="M219,20.6l-0.1-0.2v0.3c-0.1,0.1-0.2,0.2-0.3,0.2c0.1,0,0.1,0,0.2,0c0,0.1,0,0.2-0.1,0.3l0.2-0.3h0.2
			l-0.1-0.2l0.2-0.4C219.1,20.5,219,20.6,219,20.6z"/>
		<path class="st8" d="M218.7,18.7c0.2,0.2,0.3,0.4,0.3,0.6c-0.1,0.2-0.2,0.5-0.3,0.7l0.4-0.3c0.1,0.2,0.1,0.4,0.1,0.6
			c0.1-0.3,0.1-0.5,0.1-0.8l0.3-0.4l-0.3-0.1c0-0.3-0.1-0.6-0.2-0.9c0,0.3,0,0.5-0.1,0.8C219,18.8,218.8,18.7,218.7,18.7z"/>
		<path class="st8" d="M217.8,17.8c0,0.2,0,0.4,0,0.6l-0.4,0.1l0.4,0.2l-0.1,0.6l0.3-0.4l0.4,0.3l-0.2-0.6l0.2-0.4l-0.4,0.1
			L217.8,17.8z"/>
		<polygon class="st8" points="218.5,17.4 218.7,17.8 218.7,17.5 218.9,17.7 218.8,17.3 218.8,17.1 218.6,17.1 218.3,16.9 
			218.5,17.2 218.2,17.2 		"/>
		<path class="st8" d="M216.8,17.7l0.1,0.4l0.1-0.2c0.1,0.1,0.2,0.1,0.3,0.2l-0.3-0.4v-0.2h-0.2l-0.4-0.3l0.2,0.3h-0.2L216.8,17.7z"
			/>
		<path class="st8" d="M217,15.3l-0.3,0.3c-0.2-0.1-0.5-0.3-0.8-0.3c0.2,0.2,0.4,0.4,0.6,0.7l-0.5,0.6l0.8-0.1l0.5,0.9l-0.1-1h0.6
			c-0.2-0.2-0.4-0.4-0.7-0.6L217,15.3z"/>
		<rect x="214.8" y="19.8" class="st8" width="0.4" height="1.6"/>
		<polygon class="st8" points="215.5,21.3 215.9,21.3 215.9,19 215.5,19.2 		"/>
		<polygon class="st8" points="215.2,19.3 214.8,19.5 214.8,19.7 215.2,19.7 		"/>
		<path class="st8" d="M213.7,19.6c-0.2,0-0.4,0.1-0.5,0.2V19l-0.4,0.2v2.2h0.4v-1c0-0.2,0.1-0.4,0.3-0.4c0,0,0.1,0,0.1,0
			c0.3,0,0.4,0.1,0.4,0.5v1h0.4v-1c0.1-0.4-0.2-0.7-0.5-0.8C213.8,19.6,213.8,19.6,213.7,19.6z"/>
		<path class="st8" d="M211.6,21c-0.5,0-0.7-0.3-0.7-0.8c0-0.5,0.2-0.8,0.7-0.8c0.2,0,0.4,0.1,0.6,0.3l0.4-0.2
			c-0.2-0.3-0.6-0.5-0.9-0.4c-0.6,0-1.2,0.5-1.2,1.2c0,0.6,0.5,1.2,1.2,1.2c0.4,0,0.7-0.1,0.9-0.4l-0.3-0.2
			C212.1,20.9,211.9,21,211.6,21z"/>
		<path class="st8" d="M217.8,20.5c0-0.4-0.3-0.8-0.7-0.8c0,0-0.1,0-0.1,0c-0.5,0-0.8,0.3-0.9,0.7c0,0,0,0.1,0,0.1
			c0,0.5,0.3,0.9,0.8,0.9c0,0,0,0,0.1,0c0.3,0,0.5-0.1,0.7-0.2l-0.2-0.2c-0.1,0.1-0.3,0.1-0.4,0.1c-0.3,0-0.5-0.2-0.5-0.5h1.3
			C217.8,20.6,217.8,20.5,217.8,20.5z M216.5,20.3c0-0.2,0.2-0.4,0.4-0.4c0,0,0,0,0,0c0.2,0,0.4,0.2,0.5,0.4c0,0,0,0,0,0H216.5z"/>
		<rect x="221" y="27.4" class="st7" width="1.3" height="1.3"/>
		<path class="st9" d="M208.6,27.6c-0.2,0-0.4,0.2-0.4,0.5c0,0.3,0.1,0.3,0.2,0.3c0.1,0,0.2-0.1,0.3-0.1c0,0.1,0,0.1,0,0.2
			c0,0.1-0.2,0.2-0.4,0.2s-0.5-0.2-0.5-0.5c-0.1-0.4,0.2-0.7,0.6-0.8c0,0,0,0,0.1,0c0.2,0,0.3,0.1,0.3,0.2c0,0.1,0,0.1,0,0.2
			C208.8,27.6,208.7,27.6,208.6,27.6z"/>
		<path class="st9" d="M209.6,27.8c0,0.1,0,0.1,0,0.2c0,0-0.1-0.1-0.1-0.1c-0.1,0-0.2,0.1-0.2,0.2l-0.1,0.5h-0.3l0.1-0.9h0.3v0.2
			l0,0C209.3,27.8,209.4,27.7,209.6,27.8C209.7,27.7,209.6,27.8,209.6,27.8z"/>
		<path class="st9" d="M210.3,28.3c0,0,0,0.1,0,0.1c0,0.1-0.2,0.2-0.4,0.2c-0.2,0-0.4-0.1-0.4-0.3c0,0,0-0.1,0-0.1
			c0-0.3,0.2-0.5,0.5-0.6c0,0,0,0,0.1,0c0.2,0,0.3,0.1,0.3,0.2c0,0.1-0.3,0.3-0.6,0.3l0,0c0,0.1,0.1,0.2,0.2,0.2c0,0,0,0,0,0
			C210.1,28.4,210.2,28.4,210.3,28.3z M209.9,28.1c0.2,0,0.3-0.1,0.3-0.1c0-0.1,0-0.1-0.1-0.1C210,27.9,209.9,28,209.9,28.1
			L209.9,28.1z"/>
		<path class="st9" d="M211.5,27.7l-0.1,0.9h-0.2v-0.2l0,0c-0.1,0.1-0.2,0.2-0.3,0.2c-0.1,0-0.3-0.1-0.3-0.3c0-0.3,0.2-0.6,0.5-0.6
			c0.1,0,0.1,0,0.2,0l0,0h0.1L211.5,27.7z M211.1,28.3V28c0,0-0.1,0-0.1,0c-0.2,0-0.3,0.2-0.3,0.4c0,0.2,0,0.2,0.1,0.2
			S211,28.4,211.1,28.3L211.1,28.3z"/>
		<path class="st9" d="M212.2,27.7v0.2l0,0h-0.2c0,0.3,0,0.4,0,0.4c0,0,0,0.1,0.1,0.1c0.1,0,0.1,0,0.1-0.1c0,0,0,0.1,0,0.1
			s-0.1,0.2-0.3,0.2c-0.1,0-0.2-0.1-0.3-0.2c0,0,0,0,0-0.1c0-0.2,0-0.3,0.1-0.5h-0.2v-0.2l0,0h0.1c0,0,0-0.1,0-0.1
			c0.1-0.1,0.2-0.1,0.2-0.1l0,0c0,0.1,0,0.2,0,0.2L212.2,27.7z"/>
		<path class="st9" d="M212.3,27.7h0.2c0,0,0.1,0,0.1,0l-0.1,0.9h-0.3L212.3,27.7z M212.3,27.5c0-0.1,0.1-0.2,0.2-0.2c0,0,0,0,0,0
			c0.1,0,0.1,0,0.1,0.1s-0.1,0.2-0.2,0.2S212.4,27.5,212.3,27.5L212.3,27.5z"/>
		<path class="st9" d="M213.6,27.9c0,0.1-0.1,0.7-0.1,0.7h-0.3c0,0,0.1-0.6,0.1-0.6c0-0.1,0-0.1-0.1-0.1c0,0,0,0,0,0
			c-0.1,0-0.2,0.1-0.2,0.2l-0.1,0.5h-0.3l0.1-0.9h0.2c0,0,0.1,0,0.1,0v0.2l0,0c0.1-0.1,0.2-0.2,0.4-0.2
			C213.5,27.7,213.6,27.8,213.6,27.9C213.6,27.9,213.6,27.9,213.6,27.9z"/>
		<path class="st9" d="M214.7,27.7l-0.1,0.9c0,0.3-0.3,0.5-0.5,0.4c0,0,0,0,0,0c-0.1,0-0.3,0-0.3-0.2c0-0.1,0-0.1,0.1-0.2
			c0.1,0.1,0.2,0.1,0.2,0.1c0.2,0,0.2-0.1,0.3-0.2v-0.1c-0.1,0.1-0.2,0.2-0.3,0.2c-0.1,0-0.3-0.1-0.3-0.3c0-0.3,0.2-0.6,0.5-0.6
			c0,0,0,0,0,0c0.1,0,0.1,0,0.2,0h0.1L214.7,27.7z M214.3,28.3l0.1-0.3h-0.1c-0.2,0-0.3,0.2-0.3,0.3c0,0.1,0,0.2,0.1,0.2
			C214.2,28.4,214.3,28.4,214.3,28.3L214.3,28.3z"/>
		<path class="st9" d="M215,27.3h0.8c0,0.1,0,0.1,0,0.2c0,0.1,0,0.1,0,0.2h-0.4v0.2h0.4c0,0.1,0,0.2,0,0.3h-0.3v0.4H215L215,27.3z"
			/>
		<path class="st9" d="M216,28.4v-0.7c0.1,0,0.1,0,0.2,0h0.2v0.6c0,0,0,0.1,0.1,0.1c0,0,0,0,0,0c0.1,0,0.1,0,0.1-0.1c0,0,0,0,0,0
			v-0.5h0.2h0.2v0.9h-0.4v-0.1c-0.1,0.1-0.2,0.2-0.3,0.1C216.1,28.7,216,28.6,216,28.4C216,28.4,216,28.4,216,28.4z"/>
		<path class="st9" d="M217.8,28.5c0,0.1-0.1,0.2-0.3,0.2s-0.4-0.1-0.4-0.4V28H217v-0.2l0,0h0.1v-0.1c0.1-0.1,0.2-0.1,0.3-0.1h0.1
			v0.2h0.3V28l0,0h-0.3v0.2c0,0.1,0.1,0.1,0.1,0.1c0.1,0,0.1,0,0.1,0C217.8,28.3,217.8,28.4,217.8,28.5z"/>
		<path class="st9" d="M217.9,28.4v-0.7h0.2h0.2v0.6c0,0,0,0.1,0.1,0.1c0,0,0,0,0,0c0.1,0,0.1,0,0.1-0.1c0,0,0,0,0,0v-0.5h0.2h0.2
			v0.9h-0.4v-0.1c-0.1,0.1-0.2,0.1-0.3,0.1C218,28.7,217.9,28.5,217.9,28.4z"/>
		<path class="st9" d="M219.1,27.7c0.1,0,0.1,0,0.2,0c0.1,0,0.1,0,0.2,0c0,0.1,0,0.2,0,0.3l0,0c0.1-0.2,0.1-0.3,0.3-0.3
			c0,0.1,0,0.1,0,0.2c0,0.2,0,0.2,0,0.2c-0.1,0-0.3,0.1-0.3,0.2c0,0,0,0.1,0,0.1v0.3h-0.4L219.1,27.7z"/>
		<path class="st9" d="M219.8,28.1c0-0.3,0.2-0.5,0.4-0.5c0,0,0.1,0,0.1,0c0.2,0,0.4,0.1,0.4,0.3c0,0,0,0.1,0,0.1c0,0.1,0,0.1,0,0.2
			h-0.5c0,0.1,0.1,0.1,0.2,0.1c0.1,0,0.2,0,0.3-0.1c0,0.1,0.1,0.1,0.1,0.2c0,0.2-0.2,0.2-0.4,0.2C220.1,28.6,219.9,28.5,219.8,28.1
			C219.8,28.2,219.8,28.2,219.8,28.1z M220.4,28L220.4,28C220.4,28,220.4,28,220.4,28C220.3,28,220.3,27.9,220.4,28
			c-0.1-0.1-0.2,0-0.2,0L220.4,28z"/>
		<polygon points="189.9,20.5 188.5,20.5 188.5,18.5 187.9,18.5 187.9,21 189.9,21 		"/>
		<polygon points="189.9,15.6 188.4,15.6 188.4,15 189.7,15 189.7,14.6 188.4,14.6 188.4,14 189.8,14 189.8,13.6 187.9,13.6 
			187.9,16 189.9,16 		"/>
		<polygon points="193.2,16 193.8,15.2 194.4,16 195.2,16 194.2,14.8 195.1,13.6 194.5,13.6 193.9,14.4 193.3,13.6 192.5,13.6 
			193.5,14.8 192.5,16 		"/>
		<path d="M188.5,25l0.4-1.1l0.4,1.1H188.5z M188.5,23.5l-1,2.5h0.6l0.2-0.5h1.1l0.2,0.5h0.6l-1-2.5H188.5z"/>
		<path d="M183.9,24.7h-0.5V24h0.5c0.3,0,0.4,0.1,0.4,0.3S184.2,24.7,183.9,24.7 M184.9,24.3c0-0.5-0.3-0.8-0.9-0.8h-1.3V26h0.6
			v-0.9h0.5l0.5,0.9h0.7l-0.6-1C184.7,24.9,185,24.6,184.9,24.3"/>
		<path d="M183.4,19h0.5c0.2,0,0.4,0.1,0.4,0.3c0,0,0,0,0,0.1c0,0.2-0.1,0.4-0.4,0.4h-0.5V19z M183.4,20.2h0.7
			c0.5,0.1,0.9-0.3,0.9-0.7c0,0,0-0.1,0-0.1c0-0.5-0.4-0.8-0.9-0.8h-1.3V21h0.6L183.4,20.2z"/>
		<path d="M193.8,20.6c-0.4,0-0.8-0.4-0.7-0.8c0,0,0-0.1,0-0.1c0-0.4,0.2-0.8,0.6-0.8c0.4,0,0.8,0.2,0.8,0.6c0,0.1,0,0.1,0,0.2
			C194.6,20.2,194.3,20.6,193.8,20.6C193.9,20.6,193.9,20.6,193.8,20.6 M193.8,18.5c-0.7,0-1.3,0.6-1.3,1.4s0.6,1.3,1.4,1.3
			c0.7,0,1.3-0.6,1.3-1.3c0-0.7-0.5-1.3-1.2-1.3C193.9,18.5,193.9,18.5,193.8,18.5"/>
		<path class="st10" d="M129.1,23.5c0,0.6,0.4,1,1,1.1c0.1,0,0.2,0,0.2,0c0.3,0,0.6-0.1,0.8-0.4c0.2-0.2,0.3-0.5,0.3-0.9
			c0.1-0.8,0.5-1.6,1.2-2.1c1-0.7,2-1.3,3.1-1.9c1.8-0.9,2.9-2,3.1-2.9l0,0c0-0.1,0-0.2,0-0.3c0-0.6-0.4-1-1-1.1h-0.2
			c-0.3,0-0.6,0.1-0.8,0.4c-0.2,0.2-0.3,0.5-0.3,0.8c-0.1,0.9-0.6,1.7-1.3,2.2c-0.9,0.7-1.9,1.3-3,1.8c-1.8,0.9-2.9,2-3.1,2.9l0,0
			C129.1,23.3,129.1,23.4,129.1,23.5z"/>
		<path class="st11" d="M136.2,19.9c0,0,1.3,0.3,0.9,2.1l0,0c0,0.1,0,0.2,0,0.3c-0.1,0.5,0.2,1.1,0.8,1.2c0.5,0.1,1.1-0.2,1.2-0.8
			c0-0.2,0-0.4,0-0.6c-0.1-1.2-2.4-2.8-2.8-2.7c0,0-0.2,0-0.2,0.2C136,19.8,136.1,19.9,136.2,19.9z"/>
		<path class="st12" d="M135.8,20.5c0,0,0.8,0.2,0.6,1.4l0,0c0,0-0.3,1.1-2,1.4c-2,0.3-2-0.4-2-0.4c0-0.4-0.2-0.8,1.8-2
			C134.2,20.9,135.2,20.3,135.8,20.5z"/>
		<path class="st13" d="M131,15.1c0.1,1.6,2.4,3.5,3.8,4.2c0.3,0.2,0.7,0.2,1,0.1c0.6-0.3-0.1-0.5-0.1-0.5s-2.1-0.6-1.5-3.6l0,0
			c0-0.2,0-0.3,0-0.5c-0.1-0.9-0.9-1.6-1.8-1.5S130.9,14.2,131,15.1L131,15.1L131,15.1z"/>
		<path class="st9" d="M152.6,23.8h1.5v-6.5h-1.5V23.8z M153.3,16.6c0.5,0,0.8-0.4,0.8-0.8s-0.4-0.8-0.8-0.8c-0.5,0-0.8,0.4-0.8,0.8
			S152.9,16.6,153.3,16.6L153.3,16.6L153.3,16.6z M142,25c-0.1,0-0.3,0-0.4,0.1l0.1,0.2c0.1-0.1,0.2-0.1,0.3-0.1
			c0.1,0,0.1,0,0.1,0.1l0,0c-0.1,0-0.1,0-0.2,0c-0.2,0-0.4,0.1-0.4,0.3c0,0.2,0.1,0.3,0.3,0.3c0,0,0,0,0.1,0c0.1,0,0.2,0,0.2-0.1
			v0.1h0.3v-0.6C142.4,25,142.2,25,142,25L142,25z M142.2,25.7c0,0-0.1,0.1-0.2,0.1c-0.1,0-0.1,0-0.1-0.1c0-0.1,0.1-0.1,0.2-0.1
			C142.1,25.6,142.1,25.6,142.2,25.7L142.2,25.7z M143.7,25c-0.1,0-0.2,0-0.3,0.1c0-0.1-0.1-0.1-0.2-0.1c-0.1,0-0.2,0-0.2,0.1V25
			h-0.3v0.9h0.3v-0.5c0-0.1,0-0.2,0.1-0.2s0.1,0.1,0.1,0.2v0.5h0.3v-0.5c0-0.1,0-0.2,0.1-0.2s0.1,0.1,0.1,0.2v0.5h0.3v-0.6
			C144,25.1,143.9,25,143.7,25L143.7,25z M144.7,25c-0.2,0-0.4,0.2-0.4,0.4c0,0,0,0,0,0.1c0,0.3,0.2,0.5,0.4,0.5s0.4-0.2,0.4-0.5
			C145.1,25.2,145,25,144.7,25C144.7,25,144.7,25,144.7,25L144.7,25z M144.7,25.7c-0.1,0-0.2-0.1-0.2-0.2c0-0.1,0.1-0.2,0.2-0.2
			s0.2,0.1,0.2,0.2S144.8,25.7,144.7,25.7L144.7,25.7z M141,25c-0.2,0-0.4,0.2-0.4,0.4c0,0,0,0,0,0.1c0,0.3,0.2,0.5,0.4,0.5
			c0.1,0,0.3-0.1,0.4-0.2l-0.2-0.1c0,0.1-0.1,0.1-0.2,0.1c-0.1,0-0.2-0.1-0.2-0.1c0,0,0,0,0,0h0.6v-0.1C141.4,25.2,141.3,25,141,25
			C141.1,25,141,25,141,25L141,25z M140.8,25.4c0-0.1,0.1-0.2,0.2-0.2c0.1,0,0.2,0.1,0.2,0.1c0,0,0,0,0,0H140.8z M145.7,21.3
			c0-0.7-0.3-1.5-0.9-1.9c0.4-0.4,0.6-1,0.6-1.6c0-1.3-0.7-2.4-2.8-2.4h-2.9v8.4h3C144.9,23.8,145.7,22.7,145.7,21.3L145.7,21.3z
			 M141.2,16.9h1.5c0.9,0,1.1,0.5,1.1,0.9c0,0.5-0.2,0.9-1,0.9h-1.6L141.2,16.9z M141.2,20.2h1.6c0.9,0,1.3,0.3,1.3,1.1
			c0,0.5-0.2,1-1.3,1h-1.5V20.2z M140.1,25.4c-0.1,0-0.2-0.1-0.2-0.1c0-0.1,0-0.1,0.1-0.1c0.1,0,0.1,0,0.2,0.1l0.2-0.1
			c-0.1-0.1-0.2-0.2-0.4-0.2c-0.2,0-0.3,0.1-0.3,0.3c0,0.2,0.1,0.2,0.3,0.3s0.1,0.1,0.1,0.1c0,0.1-0.1,0.1-0.1,0.1
			c-0.1,0-0.2,0-0.2-0.1l-0.2,0.1c0.1,0.1,0.2,0.2,0.4,0.2c0.2,0,0.4-0.1,0.4-0.3S140.2,25.4,140.1,25.4L140.1,25.4z M148.6,25
			c-0.2,0-0.4,0.2-0.4,0.5c0,0.2,0.1,0.5,0.4,0.5c0,0,0,0,0,0c0.1,0,0.2,0,0.3-0.1l-0.1-0.1c-0.1,0-0.1,0.1-0.2,0.1
			c-0.2,0-0.2-0.1-0.3-0.3h0.6c0,0,0-0.1,0-0.1C149,25.1,148.8,25,148.6,25L148.6,25z M148.3,25.4c0-0.2,0.1-0.3,0.3-0.3
			s0.2,0.1,0.2,0.3H148.3z M150.3,25c-0.2,0-0.4,0.2-0.4,0.5c0,0.2,0.1,0.4,0.3,0.5c0.1,0,0.3,0,0.4-0.1l-0.1-0.1
			c-0.1,0-0.1,0.1-0.2,0.1c-0.2,0-0.2-0.1-0.3-0.3h0.6c0,0,0-0.1,0-0.1C150.7,25.1,150.5,25,150.3,25L150.3,25z M150,25.4
			c0-0.2,0.1-0.3,0.3-0.3s0.2,0.1,0.2,0.3H150z M149.5,22.5c-1,0-1.8-0.9-1.8-1.8l0,0c0-1,0.7-1.8,1.7-1.8c0,0,0,0,0.1,0
			c0.5,0,1,0.2,1.4,0.6l1-1.1c-0.6-0.6-1.5-1-2.4-1c-1.8,0-3.3,1.5-3.3,3.3l0,0c0,1.8,1.4,3.3,3.2,3.3c0,0,0,0,0,0
			c0.9,0,1.7-0.4,2.3-1l-1.1-1C150.4,22.3,150,22.5,149.5,22.5z M151.3,25c-0.1,0-0.2,0-0.2,0.1V25h-0.1v0.9h0.1v-0.6
			c0-0.2,0.1-0.3,0.2-0.3s0.2,0.1,0.2,0.3v0.6h0.1v-0.5C151.6,25.1,151.5,25,151.3,25L151.3,25z M152.1,25.7v-0.5h0.2V25h-0.2v-0.4
			l-0.1,0.1V25h-0.2v0.1h0.2v0.6c0,0.1,0.1,0.2,0.2,0.2c0.1,0,0.1,0,0.2,0v-0.1c0,0-0.1,0.1-0.1,0.1
			C152.1,25.8,152.1,25.8,152.1,25.7L152.1,25.7z M152.9,25c-0.2,0-0.4,0.2-0.4,0.5c0,0.2,0.2,0.5,0.4,0.5c0,0,0,0,0,0
			c0.1,0,0.2,0,0.3-0.1l-0.1-0.1c-0.1,0-0.1,0.1-0.2,0.1c-0.2,0-0.2-0.1-0.3-0.3h0.6v-0.1C153.3,25.1,153.1,25,152.9,25L152.9,25z
			 M152.6,25.4c0-0.2,0.1-0.3,0.3-0.3s0.2,0.1,0.2,0.3H152.6z M153.8,25.4c-0.1,0-0.2-0.1-0.2-0.2c0-0.1,0.1-0.1,0.2-0.1
			c0.1,0,0.2,0,0.2,0.1l0.1-0.1c-0.1-0.1-0.2-0.1-0.3-0.1c-0.2,0-0.3,0.1-0.3,0.2s0.1,0.2,0.3,0.3s0.2,0.1,0.2,0.2s-0.1,0.1-0.2,0.1
			c-0.1,0-0.2-0.1-0.2-0.1l-0.1,0.1c0.1,0.1,0.2,0.2,0.3,0.2c0.2,0,0.3-0.1,0.3-0.3S153.9,25.4,153.8,25.4L153.8,25.4z M146.8,25.1
			c-0.1-0.1-0.2-0.1-0.2-0.1c-0.2,0-0.4,0.2-0.4,0.5s0.1,0.5,0.4,0.5c0.1,0,0.2,0,0.2-0.1v0.1h0.1v-1.3l-0.1,0.1V25.1z M146.8,25.7
			c0,0.1-0.1,0.1-0.2,0.1c-0.2,0-0.3-0.2-0.3-0.4c0-0.2,0.1-0.4,0.3-0.4c0.1,0,0.2,0.1,0.2,0.1V25.7z M145.7,25.4
			c-0.1,0-0.2-0.1-0.2-0.1c0-0.1,0-0.1,0.1-0.1c0.1,0,0.1,0,0.2,0.1l0.2-0.1c-0.1-0.1-0.2-0.2-0.3-0.2c-0.2,0-0.4,0.1-0.4,0.3
			c0,0.2,0.1,0.2,0.3,0.3s0.2,0.1,0.2,0.1c0,0.1-0.1,0.1-0.1,0.1c-0.1,0-0.2,0-0.2-0.1l-0.2,0.1c0.1,0.1,0.2,0.2,0.4,0.2
			c0.2,0,0.4-0.1,0.4-0.3S145.9,25.4,145.7,25.4L145.7,25.4z M147.3,25.9h0.1V25h-0.1V25.9z M149.4,25.1V25h-0.1v0.9h0.1v-0.5
			c0-0.2,0.1-0.3,0.2-0.3c0,0,0.1,0,0.1,0V25c0,0-0.1,0-0.1,0C149.5,25,149.4,25.1,149.4,25.1L149.4,25.1z M147.4,24.7
			C147.3,24.6,147.3,24.7,147.4,24.7C147.3,24.7,147.3,24.7,147.4,24.7c-0.1,0.1,0,0.2,0,0.2S147.4,24.8,147.4,24.7
			C147.5,24.7,147.4,24.7,147.4,24.7C147.4,24.6,147.4,24.6,147.4,24.7L147.4,24.7z M147.8,24.9V25h-0.1v0.1h0.1V26h0.1v-0.8h0.2V25
			h-0.2v-0.1c0,0,0-0.1,0.1-0.1c0,0,0.1,0,0.1,0v-0.1c-0.1,0-0.1,0-0.2,0C147.9,24.7,147.8,24.7,147.8,24.9
			C147.8,24.8,147.8,24.8,147.8,24.9L147.8,24.9z"/>
		<text transform="matrix(1 0 0 1 4.49 5.19)" class="st0 st1 st2">Herramienta generada en base a:</text>
		<rect x="4.6" y="25.3" class="st14" width="13.3" height="0.9"/>
		<rect x="4.6" y="12.1" class="st14" width="13.3" height="0.9"/>
		<path class="st14" d="M5.7,17.4c0.1,0.1,0.1,0.2,0.2,0.3c0.1,0.1,0.2,0.1,0.3,0.1c0.1,0,0.3,0.1,0.4,0.1H7c0.1,0,0.2-0.1,0.3-0.1
			c0.1,0,0.2-0.1,0.2-0.2c0.1-0.1,0.1-0.2,0.1-0.3c0-0.1,0-0.2-0.1-0.3c-0.1-0.1-0.2-0.2-0.3-0.2c-0.1-0.1-0.3-0.1-0.4-0.1
			c-0.2,0-0.3-0.1-0.5-0.2c-0.2,0-0.3,0-0.5-0.1c-0.2-0.1-0.3-0.1-0.5-0.3C5.1,16,5,15.9,4.9,15.7c-0.1-0.2-0.1-0.4-0.1-0.6
			c0-0.2,0.1-0.4,0.2-0.6c0.1-0.2,0.2-0.3,0.4-0.4c0.2-0.1,0.4-0.2,0.6-0.3c0.2,0,0.4-0.1,0.6-0.1c0.2,0,0.5,0.1,0.7,0.1
			c0.2,0.1,0.4,0.1,0.6,0.3c0.2,0.1,0.3,0.3,0.4,0.4c0.1,0.2,0.2,0.4,0.2,0.7h-1c0-0.1,0-0.2,0-0.3c-0.1-0.1-0.1-0.2-0.2-0.2
			c-0.1-0.1-0.2-0.1-0.3-0.1H6.5c-0.1,0-0.2,0-0.2,0.1c-0.1,0-0.2,0-0.2,0.1l-0.2,0.2c0,0.1,0,0.2,0,0.2c0,0.1,0,0.1,0,0.2
			c0.1,0.1,0.1,0.1,0.2,0.2c0.1,0.1,0.3,0.1,0.5,0.1l0.7,0.2c0.1,0,0.2,0.1,0.3,0.1c0.2,0,0.3,0.1,0.4,0.2c0.2,0.1,0.3,0.2,0.4,0.4
			c0.1,0.2,0.1,0.4,0.1,0.6c0,0.2,0,0.4-0.1,0.6c-0.1,0.2-0.2,0.4-0.3,0.5c-0.2,0.1-0.4,0.2-0.6,0.3c-0.3,0.1-0.6,0.1-0.8,0.1
			c-0.3,0-0.5-0.1-0.7-0.1c-0.2-0.1-0.4-0.2-0.6-0.3c-0.2-0.1-0.3-0.3-0.5-0.5c-0.1-0.2-0.2-0.5-0.2-0.7h1
			C5.7,17.1,5.7,17.3,5.7,17.4z"/>
		<path class="st14" d="M11.2,13.9c0.3,0,0.6,0,0.9,0.1c0.3,0.1,0.5,0.2,0.7,0.5c0.2,0.2,0.4,0.5,0.5,0.7c0.1,0.3,0.2,0.7,0.2,1
			c0,0.3,0,0.6-0.1,0.9c-0.1,0.3-0.3,0.5-0.4,0.7c-0.2,0.2-0.4,0.4-0.7,0.5c-0.3,0.1-0.6,0.2-0.9,0.2h-2v-4.6H11.2z M11.1,17.7
			c0.2,0,0.3,0,0.5-0.1c0.1,0,0.3-0.1,0.4-0.2c0.1-0.1,0.2-0.3,0.3-0.5c0.1-0.2,0.1-0.4,0.1-0.7c0-0.2,0-0.4-0.1-0.6
			c-0.1-0.2-0.1-0.3-0.2-0.5c-0.1-0.1-0.2-0.2-0.4-0.3c-0.2-0.1-0.4-0.1-0.6-0.1h-0.7v3L11.1,17.7z"/>
		<path class="st14" d="M16.6,18.5c-0.2,0.1-0.4,0.1-0.7,0.1c-0.3,0-0.7-0.1-1-0.2c-0.3-0.1-0.5-0.3-0.7-0.5
			c-0.2-0.2-0.3-0.5-0.4-0.8c-0.1-0.3-0.1-0.7-0.1-1c0-0.3,0-0.7,0.2-1c0.1-0.3,0.2-0.6,0.4-0.8c0.2-0.2,0.5-0.4,0.7-0.5
			c0.3-0.1,0.7-0.2,1-0.2c0.2,0,0.5,0.1,0.7,0.1c0.2,0.1,0.5,0.2,0.6,0.3c0.4,0.3,0.6,0.7,0.7,1.2h-1c0-0.2-0.2-0.4-0.4-0.6
			c-0.2-0.1-0.4-0.2-0.6-0.2c-0.2,0-0.4,0-0.6,0.1c-0.2,0.1-0.3,0.2-0.4,0.3c-0.1,0.2-0.2,0.3-0.2,0.5c-0.1,0.2-0.1,0.4-0.1,0.6
			c0,0.2,0,0.4,0.1,0.6c0.1,0.2,0.1,0.4,0.2,0.5c0.1,0.1,0.2,0.3,0.4,0.3c0.2,0.1,0.4,0.1,0.6,0.1c0.3,0,0.6-0.1,0.8-0.2
			c0.2-0.2,0.3-0.5,0.4-0.7h-1v-0.8h1.9v2.7h-0.6L17.4,18C17.2,18.2,16.9,18.4,16.6,18.5z"/>
		<path class="st14" d="M6.2,19.4l1,2.5H6.6l-0.2-0.6h-1L5.2,22H4.7l1-2.5H6.2z M6.2,20.9L5.9,20l0,0l-0.3,0.9H6.2z"/>
		<path class="st14" d="M9,20.1C9,20,9,20,8.9,20c-0.1,0-0.1-0.1-0.2-0.1c-0.1-0.1-0.1,0-0.2,0c-0.1,0-0.2,0-0.3,0
			C8.1,19.9,8,20,7.9,20c-0.1,0.1-0.1,0.2-0.1,0.3c0,0.1,0,0.2,0,0.3c0,0.1,0,0.2,0,0.3c0,0.1,0.1,0.2,0.1,0.3s0.1,0.2,0.2,0.2
			c0.1,0,0.2,0.1,0.3,0.1c0.2,0,0.3-0.1,0.4-0.2c0.1-0.1,0.2-0.3,0.2-0.4h0.5c0,0.2,0,0.3-0.1,0.5c-0.1,0.1-0.1,0.2-0.2,0.3
			C9.1,21.8,9,21.9,8.9,22C8.7,22,8.6,22,8.4,22c-0.2,0-0.3,0-0.5-0.1c-0.2-0.1-0.3-0.2-0.4-0.3c-0.1-0.1-0.2-0.2-0.2-0.4
			c0-0.2-0.1-0.3-0.1-0.5c0-0.2,0.1-0.3,0.1-0.5c0-0.2,0.1-0.3,0.2-0.5c0.1-0.1,0.2-0.2,0.4-0.3c0.3-0.1,0.6-0.1,0.9-0.1l0.3,0.2
			c0.1,0.1,0.2,0.2,0.2,0.3c0.1,0.1,0.1,0.3,0.1,0.4H9C9.1,20.2,9,20.1,9,20.1z"/>
		<path class="st14" d="M9.8,19.8v-0.5h2.1v0.5h-0.7V22h-0.6v-2.1H9.8z"/>
		<path class="st14" d="M12.8,19.4V22h-0.6v-2.5H12.8z"/>
		<path class="st14" d="M16.4,19.4l1.1,1.7l0,0v-1.7H18V22h-0.6l-1.1-1.7l0,0V22h-0.5v-2.6H16.4z"/>
		<path class="st15" d="M13.7,20.3c0.1-0.1,0.1-0.1,0.1-0.2l-0.3-0.4c-0.1,0.1-0.2,0.2-0.2,0.3L13.7,20.3z"/>
		<path class="st16" d="M14.6,20c0.1,0.1,0.1,0.1,0.2,0.1l0.3-0.4c-0.1-0.1-0.2-0.2-0.3-0.2L14.6,20z"/>
		<path class="st17" d="M15.5,20.1L15,20.4c0,0,0.1,0.1,0.1,0.2l0.6-0.1C15.6,20.4,15.5,20.2,15.5,20.1"/>
		<path class="st18" d="M14.9,20.3l0.6-0.2c0-0.1-0.1-0.2-0.2-0.3L14.9,20.3C14.9,20.3,14.9,20.3,14.9,20.3"/>
		<path class="st19" d="M13.6,20.7L13.6,20.7L13,20.6v0.1c0,0.1,0,0.2,0.1,0.3l0.5-0.2L13.6,20.7"/>
		<path class="st20" d="M14.9,21.1c-0.1,0.1-0.1,0.1-0.1,0.1l0.3,0.5c0.1-0.1,0.2-0.2,0.3-0.3L14.9,21.1z"/>
		<path class="st21" d="M15,20.7v0.2l0.5,0.2c0-0.1,0.1-0.2,0.1-0.3v0H15"/>
		<path class="st22" d="M13.7,21.1l-0.5,0.3c0.1,0.1,0.2,0.2,0.3,0.3l0.3-0.5C13.9,21.2,13.8,21.2,13.7,21.1"/>
		<path class="st23" d="M13.6,20.6c0,0,0.1-0.1,0.1-0.2l-0.5-0.3c-0.1,0.1-0.1,0.3-0.1,0.4L13.6,20.6z"/>
		<path class="st24" d="M14.9,21.8l-0.3-0.5c0,0-0.1,0.1-0.2,0.1l0.1,0.5C14.7,21.9,14.8,21.8,14.9,21.8"/>
		<path class="st25" d="M15,20.9c0,0.1-0.1,0.1-0.1,0.2l0.4,0.3l0.2-0.3L15,20.9z"/>
		<path class="st26" d="M14.4,21.4h-0.2l-0.1,0.5h0.4L14.4,21.4z"/>
		<path class="st27" d="M14.4,20c0.1,0,0.1,0,0.2,0l0.2-0.5c-0.1,0-0.3-0.1-0.4,0V20z"/>
		<path class="st28" d="M14.1,21.4c-0.1,0-0.1-0.1-0.2-0.1l-0.3,0.5c0.1,0.1,0.2,0.1,0.3,0.1L14.1,21.4z"/>
		<path class="st29" d="M14.1,20c0.1,0,0.1,0,0.2,0v-0.6c-0.1,0-0.2,0.1-0.4,0.1L14.1,20z"/>
		<path class="st30" d="M13.7,21.1c0,0-0.1-0.1-0.1-0.2l-0.5,0.2l0.2,0.3L13.7,21.1z"/>
		<path class="st31" d="M13.9,20.1c0.1-0.1,0.1-0.1,0.2-0.1l-0.2-0.5l-0.3,0.2L13.9,20.1z"/>
		<path class="st14" d="M5.3,22.6l0.5,1.3l0,0l0.4-1.3h0.6v1.9H6.3v-1.4l0,0l-0.4,1.4H5.5L5,23.1l0,0v1.3H4.6v-1.9H5.3z"/>
		<path class="st14" d="M8,22.6l0.7,1.9H8.3L8.2,24H7.4l-0.2,0.4H6.9l0.7-1.9H8z M8,23.7L7.8,23l0,0l-0.2,0.7H8z"/>
		<path class="st14" d="M9.3,22.6l0.8,1.2l0,0v-1.2h0.4v1.9h-0.4l-0.8-1.2l0,0v1.2H8.9v-1.9H9.3z"/>
		<path class="st14" d="M11.8,22.6l0.7,1.9H12L11.9,24h-0.7l-0.2,0.4h-0.4l0.7-1.9H11.8z M11.8,23.7L11.6,23l0,0l-0.2,0.7H11.8z"/>
		<path class="st14" d="M13.8,24.4c-0.1,0-0.2,0.1-0.3,0c-0.1,0-0.3,0-0.4,0c-0.1,0-0.2-0.1-0.3-0.2l-0.2-0.3
			c-0.1-0.1-0.1-0.3-0.1-0.4c0-0.1,0-0.3,0.1-0.4l0.2-0.3c0.1-0.1,0.2-0.2,0.3-0.2c0.1,0,0.3-0.1,0.4-0.1c0.1,0,0.2,0,0.3,0.1
			c0.1,0,0.2,0,0.2,0.1c0.2,0.1,0.3,0.3,0.3,0.5h-0.4c0-0.1,0-0.2-0.1-0.2c-0.1,0-0.2-0.1-0.3-0.1c-0.1,0-0.2,0-0.2,0
			c-0.1,0.1-0.1,0.1-0.2,0.2L13,23.3v0.5c0,0.1,0,0.1,0.1,0.2c0.1,0.1,0.1,0.1,0.2,0.1c0.1,0,0.1,0.1,0.2,0c0.1,0,0.2-0.1,0.3-0.1
			c0.1-0.1,0.1-0.2,0.1-0.3h-0.4v-0.3h0.8v1h-0.3L14,24.2C13.9,24.3,13.9,24.4,13.8,24.4z"/>
		<path class="st14" d="M16,22.6v0.3h-1v0.4H16v0.3H15v0.5h1v0.4h-1.4v-1.9H16z"/>
		<path class="st14" d="M17.4,22.6c0,0,0.2,0,0.2,0.1c0.1,0.1,0.1,0.1,0.2,0.1c0,0.1,0.1,0.1,0.1,0.2c0.1,0,0.1,0.1,0.1,0.2
			c0,0.1,0,0.2-0.1,0.3c0,0.1-0.1,0.2-0.2,0.2l0,0c0,0,0.1,0,0.1,0.1c0,0,0.1,0.1,0.1,0.1c0,0.1,0.1,0.1,0.1,0.1v0.5
			c0,0.1,0,0.1,0.1,0.1h-0.4c0-0.1-0.1-0.1-0.1-0.2V24c0-0.1-0.1-0.2-0.1-0.2c-0.1,0-0.1,0-0.2,0h-0.4v0.7h-0.4v-1.9H17.4z
			 M17.2,23.4c0.1,0,0.2,0,0.2,0c0.1-0.1,0.1-0.1,0.1-0.2c0-0.1,0-0.2-0.1-0.2c-0.1,0-0.1,0-0.2,0h-0.4v0.5L17.2,23.4z"/>
		<path class="st14" d="M20.6,12.1h0.1c0,0,0.1,0,0.1,0.1l0.1,0.1v0.2c0,0,0,0.1-0.1,0.1l-0.1,0.1h-0.3v-0.5H20.6L20.6,12.1z
			 M20.6,12.5L20.6,12.5C20.6,12.5,20.6,12.5,20.6,12.5l0.1-0.3l-0.1-0.1h-0.1L20.6,12.5L20.6,12.5z"/>
		<path class="st14" d="M21,12.6h0.1v-0.1h0.1c0,0.1-0.1,0.1-0.1,0.1L21,12.6C21,12.6,20.9,12.6,21,12.6c-0.1,0-0.1-0.1-0.1-0.1
			v-0.1c0-0.1,0.1-0.1,0.1-0.1h0.1c0,0,0.1,0,0.1,0.1c0,0.1,0,0.1,0.1,0.1v0.1h-0.3C20.9,12.5,20.9,12.5,21,12.6z M21.1,12.4
			L21.1,12.4C21.1,12.4,21.1,12.4,21.1,12.4z"/>
		<path class="st14" d="M21.4,12.7l-0.1-0.3h0.1l0,0.2l0,0l0.1-0.2h0.1l-0.1,0.3H21.4z"/>
		<path class="st14" d="M21.7,12.6h0.1v-0.1H22c0,0.1-0.1,0.1-0.1,0.1L21.7,12.6 M21.7,12.6C21.7,12.5,21.7,12.5,21.7,12.6l-0.1-0.2
			c0-0.1,0.1-0.1,0.1-0.1h0.1c0,0,0.1,0,0.1,0c0,0,0,0,0,0c0,0.1,0,0.1,0.1,0.1v0.1h-0.3C21.7,12.5,21.7,12.6,21.7,12.6L21.7,12.6z
			 M21.9,12.4L21.9,12.4C21.9,12.4,21.9,12.4,21.9,12.4z"/>
		<path class="st14" d="M22.1,12.1v0.5H22v-0.5H22.1z"/>
		<path class="st14" d="M22.2,12.4c0-0.1,0-0.1,0.1-0.1h0.2c0.1,0,0.1,0.1,0.1,0.1v0.1c0,0,0,0.1,0,0.1s-0.1,0-0.1,0.1h-0.2
			c0,0-0.1,0-0.1-0.1s0-0.1,0-0.1L22.2,12.4C22.1,12.4,22.2,12.4,22.2,12.4z M22.3,12.5L22.3,12.5C22.3,12.5,22.3,12.6,22.3,12.5
			l0.2,0.1v-0.2h0c0,0-0.1,0-0.1,0.1L22.3,12.5C22.3,12.4,22.3,12.4,22.3,12.5z"/>
		<path class="st14" d="M22.7,12.3h0.2c0,0,0.1,0,0.1,0c0,0,0,0,0,0v0.2 M22.9,12.6h-0.1 M22.7,12.6L22.7,12.6v0.2h-0.1v-0.5
			l0.1,0.1L22.7,12.6z M22.8,12.6L22.8,12.6L22.8,12.6l0.1-0.2h-0.1L22.8,12.6L22.8,12.6C22.8,12.6,22.8,12.6,22.8,12.6z"/>
		<path class="st14" d="M23.1,12.6h0.1v-0.1h0.1c0,0.1,0,0.1,0,0.1L23.1,12.6 M23.1,12.6C23.1,12.5,23,12.5,23.1,12.6L23,12.4
			c0-0.1,0.1-0.1,0.1-0.1h0.1c0,0,0.1,0,0.1,0.1c0,0.1,0,0.1,0,0.1v0.1h-0.3C23.1,12.5,23.1,12.5,23.1,12.6L23.1,12.6z M23.2,12.4
			L23.2,12.4C23.3,12.4,23.3,12.4,23.2,12.4z"/>
		<path class="st14" d="M23.7,12.6L23.7,12.6c0,0-0.1,0.1-0.1,0.1h-0.1c0,0-0.1,0-0.1,0c0,0,0,0,0,0v-0.2c0,0,0-0.1,0-0.1h0.1
			c0,0,0.1,0,0.1,0c0,0,0,0,0,0l0,0v-0.2h0.1v0.4L23.7,12.6L23.7,12.6z M23.7,12.4L23.7,12.4 M23.6,12.4h-0.1v0.2h0.1v-0.1
			C23.6,12.5,23.7,12.5,23.6,12.4L23.6,12.4z"/>
		<path class="st14" d="M24.1,12.1v0.2l0,0c0,0,0-0.1,0-0.1h0.1c0.1,0,0.1,0,0.1,0.1c0,0,0,0.1,0.1,0.1v0.2c0,0,0,0.1,0,0.1
			c0,0,0,0,0,0c0,0-0.1,0.1-0.1,0.1h-0.1c0,0-0.1,0-0.1,0c0,0,0,0,0,0l0,0v0.1H24v-0.5H24.1z M24.3,12.4L24.3,12.4
			C24.3,12.4,24.2,12.4,24.3,12.4l-0.2-0.1v0.2h0.1v-0.1C24.2,12.5,24.3,12.5,24.3,12.4z"/>
		<path class="st14" d="M24.6,12.8L24.6,12.8L24.6,12.8L24.6,12.8l-0.2-0.4h0.1l0.1,0.3l0,0l0.1-0.3h0.1L24.6,12.8
			C24.6,12.7,24.6,12.7,24.6,12.8z"/>
		<path class="st14" d="M25.1,15.7l0.3,0.1c0.1,0,0.1,0,0.1-0.1v-0.1c0,0-0.1-0.1-0.1-0.1l-0.3-0.1v0.1l0,0v-0.2l0,0v0.1h0.2
			c0,0,0.1,0,0.1,0.1v0.1c0,0.1,0,0.2-0.1,0.2c0,0,0,0,0,0L25,15.7v0.1l0,0v-0.2l0,0"/>
		<path class="st14" d="M25.3,15.1l0.3,0.1l0.1-0.1l0,0l-0.1,0.2l0,0v0L25.3,15.1l-0.1,0.1l0,0L25.3,15.1l0.3-0.1L25.4,15L25.3,15.1
			L25.3,15.1l0.1-0.2l0,0V15l0.4,0.1v0"/>
		<path class="st14" d="M25.9,14.4l0.1,0.1c0,0,0,0.1-0.1,0.1c-0.1,0.1-0.2,0.1-0.3,0.1c-0.1-0.1-0.1-0.2-0.1-0.3s0.1-0.1,0.1-0.1
			l0,0l0.1,0.1h-0.1c0,0-0.1,0.1-0.1,0.2c0,0.1,0,0.1,0.1,0.1c0.1,0.1,0.2,0.1,0.3-0.1l0,0L25.9,14.4L25.9,14.4L25.9,14.4l0.1-0.1
			l0,0"/>
		<path class="st14" d="M26.2,14.3L25.9,14h0l0.2-0.1l0,0V14l0.3,0.3l0.1-0.1v-0.1l0,0l0,0.1l-0.2,0.2l0,0"/>
		<path class="st14" d="M26.3,13.9c0,0.1,0.1,0.1,0.2,0.1c0-0.1,0-0.1,0-0.2c0-0.1-0.1-0.1-0.2-0.1C26.3,13.7,26.3,13.8,26.3,13.9
			 M26.3,14c-0.1-0.1,0-0.3,0.1-0.3l0,0c0.1-0.1,0.2-0.1,0.3,0.1l0,0c0.1,0.1,0,0.3,0,0.3l0,0C26.4,14.1,26.3,14.1,26.3,14L26.3,14"
			/>
		<path class="st14" d="M26.9,13.8L26.9,13.8c0,0,0-0.1,0.1-0.1v-0.1c0-0.1-0.1-0.1-0.1-0.1l0,0 M26.8,13.6L26.8,13.6
			C26.9,13.6,26.9,13.6,26.8,13.6c0.1-0.1,0.1-0.1,0.1-0.1l0,0c0-0.1-0.1-0.1-0.1-0.1l0,0L26.8,13.6z M26.8,13.9l-0.1-0.3h-0.1
			l0.2-0.1h0.1c0,0,0.1,0,0.1,0.1c0,0.1,0,0.1-0.1,0.2c0.1,0,0.2,0,0.2,0.1v0.1c0,0.1-0.1,0.1-0.1,0.1L26.8,13.9z"/>
		<path class="st14" d="M27.2,13.5h0.1l0-0.1v-0.1 M27.2,13.6v0.1h-0.1L27.2,13.6l0.1-0.4h0l0.2,0.4h0.1l-0.1,0.1l0,0l0-0.1l0-0.1
			L27.2,13.6z"/>
		<path class="st14" d="M27.7,13.6v-0.3h0.1v0.4h0.1l0.1-0.1l0,0v0.1L27.7,13.6L27.7,13.6"/>
		<path class="st14" d="M28.5,13.8L28.5,13.8L28.5,13.8L28.5,13.8L28.5,13.8c0,0.1-0.1,0-0.1,0s-0.2-0.1-0.2-0.2v-0.1
			c0.1-0.1,0.2-0.2,0.3-0.2s0,0,0.1,0.1v0.1l0,0v-0.1h-0.2c-0.1,0-0.1,0.1-0.1,0.1S28.3,13.8,28.5,13.8L28.5,13.8"/>
		<path class="st14" d="M28.8,13.7c-0.1,0.1-0.1,0.2,0,0.2c0.1,0,0.2,0,0.2-0.1c0-0.1,0-0.2,0-0.2S28.8,13.6,28.8,13.7 M28.7,13.6
			c0-0.1,0.2-0.2,0.3-0.1c0,0,0,0,0,0l0,0c0.1,0,0.2,0.2,0.1,0.3c0,0,0,0,0,0l0,0c0,0.1-0.2,0.2-0.3,0.1c0,0,0,0,0,0l0,0
			C28.7,13.9,28.6,13.8,28.7,13.6C28.6,13.7,28.6,13.6,28.7,13.6L28.7,13.6"/>
		<path class="st14" d="M29.3,14.1l0.3-0.2l0.1,0.1h-0.1l-0.2,0.3v0.1l0,0l-0.2-0.1h0.1l0.2-0.2l-0.3,0.2l0,0l0.1-0.3L29,14.2v0.1
			l0,0l-0.1-0.1H29l0.2-0.3v-0.1l0,0l0.1,0.1"/>
		<path class="st14" d="M29.7,14.4L29.7,14.4C29.7,14.5,29.7,14.5,29.7,14.4l0.1,0.1l0.1-0.1v-0.1l0,0 M29.7,14.4l-0.1,0.1v0.1l0,0
			l-0.1-0.2l0,0l0.1,0.1l0.3-0.2v-0.1l0,0l0.1,0.1c0,0.1,0,0.1,0,0.1s0,0.1,0,0.1S29.8,14.5,29.7,14.4L29.7,14.4z"/>
		<path class="st14" d="M29.8,14.7l0.1,0.1l0-0.1l0.1-0.1 M29.8,14.7h-0.1v0.1l0,0l-0.1-0.1l0,0l0.1,0.1h0.5L29.8,15v0.1l0,0
			l-0.1-0.2l0,0l0,0.1l0.1-0.1L29.8,14.7z"/>
		<path class="st14" d="M30,15.3L30,15.3C29.9,15.3,29.9,15.3,30,15.3c-0.1-0.2-0.1-0.3,0-0.3c0,0,0,0,0,0h0.1c0.1,0,0.2,0,0.3,0.1
			c0,0,0,0.1,0,0.1v0.1h-0.1l0-0.1l0,0c0,0,0-0.1,0-0.1h-0.2C30,15.1,29.9,15.2,30,15.3L30,15.3"/>
		<path class="st14" d="M30.4,15.6L30,15.7v0.1l0,0v-0.2l0,0v0.1l0.3-0.1v-0.1h-0.1v-0.1h0.1l0.1,0.4h-0.1l0.1-0.1"/>
		<path class="st14" d="M25.6,17.7c0.2,0.1,0.4,0.1,0.6,0.2c-0.2-0.2-0.3-0.4-0.3-0.7c-0.1-0.1-0.1-0.3-0.2-0.4
			c0.1,0.2,0,0.5,0.2,0.7c0,0,0,0.1,0.1,0.2l0,0c-0.1-0.1-0.1-0.1-0.1-0.1c-0.2-0.2-0.6-0.2-0.7-0.6C25.3,17.3,25.4,17.5,25.6,17.7"
			/>
		<path class="st14" d="M27.1,18.1L27.1,18.1c-0.1,0-0.3,0-0.4-0.2c-0.2-0.2-0.4-0.3-0.6-0.5c0,0,0.2,0.3,0.2,0.4
			c0.1,0.1,0.2,0.2,0.3,0.2c0.1,0,0.1,0,0.1,0h-0.1c-0.1,0-0.3-0.1-0.5,0c-0.6,0-0.7-0.2-0.7-0.2c0.2,0.3,0.5,0.5,0.8,0.5
			C26.6,18.2,26.9,18.1,27.1,18.1"/>
		<path class="st14" d="M29.3,18.1c0.3,0,0.6-0.2,0.8-0.5c0,0-0.2,0.2-0.7,0.2c-0.1,0-0.3,0.1-0.5,0.1h0c0,0,0,0,0.1-0.1
			c0.1,0,0.2-0.1,0.3-0.2c0.1-0.1,0.2-0.3,0.2-0.4c-0.2,0.1-0.4,0.3-0.6,0.5c-0.1,0.1-0.3,0.2-0.5,0.2h0.1
			C28.7,18.1,29,18.1,29.3,18.1"/>
		<path class="st14" d="M25.5,17.2c0.1,0.1,0.1,0.1,0.2,0.2v-0.1c0-0.1,0-0.2-0.1-0.3c-0.1-0.2-0.2-0.4-0.3-0.6
			C25.3,16.4,25.2,17,25.5,17.2"/>
		<path class="st14" d="M29.3,17.9c0.2,0,0.4-0.1,0.6-0.2c0.2-0.1,0.3-0.4,0.4-0.6c-0.1,0.3-0.5,0.4-0.7,0.6l-0.1,0.1l0,0
			c0.1-0.1,0.1-0.1,0.1-0.2c0.1-0.2,0.1-0.5,0.2-0.7c-0.1,0.1-0.2,0.2-0.2,0.4C29.5,17.5,29.5,17.8,29.3,17.9"/>
		<path class="st14" d="M28.8,18.2c-0.3-0.2-0.7-0.2-1-0.2h-0.2c-0.3-0.1-0.7,0-1,0.2c-0.2,0.1-0.5,0.1-0.7,0
			c0.1,0.1,0.2,0.2,0.3,0.2c0.2,0.1,0.5,0.1,0.7-0.1c0.2-0.1,0.3-0.3,0.6-0.2c-0.2,0.1-0.5,0.3-0.6,0.5l0.1,0.1
			c0.2-0.2,0.4-0.4,0.6-0.5c0.2,0.1,0.5,0.3,0.6,0.5l0.1-0.1c-0.2-0.2-0.4-0.3-0.6-0.5c0.2,0,0.4,0.1,0.6,0.2
			c0.2,0.1,0.5,0.2,0.7,0.1c0.1,0,0.3-0.1,0.3-0.2C29.2,18.3,29,18.4,28.8,18.2"/>
		<path class="st14" d="M30,17.2c0.2-0.2,0.2-0.5,0.2-0.8c-0.1,0.2-0.2,0.4-0.3,0.6s-0.1,0.2-0.1,0.3v0.1L30,17.2"/>
		<path class="st14" d="M28.9,15.2L28.9,15.2c-0.1,0.1-0.2,0.2-0.3,0.2c0,0-0.1,0-0.1,0.1l0,0l0.2,0.7v0.1h0.1
			c0.1-0.1,0.2-0.2,0.3-0.2l0.1-0.1v-0.1C29.1,15.7,29,15.4,28.9,15.2L28.9,15.2"/>
		<path class="st14" d="M28.6,16.4c-0.2,0.1-0.5,0.1-0.7,0.1c0,0,0,0,0,0.1v0.7l0,0c0.2,0,0.5,0,0.7-0.1c0,0,0.1,0,0.1-0.1
			C28.6,16.9,28.6,16.7,28.6,16.4C28.6,16.5,28.6,16.5,28.6,16.4C28.6,16.5,28.6,16.5,28.6,16.4L28.6,16.4"/>
		<path class="st14" d="M28.1,14.7c0.2,0.2,0.3,0.4,0.4,0.6v0.1h0c0.1-0.1,0.2-0.1,0.3-0.2v-0.1c-0.1-0.2-0.3-0.4-0.5-0.5
			C28.2,14.6,28.2,14.7,28.1,14.7"/>
		<path class="st14" d="M27.8,14.7v0.8l0,0c0.2,0,0.3,0,0.5-0.1l0,0v-0.1c-0.1-0.2-0.2-0.5-0.3-0.6H27.8"/>
		<path class="st14" d="M28.5,17.3L28.5,17.3c-0.2,0.1-0.5,0.1-0.7,0.1v0.3c0.2,0,0.4,0,0.6-0.1C28.4,17.5,28.5,17.4,28.5,17.3
			L28.5,17.3"/>
		<path class="st14" d="M29.2,16.1c-0.1,0.1-0.3,0.2-0.4,0.3c-0.1,0-0.1,0.1-0.1,0.1c0,0.2,0,0.4-0.1,0.6l0,0
			c0.2-0.1,0.3-0.2,0.4-0.3c0.1-0.1,0.1-0.1,0.1-0.2L29.2,16.1L29.2,16.1"/>
		<path class="st14" d="M29,14.8c0,0.1,0,0.2,0,0.2v0.1c0.1,0.2,0.2,0.4,0.3,0.6c0.1-0.1,0.1-0.2,0.1-0.3l0,0
			C29.4,15.2,29.2,15,29,14.8L29,14.8"/>
		<path class="st14" d="M26.1,15.9c0,0.9,0.7,1.7,1.6,1.7v-0.2c0,0,0-0.1-0.1-0.1c-0.2,0-0.3-0.1-0.5-0.1l0,0c0.2,0,0.3,0.1,0.5,0.1
			v-0.1l0,0v-0.6c0-0.1,0-0.1,0-0.1c-0.3,0-0.5-0.1-0.8-0.2l0,0v0.6l0,0c0-0.2-0.1-0.3-0.1-0.5v-0.2c-0.1,0-0.2-0.1-0.3-0.2l0,0
			c0.1,0,0.2,0.1,0.3,0.2l0,0c0-0.3,0.1-0.5,0.2-0.8l0,0c-0.2-0.1-0.3-0.2-0.4-0.3l0,0c0.1,0.1,0.2,0.2,0.4,0.2l0,0
			c0.1-0.2,0.2-0.5,0.4-0.7c-0.1-0.1-0.3-0.1-0.3-0.2l0,0c0.2,0.1,0.4,0.2,0.6,0.2c0.2,0,0.6-0.1,0.6-0.2s-0.2-0.2-0.6-0.2
			C26.8,14.3,26.1,15,26.1,15.9C26.1,15.9,26.1,15.9,26.1,15.9"/>
		<path class="st14" d="M28.4,14.4c0,0.1,0,0.1-0.1,0.1c0.2,0.1,0.4,0.3,0.5,0.4c0,0,0,0.1,0.1,0.1l0,0c0.1-0.1,0.1-0.2,0-0.2
			c0-0.1-0.1-0.1-0.1-0.1C28.7,14.6,28.6,14.5,28.4,14.4L28.4,14.4"/>
		<path class="st14" d="M29.4,15.9c0,0.1,0,0.1,0,0.1v0.2c0,0.1,0,0.2-0.1,0.3C29.4,16.3,29.4,16.1,29.4,15.9l0.1-0.2
			C29.4,15.7,29.4,15.8,29.4,15.9"/>
		<path class="st14" d="M28.7,17.2L28.7,17.2c-0.1,0.1-0.1,0.2-0.2,0.2c0.2-0.1,0.4-0.3,0.6-0.5C28.9,17,28.8,17.1,28.7,17.2"/>
		<path class="st14" d="M27.1,15.5L27.1,15.5c-0.1,0.3-0.2,0.6-0.2,0.9l0,0c0.2,0.1,0.5,0.1,0.7,0.1h0v-0.8 M27.6,15.6L27.6,15.6
			c-0.2,0-0.4,0-0.6-0.1l0,0"/>
		<path class="st14" d="M27.1,15.4L27.1,15.4c0.2,0.1,0.4,0.1,0.6,0.1h0.1v-0.1l0,0v-0.7c-0.1,0-0.2,0-0.2-0.1
			C27.3,14.9,27.2,15.1,27.1,15.4"/>
		<path class="st14" d="M28.4,15.5L28.4,15.5c-0.2,0.1-0.4,0.1-0.6,0.1c0,0-0.1,0-0.1,0c0,0,0,0,0,0l0,0v0.8l0,0
			c0.3,0,0.5-0.1,0.7-0.2c0,0,0.1,0,0.1,0c0,0,0,0,0,0l0,0C28.6,16,28.5,15.7,28.4,15.5L28.4,15.5"/>
		<path class="st14" d="M20.8,17.2v1.1h0.7v0.2h-1v-1.4H20.8z"/>
		<path class="st14" d="M21.7,17.8c0-0.1,0-0.1,0.1-0.1c0,0,0.1-0.1,0.2-0.1h0.3c0.1,0,0.1,0,0.1,0.1c0,0.1,0,0,0.1,0.1
			c0,0,0,0.1,0.1,0.1v0.7h-0.3v-0.1c0,0-0.1,0-0.2,0.1S22,18.7,22,18.7h-0.1c0,0-0.1-0.1-0.1-0.1c0,0,0-0.1,0-0.1v-0.2
			c0-0.1,0-0.1,0-0.1c0,0,0.1-0.1,0.1-0.1s0.1,0,0.1-0.1h0.2c0,0,0.1,0,0.1,0v-0.1c0,0,0-0.1,0-0.1c0,0,0,0,0,0h-0.1
			c-0.1,0-0.1,0-0.1,0s0,0.1,0,0.1h-0.3C21.6,17.9,21.7,17.9,21.7,17.8z M22.2,18.2H22c0,0-0.1,0-0.1,0.1l-0.1,0v0.1
			c0,0,0,0.1,0,0.1c0,0,0,0,0,0h0.1c0,0,0,0,0.1,0l0.1-0.1L22.2,18.2L22.2,18.2z"/>
		<path class="st14" d="M23,17.2v0.5l0,0c0.1,0,0.1-0.1,0.1-0.1s0.1-0.1,0.2-0.1c0.1,0,0.2,0,0.3,0.1c0.1,0,0.1,0.1,0.1,0.2
			c0.1,0.1,0.1,0.3,0,0.5c0,0.1,0,0.1-0.1,0.2c-0.1,0.1-0.2,0.1-0.3,0.1c-0.1,0-0.1,0-0.2,0c-0.1,0-0.1-0.1-0.1-0.1l0,0v0.1h-0.3
			v-1.4C22.7,17.2,23,17.2,23,17.2z M23.4,18c0-0.1,0-0.1-0.1-0.1s-0.1,0-0.1,0s-0.1-0.1-0.2,0l-0.1,0C23,18,23,18,23,18v0.2
			c0,0.1,0,0.1,0.1,0.1s0.1,0,0.1,0s0.1,0.1,0.2,0l0.1,0c0-0.1,0.1-0.1,0.1-0.1V18z"/>
		<path class="st14" d="M21.5,13.9h0.6c0.2,0,0.3,0,0.5,0.1c0.1,0.1,0.2,0.2,0.2,0.4c0,0.2-0.1,0.3-0.3,0.4l0,0
			c0.2,0,0.4,0.2,0.3,0.4c0,0.3-0.2,0.5-0.5,0.5c0,0-0.1,0-0.1,0h-0.9L21.5,13.9L21.5,13.9z M21.7,14.7h0.5c0.3,0,0.4-0.1,0.4-0.3
			s-0.2-0.3-0.4-0.3h-0.5L21.7,14.7z M21.7,15.5h0.6c0.2,0,0.3-0.1,0.3-0.3c0,0,0-0.1,0-0.1c0-0.2-0.2-0.3-0.4-0.3h-0.6L21.7,15.5z"
			/>
		<path class="st14" d="M23.5,14.8c0,0.8-0.6,1.4-1.4,1.4c-0.8,0-1.4-0.6-1.4-1.4c0-0.8,0.6-1.4,1.4-1.4c0,0,0,0,0,0
			C22.9,13.5,23.5,14.1,23.5,14.8z M22.1,13.2c-0.9,0-1.6,0.7-1.6,1.6l0,0c0,0.9,0.7,1.6,1.6,1.6s1.6-0.7,1.6-1.6l0,0
			C23.7,13.9,23,13.2,22.1,13.2L22.1,13.2z"/>
		<rect x="20.6" y="16.8" class="st14" width="3.2" height="0.2"/>
		<path class="st14" d="M23.6,16.5L23.6,16.5l0.1,0.1l0,0L23.6,16.5L23.6,16.5l0.1,0.1l0,0L23.6,16.5z M23.5,16.5
			C23.5,16.6,23.6,16.6,23.5,16.5L23.5,16.5L23.5,16.5L23.5,16.5L23.5,16.5L23.5,16.5 M23.5,16.5L23.5,16.5 M23.5,16.5L23.5,16.5
			C23.6,16.5,23.6,16.4,23.5,16.5L23.5,16.5c0.1-0.1,0.1-0.1,0.1,0v0.1h-0.1L23.5,16.5L23.5,16.5"/>
		<path class="st32" d="M68.2,18.1c0,2-1.6,3.6-3.5,3.6c-2,0-3.6-1.6-3.6-3.5c0-2,1.6-3.6,3.5-3.6C66.5,14.6,68.1,16.2,68.2,18.1
			C68.2,18.1,68.2,18.1,68.2,18.1z M64.6,15.1c-1.7,0-3,1.4-3,3c0,1.7,1.4,3,3,3c1.7,0,3-1.4,3-3C67.7,16.5,66.3,15.1,64.6,15.1z"/>
		<path class="st32" d="M61,22.9v-0.4h7.1c0,0.1,0,0.2,0,0.4H61z"/>
		<path class="st32" d="M63.1,20.2v-4c0.8,0,1.5,0,2.3,0c0.5,0.2,0.8,0.7,0.7,1.2c0,0.1-0.1,0.2-0.2,0.3L65.6,18
			c0.6,0.4,0.8,0.8,0.6,1.3c-0.1,0.5-0.6,0.9-1.2,0.8L63.1,20.2z M63.7,18.4v1.4h1.4c0.4,0,0.6-0.3,0.6-0.7c0-0.3-0.2-0.6-0.5-0.7
			c0,0,0,0,0,0C64.7,18.3,64.2,18.4,63.7,18.4z M63.7,17.9h1.4c0.3,0,0.5-0.2,0.5-0.6c0-0.3-0.2-0.6-0.5-0.6c0,0,0,0-0.1,0
			c-0.5,0-0.9,0-1.4,0V17.9z"/>
		<g>
			<path class="st32" d="M38.5,14.7v0.6h-1.8v0.8h1.6v0.5h-1.6v0.8h1.8v0.6H36v-3.4H38.5z"/>
			<path class="st32" d="M39.6,18.1l-0.8-2.5h0.7l0.5,1.7l0,0l0.5-1.7h0.6l-0.7,2.5L39.6,18.1z"/>
			<path class="st32" d="M41.4,16.4c0-0.1,0-0.3,0.1-0.4c0-0.1,0.1-0.2,0.2-0.2l0.3-0.1c0.1,0,0.2,0,0.4,0h0.4c0.1,0,0.2,0,0.3,0.1
				c0.1,0,0.2,0.1,0.2,0.2c0.1,0.1,0.1,0.2,0.1,0.3v1.6c0,0.1,0,0.2,0,0.2h-0.7c0,0,0,0,0-0.1v-0.1c-0.1,0.1-0.2,0.2-0.4,0.2
				c-0.1,0-0.3,0-0.4,0c-0.1,0-0.2,0-0.3,0c-0.1,0-0.2,0-0.2-0.1c-0.1-0.1-0.2-0.1-0.2-0.2c0-0.1,0-0.2,0-0.3c0-0.1,0-0.2,0.1-0.3
				c0-0.1,0.1-0.2,0.2-0.2c0.1,0,0.1-0.1,0.2-0.1s0.2,0,0.3,0s0.2,0,0.3,0c0.1,0,0.2,0,0.2-0.1c0.1,0,0.1,0,0.2-0.1c0,0,0-0.1,0-0.2
				c0,0,0-0.1,0-0.2l-0.1-0.1c0,0-0.1-0.1-0.1-0.1h-0.2c-0.1,0-0.2,0-0.3,0.1c-0.1,0-0.1,0.1-0.2,0.3L41.4,16.4L41.4,16.4z M43,16.9
				C43,16.9,43,17,43,16.9c-0.1,0-0.2,0-0.2,0c0,0-0.1,0-0.1,0h-0.2c-0.1,0-0.1,0-0.2,0c0,0-0.1,0.1-0.2,0.1s0,0.1-0.1,0.1
				c0,0,0,0.1,0,0.1c0,0,0,0.1,0,0.1l0.1,0.1c0,0,0.1,0,0.2,0h0.2c0.2,0,0.2,0,0.3,0l0.2-0.2c0,0,0-0.1,0-0.2v-0.1
				C43,17.1,43,16.9,43,16.9z"/>
			<path class="st32" d="M44.8,14.7v3.3h-0.7v-3.3H44.8z"/>
			<path class="st32" d="M47,18.1v-0.3l0,0c-0.1,0.1-0.2,0.2-0.3,0.3c-0.1,0.1-0.3,0.1-0.4,0.1c-0.1,0-0.3,0-0.4,0
				c-0.1,0-0.2-0.1-0.3-0.2l-0.1-0.3c0-0.1-0.1-0.3,0-0.4v-1.5H46v1.4c0,0.2,0,0.3,0.1,0.4c0,0.1,0.2,0.1,0.3,0.1
				c0.1,0,0.3,0,0.4-0.1c0.1-0.1,0.1-0.3,0.1-0.5v-1.4h0.7v2.5L47,18.1z"/>
			<path class="st32" d="M48.1,16.4c0-0.1,0-0.3,0.1-0.4c0.1-0.1,0.1-0.2,0.2-0.2l0.3-0.1c0.2,0,0.2,0,0.4,0h0.4
				c0.1,0,0.2,0,0.3,0.1c0.1,0,0.2,0.1,0.2,0.2c0.1,0.1,0.1,0.2,0.1,0.3v1.6c0,0.1,0,0.2,0,0.2h-0.7c0,0,0,0,0-0.1v-0.1
				c-0.1,0.1-0.2,0.2-0.4,0.2c-0.1,0-0.3,0-0.5,0c-0.1,0-0.2,0-0.3,0c-0.1,0-0.2,0-0.2-0.1c0-0.1-0.1-0.1-0.2-0.2c0-0.1,0-0.2,0-0.3
				c0-0.1,0-0.2,0.1-0.3c0-0.1,0.1-0.2,0.2-0.2c0.1,0,0.2-0.1,0.2-0.1s0.2,0,0.3,0s0.2,0,0.3,0s0.2,0,0.2-0.1c0.1,0,0.2,0,0.2-0.1
				c0,0,0-0.1,0-0.2c0,0,0-0.1,0-0.2l-0.1-0.1c0,0-0.1-0.1-0.1-0.1h-0.2c-0.1,0-0.2,0-0.3,0.1c-0.1,0-0.1,0.1-0.1,0.3
				S48.1,16.4,48.1,16.4z M49.6,16.9C49.6,16.9,49.6,17,49.6,16.9c-0.1,0-0.2,0-0.2,0c0,0-0.1,0-0.1,0h-0.2c-0.1,0-0.1,0-0.2,0
				c0,0-0.1,0.1-0.2,0.1s0,0.1-0.1,0.1c0,0,0,0.1,0,0.1c0,0,0,0.1,0,0.1l0.1,0.1c0,0,0.1,0,0.2,0h0.2c0.2,0,0.2,0,0.3,0l0.2-0.2
				c0,0,0-0.1,0-0.2v-0.1C49.6,17.1,49.6,16.9,49.6,16.9z"/>
			<path class="st32" d="M52,16.1c-0.1,0-0.2,0-0.2,0.1c-0.1,0-0.1,0.1-0.2,0.2c-0.1,0.1-0.1,0.2-0.1,0.2c0,0.1,0,0.2,0,0.3
				c0,0.1,0,0.2,0,0.3c0,0,0,0.2,0.1,0.2s0.1,0.1,0.2,0.2c0.1,0,0.2,0.1,0.2,0c0.1,0,0.3-0.1,0.4-0.2c0.1-0.1,0.1-0.2,0.1-0.3h0.6
				c0,0.3-0.1,0.6-0.4,0.7c-0.2,0.2-0.5,0.2-0.8,0.2c-0.2,0-0.3,0-0.5-0.1c-0.1-0.1-0.3-0.1-0.4-0.2c-0.1-0.1-0.2-0.3-0.2-0.4
				c-0.1-0.2-0.1-0.3-0.1-0.5c0-0.2,0-0.4,0.1-0.5c0.1-0.2,0.1-0.3,0.2-0.4c0.1-0.1,0.3-0.2,0.4-0.3c0.2-0.1,0.4-0.1,0.5-0.1
				c0.1,0,0.3,0,0.4,0.1c0.1,0,0.2,0.1,0.3,0.2c0.1,0.1,0.2,0.2,0.2,0.3c0.1,0.1,0.1,0.3,0.1,0.4h-0.6C52.5,16.2,52.2,16.1,52,16.1z
				"/>
			<path class="st32" d="M53.5,15.3v-0.5h0.7v0.5H53.5z M54.2,15.6v2.5h-0.7v-2.5L54.2,15.6z"/>
			<path class="st32" d="M54.8,16.3c0-0.1,0.1-0.3,0.2-0.4c0.1-0.1,0.2-0.2,0.4-0.2c0.2-0.1,0.4-0.1,0.5-0.1c0.2,0,0.4,0,0.5,0.1
				c0.1,0.1,0.3,0.1,0.4,0.2c0.1,0.1,0.2,0.2,0.2,0.4c0.1,0.2,0.1,0.4,0.1,0.5c0,0.2,0,0.4-0.1,0.5c0,0.1-0.1,0.3-0.2,0.4
				c-0.1,0.1-0.3,0.2-0.4,0.2c-0.2,0.1-0.4,0.1-0.5,0.1c-0.2,0-0.4,0-0.5-0.1c-0.1,0-0.3-0.1-0.4-0.2c-0.1-0.1-0.2-0.2-0.2-0.4
				c-0.1-0.2-0.1-0.4-0.1-0.5C54.7,16.7,54.7,16.5,54.8,16.3z M55.3,17.2c0,0.1,0,0.2,0.1,0.2c0,0,0.1,0.2,0.2,0.2
				c0.1,0,0.2,0.1,0.3,0c0.1,0,0.2,0,0.3,0c0.1,0,0.2-0.1,0.2-0.2c0.1-0.1,0.1-0.2,0.1-0.2c0-0.1,0-0.2,0-0.3c0-0.1,0-0.2,0-0.3
				c0-0.1,0-0.2-0.1-0.2c0,0-0.1-0.1-0.2-0.2c-0.1,0-0.2-0.1-0.3,0c-0.1,0-0.2,0-0.3,0c-0.1,0-0.2,0.1-0.2,0.2
				c0,0.1-0.1,0.2-0.1,0.2c0,0.1,0,0.2,0,0.3S55.3,17,55.3,17.2L55.3,17.2z M56,14.4l-0.5,0.8H56l0.8-0.8H56z"/>
			<path class="st32" d="M58.2,15.6V16l0,0c0.1-0.1,0.2-0.2,0.3-0.3c0.1,0,0.3-0.1,0.4-0.1c0.1,0,0.3,0,0.4,0c0.1,0,0.2,0.1,0.3,0.2
				c0.1,0.1,0.1,0.2,0.1,0.3c0,0.1,0,0.3,0,0.4v1.5h-0.7v-1.3c0-0.2,0-0.3-0.1-0.5c0-0.1-0.2-0.1-0.3-0.1c-0.1,0-0.3,0-0.4,0.1
				c-0.1,0.1-0.1,0.3-0.1,0.5v1.4h-0.6v-2.5H58.2z"/>
		</g>
		<g>
			<path class="st32" d="M43.5,18.9v3.2h-0.7v-3.2L43.5,18.9z"/>
			<path class="st32" d="M44.7,19.8v0.3l0,0l0.3-0.3c0.1-0.1,0.3-0.1,0.4-0.1c0.1,0,0.3,0,0.4,0.1c0.1,0.1,0.2,0.2,0.3,0.3
				c0.1-0.1,0.2-0.2,0.3-0.2c0.1-0.1,0.3-0.1,0.4-0.1c0.1,0,0.2,0,0.3,0l0.3,0.2c0.1,0,0.2,0.1,0.2,0.2c0,0.1,0.1,0.3,0,0.4v1.5
				h-0.6v-1.6c0-0.1,0-0.2,0-0.2c0-0.1,0-0.1-0.1-0.1s-0.1,0-0.2,0s-0.1,0-0.2,0l-0.2,0.2c0,0,0,0.1,0,0.2v1.5h-0.8v-1.5
				c0-0.1,0-0.1,0-0.2c0,0,0-0.1-0.1-0.1c-0.1,0-0.2-0.1-0.2,0H45c0,0-0.1,0-0.2,0.1c-0.1,0.1-0.1,0.1-0.1,0.2s0,0.1,0,0.3v1.3h-0.7
				v-2.3L44.7,19.8z"/>
			<path class="st32" d="M48.7,19.8v0.3l0,0c0.1-0.1,0.2-0.2,0.3-0.2c0.1-0.1,0.3-0.1,0.4-0.1c0.2,0,0.3,0,0.5,0.1
				c0.3,0.1,0.5,0.3,0.5,0.6c0,0.2,0,0.3,0,0.5c0,0.1,0,0.3,0,0.4c0,0.1-0.1,0.3-0.2,0.4c-0.1,0.1-0.2,0.2-0.3,0.2
				c-0.1,0-0.3,0-0.4,0c-0.1,0-0.3,0-0.4-0.1c-0.1-0.1-0.2-0.2-0.3-0.2l0,0v1.1h-0.6v-3.1L48.7,19.8L48.7,19.8z M49.5,21.6
				c0,0,0.2-0.1,0.2-0.1c0.1-0.1,0.1-0.2,0.1-0.2c0-0.1,0-0.2,0-0.3c0-0.1,0-0.2,0-0.2c0,0,0-0.1-0.1-0.2c-0.1-0.1-0.1-0.1-0.2-0.2
				c-0.1,0-0.2-0.1-0.2,0c-0.1,0-0.2,0-0.2,0c0,0-0.2,0.1-0.2,0.2s-0.1,0.1-0.1,0.2s0,0.2,0,0.3c0,0.1,0,0.2,0,0.3
				c0,0.1,0,0.2,0.1,0.2l0.2,0.2c0.1,0,0.2,0.1,0.2,0C49.4,21.7,49.5,21.7,49.5,21.6z"/>
			<path class="st32" d="M50.8,20.5c0-0.1,0-0.3,0.1-0.4c0.1-0.1,0.1-0.2,0.2-0.2c0.1-0.1,0.2-0.1,0.3-0.2c0.1,0,0.3,0,0.4,0h0.3
				c0.1,0,0.2,0,0.3,0.1c0.1,0,0.2,0.1,0.2,0.2c0.1,0.1,0.1,0.2,0.1,0.3v1.5c0,0.1,0,0.1,0,0.2h-0.6c0,0,0-0.1,0-0.1v-0.1
				c-0.1,0.1-0.2,0.2-0.3,0.2c-0.2,0-0.3,0-0.5,0c-0.1,0-0.2,0-0.3,0c-0.1,0-0.2,0-0.2-0.1c-0.1,0-0.1-0.1-0.1-0.2c0,0,0-0.2,0-0.3
				c0-0.1,0-0.2,0-0.4c0-0.1,0.1-0.1,0.2-0.2c0.1-0.1,0.2-0.1,0.2-0.1s0.2,0,0.3,0c0.1,0,0.2,0,0.3,0c0.1,0,0.2,0,0.2,0
				c0.1,0,0.2,0,0.2-0.1c0,0,0-0.1,0-0.1c0,0,0-0.1,0-0.2l-0.1-0.1c0,0-0.1,0-0.1,0h-0.2c-0.1,0-0.2,0-0.3,0.1
				c0,0.1-0.1,0.2-0.1,0.2L50.8,20.5z M52.3,21C52.3,21,52.3,21,52.3,21c-0.2,0-0.2,0.1-0.2,0.1h-0.3c0,0-0.1,0-0.2,0
				c0,0-0.1,0-0.1,0.1l-0.1,0.1c0,0,0,0.1,0,0.1c0,0.1,0,0.1,0,0.2l0.1,0.1c0,0,0.1,0,0.1,0h0.2c0.1,0,0.2,0,0.3,0l0.2-0.1
				c0,0,0-0.1,0-0.2v-0.2V21L52.3,21z"/>
			<path class="st32" d="M54.5,20.2c-0.1,0-0.2,0-0.2,0c-0.1,0.1-0.1,0.1-0.1,0.2C54,20.5,54,20.6,54,20.7c0,0.1,0,0.2,0,0.2
				c0,0.1,0,0.2,0,0.2c0,0.1,0,0.2,0.1,0.2c0.1,0.1,0.1,0.2,0.1,0.2c0.1,0,0.2,0,0.2,0c0.1,0,0.3,0,0.3-0.2c0.1-0.1,0.2-0.2,0.2-0.3
				h0.6c0,0.3-0.1,0.5-0.3,0.7c-0.2,0.2-0.5,0.3-0.7,0.2c-0.2,0-0.3,0-0.5-0.1c-0.1-0.1-0.3-0.1-0.4-0.2c-0.1-0.1-0.2-0.2-0.2-0.4
				c-0.1-0.3-0.1-0.7,0-1c0.1-0.3,0.3-0.5,0.6-0.6c0.2-0.1,0.3-0.1,0.5-0.1c0.1,0,0.3,0,0.4,0c0.1,0,0.2,0.1,0.3,0.1
				c0.1,0.1,0.2,0.1,0.2,0.2c0.1,0.1,0.1,0.3,0.1,0.4h-0.6C54.9,20.3,54.8,20.2,54.5,20.2z"/>
			<path class="st32" d="M57.3,19.8v0.4h-0.4v1.1c0,0.1,0,0.2,0,0.2s0.1,0,0.2,0h0.2v0.5h-0.7c-0.1,0-0.1,0-0.2-0.1l-0.2-0.2
				c0,0,0-0.1,0-0.3v-1.4h-0.4v-0.4h0.4v-0.7h0.6v0.7C56.8,19.8,57.3,19.8,57.3,19.8z"/>
			<path class="st32" d="M57.5,20.4c0.1-0.1,0.1-0.3,0.2-0.4c0.1-0.1,0.2-0.2,0.4-0.2c0.3-0.1,0.7-0.1,1,0c0.1,0.1,0.3,0.1,0.4,0.2
				c0.1,0.1,0.2,0.3,0.2,0.4c0.1,0.2,0.1,0.3,0.1,0.5c0,0.2,0,0.3-0.1,0.5c0,0.1-0.1,0.3-0.2,0.4c-0.1,0.1-0.2,0.2-0.4,0.2
				c-0.3,0.1-0.7,0.1-1,0c-0.1-0.1-0.3-0.1-0.4-0.2c-0.1-0.1-0.2-0.2-0.2-0.4c-0.1-0.2-0.1-0.3-0.1-0.5
				C57.5,20.8,57.5,20.6,57.5,20.4z M58.1,21.2c0,0.1,0,0.1,0.1,0.2c0.1,0.1,0.1,0.1,0.2,0.1c0.1,0,0.2,0,0.3,0c0.1,0,0.2,0,0.3,0
				c0.1,0,0.2-0.1,0.2-0.1c0-0.1,0.1-0.2,0.1-0.2c0-0.1,0-0.2,0-0.2c0-0.1,0-0.2,0-0.2c0-0.1,0-0.2-0.1-0.2c0-0.1-0.1-0.1-0.2-0.2
				c-0.1,0-0.2-0.1-0.3,0c-0.1,0-0.2,0-0.3,0c-0.1,0-0.1,0.1-0.2,0.2c0,0.1-0.1,0.1-0.1,0.2c0,0.1,0,0.2,0,0.2
				C58.1,21.1,58.1,21.1,58.1,21.2z"/>
		</g>
		<g>
			<path class="st32" d="M37.8,21.8c-0.1,0.1-0.1,0.2-0.3,0.2c-0.3,0.1-0.6,0.1-0.8,0c-0.1-0.1-0.2-0.2-0.3-0.2
				c-0.1-0.1-0.2-0.2-0.2-0.4c0-0.1-0.1-0.3,0-0.4c0-0.1,0-0.3,0-0.4c0-0.1,0.1-0.3,0.2-0.4c0.1-0.1,0.2-0.2,0.3-0.2
				c0.1-0.1,0.3-0.1,0.5-0.1c0.1,0,0.3,0,0.4,0.1c0.1,0.1,0.2,0.1,0.3,0.2l0,0V19h0.6v3.2h-0.6V21.8L37.8,21.8z M37.8,20.6
				c0-0.1,0-0.1-0.1-0.2l-0.2-0.2c-0.1,0-0.2-0.1-0.2,0c-0.1,0-0.2,0-0.2,0c0,0-0.2,0.1-0.2,0.1c-0.1,0.1-0.1,0.2-0.1,0.2
				c0,0.1,0,0.2,0,0.2c0,0.1,0,0.2,0,0.2c0,0,0,0.2,0.1,0.2c0.1,0.1,0.1,0.1,0.2,0.2c0.1,0,0.2,0.1,0.2,0c0.1,0,0.2,0,0.2,0
				c0,0,0.1,0,0.1-0.1c0-0.1,0-0.1,0.1-0.2c0-0.1,0.1-0.2,0-0.3C37.8,20.8,37.8,20.7,37.8,20.6z"/>
			<path class="st32" d="M39.5,21.5c0.1,0.1,0.2,0.2,0.4,0.1c0.1,0,0.2,0,0.3-0.1c0.1,0,0.1-0.1,0.2-0.2h0.5
				c-0.1,0.2-0.2,0.4-0.4,0.6c-0.2,0.1-0.4,0.2-0.6,0.2c-0.2,0-0.3,0-0.5-0.1c-0.1-0.1-0.2-0.1-0.3-0.2c-0.1-0.1-0.2-0.2-0.2-0.4
				c-0.1-0.2-0.1-0.3-0.1-0.5c0-0.2,0-0.3,0.1-0.5c0.1-0.1,0.1-0.3,0.2-0.4c0.1-0.1,0.2-0.2,0.4-0.2c0.2-0.1,0.3-0.1,0.5-0.1
				c0.2,0,0.3,0,0.5,0.1c0.2,0,0.2,0.2,0.3,0.3c0.1,0.1,0.2,0.3,0.2,0.5c0,0.2,0,0.3,0,0.5h-1.5C39.4,21.2,39.4,21.4,39.5,21.5z
				 M40.2,20.3c-0.1-0.1-0.2-0.1-0.3-0.1c-0.1,0-0.2,0-0.2,0c0,0-0.1,0-0.2,0.1c-0.1,0,0,0.1-0.1,0.1c0,0,0,0.1,0,0.1h1
				C40.4,20.5,40.3,20.4,40.2,20.3L40.2,20.3z"/>
		</g>
		<text transform="matrix(1 0 0 1 207.74 5.19)" class="st0 st1 st2">Apoyan:</text>
		<path class="st33" d="M267.9,18.3c0.2-0.2,0.5-0.1,0.6,0.1c0,0,0,0,0,0c0.2,0.2,0.1,0.5-0.1,0.7c-0.2,0.2-0.5,0.1-0.7-0.1
			C267.6,18.7,267.6,18.4,267.9,18.3C267.9,18.3,267.9,18.3,267.9,18.3"/>
		
			<rect x="263.6" y="20.2" transform="matrix(0.805 -0.5933 0.5933 0.805 39.6012 161.5241)" class="st33" width="3.8" height="0.7"/>
		<path class="st34" d="M267.8,19.4h0.7v0.3c0.2-0.2,0.4-0.4,0.7-0.4c0.3,0,0.6,0.2,0.7,0.4c0.2-0.3,0.6-0.5,0.9-0.4
			c0.5,0,0.9,0.4,0.9,0.9c0,0,0,0.1,0,0.1v1.6h-0.7v-1.5c0-0.3-0.1-0.5-0.4-0.5s-0.5,0.2-0.5,0.6v1.4h-0.7v-1.5
			c0-0.3-0.1-0.5-0.4-0.5s-0.5,0.2-0.5,0.6v1.4h-0.7L267.8,19.4z"/>
		<path class="st34" d="M272.4,19.4h0.7v0.3c0.2-0.2,0.5-0.4,0.8-0.4c0.7,0.1,1.3,0.7,1.2,1.5c-0.1,0.6-0.6,1.2-1.2,1.2
			c-0.3,0-0.6-0.1-0.8-0.4v1.9h-0.7V19.4z M274.4,20.7c0-0.3-0.2-0.6-0.6-0.7c0,0,0,0-0.1,0c-0.4,0-0.6,0.4-0.6,0.8
			c0,0.3,0.3,0.6,0.6,0.6C274.1,21.3,274.4,21,274.4,20.7C274.4,20.7,274.4,20.7,274.4,20.7L274.4,20.7z"/>
		<path class="st34" d="M276.7,19.9c-0.2,0-0.5,0.1-0.6,0.3l-0.5-0.4c0.3-0.3,0.7-0.5,1.1-0.5c0.5-0.1,1.1,0.3,1.2,0.8
			c0,0.1,0,0.2,0,0.3v1.5h-0.7v-0.2c-0.2,0.2-0.4,0.3-0.7,0.3c-0.5,0-1-0.2-1-0.8s0.4-0.8,1-0.8h0.7C277.2,20.2,277,20,276.7,19.9
			C276.7,19.9,276.7,19.9,276.7,19.9z M276.5,20.9c-0.2,0-0.3,0.1-0.3,0.2c0,0.1,0.1,0.2,0.3,0.2s0.6-0.2,0.6-0.4v-0.1H276.5z"/>
		<path class="st34" d="M278.4,20.7c0-0.7,0.6-1.3,1.3-1.3c0,0,0,0,0.1,0c0.4,0,0.8,0.1,1.1,0.4l-0.5,0.5c-0.1-0.2-0.3-0.3-0.5-0.3
			c-0.3,0-0.6,0.3-0.6,0.6c0,0,0,0,0,0c0,0.3,0.2,0.7,0.6,0.7c0,0,0,0,0.1,0c0.2,0,0.4-0.1,0.6-0.3l0.5,0.4c-0.5,0.6-1.4,0.6-2,0.1
			C278.5,21.4,278.4,21,278.4,20.7L278.4,20.7z"/>
		<path class="st34" d="M281.1,20v-0.6h0.3v-1.7h0.7v1.7h0.6V20h-0.6v1c0,0.3,0.1,0.3,0.2,0.3c0.1,0,0.2,0,0.2-0.1l0.3,0.5
			c-0.2,0.1-0.4,0.2-0.6,0.2c-0.5,0-0.8-0.2-0.8-0.9v-1H281.1z"/>
		<path class="st34" d="M284.3,19.9c-0.2,0-0.5,0.1-0.6,0.3l-0.5-0.4c0.3-0.3,0.7-0.5,1.1-0.5c0.5-0.1,1.1,0.3,1.1,0.8
			c0,0.1,0,0.2,0,0.3v1.5h-0.7v-0.2c-0.2,0.2-0.4,0.3-0.7,0.3c-0.5,0.1-0.9-0.3-0.9-0.7c0,0,0-0.1,0-0.1c0-0.5,0.4-0.8,1-0.8h0.7
			C284.8,20.2,284.6,20,284.3,19.9C284.3,19.9,284.3,19.9,284.3,19.9z M284.1,20.9c-0.2,0-0.3,0.1-0.3,0.2c0,0.1,0.1,0.2,0.3,0.2
			s0.6-0.2,0.6-0.4v-0.1H284.1z"/>
		<path class="st34" d="M255.8,19.4h0.7v0.4c0.1-0.3,0.4-0.5,0.7-0.5c0.1,0,0.3,0,0.4,0.1l-0.2,0.6c-0.1-0.1-0.2-0.1-0.3-0.1
			c-0.4,0-0.6,0.2-0.6,0.7v1.2h-0.7L255.8,19.4z"/>
		<path class="st34" d="M259.2,21.4c0.2,0,0.5-0.1,0.7-0.2l0.4,0.5c-0.3,0.3-0.7,0.4-1.1,0.4c-0.7,0.1-1.4-0.5-1.5-1.2
			c-0.1-0.7,0.5-1.4,1.2-1.5c0.1,0,0.1,0,0.2,0c0.7,0,1.4,0.6,1.4,1.3c0,0.1,0,0.2,0,0.2h-1.9C258.6,21.2,258.9,21.4,259.2,21.4z
			 M259.7,20.4c0-0.3-0.3-0.5-0.6-0.5c-0.3,0-0.5,0.2-0.6,0.5H259.7z"/>
		<path class="st34" d="M260.9,20.7c0-0.7,0.5-1.3,1.2-1.3c0,0,0,0,0,0c0.3,0,0.6,0.1,0.8,0.4v-3h0.7V22h-0.7v-0.3
			c-0.2,0.2-0.5,0.4-0.8,0.4C261.4,22,260.8,21.4,260.9,20.7C260.9,20.7,260.9,20.7,260.9,20.7z M262.9,20.7c0-0.3-0.2-0.6-0.5-0.7
			c0,0-0.1,0-0.1,0c-0.4,0-0.7,0.2-0.8,0.6c0,0.4,0.2,0.7,0.6,0.8C262.5,21.4,262.8,21.1,262.9,20.7
			C262.9,20.7,262.9,20.7,262.9,20.7z"/>
		<rect x="225.5" y="14.8" class="st35" width="27.9" height="10.1"/>
		<path class="st8" d="M249.7,17.6h0.7v0.7h-0.7V17.6z M233.6,17.6v2.2h4.9v-2.2h6.2v2.2h4.9v-1.2h0.7v1.9h-6.3v-0.6h-4.9v0.6h-6.3
			v-2.9L233.6,17.6z M244.1,19.1v-0.9h-4.9v0.9H244.1z"/>
		<path class="st8" d="M233.6,21.1h-0.1v0.5c0,0.1,0,0.1,0,0.1c0,0-0.1,0.1-0.1,0c0,0-0.1,0-0.1,0c0,0,0,0,0-0.1v-0.5H233v0.5
			c0,0.1,0,0.2,0.1,0.2c0.1,0.1,0.2,0.1,0.3,0.1c0.1,0,0.2,0,0.3-0.1c0.1,0,0.1-0.1,0.1-0.2L233.6,21.1z"/>
		<path class="st8" d="M234.4,21.1h-0.1v0.5l-0.3-0.5h-0.2V22h0.2v-0.6l0.3,0.6h0.2L234.4,21.1z"/>
		<rect x="234.6" y="21.1" class="st8" width="0.2" height="0.9"/>
		<polygon class="st8" points="235.6,21.1 235.5,21.1 235.3,21.7 235.1,21.1 234.9,21.1 235.1,22 235.4,22 		"/>
		<polygon class="st8" points="236.3,21.3 236.3,21.1 235.7,21.1 235.7,22 236.3,22 236.3,21.8 235.9,21.8 235.9,21.6 236.2,21.6 
			236.2,21.4 235.9,21.4 235.9,21.3 		"/>
		<path class="st8" d="M236.6,21.3h0.1c0.1,0,0.1,0,0.1,0c0,0,0.1,0.1,0,0.2c0,0,0,0,0,0c0,0-0.1,0-0.1,0h-0.1L236.6,21.3z
			 M236.6,21.6h0.1l0.1,0.3h0.2l-0.2-0.4l0.1,0c0,0,0.1-0.1,0.1-0.2c0-0.1,0-0.1-0.1-0.2c-0.1,0-0.1-0.1-0.2,0h-0.4V22h0.2V21.6z"/>
		<path class="st8" d="M237.9,21.3c0-0.1-0.1-0.1-0.1-0.1c-0.1,0-0.1-0.1-0.2-0.1c-0.1,0-0.2,0-0.2,0.1c-0.1,0-0.1,0.1-0.1,0.2
			c0,0.1,0,0.2,0.1,0.2c0.1,0,0.1,0.1,0.2,0.1c0.1,0,0.1,0,0.1,0.1s0,0.1-0.1,0.1s-0.2,0-0.2-0.1h-0.2c0,0.1,0,0.1,0.1,0.2
			c0.1,0.1,0.2,0.1,0.2,0.1c0.1,0,0.2,0,0.2-0.1c0.1,0,0.1-0.1,0.1-0.2c0-0.1,0-0.2-0.1-0.2c-0.1,0-0.1-0.1-0.2-0.1
			c-0.1,0-0.1,0-0.1-0.1c0-0.1,0-0.1,0.1-0.1s0.1,0,0.1,0.1L237.9,21.3z"/>
		<rect x="238" y="21.1" class="st8" width="0.2" height="0.9"/>
		<path class="st8" d="M238.6,21.3L238.6,21.3c0.1,0,0.2,0,0.2,0.1c0,0.1,0.1,0.1,0.1,0.2c0,0.1,0,0.1-0.1,0.2c0,0-0.1,0.1-0.2,0.1
			h-0.1L238.6,21.3z M238.4,21.1V22h0.3c0.1,0,0.2,0,0.3-0.1c0.1-0.1,0.1-0.2,0.1-0.3c0-0.1,0-0.2-0.1-0.3c-0.1-0.1-0.2-0.1-0.3-0.1
			L238.4,21.1z"/>
		<path class="st8" d="M239.4,21.6l0.1-0.3l0.1,0.3H239.4z M239.7,21.1h-0.2l-0.3,0.8h0.2l0.1-0.2h0.3l0.1,0.2h0.2L239.7,21.1z"/>
		<path class="st8" d="M240.2,21.3L240.2,21.3c0.1,0,0.2,0,0.2,0.1c0,0.1,0.1,0.1,0.1,0.2c0,0.1,0,0.1-0.1,0.2c0,0-0.1,0.1-0.1,0.1
			h-0.1V21.3z M240,21.1V22h0.3c0.1,0,0.2,0,0.3-0.1c0.1-0.1,0.1-0.2,0.1-0.3c0-0.1,0-0.2-0.1-0.3c-0.1-0.1-0.2-0.1-0.3-0.1
			L240,21.1z"/>
		<path class="st8" d="M241.4,21.6l0.1-0.3l0.1,0.3H241.4z M241.6,21.1h-0.2l-0.3,0.8h0.2l0.1-0.2h0.3V22h0.2L241.6,21.1z"/>
		<path class="st8" d="M242.2,21.3L242.2,21.3c0.1,0,0.2,0,0.2,0.1c0,0.1,0.1,0.1,0.1,0.2c0,0.1,0,0.1-0.1,0.2c0,0-0.1,0.1-0.2,0.1
			h-0.1L242.2,21.3z M242,21.1V22h0.3c0.1,0,0.2,0,0.3-0.1c0.1-0.1,0.1-0.2,0.1-0.3c0-0.1,0-0.2-0.1-0.3c-0.1-0.1-0.2-0.1-0.3-0.1
			L242,21.1z"/>
		<path class="st8" d="M243.1,21.3c0.1,0,0.1,0,0.1,0.1c0,0.1,0,0.1,0,0.2c0,0.2,0,0.3-0.1,0.3c-0.1,0-0.2-0.1-0.2-0.3
			S243,21.3,243.1,21.3 M243.1,21.1c-0.1,0-0.2,0-0.3,0.1c-0.1,0.1-0.1,0.2-0.1,0.3c0,0.1,0,0.2,0.1,0.3c0.1,0.1,0.2,0.1,0.3,0.1
			c0.1,0,0.2,0,0.3-0.1c0.1-0.1,0.1-0.2,0.1-0.3c0-0.1,0-0.2-0.1-0.3C243.3,21.1,243.2,21.1,243.1,21.1"/>
		<polygon class="st8" points="243.8,21.8 243.8,21.1 243.6,21.1 243.6,22 244.2,22 244.2,21.8 		"/>
		<polygon class="st8" points="244.9,21.3 244.9,21.1 244.3,21.1 244.3,22 244.5,22 244.5,21.6 244.8,21.6 244.8,21.5 244.5,21.5 
			244.5,21.3 		"/>
		<path class="st8" d="M245.3,21.3c0.1,0,0.1,0,0.1,0.1c0,0.1,0,0.1,0,0.2c0,0.2-0.1,0.3-0.1,0.3c-0.1,0-0.2-0.1-0.2-0.3
			S245.1,21.3,245.3,21.3 M245.3,21.1c-0.1,0-0.2,0-0.3,0.1c-0.1,0.1-0.1,0.2-0.1,0.3c0,0.1,0,0.2,0.1,0.3c0.1,0.1,0.2,0.1,0.3,0.1
			c0.1,0,0.2,0,0.3-0.1c0.1-0.1,0.1-0.2,0.1-0.3c0-0.1,0-0.2-0.1-0.3C245.5,21.1,245.4,21.1,245.3,21.1"/>
		<rect x="246.2" y="21.1" class="st8" width="0.2" height="0.9"/>
		<path class="st8" d="M246.7,21.6h0.2c0.1,0,0.1,0,0.1,0.1c0,0,0,0.1,0,0.1c0,0-0.1,0-0.1,0h-0.2L246.7,21.6z M246.7,21.3h0.1
			c0.1,0,0.1,0,0.1,0c0,0,0,0,0,0.1c0,0,0,0,0,0.1c0,0,0,0-0.1,0h-0.1L246.7,21.3z M246.5,21.1V22h0.4c0.1,0,0.2,0,0.2-0.1
			c0.1,0,0.1-0.1,0.1-0.2c0-0.1,0-0.1-0.1-0.1c0,0-0.1,0-0.1,0c0.1,0,0.2-0.1,0.2-0.2c0-0.1,0-0.1-0.1-0.2c-0.1,0-0.1-0.1-0.2,0
			L246.5,21.1z"/>
		<path class="st8" d="M247.8,20.8l-0.3,0.1V21l0.3-0.1V20.8z M247.6,21.6l0.1-0.3l0.1,0.3H247.6z M247.8,21.1h-0.2l-0.3,0.8h0.2
			l0.1-0.2h0.3l0.1,0.2h0.2L247.8,21.1z"/>
		<path class="st8" d="M248.7,20.9C248.6,20.9,248.6,20.9,248.7,20.9l-0.2,0c0,0-0.1,0-0.1,0c-0.1,0-0.1,0-0.1,0.1l0.1,0.1
			c0,0,0.1,0,0.1,0h0.1c0,0,0.1,0,0.1,0c0.1,0,0.1,0,0.1-0.1L248.7,20.9z M248.8,21.1h-0.2v0.4c0,0,0,0,0,0.1l-0.3-0.5h-0.2V22h0.1
			v-0.6l0.3,0.6h0.2L248.8,21.1z"/>
		<polygon class="st8" points="249.6,21.3 249.6,21.1 249,21.1 249,22 249.6,22 249.6,21.8 249.2,21.8 249.2,21.6 249.5,21.6 
			249.5,21.4 249.2,21.4 249.2,21.3 		"/>
		<polygon class="st8" points="250.3,21.2 250.3,21.1 249.7,21.1 249.7,21.3 250.1,21.3 249.7,21.8 249.7,22 250.4,22 250.4,21.8 
			249.9,21.8 		"/>
		<path class="st8" d="M231.8,21.5L231.8,21.5L231.8,21.5L231.8,21.5L231.8,21.5L231.8,21.5C231.8,21.5,231.8,21.5,231.8,21.5
			L231.8,21.5 M231.7,21.4L231.7,21.4L231.7,21.4L231.7,21.4C231.7,21.4,231.7,21.4,231.7,21.4L231.7,21.4L231.7,21.4
			C231.6,21.4,231.7,21.4,231.7,21.4 M231.6,21.6C231.5,21.6,231.5,21.6,231.6,21.6c-0.1,0-0.1,0-0.1,0c0,0,0-0.1,0-0.1c0,0,0,0,0,0
			c0,0,0.1,0,0.1,0c0,0,0,0,0,0C231.6,21.5,231.6,21.5,231.6,21.6C231.6,21.6,231.6,21.6,231.6,21.6 M231.5,21.7L231.5,21.7l-0.1,0
			l0,0v0.1l0,0l0,0l0,0l0,0l0,0v-0.1l0,0l0,0L231.5,21.7L231.5,21.7l0-0.1l0,0l0,0l0,0l0,0L231.5,21.7L231.5,21.7z M231.2,21.7
			L231.2,21.7L231.2,21.7L231.2,21.7z M231.1,21.8L231.1,21.8L231.1,21.8L231.1,21.8L231.1,21.8L231.1,21.8L231.1,21.8L231.1,21.8
			L231.1,21.8L231.1,21.8L231.1,21.8l0.1-0.1l0,0l0,0l0,0l0,0v0.1l0,0L231.1,21.8z M231,21.8L231,21.8L231,21.8L231,21.8L231,21.8
			L231,21.8L231,21.8L231,21.8L231,21.8L231,21.8z M230.8,21.9L230.8,21.9L230.8,21.9L230.8,21.9L230.8,21.9L230.8,21.9L230.8,21.9
			C230.9,21.8,230.9,21.8,230.8,21.9L230.8,21.9 M230.9,21.8C231,21.8,230.9,21.8,230.9,21.8C230.9,21.8,230.9,21.8,230.9,21.8
			 M230.8,21.8L230.8,21.8L230.8,21.8L230.8,21.8L230.8,21.8L230.8,21.8L230.8,21.8L230.8,21.8L230.8,21.8l-0.1-0.2l0,0L230.8,21.8
			L230.8,21.8L230.8,21.8z M230.6,21.8L230.6,21.8L230.6,21.8L230.6,21.8L230.6,21.8L230.6,21.8h-0.1l0,0v-0.1l0,0l0,0
			c0.1,0,0.1,0,0.1,0l0,0l0,0L230.6,21.8L230.6,21.8L230.6,21.8z M230.4,21.8L230.4,21.8L230.4,21.8l-0.1-0.1l0,0h0.1l0,0l0,0l0,0
			l0,0l0,0l0,0l0,0l0,0l0,0l0,0l0,0l0,0l0,0l0,0c0.1,0,0.1,0,0.1,0l0,0L230.4,21.8z M230.2,21.8L230.2,21.8L230.2,21.8l-0.1-0.1l0,0
			h0.1l0,0l0,0l0,0l0,0C230.2,21.7,230.2,21.8,230.2,21.8 M230.1,21.6v0.1l0,0H230l0,0L230.1,21.6L230.1,21.6L230.1,21.6L230.1,21.6
			 M229.9,21.8L229.9,21.8L229.9,21.8l-0.1-0.1l0,0h0.1L229.9,21.8L229.9,21.8C230,21.8,230,21.8,229.9,21.8L229.9,21.8L229.9,21.8z
			 M229.8,21.7L229.8,21.7L229.8,21.7L229.8,21.7z M229.7,21.6L229.7,21.6L229.7,21.6 M229.7,21.5L229.7,21.5L229.7,21.5
			C229.7,21.5,229.7,21.6,229.7,21.5C229.7,21.6,229.6,21.6,229.7,21.5L229.7,21.5L229.7,21.5L229.7,21.5L229.7,21.5l-0.1,0.1l0,0
			l0,0 M229.7,21.6L229.7,21.6L229.7,21.6z M229.5,21.7L229.5,21.7L229.5,21.7L229.5,21.7L229.5,21.7L229.5,21.7L229.5,21.7
			L229.5,21.7l0.1-0.1l0,0L229.5,21.7L229.5,21.7z M229.4,21.5v0.1l0,0h-0.1l0,0L229.4,21.5L229.4,21.5L229.4,21.5L229.4,21.5
			L229.4,21.5L229.4,21.5L229.4,21.5L229.4,21.5L229.4,21.5L229.4,21.5L229.4,21.5L229.4,21.5L229.4,21.5L229.4,21.5L229.4,21.5z
			 M229.2,21.4L229.2,21.4L229.2,21.4L229.2,21.4L229.2,21.4L229.2,21.4L229.2,21.4L229.2,21.4L229.2,21.4L229.2,21.4L229.2,21.4
			L229.2,21.4L229.2,21.4 M229.2,21.5L229.2,21.5L229.2,21.5L229.2,21.5L229.2,21.5L229.2,21.5L229.2,21.5L229.2,21.5L229.2,21.5
			L229.2,21.5L229.2,21.5l0.1-0.2l0,0l0,0l0,0h0.1c0,0,0,0,0,0.1l0,0l0,0v0.1 M229.1,21.4L229.1,21.4L229.1,21.4L229.1,21.4
			L229.1,21.4L229.1,21.4L229.1,21.4L229.1,21.4L229.1,21.4L229.1,21.4L229.1,21.4L229.1,21.4L229.1,21.4L229.1,21.4L229.1,21.4
			L229.1,21.4L229.1,21.4l0.1-0.1l0,0l0,0l0,0l0,0l0,0l0,0c0.1,0,0.1,0,0.1,0l0,0L229.1,21.4z M228.9,21.3L228.9,21.3v-0.2l0,0l0,0
			l0,0l0,0l0,0V21.3L228.9,21.3L228.9,21.3L228.9,21.3L228.9,21.3L228.9,21.3L228.9,21.3L228.9,21.3z M228.9,21L228.9,21
			C228.9,20.9,228.9,20.9,228.9,21L228.9,21l-0.1,0.1c0,0,0,0.1,0,0.1c0,0,0,0.1,0.1,0.1c0.1,0.1,0.3,0.2,0.5,0.3
			c0.4,0.2,0.8,0.3,1.2,0.3c0.6,0,1.2-0.2,1.6-0.6c0,0,0.1-0.1,0.1-0.1v0l-0.2-0.1l0,0c0,0,0,0.1-0.1,0.1c-0.3,0.2-0.6,0.4-0.9,0.5
			l0,0h-0.1l0,0h-0.1h-0.5h-0.1h-0.1c-0.4-0.1-0.7-0.3-1.1-0.5 M230.9,21.6L230.9,21.6L230.9,21.6L230.9,21.6z M231.1,21.6
			L231.1,21.6L231.1,21.6L231.1,21.6L231.1,21.6L231.1,21.6z M230.5,21.7L230.5,21.7L230.5,21.7L230.5,21.7L230.5,21.7L230.5,21.7
			 M229.5,21.4L229.5,21.4L229.5,21.4L229.5,21.4L229.5,21.4C229.5,21.3,229.5,21.3,229.5,21.4 M230.8,21.6L230.8,21.6L230.8,21.6
			L230.8,21.6L230.8,21.6 M231.2,21.6L231.2,21.6L231.2,21.6C231.2,21.7,231.2,21.7,231.2,21.6S231.2,21.6,231.2,21.6 M230.5,21.7
			L230.5,21.7L230.5,21.7L230.5,21.7L230.5,21.7L230.5,21.7z M231.8,21.3C231.8,21.3,231.8,21.3,231.8,21.3
			C231.8,21.3,231.8,21.3,231.8,21.3C231.8,21.3,231.9,21.4,231.8,21.3C231.9,21.3,231.9,21.3,231.8,21.3
			C231.9,21.2,231.8,21.2,231.8,21.3 M229.3,20.9c-0.1,0-0.1,0-0.2-0.1h-0.1H229c0,0,0,0,0,0.1l0,0c0.1,0,0.1,0.1,0.2,0.1
			L229.3,20.9L229.3,20.9L229.3,20.9z M229.8,21.5L229.8,21.5L229.8,21.5L229.8,21.5z M231.7,21c0,0,0.1,0,0.1,0
			c0.1,0,0.1-0.1,0.2-0.1l0,0h0.1c0-0.1,0.1-0.1,0.1-0.2c-0.1,0-0.1,0.1-0.2,0.1l0,0l0,0c0-0.1,0-0.1-0.1-0.2l0,0v0
			c0,0.1-0.1,0.1-0.2,0.2C231.8,20.8,231.6,20.9,231.7,21L231.7,21L231.7,21z M228.7,21.1L228.7,21.1L228.7,21.1L228.7,21.1h0.1
			l0.2,0.1l0,0l0,0l0,0l0,0l0,0l-0.1-0.1c-0.1-0.1-0.1-0.1-0.1-0.2c0,0,0,0.1,0,0.1C228.7,21.1,228.7,21.1,228.7,21.1L228.7,21.1
			c0,0-0.1-0.1-0.1-0.1c0,0.1,0,0.2,0.1,0.2 M231.7,21.2c-0.1,0-0.1,0-0.2,0.1c0,0-0.1,0-0.1,0l0,0l0.1,0.2c0.1,0,0.1-0.1,0.2-0.2
			C231.7,21.3,231.8,21.3,231.7,21.2L231.7,21.2L231.7,21.2"/>
		<path class="st8" d="M229.3,19.3L229.3,19.3L229.3,19.3L229.3,19.3L229.3,19.3L229.3,19.3L229.3,19.3L229.3,19.3L229.3,19.3
			L229.3,19.3L229.3,19.3L229.3,19.3 M229.4,18.2L229.4,18.2L229.4,18.2L229.4,18.2L229.4,18.2L229.4,18.2L229.4,18.2L229.4,18.2z
			 M229.2,18.4L229.2,18.4L229.2,18.4c-0.1,0-0.1,0-0.1,0l0,0l0,0l0,0l0,0l0,0l0,0l0,0l0,0v0l0,0l0,0l0,0l0,0l0,0l0,0l0,0v0.1l0,0
			l0,0l0,0l0,0l0,0l0,0l0,0L229.2,18.4C229.2,18.5,229.2,18.5,229.2,18.4L229.2,18.4C229.2,18.5,229.2,18.5,229.2,18.4 M228.9,19.6
			L228.9,19.6L228.9,19.6L228.9,19.6L228.9,19.6L228.9,19.6v0.1l0,0l0,0l0,0l0,0l0,0V19.6C228.9,19.7,228.9,19.7,228.9,19.6
			L228.9,19.6L228.9,19.6L228.9,19.6L228.9,19.6L228.9,19.6L228.9,19.6z M229.4,18.9C229.3,18.9,229.3,18.9,229.4,18.9
			c-0.1,0-0.1,0-0.2,0l0,0l0,0l0,0C229.2,18.9,229.2,18.9,229.4,18.9L229.4,18.9L229.4,18.9z M229,19.5L229,19.5L229,19.5L229,19.5
			L229,19.5z M229.9,18L229.9,18z M229.9,18L229.9,18c0,0.1,0,0.1,0,0.1l0,0v0.1l0,0l0,0l0,0l0,0v-0.1l0,0l0,0l0,0c0,0,0,0,0,0v0.1
			l0,0l0,0l0,0c0,0,0-0.1,0-0.1l0,0V18L229.9,18L229.9,18L229.9,18L229.9,18L229.9,18L229.9,18L229.9,18L229.9,18L229.9,18L229.9,18
			L229.9,18L229.9,18L229.9,18L229.9,18L229.9,18L229.9,18L229.9,18L229.9,18L229.9,18z M229.9,18.3L229.9,18.3z M229.8,18.4
			L229.8,18.4C229.7,18.4,229.7,18.5,229.8,18.4L229.8,18.4L229.8,18.4l-0.1,0.1l0,0v0l0,0v0l0,0v0c0,0,0,0,0,0s0,0,0-0.1
			c0,0,0,0,0,0.1l0,0l0,0l0,0l0,0v0l0,0l0,0l0,0l0,0l0,0 M229.5,18.6l-0.1,0.1C229.4,18.7,229.4,18.6,229.5,18.6L229.5,18.6
			C229.4,18.6,229.4,18.5,229.5,18.6l-0.1-0.1l0,0l0,0l0,0l0,0h0.1L229.5,18.6C229.4,18.5,229.4,18.5,229.5,18.6L229.5,18.6z
			 M229.4,18.7L229.4,18.7L229.4,18.7L229.4,18.7L229.4,18.7c0.1,0.1,0.1,0.1,0.1,0.1C229.5,18.8,229.4,18.7,229.4,18.7L229.4,18.7
			l0-0.1l0,0L229.4,18.7l-0.1-0.1l0,0l0,0c0,0-0.1,0.1-0.1,0.1l0.1-0.1c0,0,0.1,0,0.1-0.1h-0.1h-0.1l0,0l0,0l0,0h-0.1v0l0,0l0,0
			h-0.1l0,0l0,0l0,0v-0.1l0,0v-0.1l0,0l0,0l0,0l0,0l0,0l0,0l0,0l0,0l0,0l0,0l0,0l0,0l0,0c0,0,0,0,0,0.1c0,0,0,0.1,0.1,0.1
			c0,0,0,0,0.1,0.1l0,0l0,0l0,0l0,0c0,0,0,0.1,0.1,0.1l0,0l0,0L229.4,18.7L229.4,18.7L229.4,18.7L229.4,18.7L229.4,18.7L229.4,18.7
			L229.4,18.7L229.4,18.7L229.4,18.7L229.4,18.7L229.4,18.7L229.4,18.7c0,0.1,0,0.1,0,0.1l0,0c0,0,0,0.1,0,0.1h0.1 M229.5,19
			L229.5,19L229.5,19L229.5,19L229.5,19L229.5,19l0.1-0.1l0,0l0,0l0,0L229.5,19L229.5,19L229.5,19c0.1,0.1,0.1,0.1,0.1,0.1l0,0l0,0
			l0,0l0,0l0,0l0,0l0,0l0,0l0,0h-0.1l0,0L229.5,19z M229.6,19L229.6,19L229.6,19L229.6,19L229.6,19L229.6,19z M229.6,19L229.6,19
			L229.6,19L229.6,19L229.6,19L229.6,19L229.6,19L229.6,19L229.6,19L229.6,19z M229.7,18.9L229.7,18.9z M229.6,19.3L229.6,19.3
			L229.6,19.3L229.6,19.3L229.6,19.3z M229.3,19.1L229.3,19.1C229.3,19.1,229.2,19.1,229.3,19.1L229.3,19.1L229.3,19.1l-0.1,0.1l0,0
			l0,0l0,0C229.2,19.2,229.2,19.2,229.3,19.1L229.3,19.1L229.3,19.1L229.3,19.1C229.2,19.1,229.2,19.1,229.3,19.1L229.3,19.1
			c-0.1,0.1-0.1,0.1-0.1,0.1l0,0l0,0l0,0c0,0,0,0.1,0,0.1l0,0l0,0v0c0,0,0,0.1-0.1,0.1c0,0,0,0.1,0,0.1c0,0,0,0,0,0c0,0,0,0,0,0.1
			l0,0l0,0c0,0,0,0,0,0.1l0,0c0,0,0,0.1,0,0.1h0.1l0,0l0,0l0,0l0,0l0,0l0,0l0,0l0,0l0,0l0,0l0,0l0,0l0,0c0,0-0.1,0-0.1,0H229H229
			v-0.1v-0.1c0,0,0-0.1,0-0.1v-0.1l0,0l0,0v0l0,0c0,0,0-0.1,0-0.1c0,0,0-0.1,0-0.1l0,0c0,0,0-0.1,0-0.1l0,0c0,0,0,0.1,0,0.1l0,0
			l0.1,0.1c0,0,0,0.1,0,0.1l0,0l0,0l0,0l0,0l0,0l0,0l0,0l0,0l0,0l0,0l0,0l0,0l0,0l0,0l0,0l0,0c0,0-0.1-0.1-0.1-0.2s0.2-0.2,0.2-0.4
			l0,0c0,0,0,0,0-0.1l0,0c0,0,0,0.1,0,0.1l0,0l0,0c0,0.2-0.2,0.2-0.2,0.3l0,0c0,0,0,0.1,0.1,0.1l0,0l0,0c0,0,0-0.1,0.1-0.1
			c0,0,0.1-0.1,0.1-0.1c0,0,0-0.1,0-0.1l0,0h0.1c0,0,0,0.1,0,0.1l0,0c0.1,0,0.1,0,0.1-0.1l0,0l0.1,0v0l0,0L229.3,19.1z M229.3,19.2
			C229.3,19.2,229.4,19.2,229.3,19.2l0.1,0.2l0,0c0,0-0.1,0.1-0.1,0.1l0,0c0,0,0,0,0,0.1c0,0,0,0.1,0.1,0.1l0,0l0,0l0,0l0,0l0,0l0,0
			l0,0l0,0l0,0l0,0l0,0h0.1l0,0v0.1c0,0-0.1,0.1-0.1,0.1 M229.3,19.8L229.3,19.8L229.3,19.8L229.3,19.8L229.3,19.8L229.3,19.8
			L229.3,19.8L229.3,19.8l-0.1-0.1l0,0l0,0c0,0,0-0.1,0-0.1l0,0l0,0l0,0c0,0,0,0,0,0.1l0,0l0,0c0,0,0-0.1,0-0.1l0,0l0,0l0,0l0,0l0,0
			v-0.1h0.1 M228.9,19C228.9,19,228.9,19,228.9,19L228.9,19L228.9,19L228.9,19L228.9,19 M228.8,18.9L228.8,18.9L228.8,18.9
			L228.8,18.9z M228.8,18.9L228.8,18.9C228.7,18.9,228.7,18.9,228.8,18.9L228.8,18.9L228.8,18.9L228.8,18.9c-0.1,0.1,0,0.1,0,0.1
			l0,0c0,0-0.1,0.1-0.1,0.1l0,0c0,0,0,0,0,0.1l0,0v0v-0.1c0,0,0,0,0.1-0.1l0,0L228.8,18.9L228.8,18.9L228.8,18.9L228.8,18.9
			c0,0.1,0,0.1,0,0.2v0.1l0,0l0,0l0,0c0,0,0-0.1,0-0.1l0,0l0,0l0,0l0,0l0,0c0,0,0,0.1,0,0.1l0,0v0l0,0 M228.8,19.1L228.8,19.1
			c0,0,0-0.1,0-0.1l0,0c0,0,0,0,0-0.1l0,0c0-0.1,0-0.1,0.1-0.1h0.1l0,0L228.8,19.1z M228.8,18.8c0,0,0.1,0,0.1,0v0.1l0,0
			C228.9,18.8,228.8,18.8,228.8,18.8 M228.8,18.7L228.8,18.7L228.8,18.7L228.8,18.7C228.8,18.7,228.8,18.7,228.8,18.7L228.8,18.7z
			 M228.8,18.7C228.8,18.6,228.8,18.6,228.8,18.7c0,0,0.1,0,0.1,0l0,0l0,0L228.8,18.7 M228.9,18.6L228.9,18.6c0,0-0.1-0.1-0.1-0.2
			l0,0C228.8,18.5,228.9,18.5,228.9,18.6L228.9,18.6L228.9,18.6C228.9,18.6,228.9,18.6,228.9,18.6L228.9,18.6L228.9,18.6
			c-0.1,0-0.1,0-0.1,0C228.8,18.6,228.8,18.6,228.9,18.6 M228.9,18.5c0,0,0.1,0.1,0.1,0.1l0,0L228.9,18.5
			C228.9,18.5,228.8,18.4,228.9,18.5L228.9,18.5 M228.8,18.2L228.8,18.2L228.8,18.2c0,0.1,0.1,0.2,0.1,0.2c0,0,0,0.1,0,0.1
			c0,0-0.1-0.1-0.1-0.1l0,0C228.8,18.4,228.8,18.3,228.8,18.2L228.8,18.2z M228.8,18.1c0,0,0.1,0.2,0.1,0.2c0,0,0,0,0,0.1
			C228.8,18.3,228.8,18.2,228.8,18.1L228.8,18.1z M229,18.6L229,18.6L229,18.6L229,18.6L229,18.6z M229,18.6L229,18.6L229,18.6
			L229,18.6L229,18.6L229,18.6z M229,18.7L229,18.7L229,18.7L229,18.7L229,18.7L229,18.7L229,18.7z M229,18.8L229,18.8L229,18.8
			L229,18.8L229,18.8C229,18.7,229,18.8,229,18.8L229,18.8l0.1,0L229,18.8z M229.1,18.8L229.1,18.8L229.1,18.8L229.1,18.8
			L229.1,18.8L229.1,18.8L229.1,18.8L229.1,18.8z M229.1,18.9L229.1,18.9L229.1,18.9L229.1,18.9L229.1,18.9L229.1,18.9
			C229.1,18.9,229.1,18.9,229.1,18.9 M229.2,19L229.2,19C229.2,19,229.2,19,229.2,19L229.2,19L229.2,19L229.2,19z M229,19L229,19
			L229,19C229.1,19,229.1,19,229,19l0.1,0.1l0,0c0,0,0,0.1,0,0.1l-0.1,0.1c0,0,0,0.1-0.1,0.1l0,0l0,0v-0.1l0,0
			c0-0.1,0.1-0.2,0.2-0.3 M229.2,18.9C229.2,18.9,229.2,18.9,229.2,18.9L229.2,18.9c0.1,0.1,0.1,0.1,0,0.1
			C229.2,19,229.2,18.9,229.2,18.9l-0.1,0.1C229.1,18.9,229.2,18.9,229.2,18.9 M229.1,18.9L229.1,18.9L229.1,18.9L229.1,18.9
			C229.1,18.8,229.1,18.8,229.1,18.9 M229.1,18.7L229.1,18.7L229.1,18.7L229.1,18.7L229.1,18.7z M229.3,18.9L229.3,18.9
			c0,0-0.1,0-0.1,0C229.3,18.9,229.3,18.9,229.3,18.9L229.3,18.9L229.3,18.9z M229.3,18.9L229.3,18.9L229.3,18.9z M229.3,18.9
			L229.3,18.9L229.3,18.9C229.3,19,229.3,18.9,229.3,18.9L229.3,18.9L229.3,18.9z M229.3,18.9L229.3,18.9L229.3,18.9L229.3,18.9
			L229.3,18.9L229.3,18.9L229.3,18.9c0,0-0.1,0-0.1,0 M228.9,18.1L228.9,18.1c0,0.1,0.1,0.1,0.1,0.1L228.9,18.1L228.9,18.1
			c0-0.1,0-0.1,0.1-0.2L228.9,18.1z M229,17.9c0,0,0,0.1,0,0.1c0,0.1,0,0.1,0,0.2l0,0l0,0l0,0v-0.1l0,0l0,0l0,0
			C229,18.1,229,18,229,17.9 M229.1,18c0,0.1,0,0.1,0,0.2c0,0,0,0.1,0,0.1l0,0l0,0c0-0.1,0-0.1,0-0.2C229.1,18,229.1,18,229.1,18
			 M229.1,18.2L229.1,18.2L229.1,18.2c0,0,0,0.1,0,0.1c0,0,0,0,0,0.1l0,0l0,0l0,0l0,0l0,0c0,0,0,0,0-0.1 M229.2,18.5L229.2,18.5
			L229.2,18.5L229.2,18.5L229.2,18.5L229.2,18.5L229.2,18.5L229.2,18.5L229.2,18.5L229.2,18.5L229.2,18.5L229.2,18.5L229.2,18.5
			L229.2,18.5z M229.3,18.8L229.3,18.8L229.3,18.8C229.2,18.8,229.2,18.8,229.3,18.8L229.3,18.8L229.3,18.8
			C229.2,18.7,229.2,18.8,229.3,18.8L229.3,18.8z M229.3,18.4L229.3,18.4L229.3,18.4l0.2-0.1l0,0L229.3,18.4L229.3,18.4L229.3,18.4
			l0.1-0.1l0,0v0l0,0v-0.3l0,0c0,0,0,0,0.1,0.1c0,0,0.1,0.1,0.1,0.1c0,0,0,0.1,0,0.1l0,0l0,0h-0.1l0,0l0,0l0,0l0,0l0,0l0,0l0,0l0,0
			l0,0l0,0l0,0l0,0l0,0h-0.1l0,0l0,0c0,0,0-0.1,0-0.1l0,0v-0.2c0,0,0-0.1,0-0.1 M229.4,18L229.4,18z M229.6,18L229.6,18z M229.7,18
			L229.7,18L229.7,18L229.7,18L229.7,18L229.7,18L229.7,18L229.7,18L229.7,18z M229.7,18.1L229.7,18.1L229.7,18.1l-0.2,0l0,0l0,0
			L229.7,18.1z M229.6,18.1L229.6,18.1L229.6,18.1L229.6,18.1L229.6,18.1L229.6,18.1z M229.9,18L229.9,18L229.9,18L229.9,18
			L229.9,18C229.9,18,229.9,18,229.9,18L229.9,18L229.9,18z M229.9,17.9L229.9,17.9L229.9,17.9L229.9,17.9z M230,17.9L230,17.9
			L230,17.9z M230.1,18L230.1,18L230.1,18L230.1,18L230.1,18L230.1,18L230.1,18L230.1,18L230.1,18L230.1,18L230.1,18L230.1,18
			L230.1,18L230.1,18L230.1,18L230.1,18L230.1,18L230.1,18C230.1,18,230.1,18,230.1,18c0,0.1,0,0.1,0,0.1l0,0c0,0,0,0.1,0,0.1l0,0
			l0,0l0,0c0,0,0-0.1-0.1-0.1l0,0l0,0l0,0c0,0,0,0,0,0.1l0,0l0,0c0,0,0,0,0-0.1c0,0-0.1-0.1-0.1-0.1c0,0-0.1-0.1-0.1-0.1l0,0l0,0
			h0.1C229.9,18,229.9,18,230.1,18L230.1,18L230.1,18L230.1,18L230.1,18L230.1,18L230.1,18L230.1,18L230.1,18L230.1,18
			c-0.1,0-0.1-0.1-0.2-0.1h-0.1l0,0h-0.1l0,0l0,0l0,0l0,0V18l0,0c0,0,0,0,0,0.1l0,0c0,0,0,0,0,0l0,0l0,0v-0.1l0,0l0,0
			c0,0,0-0.1,0-0.1c0-0.1,0-0.2,0-0.2l0,0c-0.1,0-0.1,0.1-0.1,0.2l0,0l0,0l-0.1-0.1l-0.1-0.1l0,0c0,0,0,0.1,0,0.1
			c0,0.1,0,0.2,0.1,0.2l-0.1-0.1l0,0l0,0c0,0.1,0,0.1,0.1,0.2h-0.1c0,0.1,0.1,0.1,0.1,0.2c0,0-0.1,0-0.1,0l0,0c0,0,0,0.1,0.1,0.1
			l0,0c-0.1,0-0.1,0-0.1,0.1l0,0c0,0,0,0.1,0,0.1l0,0c0,0,0,0.1,0,0.1l0,0c0,0,0,0.1,0,0.1c0,0,0,0,0,0l0,0v-0.1l0,0
			c0,0,0.1-0.1,0.1-0.1l0,0c0,0-0.1-0.1-0.1-0.1l0,0l0,0c0,0,0-0.1,0.1-0.1l0,0l0,0l0,0c0,0,0,0,0,0.1l0,0c0,0.2-0.2,0.3-0.2,0.4
			c0,0.1,0,0.1,0.1,0.2V19l0,0l0,0l0,0l0,0l0,0l0,0l0,0l0,0l0,0l0,0l0,0l0,0v0.1c0,0,0,0,0,0.1c0,0,0,0,0,0.1v0.1v0.1c0,0,0,0,0.1,0
			h0.1c0,0,0.1,0,0.1,0l0,0l0,0h-0.1h-0.1l0,0l0,0c0,0,0,0,0-0.1l0,0c0,0,0,0,0,0c0,0,0,0,0-0.1l0,0c0,0,0,0,0,0s0,0,0-0.1
			c0,0,0,0,0-0.1c0,0,0.1-0.1,0.1-0.1l0,0l0,0l0,0l0,0l0,0l0,0l0,0v0v0l0,0l0,0l0,0l0,0v0.1c0,0,0,0,0.1,0c0,0,0.1-0.1,0.1-0.1
			c0,0,0-0.1,0-0.1V19l0,0l0,0l0,0l0,0v0l0,0l0,0c0,0-0.1,0-0.1-0.1c0,0,0,0,0-0.1l0,0l0.1-0.1l0,0l0,0l0,0c0-0.1-0.1-0.1-0.1-0.1
			h-0.1l0,0l0,0l0,0l0,0l0,0l0,0c0,0,0.1,0.1,0.1,0.1l0,0l0,0c0,0,0,0,0-0.1l0,0l0,0l0,0l0,0l0,0l0,0l0,0v0.4l0,0l0,0v-0.1V19
			c0,0,0-0.1,0-0.1v-0.1v0l0,0l0,0l0,0l0,0l0,0l0,0l0,0l0,0l0,0l0,0l0,0h-0.1h-0.1l0,0l0,0h-0.2l0.1-0.1l0,0l0.1,0c0,0,0,0,0-0.1
			c0-0.1,0,0,0-0.1l0,0l0,0l0,0c0-0.1,0-0.1,0-0.1l0,0v-0.1l0,0l0,0v0.1l0,0l0,0l0,0l0,0l0,0v0v-0.1l0,0c0,0,0,0,0-0.1v0l0,0l0,0
			L230.1,18z M229.2,19.3L229.2,19.3L229.2,19.3L229.2,19.3L229.2,19.3z"/>
		<path class="st8" d="M231.3,19.3L231.3,19.3L231.3,19.3L231.3,19.3L231.3,19.3L231.3,19.3L231.3,19.3L231.3,19.3L231.3,19.3
			L231.3,19.3L231.3,19.3L231.3,19.3L231.3,19.3 M231.2,18.1L231.2,18.1L231.2,18.1L231.2,18.1L231.2,18.1L231.2,18.1L231.2,18.1z
			 M231.3,18.4L231.3,18.4L231.3,18.4L231.3,18.4L231.3,18.4L231.3,18.4L231.3,18.4L231.3,18.4L231.3,18.4L231.3,18.4L231.3,18.4
			L231.3,18.4L231.3,18.4L231.3,18.4L231.3,18.4L231.3,18.4L231.3,18.4L231.3,18.4L231.3,18.4L231.3,18.4L231.3,18.4L231.3,18.4
			L231.3,18.4L231.3,18.4L231.3,18.4L231.3,18.4L231.3,18.4L231.3,18.4L231.3,18.4C231.3,18.4,231.3,18.5,231.3,18.4L231.3,18.4
			C231.3,18.5,231.3,18.4,231.3,18.4 M231.7,19.5L231.7,19.5L231.7,19.5L231.7,19.5L231.7,19.5L231.7,19.5L231.7,19.5
			C231.7,19.5,231.7,19.6,231.7,19.5v0.1l0,0l0,0l0,0l0,0l0,0V19.5L231.7,19.5L231.7,19.5L231.7,19.5L231.7,19.5L231.7,19.5z
			 M231.3,18.8L231.3,18.8c0.1,0,0.1,0,0.2,0l0,0l0,0l0,0l0,0L231.3,18.8L231.3,18.8z M231.6,19.4L231.6,19.4L231.6,19.4L231.6,19.4
			L231.6,19.4z M230.8,17.9L230.8,17.9z M230.8,18L230.8,18c0,0.1,0,0.1,0,0.1l0,0v0.1l0,0l0,0l0,0l0,0v-0.1l0,0l0,0l0,0
			c0,0,0,0,0,0v0.1l0,0l0,0l0,0c0,0,0-0.1,0-0.1l0,0V18L230.8,18L230.8,18L230.8,18L230.8,18L230.8,18L230.8,18L230.8,18L230.8,18
			L230.8,18L230.8,18L230.8,18L230.8,18L230.8,18L230.8,18L230.8,18L230.8,18L230.8,18L230.8,18L230.8,18z M230.8,18.3L230.8,18.3z
			 M230.8,18.4L230.8,18.4C230.9,18.4,230.9,18.4,230.8,18.4L230.8,18.4L230.8,18.4l0.1,0.1l0,0v0l0,0v0l0,0v0c0,0,0,0,0,0
			s0,0,0-0.1c0,0,0,0,0,0.1l0,0l0,0l0,0l0,0v0l0,0l0,0l0,0l0,0l0,0 M231.2,18.5c0,0,0.1,0.1,0.1,0.1
			C231.3,18.6,231.3,18.6,231.2,18.5L231.2,18.5C231.2,18.5,231.2,18.5,231.2,18.5l0.1-0.1l0,0l0,0l0,0l0,0h-0.1L231.2,18.5
			C231.2,18.5,231.2,18.5,231.2,18.5L231.2,18.5z M231.2,18.6L231.2,18.6L231.2,18.6L231.2,18.6L231.2,18.6c0,0.1,0,0.1,0,0.1
			c0-0.1,0.1-0.1,0.1-0.1l0,0v-0.1l0,0v0.1v0l0,0l0,0c0,0,0.1,0.1,0.1,0.1l-0.1-0.1c0,0-0.1,0-0.1-0.1h0.1h0.1l0,0l0,0l0,0h0.1v0
			l0,0l0,0h0.1l0,0l0,0h0.1v-0.1l0,0v-0.1l0,0l0,0l0,0l0,0l0,0l0,0l0,0l0,0l0,0l0,0v-0.1l0,0c0,0,0,0,0,0.1c0,0-0.1-0.1-0.1-0.1
			l-0.1,0.1l0,0l0,0l0,0l0,0c0,0,0,0.1-0.1,0.1l0,0l-0.1,0l0,0l0,0l0,0l0,0l0,0l0,0l0,0l0,0l0,0l0,0v0.1c0,0,0,0.1,0,0.1l0,0
			C231.3,18.5,231.3,18.6,231.2,18.6L231.2,18.6 M231.2,18.7L231.2,18.7L231.2,18.7L231.2,18.7L231.2,18.7L231.2,18.7L231.2,18.7
			L231.2,18.7L231.2,18.7L231.2,18.7L231.2,18.7L231.2,18.7L231.2,18.7l-0.1,0.1c0,0,0,0,0,0.1l0,0l0,0l0,0l0,0l0,0l0,0l0,0l0,0l0,0
			h0.1l0,0L231.2,18.7z M231.1,18.6L231.1,18.6L231.1,18.6L231.1,18.6L231.1,18.6L231.1,18.6z M231.1,18.6L231.1,18.6L231.1,18.6
			L231.1,18.6L231.1,18.6L231.1,18.6L231.1,18.6L231.1,18.6L231.1,18.6L231.1,18.6z M231,18.6L231,18.6z M231.1,19L231.1,19
			L231.1,19L231.1,19L231.1,19z M231.4,18.7L231.4,18.7C231.4,18.7,231.4,18.7,231.4,18.7L231.4,18.7L231.4,18.7l0.1,0.1l0,0l0,0
			l0,0L231.4,18.7L231.4,18.7L231.4,18.7L231.4,18.7C231.4,18.8,231.4,18.8,231.4,18.7L231.4,18.7l0.1,0.1l0,0l0,0l0,0
			c0,0,0,0.1,0,0.1l0,0l0,0v0c0,0,0,0.1,0.1,0.1c0,0,0,0.1,0,0.1c0,0,0,0,0,0c0,0,0,0,0,0.1l0,0l0,0c0,0,0,0,0,0.1l0,0
			c0,0,0,0.1-0.1,0.1l0,0l0,0l0,0l0,0l0,0l0,0l0,0l0,0l0,0l0,0l0,0l0,0l0,0l0,0c0,0,0.1,0,0.1,0h0.1l0,0v-0.1v-0.1c0,0,0,0,0-0.1
			c0,0,0,0,0-0.1V19l0,0l0,0v0l0,0c0,0,0-0.1,0-0.1v-0.1l0,0c0,0,0-0.1,0-0.1l0,0c0,0,0,0.1,0,0.1l0,0c0,0,0,0.1,0,0.1
			c0,0,0,0.1,0,0.1l0,0l0,0l0,0l0,0l0,0l0,0l0,0l0,0l0,0l0,0l0,0l0,0l0,0l0,0l0,0l0,0c0.1,0,0.1-0.1,0.1-0.2c0-0.1-0.2-0.2-0.2-0.4
			l0,0c0,0,0,0,0-0.1l0,0c0,0,0,0.1,0,0.1l0,0l0,0c0,0.2,0.2,0.2,0.2,0.3l0,0c0,0,0,0.1-0.1,0.1l0,0l0,0c0,0,0-0.1-0.1-0.1
			c0,0-0.1-0.1-0.1-0.1c0,0,0-0.1,0-0.1l0,0h-0.1c0,0,0,0.1,0,0.1l0,0c0,0-0.1-0.1-0.1-0.1l0,0l-0.1,0v0l0,0L231.4,18.7z
			 M231.4,18.8c0,0-0.1,0-0.1,0.1V19l0,0c0,0,0.1,0.1,0.1,0.1l0,0c0,0,0,0,0,0.1c0,0,0,0.1-0.1,0.1l0,0l0,0l0,0l0,0l0,0l0,0l0,0l0,0
			l0,0l0,0l0,0h-0.1l0,0v0.1c0,0,0.1,0.1,0.1,0.1l0,0v-0.1l0,0l0,0l0,0l0,0l0,0l0,0v0l0,0l0,0c0,0,0-0.1,0-0.1l0,0l0,0l0,0
			c0,0,0,0.1,0,0.1l0,0l0,0l0,0c0,0,0-0.1,0-0.1l0,0l0,0l0,0l0,0h-0.1l0,0l0,0h-0.1 M231.6,18.8C231.6,18.8,231.6,18.8,231.6,18.8
			L231.6,18.8L231.6,18.8L231.6,18.8L231.6,18.8 M231.6,18.6L231.6,18.6L231.6,18.6L231.6,18.6z M231.7,18.6L231.7,18.6
			C231.7,18.6,231.8,18.7,231.7,18.6C231.8,18.7,231.8,18.7,231.7,18.6L231.7,18.6L231.7,18.6L231.7,18.6c0.1,0.1,0,0.1,0,0.1l0,0
			c0,0,0.1,0.1,0.1,0.1l0,0c0,0,0,0,0,0.1l0,0v0v-0.1c0,0,0,0,0-0.1l0,0c0,0,0,0,0.1,0l0,0l0,0l0,0c0,0,0,0,0,0.1v0.1l0,0l0,0l0,0
			c0,0,0-0.1,0-0.1l0,0l0,0l0,0l0,0l0,0c0,0,0,0.1,0,0.1l0,0v0l0,0c0,0,0.1,0,0.1,0l0,0c0-0.1,0-0.1,0-0.1l0,0c0,0,0,0,0-0.1l0,0
			C231.9,18.6,231.8,18.6,231.7,18.6L231.7,18.6L231.7,18.6L231.7,18.6z M231.8,18.5c0,0-0.1,0-0.1,0v0.1l0,0
			C231.7,18.5,231.7,18.5,231.8,18.5 M231.7,18.5L231.7,18.5L231.7,18.5L231.7,18.5C231.7,18.5,231.7,18.5,231.7,18.5L231.7,18.5z
			 M231.7,18.4C231.7,18.4,231.8,18.3,231.7,18.4C231.7,18.4,231.7,18.4,231.7,18.4L231.7,18.4L231.7,18.4L231.7,18.4 M231.6,18.3
			L231.6,18.3c0,0,0.1-0.1,0.1-0.2l0,0C231.7,18.2,231.7,18.3,231.6,18.3L231.6,18.3L231.6,18.3C231.6,18.3,231.6,18.4,231.6,18.3
			L231.6,18.3L231.6,18.3C231.7,18.4,231.7,18.3,231.6,18.3L231.6,18.3 M231.6,18.2c0,0-0.1,0.1-0.1,0.1l0,0L231.6,18.2
			C231.6,18.2,231.7,18.1,231.6,18.2L231.6,18.2 M231.7,17.9L231.7,17.9L231.7,17.9c0,0.1-0.1,0.2-0.1,0.2c0,0,0,0.1,0,0.1l0.1-0.1
			l0,0C231.7,18.1,231.7,18,231.7,17.9 M231.7,17.9L231.7,17.9z M231.7,17.9c0,0.1-0.1,0.1-0.1,0.2c0,0,0,0,0,0.1
			C231.7,18.1,231.7,18,231.7,17.9L231.7,17.9z M231.6,18.3L231.6,18.3L231.6,18.3L231.6,18.3L231.6,18.3z M231.6,18.3L231.6,18.3
			L231.6,18.3L231.6,18.3L231.6,18.3L231.6,18.3z M231.6,18.4L231.6,18.4L231.6,18.4L231.6,18.4L231.6,18.4L231.6,18.4L231.6,18.4z
			 M231.6,18.5L231.6,18.5L231.6,18.5L231.6,18.5L231.6,18.5C231.5,18.5,231.5,18.5,231.6,18.5L231.6,18.5L231.6,18.5L231.6,18.5z
			 M231.4,18.5L231.4,18.5L231.4,18.5L231.4,18.5L231.4,18.5L231.4,18.5L231.4,18.5L231.4,18.5z M231.4,18.7L231.4,18.7L231.4,18.7
			L231.4,18.7L231.4,18.7L231.4,18.7C231.4,18.6,231.4,18.7,231.4,18.7 M231.4,18.7L231.4,18.7L231.4,18.7L231.4,18.7L231.4,18.7
			L231.4,18.7z M231.5,18.7L231.5,18.7L231.5,18.7C231.5,18.7,231.5,18.8,231.5,18.7L231.5,18.7L231.5,18.7
			c-0.1,0.1-0.1,0.1-0.1,0.1c0,0,0.1,0.1,0.1,0.1c0,0,0.1,0.1,0.1,0.1l0,0l0,0V19l0,0C231.6,18.9,231.5,18.9,231.5,18.7 M231.4,18.6
			C231.4,18.6,231.4,18.6,231.4,18.6L231.4,18.6c-0.1,0.1,0,0.1,0,0.1C231.4,18.7,231.4,18.7,231.4,18.6L231.4,18.6L231.4,18.6
			 M231.5,18.6L231.5,18.6L231.5,18.6L231.5,18.6C231.5,18.6,231.5,18.5,231.5,18.6 M231.5,18.4L231.5,18.4L231.5,18.4L231.5,18.4
			L231.5,18.4z M231.3,18.6L231.3,18.6c0,0,0.1,0,0.1,0C231.4,18.6,231.4,18.6,231.3,18.6L231.3,18.6L231.3,18.6z M231.3,18.6
			L231.3,18.6L231.3,18.6z M231.3,18.6L231.3,18.6L231.3,18.6C231.4,18.7,231.4,18.7,231.3,18.6L231.3,18.6L231.3,18.6z M231.3,18.6
			L231.3,18.6L231.3,18.6L231.3,18.6L231.3,18.6L231.3,18.6L231.3,18.6c0,0,0.1,0,0.1,0 M231.7,17.9L231.7,17.9c0,0,0,0.1-0.1,0.1
			v0.1l0,0C231.7,18.1,231.7,18,231.7,17.9L231.7,17.9z M231.7,17.6c0,0,0,0.1,0,0.1c0,0.1,0,0.1,0,0.2l0,0l0,0l0,0v-0.1l0,0l0,0
			l0,0C231.7,17.8,231.7,17.8,231.7,17.6 M231.6,17.7c0,0,0,0.1,0,0.2c0,0,0,0.1,0,0.1l0,0c0-0.1,0-0.1,0-0.2
			C231.6,17.8,231.6,17.7,231.6,17.7 M231.6,17.9L231.6,17.9L231.6,17.9L231.6,17.9c0,0,0,0.1,0,0.1c0,0,0,0,0,0.1l0,0l0,0l0,0l0,0
			l0,0c0,0,0,0,0-0.1 M231.6,18.2L231.6,18.2L231.6,18.2L231.6,18.2L231.6,18.2L231.6,18.2L231.6,18.2L231.6,18.2L231.6,18.2
			L231.6,18.2L231.6,18.2L231.6,18.2L231.6,18.2L231.6,18.2L231.6,18.2L231.6,18.2z M231.5,18.5L231.5,18.5L231.5,18.5
			C231.5,18.5,231.5,18.5,231.5,18.5L231.5,18.5C231.5,18.5,231.5,18.5,231.5,18.5C231.5,18.5,231.5,18.5,231.5,18.5L231.5,18.5z
			 M231.5,18.2L231.5,18.2L231.5,18.2l-0.2-0.1l0,0L231.5,18.2L231.5,18.2L231.5,18.2l-0.1-0.1l0,0v0l0,0v0l0,0c0,0,0,0-0.1,0.1
			l-0.1,0.1c0,0,0,0.1-0.1,0.1l0,0l0,0h0.1l0,0l0,0l0,0l0,0l0,0l0,0l0,0l0,0l0,0l0,0l0,0l0,0l0,0h0.1l0,0l0,0c0,0,0-0.1,0-0.1l0,0
			v-0.2c0,0,0-0.1,0-0.1 M231.3,18L231.3,18z M231.1,18L231.1,18z M231,18L231,18L231,18L231,18L231,18L231,18L231,18L231,18L231,18
			z M231,18.1L231,18.1L231,18.1L231,18.1L231,18.1L231,18.1L231,18.1z M231.1,18.1L231.1,18.1L231.1,18.1L231.1,18.1L231.1,18.1
			L231.1,18.1z M230.8,18L230.8,18L230.8,18L230.8,18L230.8,18C230.8,18,230.8,18,230.8,18L230.8,18L230.8,18z M230.8,17.9
			L230.8,17.9L230.8,17.9L230.8,17.9z M230.7,17.9L230.7,17.9L230.7,17.9z M230.6,18L230.6,18L230.6,18L230.6,18L230.6,18L230.6,18
			L230.6,18L230.6,18L230.6,18L230.6,18L230.6,18L230.6,18L230.6,18L230.6,18L230.6,18L230.6,18L230.6,18L230.6,18
			C230.6,18,230.6,18,230.6,18c0,0.1,0,0.1,0,0.1l0,0c0,0,0,0.1,0,0.1l0,0l0,0l0,0c0,0,0,0,0-0.1l0,0l0,0l0,0c0,0,0,0,0,0.1l0,0l0,0
			c0,0,0,0,0-0.1l0.1-0.1c0,0,0.1-0.1,0.1-0.1l0,0l0,0l0,0L230.6,18L230.6,18L230.6,18L230.6,18L230.6,18L230.6,18L230.6,18
			L230.6,18L230.6,18L230.6,18c0.1,0,0.1-0.1,0.2-0.1h0.1c0,0,0,0,0.1,0h0.1l0,0l0,0l0,0l0,0V18l0,0c0,0,0,0,0,0.1l0,0c0,0,0,0,0,0
			l0,0l0,0v-0.1l0,0l0,0c0,0,0-0.1,0-0.1c0-0.1,0-0.2,0-0.2l0,0c0.1,0,0.1,0.1,0.1,0.2l0,0l0,0l0.1-0.1l0.1-0.1l0,0c0,0,0,0.1,0,0.1
			c0,0.1,0,0.2-0.1,0.2l0.1-0.1l0,0l0,0c0,0.1,0,0.1-0.1,0.2h0.1c0,0.1-0.1,0.1-0.1,0.2c0,0,0.1,0,0.1,0l0,0c0,0,0,0.1-0.1,0.1l0,0
			c0.1,0,0.1,0,0.1,0.1l0,0c0,0.1,0,0.1,0,0.1l0,0c0,0,0,0,0,0.1l0,0c0,0.1-0.1,0.1-0.1,0.1l0,0c0,0,0,0,0-0.1l0,0
			c0,0,0-0.1-0.1-0.1l0,0c0,0,0.1-0.1,0.1-0.1l0,0l0,0c0,0,0-0.1-0.1-0.1h-0.1l0,0l0,0c0,0,0,0,0,0.1l0,0c0,0.2,0.2,0.3,0.2,0.4
			c0,0.1,0,0.1-0.1,0.2V19l0,0l0,0l0,0l0,0l0,0l0,0l0,0l0,0l0,0l0,0l0,0l0,0v0.1c0,0,0,0,0,0.1c0,0,0,0,0,0.1v0.1v0.1v0.1
			c0,0,0,0-0.1,0h0.4c0,0-0.1,0-0.1,0l0,0l0,0l0,0h0.1c0,0,0,0,0.1,0l0,0c0,0,0,0,0-0.1l0,0c0,0,0,0,0,0v-0.1l0,0v0c0,0,0,0,0-0.1
			c0,0,0,0,0-0.1c0,0,0-0.1-0.1-0.1l0,0l0,0l0,0l0,0l0,0l0,0l0,0v0v0l0,0l0,0l0,0l0,0v0.1c0,0,0,0-0.1,0c0,0-0.1-0.1-0.1-0.1
			c0,0,0-0.1,0-0.1V19l0,0l0,0l0,0l0,0v0l0,0l0,0l0.1-0.1v-0.1l0,0c0,0-0.1-0.1-0.1-0.1l0,0l0,0c0,0,0,0,0-0.1c0-0.1,0-0.1,0.1-0.1
			c0,0,0,0,0,0h0.1l0,0l0,0l0,0l0,0l0,0l0,0c0,0-0.1,0.1-0.1,0.1l0,0l0,0c0,0,0,0,0-0.1l0,0h-0.1l0,0l0,0l0,0l0,0l0,0l0,0v0.5l0,0
			l0,0v-0.1V19c0,0,0-0.1,0-0.1v-0.1v0l0,0l0,0l0,0l0,0l0,0l0,0l0,0l0,0l0,0v0.1h0.1h0.1l0,0l0,0h0.1l-0.1-0.1l0,0l-0.1,0
			c0,0,0,0,0-0.1c0,0,0,0,0-0.1l0,0l0,0l0,0c0-0.1,0-0.1,0-0.1l0,0c0,0,0,0,0-0.1l0,0l0,0v0.1l0,0l0,0l0,0l0,0l0,0v0v-0.1l0,0
			c0,0,0,0,0-0.1v0l0,0l0,0L230.6,18z M231.5,19.3L231.5,19.3L231.5,19.3L231.5,19.3L231.5,19.3z"/>
		<path class="st8" d="M231.8,18.8C231.8,18.9,231.7,18.8,231.8,18.8C231.7,18.8,231.7,18.8,231.8,18.8c-0.1,0-0.1-0.1-0.2-0.1
			c0-0.1,0.1-0.1,0.1-0.1l0,0c0,0,0-0.1-0.1-0.1c0,0,0,0-0.1,0l0,0l0,0c0,0,0,0.1,0,0.1c0,0.2,0.2,0.3,0.2,0.4c0,0.1,0,0.1-0.1,0.2
			v0.1l0,0l0,0l0,0l0,0l0,0l0,0l0,0l0,0l0,0v0l0,0l0,0v0.1c0,0,0,0,0,0.1s0,0,0,0.1v0.1v0.1h-0.1c0,0-0.1,0-0.1,0c0,0-0.1,0-0.1,0
			l0,0l0,0h0.1c0,0,0,0,0.1,0s0,0,0-0.1c0,0,0-0.1,0-0.1c0,0,0-0.1,0-0.1c0,0,0,0,0,0c0,0,0,0,0-0.1c0,0,0,0,0-0.1
			c0,0-0.1-0.1-0.1-0.1c0,0,0,0,0-0.1l0,0l0,0l0,0v0.1l0,0v0l0,0l-0.1,0l0,0l0,0v0c0,0,0,0-0.1,0c0,0-0.1-0.1-0.1-0.1
			c0,0,0-0.1,0-0.1v-0.1l0,0l0,0l0,0v0l0,0l0,0c0,0,0.1,0,0.1-0.1c0,0,0-0.1,0-0.1l-0.1-0.1l0,0c0,0,0,0,0-0.1
			c0-0.1,0.1-0.1,0.2-0.1s0,0,0,0s-0.1-0.1-0.1-0.1l0,0c0,0-0.1,0.1-0.1,0.1c0,0,0,0,0-0.1l0,0h-0.1l0,0l0,0l0,0v0.4l0,0l0,0l0,0
			v-0.1V19v-0.1v-0.1v-0.1l0,0l0,0h0.1l0,0v0.1l0,0l0,0h0.1l0,0l0,0c0,0,0.1,0,0.1,0l0,0l-0.1-0.1v-0.1c0,0,0,0-0.1,0
			c0,0,0-0.1,0-0.1s-0.1,0-0.1,0v-0.1l0,0v-0.1c0,0,0,0,0,0v0.1l0,0l0,0l0,0l0,0v0v-0.1v-0.1v-0.1l0,0l0,0l0,0c0.1,0,0,0,0,0l0,0
			l0,0v-0.1l0,0l0,0l0,0l0,0l0,0l0,0l0,0l0,0l0,0l0,0v0l0,0c0,0,0,0.1,0,0.1c0,0,0,0.1,0,0.1l0,0l0,0l0,0c0,0,0-0.1,0-0.1
			c0,0,0,0.1,0,0.1c0,0,0,0,0,0v0.1c0,0,0,0,0-0.1c0,0,0.1-0.1,0.1-0.1c0,0,0.1,0,0.1-0.1l0,0h-0.1c0,0,0,0-0.1,0h-0.1l0,0l0,0l0,0
			l0,0l0,0v-0.1h0.1c0,0,0,0,0.1,0h0.1l0,0l0,0v0.1l0,0c0,0,0,0.1,0,0.1l0,0l0.1-0.1l0,0c0,0,0-0.1,0-0.2l0,0c0-0.1,0-0.2,0-0.3
			c0.1,0,0.1,0.2,0.1,0.2l0,0l0,0c0.1-0.1,0.1-0.1,0.1-0.2c0.1,0.1-0.1,0.3-0.1,0.3c0,0,0.1,0,0.1-0.1c0,0.1-0.1,0.2-0.1,0.2
			c0,0,0.1,0,0.1,0c0,0.1-0.1,0.2-0.1,0.2c0,0,0,0,0.1,0c0,0-0.1,0.1-0.1,0.1h0.1c0.1,0,0.1,0,0.1,0.1
			C231.8,18.7,231.8,18.7,231.8,18.8C231.8,18.7,231.8,18.8,231.8,18.8c-0.1,0.1-0.1,0.1-0.1,0.2 M230.4,17.8l1,3.2
			c0.3-0.4,0.4-0.8,0.4-1.2v-2.1L230.4,17.8z M229.6,19.2L229.6,19.2L229.6,19.2L229.6,19.2V19l0,0c0,0,0,0,0,0.1V19.2z M229.7,18.9
			L229.7,18.9L229.7,18.9z M229.7,18.9L229.7,18.9L229.7,18.9L229.7,18.9z M228.9,18.6L228.9,18.6z M229.2,18.6
			C229.2,18.6,229.2,18.6,229.2,18.6c0-0.1,0-0.1,0-0.2c0,0,0,0.1-0.1,0C229.1,18.5,229.1,18.5,229.2,18.6
			C229.2,18.5,229.2,18.5,229.2,18.6 M229,18.8L229,18.8c-0.1,0.2-0.2,0.2-0.2,0.4s0,0.1,0.1,0.1s0,0,0,0c0,0,0-0.1,0.1-0.1
			c0,0,0.1-0.1,0.1-0.1c0,0,0-0.1,0-0.1l0,0c0,0,0,0-0.1,0C229,18.9,229,18.8,229,18.8C229,18.8,228.9,18.8,229,18.8 M229.1,18.4
			L229.1,18.4z M231.3,18.5L231.3,18.5c-0.1,0-0.1,0.1-0.1,0.1c0,0,0,0,0,0C231.3,18.6,231.4,18.6,231.3,18.5
			C231.4,18.5,231.4,18.5,231.3,18.5 M228.6,19.8c0,0.5,0.2,0.9,0.4,1.2l0.5-1.7l0,0v-0.1l0,0l0,0l0,0l0,0h-0.1c0,0,0,0,0,0.1
			c0-0.1-0.1-0.1-0.1-0.1l0,0c0,0-0.1,0-0.1,0.1l0,0c0,0,0.2,0,0.2,0.1c0,0,0,0,0,0.1l0,0l-0.1,0.1c0,0,0,0.1,0,0.1
			c0,0,0,0.1,0.1,0.1l0,0l0,0v0l0,0l0,0l0,0v0.1c0,0,0,0.1,0,0.1c0,0-0.1,0.1-0.1,0.1c0,0,0,0-0.1,0c0,0,0,0,0,0l0,0l0,0v0l0,0v0
			l0,0v-0.1l0,0l0,0l0,0c0,0,0,0,0,0.1c0,0,0,0.1-0.1,0.1c0,0,0,0,0,0.1c0,0,0,0,0,0.1c0,0,0,0,0,0c0,0,0,0.1,0,0.1c0,0,0,0.1,0,0.1
			v0.1c0,0,0,0,0.1,0h0.1l0,0l0,0h-0.1c0,0-0.1,0-0.1,0h-0.1v-0.1v-0.1V20c0,0,0,0,0-0.1c0,0,0,0,0-0.1v-0.1l0,0l0,0v0H229l0,0l0,0
			l0,0l0,0l0,0l0,0l0,0l0,0v-0.1c-0.1,0-0.1-0.1-0.1-0.2c0-0.1,0.2-0.2,0.2-0.4c0,0,0-0.1,0-0.1l0,0l0,0c0,0,0,0-0.1,0
			c0,0-0.1,0-0.1,0.1l0,0c0,0,0.1,0,0.1,0.1s-0.1,0.1-0.1,0.1c0,0,0,0,0,0.1c0,0-0.1,0-0.1-0.1s0-0.1,0-0.1c0,0,0,0,0-0.1
			c0-0.1,0-0.1,0.1-0.1c0,0,0,0,0,0l0,0c0,0-0.1-0.1-0.1-0.1c0,0,0,0,0.1,0c0,0-0.1-0.1-0.1-0.2h0.1c0,0-0.1-0.1-0.1-0.2
			c0,0,0.1,0.1,0.1,0.1c0,0-0.2-0.2-0.1-0.3c0,0.1,0.1,0.2,0.1,0.2l0,0l0,0c0-0.1,0-0.2,0.1-0.2c0,0.1,0,0.2,0,0.3l0,0
			c0,0,0,0.1,0,0.1l0,0c0,0,0,0.1,0.1,0.1l0,0c0,0,0-0.1,0-0.1l0,0v-0.1l0,0l0,0h0.1l0,0h0.1c0.1,0,0.1,0.1,0.1,0.1l0,0l0,0l0,0l0,0
			l0,0c0,0,0,0-0.1,0h-0.1h-0.1l0,0c0,0,0,0.1,0.1,0.1c0,0,0.1,0.1,0.1,0.1c0,0,0,0,0,0.1v-0.1l0,0c0,0,0-0.1,0-0.1c0,0,0,0.1,0,0.1
			l0,0l0,0l0,0c0,0,0-0.1,0-0.1c0,0,0-0.1,0-0.1l0,0v-0.6l0,0l0,0l0,0l0,0l0,0l0,0c0,0,0,0,0,0l0,0l0,0l0,0V18l0,0l0,0
			c0,0,0,0,0.1,0l0,0l0,0l0,0v0.1v0.1v0.1v0l0,0l0,0l0,0l0,0v-0.1v0c0,0,0,0,0,0.1l0,0c0,0,0.1,0,0.1,0.1s0-0.1-0.1,0s0,0.1-0.1,0.1
			c0,0,0,0-0.1,0v0.1c0,0-0.1,0.1-0.1,0.1l0,0c0,0,0.1,0,0.1,0h-0.1l0,0h0.1l0,0l0,0v-0.1l0,0h0.1l0.3-1.1h-1.4L228.6,19.8z
			 M230.6,21.2L230.6,21.2L230.6,21.2L230.6,21.2L230.6,21.2L230.6,21.2L230.6,21.2l-0.1,0.1h-0.1c0,0-0.1,0-0.1,0l0,0
			c-0.1,0-0.1,0-0.2,0l0,0H230l0,0h-0.1c0,0-0.1,0-0.1,0l0,0h-0.1l0,0c0.1,0,0.1,0,0.1,0s0.1,0,0.1,0s0.1,0,0.1,0s0.1,0,0.2,0
			s0.1,0,0.1,0S230.6,21.3,230.6,21.2c0,0.1,0,0.1,0.1,0.1s0,0,0.1,0c0.1-0.1,0.3-0.2,0.4-0.4h-0.7L230.6,21.2z M230,17.8L230,17.8z
			 M230.2,21.7c0.1,0,0.1,0,0.2,0l-0.1,0.1l-0.1-0.1C230.1,21.7,230.1,21.7,230.2,21.7 M230.2,21.8c0.1,0,0.2-0.1,0.3-0.1
			c-0.1,0-0.1,0-0.1,0s-0.1,0-0.2,0s-0.1,0-0.1,0s-0.1,0-0.1,0l-0.1-0.1c0,0,0.1,0,0.1,0c0.1,0,0.1,0,0.1,0s0.1,0,0.1,0s0.1,0,0.2,0
			s0.1,0,0.1,0s0.1,0,0.1,0l0,0c-0.1,0-0.1,0-0.1,0s-0.1,0-0.1,0s-0.1,0-0.2,0s-0.1,0-0.1,0s-0.1,0-0.1,0s-0.1,0-0.1,0l-0.2-0.1l0,0
			c0,0,0.1,0,0.1,0c0.1,0,0.1,0,0.1,0s0.1,0,0.1,0s0.1,0,0.1,0s0.1,0,0.2,0s0.1,0,0.1,0s0.1,0,0.1,0s0.1,0,0.2,0l0,0l0,0h-0.1
			c-0.1,0-0.1,0-0.2,0s-0.1,0-0.1,0s-0.1,0-0.1,0s-0.1,0-0.2,0s-0.1,0-0.1,0s-0.1,0-0.1,0s-0.1,0-0.1,0c0,0-0.1,0-0.1,0h-0.1l0,0
			c0,0,0,0,0.1,0l0,0l0,0l0,0l0.1-0.1l0.1-0.1l0,0v-0.2H229c0.3,0.4,0.7,0.6,1.1,0.8 M231.2,18.6L231.2,18.6z M231.3,19
			C231.3,19,231.3,19,231.3,19C231.3,19.1,231.3,19.1,231.3,19 M231.2,19.1L231.2,19.1C231.2,19.1,231.2,19.2,231.2,19.1
			c0,0.1,0.1,0.2,0.1,0.2c0,0,0.1,0.1,0.1,0.1c0,0,0,0,0,0s0-0.1,0-0.1s-0.1-0.2-0.2-0.3L231.2,19.1z"/>
		<path class="st8" d="M230.3,18.8L230.3,18.8v0.4l0.1-0.1l-0.1-0.4l0,0L230.3,18.8L230.3,18.8L230.3,18.8z M230.3,19.2h0.4H230.3
			L230.3,19.2z M230.2,19.2h-0.4l0,0l0,0h-0.1l0,0H230.2L230.2,19.2z M230.3,19.8L230.3,19.8v-0.6l-0.1,0.1l0.1,0.7l0,0l0.1-0.6
			l-0.1-0.1L230.3,19.8z M230.7,19.2h-0.4v0L230.7,19.2L230.7,19.2L230.7,19.2L230.7,19.2L230.7,19.2z M230.3,19.2L230.3,19.2
			l0.1-0.1l0,0l0,0L230.3,19.2v-0.4l0,0V19.2l-0.1-0.1l0,0v0L230.3,19.2L230.3,19.2l-0.1,0.2l0,0l0,0L230.3,19.2l0,0.6l0,0
			L230.3,19.2l0.1,0.2h0.1l0,0L230.3,19.2z M230.2,19.2L230.2,19.2h-0.3H230.2 M230.3,18.8v0.3v0.1V18.8z"/>
		<path class="st8" d="M230.1,20.3H230l0,0H230.1L230.1,20.3z M229.9,20.2L229.9,20.2l0.6,0l0,0L229.9,20.2z M230.1,20.5h-0.2v0
			L230.1,20.5L230.1,20.5z M229.9,20.5L229.9,20.5L229.9,20.5L229.9,20.5L229.9,20.5z M230,20.5L230,20.5L230,20.5L230,20.5
			L230,20.5z M230.6,20.5L230.6,20.5L230.6,20.5L230.6,20.5L230.6,20.5z M230.5,20.7h0.2v-0.1L230.5,20.7L230.5,20.7z M230.6,20.5
			h-0.1v0L230.6,20.5L230.6,20.5z M230.6,20.5L230.6,20.5L230.6,20.5L230.6,20.5L230.6,20.5z M230.4,20.4L230.4,20.4h0.1l0,0H230.4z
			 M230.1,20.6h-0.2v0.1L230.1,20.6L230.1,20.6z M230.6,21.1L230.6,21.1L230.6,21.1L230.6,21.1L230.6,21.1L230.6,21.1L230.6,21.1
			L230.6,21.1z M230.2,21.1L230.2,21.1L230.2,21.1h-0.1l0,0l0,0l0,0l-0.1,0l0,0l0,0c0,0,0,0-0.1,0l0,0h0.1h0.1
			C230.1,21.2,230.2,21.2,230.2,21.1L230.2,21.1L230.2,21.1l0.1,0l0,0l0.1,0H230.2z M230.8,21.1L230.8,21.1L230.8,21.1h-0.1l0,0l0,0
			c0,0,0,0,0,0.1l0,0c0,0-0.1,0-0.1-0.1l0,0v0l0,0L230.8,21.1L230.8,21.1L230.8,21.1l0.2,0h0.1L230.8,21.1z M230.4,21.1L230.4,21.1
			c0.1,0,0.1,0.1,0.1,0.1c0,0,0,0,0-0.1l0,0H230.4L230.4,21.1L230.4,21.1L230.4,21.1L230.4,21.1h-0.2l0,0l0,0l0,0H230.4
			C230.3,21.1,230.3,21.1,230.4,21.1L230.4,21.1C230.4,21.1,230.4,21.1,230.4,21.1 M230.7,21L230.7,21L230.7,21h-0.1l0,0l0,0l0,0
			l0,0l0,0H230.7L230.7,21L230.7,21z M229.9,21h0.3h0.2h0.4l0,0l0,0H229.9L229.9,21L229.9,21z M230.1,20.8h-0.2v0.1L230.1,20.8
			L230.1,20.8z M230,20.7L230,20.7L230,20.7L230,20.7L230,20.7z M230.6,20.7L230.6,20.7L230.6,20.7L230.6,20.7L230.6,20.7z
			 M230.2,20.8h-0.3v0.1L230.2,20.8L230.2,20.8z M230.7,21.1L230.7,21.1L230.7,21.1L230.7,21.1L230.7,21.1z M230.2,20.4h0.2l0,0
			H230.2z M230.3,20.6c0,0,0.1,0,0.1,0h0.1v-0.1L230.3,20.6L230.3,20.6z M230.4,20.5h-0.2v0.1L230.4,20.5L230.4,20.5z M230.6,20.5
			h-0.2v0.1L230.6,20.5L230.6,20.5z M230.3,20.5h0.2v0L230.3,20.5L230.3,20.5z M230.4,20.4L230.4,20.4L230.4,20.4L230.4,20.4
			L230.4,20.4z M230.3,20.4h0.1l0,0H230.3z M229.9,21L229.9,21L229.9,21L229.9,21L229.9,21L229.9,21L229.9,21L229.9,21L229.9,21
			L229.9,21L229.9,21L229.9,21L229.9,21L229.9,21L229.9,21l0.1,0l0,0l0,0l0,0l0,0h-0.4l-0.1,0.1l-0.1,0.1l0,0l0,0c0,0,0.1,0,0.1,0
			L229.9,21z M230.8,21L230.8,21L230.8,21L230.8,21L230.8,21L230.8,21L230.8,21L230.8,21L230.8,21L230.8,21L230.8,21L230.8,21
			l-0.1-0.1 M230.6,20L230.6,20L230.6,20l-0.1,0.1v0h-0.1l0,0h-0.1l0,0h-0.1v0.1h-0.1v-0.1H230v0.1h-0.1v-0.1l0,0v0.1h0.7L230.6,20z
			 M230.4,20.7c0-0.1-0.1-0.2-0.2-0.2c-0.1,0-0.1,0.1-0.1,0.2l0,0c0,0,0,0,0-0.1c0,0,0.1,0,0.1,0C230.2,20.6,230.3,20.7,230.4,20.7
			L230.4,20.7z M230.4,20.7h0.2v-0.1L230.4,20.7L230.4,20.7z M230.4,20.8h0.3v-0.1L230.4,20.8L230.4,20.8z M230.2,20.6
			c-0.1,0-0.1,0.1-0.1,0.1v0.1h0.2v-0.1C230.3,20.6,230.3,20.6,230.2,20.6C230.2,20.6,230.2,20.5,230.2,20.6 M230.1,20.7L230.1,20.7
			L230.1,20.7L230.1,20.7L230.1,20.7L230.1,20.7L230.1,20.7z M230.5,20.6h-0.2v0L230.5,20.6L230.5,20.6z M230.1,20.3h0.1v-0.1
			L230.1,20.3L230.1,20.3z M230.3,20.7h0.1v-0.1l0,0l0,0L230.3,20.7L230.3,20.7z M229.9,20.6h0.1v0L229.9,20.6L229.9,20.6z
			 M230.1,20.2H230v0.1L230.1,20.2L230.1,20.2z M230.2,20.3h-0.2v0L230.2,20.3L230.2,20.3z M230.1,20.4H230v0.1L230.1,20.4
			L230.1,20.4z M230.1,20.6c0,0,0.1-0.1,0.1-0.1l0,0L230.1,20.6L230.1,20.6L230.1,20.6L230.1,20.6z"/>
	</g>
</g>
</svg>
