<?xml version="1.0" encoding="utf-8"?>
<!-- Generator: Adobe Illustrator 26.2.1, SVG Export Plug-In . SVG Version: 6.00 Build 0)  -->
<svg version="1.1" id="Capa_1" xmlns="http://www.w3.org/2000/svg" xmlns:xlink="http://www.w3.org/1999/xlink" x="0px" y="0px"
	 viewBox="0 0 420 174" style="enable-background:new 0 0 420 174;" xml:space="preserve">
<style type="text/css">
	.st0{fill:#FFFFFF;}
</style>
<g>
	<g>
		<path class="st0" d="M4.3,160.6h1.5v10.3H4.3V160.6z"/>
		<path class="st0" d="M24.7,160.6v10.3h-1.2l-6.2-7.7v7.7h-1.5v-10.3h1.2l6.2,7.7v-7.7H24.7z"/>
		<path class="st0" d="M34.8,160.6h1.5v10.3h-1.5V160.6z"/>
		<path class="st0" d="M48.2,170.3c-0.8-0.5-1.5-1.1-1.9-1.9c-0.5-0.8-0.7-1.7-0.7-2.7c0-1,0.2-1.9,0.7-2.7c0.5-0.8,1.1-1.4,1.9-1.9
			c0.8-0.5,1.8-0.7,2.8-0.7c0.8,0,1.5,0.1,2.2,0.4c0.7,0.3,1.2,0.7,1.7,1.2l-1,0.9c-0.8-0.8-1.7-1.2-2.9-1.2c-0.8,0-1.5,0.2-2.1,0.5
			c-0.6,0.3-1.1,0.8-1.4,1.4c-0.3,0.6-0.5,1.3-0.5,2c0,0.7,0.2,1.4,0.5,2c0.3,0.6,0.8,1.1,1.4,1.4c0.6,0.3,1.3,0.5,2.1,0.5
			c1.1,0,2.1-0.4,2.9-1.2l1,0.9c-0.5,0.5-1,0.9-1.7,1.2c-0.7,0.3-1.4,0.4-2.2,0.4C50,171,49.1,170.8,48.2,170.3z"/>
		<path class="st0" d="M64.1,160.6h1.5v10.3h-1.5V160.6z"/>
		<path class="st0" d="M82.2,168.3h-5.5l-1.1,2.6h-1.5l4.6-10.3h1.5l4.7,10.3h-1.5L82.2,168.3z M81.7,167.1l-2.2-5l-2.2,5H81.7z"/>
		<path class="st0" d="M94.9,161.9h-3.5v-1.3h8.5v1.3h-3.5v9h-1.5V161.9z"/>
		<path class="st0" d="M108.5,160.6h1.5v10.3h-1.5V160.6z"/>
		<path class="st0" d="M128.9,160.6l-4.5,10.3H123l-4.5-10.3h1.6l3.7,8.4l3.7-8.4H128.9z"/>
		<path class="st0" d="M143.5,168.3H138l-1.1,2.6h-1.5l4.6-10.3h1.5l4.7,10.3h-1.5L143.5,168.3z M142.9,167.1l-2.2-5l-2.2,5H142.9z"
			/>
		<path class="st0" d="M169,170.3c-0.8-0.5-1.5-1.1-1.9-1.9c-0.5-0.8-0.7-1.7-0.7-2.7c0-1,0.2-1.9,0.7-2.7c0.5-0.8,1.1-1.4,1.9-1.9
			c0.8-0.5,1.8-0.7,2.8-0.7c0.8,0,1.5,0.1,2.2,0.4c0.7,0.3,1.2,0.7,1.7,1.2l-1,0.9c-0.8-0.8-1.7-1.2-2.9-1.2c-0.8,0-1.5,0.2-2.1,0.5
			s-1.1,0.8-1.4,1.4c-0.3,0.6-0.5,1.3-0.5,2c0,0.7,0.2,1.4,0.5,2c0.3,0.6,0.8,1.1,1.4,1.4s1.3,0.5,2.1,0.5c1.1,0,2.1-0.4,2.9-1.2
			l1,0.9c-0.5,0.5-1,0.9-1.7,1.2c-0.7,0.3-1.4,0.4-2.2,0.4C170.7,171,169.8,170.8,169,170.3z"/>
		<path class="st0" d="M193.6,160.6v10.3h-1.5v-4.6h-5.9v4.6h-1.5v-10.3h1.5v4.4h5.9v-4.4H193.6z"/>
		<path class="st0" d="M203.7,160.6h1.5v10.3h-1.5V160.6z"/>
		<path class="st0" d="M215.3,160.6h1.5v9h5.6v1.3h-7V160.6z"/>
		<path class="st0" d="M238.5,169.6v1.3h-7.4v-10.3h7.2v1.3h-5.8v3.2h5.1v1.2h-5.1v3.3H238.5z"/>
		<path class="st0" d="M157.7,165.7c0,1.1-0.9,2-2,2c-1.1,0-2-0.9-2-2c0-1.1,0.9-2,2-2C156.8,163.8,157.7,164.6,157.7,165.7z"/>
		<path class="st0" d="M260.8,170.6c-0.7-0.2-1.3-0.5-1.7-0.9l0.5-1.1c0.4,0.4,0.9,0.6,1.5,0.9c0.6,0.2,1.2,0.3,1.9,0.3
			c0.9,0,1.5-0.1,1.9-0.4c0.4-0.3,0.6-0.7,0.6-1.2c0-0.4-0.1-0.6-0.3-0.9c-0.2-0.2-0.5-0.4-0.9-0.5c-0.3-0.1-0.8-0.2-1.4-0.4
			c-0.8-0.2-1.4-0.4-1.9-0.6c-0.5-0.2-0.9-0.5-1.2-0.9c-0.3-0.4-0.5-0.9-0.5-1.6c0-0.5,0.1-1,0.4-1.5c0.3-0.4,0.7-0.8,1.3-1.1
			c0.6-0.3,1.3-0.4,2.2-0.4c0.6,0,1.2,0.1,1.8,0.2c0.6,0.2,1.1,0.4,1.5,0.7l-0.5,1.2c-0.4-0.3-0.9-0.5-1.4-0.6
			c-0.5-0.1-1-0.2-1.4-0.2c-0.8,0-1.5,0.2-1.9,0.5c-0.4,0.3-0.6,0.7-0.6,1.2c0,0.4,0.1,0.6,0.4,0.9c0.2,0.2,0.5,0.4,0.9,0.5
			c0.3,0.1,0.8,0.3,1.4,0.4c0.8,0.2,1.4,0.4,1.9,0.6c0.5,0.2,0.9,0.5,1.2,0.9c0.3,0.4,0.5,0.9,0.5,1.5c0,0.5-0.1,1-0.4,1.5
			c-0.3,0.4-0.7,0.8-1.3,1.1c-0.6,0.3-1.3,0.4-2.2,0.4C262.2,171,261.5,170.9,260.8,170.6z"/>
		<path class="st0" d="M278,170.3c-0.8-0.5-1.5-1.1-2-1.9s-0.7-1.7-0.7-2.7c0-1,0.2-1.9,0.7-2.7c0.5-0.8,1.1-1.4,2-1.9
			c0.8-0.5,1.8-0.7,2.8-0.7c1,0,2,0.2,2.8,0.7c0.8,0.5,1.5,1.1,1.9,1.9c0.5,0.8,0.7,1.7,0.7,2.7c0,1-0.2,1.9-0.7,2.7
			c-0.5,0.8-1.1,1.4-1.9,1.9c-0.8,0.5-1.8,0.7-2.8,0.7C279.7,171,278.8,170.8,278,170.3z M282.8,169.2c0.6-0.3,1.1-0.8,1.4-1.4
			c0.3-0.6,0.5-1.3,0.5-2c0-0.7-0.2-1.4-0.5-2c-0.3-0.6-0.8-1.1-1.4-1.4c-0.6-0.3-1.3-0.5-2-0.5c-0.8,0-1.4,0.2-2,0.5
			c-0.6,0.3-1.1,0.8-1.4,1.4c-0.3,0.6-0.5,1.3-0.5,2c0,0.7,0.2,1.4,0.5,2c0.3,0.6,0.8,1.1,1.4,1.4c0.6,0.3,1.3,0.5,2,0.5
			C281.5,169.7,282.2,169.5,282.8,169.2z"/>
		<path class="st0" d="M296.2,170.6c-0.7-0.2-1.3-0.5-1.7-0.9l0.5-1.1c0.4,0.4,0.9,0.6,1.5,0.9c0.6,0.2,1.2,0.3,1.9,0.3
			c0.9,0,1.5-0.1,1.9-0.4c0.4-0.3,0.6-0.7,0.6-1.2c0-0.4-0.1-0.6-0.3-0.9c-0.2-0.2-0.5-0.4-0.9-0.5c-0.3-0.1-0.8-0.2-1.4-0.4
			c-0.8-0.2-1.4-0.4-1.9-0.6c-0.5-0.2-0.9-0.5-1.2-0.9c-0.3-0.4-0.5-0.9-0.5-1.6c0-0.5,0.1-1,0.4-1.5c0.3-0.4,0.7-0.8,1.3-1.1
			c0.6-0.3,1.3-0.4,2.2-0.4c0.6,0,1.2,0.1,1.8,0.2c0.6,0.2,1.1,0.4,1.5,0.7l-0.5,1.2c-0.4-0.3-0.9-0.5-1.4-0.6
			c-0.5-0.1-1-0.2-1.4-0.2c-0.8,0-1.5,0.2-1.9,0.5c-0.4,0.3-0.6,0.7-0.6,1.2c0,0.4,0.1,0.6,0.4,0.9c0.2,0.2,0.5,0.4,0.9,0.5
			c0.3,0.1,0.8,0.3,1.4,0.4c0.8,0.2,1.4,0.4,1.9,0.6c0.5,0.2,0.9,0.5,1.2,0.9c0.3,0.4,0.5,0.9,0.5,1.5c0,0.5-0.1,1-0.4,1.5
			c-0.3,0.4-0.7,0.8-1.3,1.1c-0.6,0.3-1.3,0.4-2.2,0.4C297.7,171,297,170.9,296.2,170.6z"/>
		<path class="st0" d="M313.5,161.9H310v-1.3h8.5v1.3H315v9h-1.5V161.9z"/>
		<path class="st0" d="M334.6,169.6v1.3h-7.4v-10.3h7.2v1.3h-5.8v3.2h5.1v1.2h-5.1v3.3H334.6z"/>
		<path class="st0" d="M352.8,160.6v10.3h-1.2l-6.2-7.7v7.7H344v-10.3h1.2l6.2,7.7v-7.7H352.8z"/>
		<path class="st0" d="M362.9,160.6h1.5v10.3h-1.5V160.6z"/>
		<path class="st0" d="M382.8,166.4c0.3,0.4,0.5,1,0.5,1.6c0,0.9-0.3,1.6-1,2.1c-0.7,0.5-1.6,0.7-2.9,0.7h-4.9v-10.3h4.6
			c1.2,0,2.1,0.2,2.7,0.7c0.6,0.5,1,1.1,1,1.9c0,0.5-0.1,1-0.4,1.4c-0.2,0.4-0.6,0.7-1,0.9C382,165.7,382.5,166,382.8,166.4z
			 M376,161.8v3.3h3c0.8,0,1.3-0.1,1.7-0.4c0.4-0.3,0.6-0.7,0.6-1.2c0-0.5-0.2-0.9-0.6-1.2c-0.4-0.3-1-0.4-1.7-0.4H376z
			 M381.2,169.3c0.4-0.3,0.6-0.7,0.6-1.3c0-1.1-0.8-1.7-2.5-1.7H376v3.4h3.4C380.2,169.7,380.8,169.5,381.2,169.3z"/>
		<path class="st0" d="M392.6,160.6h1.5v9h5.6v1.3h-7V160.6z"/>
		<path class="st0" d="M415.8,169.6v1.3h-7.4v-10.3h7.2v1.3h-5.8v3.2h5.1v1.2h-5.1v3.3H415.8z"/>
		<path class="st0" d="M250.9,165.7c0,1.1-0.9,2-2,2c-1.1,0-2-0.9-2-2c0-1.1,0.9-2,2-2C250,163.8,250.9,164.6,250.9,165.7z"/>
	</g>
	<polygon class="st0" points="415.6,3 4.2,3 4.2,38.3 14.2,38.3 14.2,13 405.6,13 405.6,136.1 371.3,136.1 371.3,146.1 415.6,146.1 
			"/>
	<path class="st0" d="M76.8,140.3c-7-3.8-12.5-9.2-16.4-16c-4-6.8-6-14.4-6-22.9s2-16.1,6-22.9c4-6.8,9.5-12.1,16.5-16
		c7-3.8,14.9-5.8,23.6-5.8c6.5,0,12.5,1.1,18,3.3c5.5,2.2,10.2,5.3,14,9.5l-5.9,5.9c-6.9-6.9-15.5-10.4-25.9-10.4
		c-6.9,0-13.2,1.6-18.9,4.8c-5.7,3.2-10.1,7.5-13.4,13c-3.2,5.5-4.8,11.7-4.8,18.6c0,6.9,1.6,13,4.8,18.6c3.2,5.5,7.7,9.9,13.4,13
		c5.7,3.2,12,4.8,18.9,4.8c10.5,0,19.2-3.5,25.9-10.5l5.9,5.9c-3.8,4.2-8.5,7.4-14.1,9.6c-5.6,2.2-11.6,3.3-18.1,3.3
		C91.7,146.1,83.8,144.1,76.8,140.3z"/>
	<path class="st0" d="M245.8,58.3v87.7h-9.1v-40.5h-54.9v40.5h-9.3V58.3h9.3v39.1h54.9V58.3H245.8z"/>
	<path class="st0" d="M299.8,142.9c-6-2.1-10.6-4.8-13.9-8.3l3.6-7.1c3.2,3.2,7.4,5.7,12.7,7.7c5.3,2,10.7,2.9,16.3,2.9
		c7.9,0,13.7-1.4,17.7-4.3c3.9-2.9,5.9-6.6,5.9-11.2c0-3.5-1.1-6.3-3.2-8.4c-2.1-2.1-4.7-3.7-7.8-4.8c-3.1-1.1-7.4-2.4-12.9-3.7
		c-6.6-1.7-11.9-3.3-15.8-4.8c-3.9-1.5-7.3-3.9-10.1-7.1c-2.8-3.2-4.2-7.5-4.2-12.9c0-4.4,1.2-8.5,3.5-12.1s5.9-6.5,10.8-8.7
		c4.8-2.2,10.9-3.3,18-3.3c5,0,9.9,0.7,14.7,2.1c4.8,1.4,9,3.3,12.5,5.7l-3.1,7.4c-3.7-2.4-7.6-4.2-11.8-5.5
		c-4.2-1.2-8.3-1.8-12.3-1.8c-7.7,0-13.5,1.5-17.4,4.4c-3.9,3-5.8,6.8-5.8,11.5c0,3.5,1.1,6.3,3.2,8.5c2.1,2.1,4.8,3.8,8,4.9
		c3.2,1.1,7.5,2.4,13,3.7c6.4,1.6,11.6,3.2,15.6,4.7c4,1.5,7.3,3.9,10.1,7c2.8,3.1,4.1,7.4,4.1,12.7c0,4.4-1.2,8.5-3.6,12.1
		c-2.4,3.6-6,6.5-11,8.7c-4.9,2.1-11,3.2-18.2,3.2C312.1,146.1,305.8,145,299.8,142.9z"/>
	<path class="st0" d="M4.3,58.3h9.3v87.7H4.3V58.3z"/>
</g>
</svg>
