<?xml version="1.0" encoding="utf-8"?>
<!-- Generator: Adobe Illustrator 26.2.1, SVG Export Plug-In . SVG Version: 6.00 Build 0)  -->
<svg version="1.1" id="Capa_1" xmlns="http://www.w3.org/2000/svg" xmlns:xlink="http://www.w3.org/1999/xlink" x="0px" y="0px"
	 viewBox="0 0 90 25" style="enable-background:new 0 0 90 25;" xml:space="preserve">
<style type="text/css">
	.st0{fill:#FCB711;}
	.st1{fill:#FFFFFF;}
</style>
<g>
	<g>
		<g>
			<path class="st0" d="M36.9,7.2c0.6-0.5,1.5-0.3,1.9,0.3c0.4,0.6,0.3,1.4-0.3,1.9c-0.6,0.5-1.5,0.3-1.9-0.3
				C36.2,8.6,36.3,7.7,36.9,7.2"/>
		</g>
	</g>
	<g>
		<rect x="24.6" y="12.8" transform="matrix(0.805 -0.5932 0.5932 0.805 -2.3501 20.5707)" class="st0" width="11" height="2.2"/>
	</g>
	<g>
		<path class="st1" d="M36.7,10.5h2.2v0.8c0.5-0.7,1.2-1,2.1-1c1,0,1.7,0.4,2.1,1.3c0.6-0.9,1.5-1.3,2.7-1.3c1.7,0,2.8,1.2,2.8,3.1
			v4.5h-2.2v-4.3c0-0.8-0.3-1.3-1.2-1.3c-1,0-1.5,0.6-1.5,1.7v4h-2.2v-4.3c0-0.8-0.3-1.3-1.2-1.3c-1,0-1.5,0.6-1.5,1.7v4h-2.2V10.5z
			"/>
		<path class="st1" d="M50.2,10.5h2.2v0.8c0.4-0.6,1.2-1,2.3-1c1.9,0,3.5,1.6,3.5,3.9s-1.6,3.9-3.5,3.9c-1.1,0-1.9-0.4-2.3-1v5.4
			h-2.2V10.5z M56,14.2c0-1.2-0.7-2-1.8-2c-1.1,0-1.8,0.8-1.8,2s0.7,2,1.8,2C55.2,16.2,56,15.4,56,14.2z"/>
		<path class="st1" d="M62.7,12.1c-0.8,0-1.3,0.3-1.8,0.8l-1.3-1.2c0.8-0.9,1.9-1.4,3.2-1.4c2.1,0,3.4,1.1,3.4,3.3v4.3H64v-0.7
			c-0.5,0.6-1.2,0.9-2.1,0.9c-1.5,0-2.8-0.7-2.8-2.5c0-1.5,1.3-2.2,2.9-2.2H64C64,12.5,63.4,12.1,62.7,12.1z M62.2,14.9
			c-0.6,0-0.9,0.3-0.9,0.7c0,0.4,0.3,0.7,1,0.7c1,0,1.7-0.5,1.7-1.1v-0.3H62.2z"/>
		<path class="st1" d="M67.6,14.2c0-2.3,1.7-3.9,3.9-3.9c1.5,0,2.4,0.5,3.1,1.3l-1.4,1.3c-0.4-0.4-0.9-0.7-1.6-0.7
			c-1.1,0-1.7,0.9-1.7,2c0,1.1,0.6,2,1.8,2c0.8,0,1.3-0.4,1.7-0.8l1.4,1.3c-0.7,0.8-1.6,1.4-3.2,1.4C69.2,18.1,67.6,16.4,67.6,14.2z
			"/>
		<path class="st1" d="M75.6,12.3v-1.8h0.9V5.7h2.2v4.8h1.7v1.8h-1.7v3c0,0.8,0.2,0.9,0.6,0.9c0.3,0,0.5-0.1,0.6-0.3l0.8,1.5
			c-0.4,0.3-1,0.6-1.9,0.6c-1.4,0-2.4-0.7-2.4-2.8v-3.1H75.6z"/>
		<path class="st1" d="M84.9,12.1c-0.8,0-1.3,0.3-1.8,0.8l-1.3-1.2c0.8-0.9,1.9-1.4,3.2-1.4c2.1,0,3.4,1.1,3.4,3.3v4.3h-2.2v-0.7
			c-0.5,0.6-1.2,0.9-2.1,0.9c-1.5,0-2.8-0.7-2.8-2.5c0-1.5,1.3-2.2,2.9-2.2h1.9C86.2,12.5,85.6,12.1,84.9,12.1z M84.4,14.9
			c-0.6,0-0.9,0.3-0.9,0.7c0,0.4,0.3,0.7,1,0.7c1,0,1.7-0.5,1.7-1.1v-0.3H84.4z"/>
	</g>
	<g>
		<path class="st1" d="M1.6,10.5h2.2v1.1c0.5-1,1.3-1.3,2.1-1.3c0.5,0,0.9,0.2,1.2,0.3l-0.7,1.9c-0.3-0.2-0.6-0.2-0.9-0.2
			c-1,0-1.7,0.6-1.7,2.2v3.5H1.6V10.5z"/>
		<path class="st1" d="M11.7,16.3c1,0,1.5-0.4,1.9-0.7l1.3,1.3c-0.7,0.7-1.6,1.2-3.2,1.2c-2.6,0-4.2-1.6-4.2-3.9s1.8-3.9,4-3.9
			c2.6,0,4.1,2.1,3.9,4.6H9.8C10,15.7,10.6,16.3,11.7,16.3z M13.2,13.4c-0.2-0.8-0.7-1.3-1.6-1.3c-0.9,0-1.5,0.5-1.7,1.3H13.2z"/>
		<path class="st1" d="M16.6,14.2c0-2.3,1.6-3.9,3.5-3.9c1.1,0,1.9,0.4,2.3,1V2.5h2.2v15.4h-2.2V17c-0.4,0.6-1.2,1-2.3,1
			C18.1,18.1,16.6,16.4,16.6,14.2z M22.4,14.2c0-1.2-0.7-2-1.8-2s-1.8,0.8-1.8,2s0.7,2,1.8,2S22.4,15.4,22.4,14.2z"/>
	</g>
</g>
</svg>
