<?xml version="1.0" encoding="utf-8"?>
<!-- Generator: Adobe Illustrator 26.0.1, SVG Export Plug-In . SVG Version: 6.00 Build 0)  -->
<svg version="1.1" id="Capa_1" xmlns="http://www.w3.org/2000/svg" xmlns:xlink="http://www.w3.org/1999/xlink" x="0px" y="0px"
	 viewBox="0 0 448 512" style="enable-background:new 0 0 448 512;" xml:space="preserve">
<style type="text/css">
	.st0{fill:#FFFFFF;}
</style>
<path class="st0" d="M400,32H48C21.5,32,0,53.5,0,80v352c0,26.5,21.5,48,48,48h352c26.5,0,48-21.5,48-48V80
	C448,53.5,426.5,32,400,32z M160,368c0,8.8-7.2,16-16,16h-32c-8.8,0-16-7.2-16-16V240c0-8.8,7.2-16,16-16h32c8.8,0,16,7.2,16,16V368
	z M256,368c0,8.8-7.2,16-16,16h-32c-8.8,0-16-7.2-16-16V144c0-8.8,7.2-16,16-16h32c8.8,0,16,7.2,16,16V368z M352,368
	c0,8.8-7.2,16-16,16h-32c-8.8,0-16-7.2-16-16v-64c0-8.8,7.2-16,16-16h32c8.8,0,16,7.2,16,16V368z"/>
</svg>
