<svg xmlns="http://www.w3.org/2000/svg" width="525" height="286.522" viewBox="0 0 525 286.522"><defs><style>.a{fill:#1d3250;}.b{fill:#5db747;}.c{fill:#dda637;}.d{fill:#c1202e;}.e{fill:#4a9e46;}.f{fill:#3f7e44;}.g{fill:#f5c01b;}.h{fill:#ee3f2a;}.i{fill:#f89d28;}.j{fill:#1d93d1;}.k{fill:#9f1c45;}.l{fill:#2cbadf;}.m{fill:#f26b2e;}.n{fill:#e2243e;}.o{fill:#da1868;}.p{fill:#124a6c;}.q{fill:#bb882c;}.r{fill:#006b9b;}</style></defs><g transform="translate(-65 -23.387)"><g transform="translate(65 23.387)"><rect class="a" width="271.556" height="17.85" transform="translate(0 268.672)"/><rect class="a" width="271.556" height="17.85"/><g transform="translate(0 33.712)"><path class="a" d="M86.9,123.271a15.043,15.043,0,0,0,4.578,5.374,19.715,19.715,0,0,0,6.7,3.049,31.565,31.565,0,0,0,7.961,1,41.557,41.557,0,0,0,5.969-.462,20.8,20.8,0,0,0,5.969-1.791,13.055,13.055,0,0,0,4.643-3.65,9.148,9.148,0,0,0,1.857-5.9,8.312,8.312,0,0,0-2.457-6.237,19.435,19.435,0,0,0-6.428-3.978,64.084,64.084,0,0,0-9.021-2.786q-5.048-1.194-10.219-2.655a89.731,89.731,0,0,1-10.347-3.25,35.365,35.365,0,0,1-9.021-4.974,23.481,23.481,0,0,1-6.435-7.628A23.137,23.137,0,0,1,68.193,78.3,24.779,24.779,0,0,1,71.31,65.632a28.211,28.211,0,0,1,8.155-8.956,35.638,35.638,0,0,1,11.413-5.306,48.625,48.625,0,0,1,12.734-1.724,60.346,60.346,0,0,1,14.26,1.659,35.574,35.574,0,0,1,12.138,5.372,27.231,27.231,0,0,1,8.426,9.487,29.127,29.127,0,0,1,3.117,13.994H121.39a16.9,16.9,0,0,0-1.791-7.029,11.733,11.733,0,0,0-4.048-4.378,17.156,17.156,0,0,0-5.77-2.257,35.79,35.79,0,0,0-7.1-.664,24.517,24.517,0,0,0-5.038.532,13.51,13.51,0,0,0-4.578,1.859,11.467,11.467,0,0,0-3.382,3.314,8.916,8.916,0,0,0-1.326,5.044,8.5,8.5,0,0,0,1.06,4.508,9.438,9.438,0,0,0,4.178,3.184,52.971,52.971,0,0,0,8.621,2.92q5.506,1.46,14.4,3.713,2.65.533,7.364,1.923a35.531,35.531,0,0,1,9.352,4.446,28.368,28.368,0,0,1,8.026,8.158q3.386,5.109,3.382,13.066a28.969,28.969,0,0,1-2.522,12.074,26.211,26.211,0,0,1-7.5,9.616,36.014,36.014,0,0,1-12.333,6.3,58.4,58.4,0,0,1-17.053,2.253,59.988,59.988,0,0,1-15.185-1.921,38.2,38.2,0,0,1-13-6.037,29.77,29.77,0,0,1-8.95-10.479,31.232,31.232,0,0,1-3.188-15.127H85.169A17.378,17.378,0,0,0,86.9,123.271Z" transform="translate(-65 -49.645)"/><path class="a" d="M177.574,51.4a48.827,48.827,0,0,1,17.046,2.92,37.072,37.072,0,0,1,13.664,8.756,40.512,40.512,0,0,1,9.022,14.593,59.141,59.141,0,0,1,3.247,20.562,65.64,65.64,0,0,1-2.653,19.1,42.1,42.1,0,0,1-8.024,15.123,37.638,37.638,0,0,1-13.4,10.017,45.333,45.333,0,0,1-18.9,3.648H136.71V51.4Zm-1.461,77.208a26.7,26.7,0,0,0,8.756-1.459,19.273,19.273,0,0,0,7.56-4.84,24.353,24.353,0,0,0,5.309-8.824,38.806,38.806,0,0,0,1.986-13.264,55.138,55.138,0,0,0-1.39-12.937,25.79,25.79,0,0,0-4.578-9.882,20.32,20.32,0,0,0-8.421-6.3A33.652,33.652,0,0,0,172.4,68.913H157.54v59.7Z" transform="translate(-44.642 -49.146)"/><path class="a" d="M268.234,145.889a34.907,34.907,0,0,1-13.664,2.852A48.55,48.55,0,0,1,235,144.961a41.948,41.948,0,0,1-14.661-10.412,46.11,46.11,0,0,1-9.15-15.588,57.245,57.245,0,0,1-3.181-19.3,59.218,59.218,0,0,1,3.181-19.7,47.335,47.335,0,0,1,9.15-15.854A41.931,41.931,0,0,1,235,53.493a47.833,47.833,0,0,1,19.569-3.848A46.134,46.134,0,0,1,268.7,51.834a40.046,40.046,0,0,1,12.333,6.435A34.731,34.731,0,0,1,294.5,83.076H274.6q-1.855-7.959-7.159-11.941a20.859,20.859,0,0,0-12.868-3.978,24.314,24.314,0,0,0-11.939,2.719,22.519,22.519,0,0,0-7.96,7.3,31.8,31.8,0,0,0-4.442,10.415,51.652,51.652,0,0,0-1.4,12.071,48.031,48.031,0,0,0,1.4,11.608,31.15,31.15,0,0,0,4.442,10.149,22.728,22.728,0,0,0,7.96,7.231,24.314,24.314,0,0,0,11.939,2.719q10.349,0,15.986-5.242t6.565-15.187H256.16V95.412h39.8V146.62H282.693l-2.121-10.745A31.242,31.242,0,0,1,268.234,145.889Z" transform="translate(-24.401 -49.645)"/></g><g transform="translate(0 146.526)"><path class="a" d="M96.263,137.473l19.366,51.786H103.8L99.89,177.726H80.524l-4.06,11.533H65l19.588-51.786Zm.654,31.769-6.53-19h-.144l-6.746,19Z" transform="translate(-65 -136.238)"/><path class="a" d="M141.65,151.563a11.485,11.485,0,0,0-2.536-2.866,11.728,11.728,0,0,0-3.449-1.922,11.847,11.847,0,0,0-4.022-.689,13.274,13.274,0,0,0-6.53,1.487,12.368,12.368,0,0,0-4.352,3.99,17.552,17.552,0,0,0-2.429,5.693,28.23,28.23,0,0,0-.761,6.6,26.255,26.255,0,0,0,.761,6.346,17.234,17.234,0,0,0,2.429,5.549,12.5,12.5,0,0,0,4.352,3.954,13.274,13.274,0,0,0,6.53,1.487A10.544,10.544,0,0,0,139.8,178a14.747,14.747,0,0,0,3.585-8.412h11.027a26.231,26.231,0,0,1-2.249,8.775,21.124,21.124,0,0,1-4.784,6.672,20.385,20.385,0,0,1-6.968,4.21,25.518,25.518,0,0,1-8.772,1.451,26.56,26.56,0,0,1-10.7-2.068,22.873,22.873,0,0,1-8.01-5.7,25.24,25.24,0,0,1-5.007-8.52,31.227,31.227,0,0,1-1.738-10.555,32.281,32.281,0,0,1,1.738-10.769,25.946,25.946,0,0,1,5.007-8.67,22.914,22.914,0,0,1,8.01-5.8,27.759,27.759,0,0,1,18.791-.869,21.941,21.941,0,0,1,6.817,3.588,19.423,19.423,0,0,1,4.964,5.84,20.891,20.891,0,0,1,2.47,7.977H142.957A9.335,9.335,0,0,0,141.65,151.563Z" transform="translate(-53.308 -136.511)"/><path class="a" d="M146.632,147.046v-9.573h42.433v9.573H173.541v42.213H162.156V147.046Z" transform="translate(-41.825 -136.238)"/><path class="a" d="M195.7,137.473v51.786H184.315V137.473Z" transform="translate(-31.127 -136.238)"/><path class="a" d="M253.761,137.473l21.616,34.74h.144v-34.74h10.66v51.786H274.795l-21.544-34.67h-.144v34.67h-10.66V137.473Z" transform="translate(-14.624 -136.238)"/></g><g transform="translate(170.94 148.19)"><path class="b" d="M210.64,154.587a14.6,14.6,0,0,1,2.3-2.962l-7.548-8.277a25.891,25.891,0,0,0-4.793,6.238Z" transform="translate(-197.444 -136.235)"/><path class="c" d="M222.833,149.861A14.432,14.432,0,0,1,226,151.845l7.569-8.264a25.743,25.743,0,0,0-6.708-4.185Z" transform="translate(-191.132 -137.357)"/><path class="d" d="M238.553,149.486l-10.032,5a14.331,14.331,0,0,1,1,3.545l11.161-1.053a25.385,25.385,0,0,0-2.133-7.493" transform="translate(-189.518 -134.493)"/><path class="e" d="M228.452,154.734l10.032-5a25.759,25.759,0,0,0-4.689-6.223l-7.569,8.262a14.567,14.567,0,0,1,2.225,2.962" transform="translate(-190.169 -136.189)"/><path class="f" d="M209.344,158.175c0-.226.008-.451.018-.675l-11.163-1c-.035.553-.056,1.111-.056,1.674a25.764,25.764,0,0,0,.76,6.209l10.782-3.093a14.483,14.483,0,0,1-.34-3.116" transform="translate(-198.142 -132.501)"/><path class="g" d="M227.469,164.951a14.674,14.674,0,0,1-2.723,2.561l5.893,9.543a25.914,25.914,0,0,0,5.772-5.36Z" transform="translate(-190.589 -130.102)"/><path class="h" d="M229.5,158.154a14.329,14.329,0,0,1-.333,3.08l10.781,3.1a25.584,25.584,0,0,0,.755-6.177c0-.529-.018-1.053-.051-1.577l-11.162,1.054c.006.175.01.348.01.523" transform="translate(-189.334 -132.48)"/><path class="i" d="M211.54,165.118l-8.922,6.782a25.909,25.909,0,0,0,5.826,5.277l5.893-9.533a14.614,14.614,0,0,1-2.8-2.525" transform="translate(-196.871 -130.055)"/><path class="j" d="M209.48,157.924a14.321,14.321,0,0,1,1.068-3.6l-10.028-5a25.491,25.491,0,0,0-2.213,7.59Z" transform="translate(-198.095 -134.536)"/><path class="k" d="M230.33,177.158l-5.885-9.53a14.382,14.382,0,0,1-3.436,1.4l2.077,11.025a25.506,25.506,0,0,0,7.244-2.89" transform="translate(-191.65 -129.342)"/><path class="l" d="M229.178,161.42a14.453,14.453,0,0,1-1.566,3.226l8.95,6.751a25.567,25.567,0,0,0,3.388-6.882Z" transform="translate(-189.776 -131.105)"/><path class="m" d="M221.066,168.966a14.3,14.3,0,0,1-3.775.053l-2.075,11.023a25.8,25.8,0,0,0,7.924-.062Z" transform="translate(-193.295 -128.962)"/><path class="n" d="M218.868,149.028a14.316,14.316,0,0,1,3.582.692l4.026-10.465a25.5,25.5,0,0,0-7.608-1.439Z" transform="translate(-192.258 -137.806)"/><path class="o" d="M217.681,169.089a14.389,14.389,0,0,1-3.555-1.344l-5.9,9.537a25.574,25.574,0,0,0,7.377,2.821Z" transform="translate(-195.278 -129.309)"/><path class="p" d="M215.652,149.67a14.376,14.376,0,0,1,3.659-.651V137.808a25.613,25.613,0,0,0-7.712,1.406Z" transform="translate(-194.322 -137.808)"/><path class="q" d="M211.562,164.871a14.4,14.4,0,0,1-1.708-3.424l-10.773,3.092a25.55,25.55,0,0,0,3.558,7.113Z" transform="translate(-197.875 -131.097)"/><path class="r" d="M212.828,151.684a14.464,14.464,0,0,1,3.106-1.878l-4.052-10.452a25.683,25.683,0,0,0-6.607,4.047Z" transform="translate(-196.117 -137.369)"/></g><g transform="translate(0 211.098)"><path class="a" d="M76.9,186.934l9,26.456h.109l8.511-26.456h11.908V225.4H98.51V198.141h-.1L88.977,225.4H82.456l-9.429-27h-.109v27H65V186.934Z" transform="translate(-65 -186.015)"/><path class="a" d="M123.138,186.934,137.523,225.4H128.74l-2.909-8.566H111.447l-3.018,8.566H99.918l14.547-38.469Zm.485,23.6-4.851-14.116h-.105l-5.012,14.116Z" transform="translate(-55.087 -186.015)"/><path class="a" d="M140.215,186.934l16.058,25.809h.109V186.934H164.3V225.4h-8.456l-16.005-25.755h-.108V225.4h-7.919V186.934Z" transform="translate(-46.033 -186.015)"/><path class="a" d="M182.981,186.934,197.364,225.4h-8.782l-2.909-8.566H171.288l-3.017,8.566h-8.512l14.548-38.469Zm.484,23.6-4.851-14.116h-.1L173.5,210.529Z" transform="translate(-38.099 -186.015)"/><path class="a" d="M214.814,225.311a14.215,14.215,0,0,1-5.552,1.159,19.72,19.72,0,0,1-7.945-1.539,16.993,16.993,0,0,1-5.955-4.23,18.769,18.769,0,0,1-3.719-6.33,23.274,23.274,0,0,1-1.29-7.837,24.1,24.1,0,0,1,1.29-8,19.312,19.312,0,0,1,3.719-6.439,16.938,16.938,0,0,1,5.955-4.307,19.342,19.342,0,0,1,7.945-1.566,18.715,18.715,0,0,1,5.738.891,16.311,16.311,0,0,1,5.014,2.611,14.131,14.131,0,0,1,5.469,10.076H217.4a8.1,8.1,0,0,0-2.909-4.851,8.464,8.464,0,0,0-5.227-1.615,9.881,9.881,0,0,0-4.845,1.1,9.183,9.183,0,0,0-3.235,2.965,12.91,12.91,0,0,0-1.805,4.23,21.083,21.083,0,0,0-.566,4.9,19.656,19.656,0,0,0,.566,4.714,12.6,12.6,0,0,0,1.805,4.117,9.214,9.214,0,0,0,3.235,2.936,9.824,9.824,0,0,0,4.845,1.109,9.169,9.169,0,0,0,6.493-2.131,9.265,9.265,0,0,0,2.671-6.168h-8.516v-6.306h16.167v20.8h-5.389l-.864-4.366A12.658,12.658,0,0,1,214.814,225.311Z" transform="translate(-29.413 -186.218)"/><path class="a" d="M252.278,186.934v7.113H231.963v8.239H250.6v6.575H231.963v9.429h20.745V225.4h-29.2V186.934Z" transform="translate(-20.001 -186.015)"/><path class="a" d="M271.443,186.934a12.39,12.39,0,0,1,4.661.832,10.718,10.718,0,0,1,3.556,2.289,9.971,9.971,0,0,1,2.262,3.371,10.767,10.767,0,0,1,.783,4.121,11.545,11.545,0,0,1-1.43,5.874,8.942,8.942,0,0,1-4.659,3.77v.108a6.558,6.558,0,0,1,2.587,1.321,7.262,7.262,0,0,1,1.67,2.1,9.872,9.872,0,0,1,.945,2.671,23.439,23.439,0,0,1,.4,2.909c.036.611.072,1.325.109,2.153s.1,1.67.185,2.534a16.925,16.925,0,0,0,.434,2.448,5.663,5.663,0,0,0,.887,1.968H275.38a14.856,14.856,0,0,1-.864-4.367q-.162-2.533-.484-4.847a7.675,7.675,0,0,0-1.832-4.42q-1.406-1.4-4.58-1.4h-8.461V225.4H250.7V186.934Zm-3.017,17.4a6.391,6.391,0,0,0,4.367-1.294,5.37,5.37,0,0,0,1.452-4.2,5.139,5.139,0,0,0-1.452-4.067,6.5,6.5,0,0,0-4.367-1.267h-9.267v10.832Z" transform="translate(-12.28 -186.015)"/></g></g><g transform="translate(385.049 23.754)"><path class="a" d="M316.615,23.673a5.335,5.335,0,0,1,1.868.32,4.072,4.072,0,0,1,1.5.959,4.458,4.458,0,0,1,.989,1.6,6.526,6.526,0,0,1,.354,2.253,7.242,7.242,0,0,1-.289,2.094,4.668,4.668,0,0,1-.881,1.656,4.111,4.111,0,0,1-1.467,1.1,4.974,4.974,0,0,1-2.073.4h-4.478V23.673Zm-.159,8.461a2.932,2.932,0,0,0,.96-.159,2.126,2.126,0,0,0,.829-.532,2.661,2.661,0,0,0,.579-.967,4.2,4.2,0,0,0,.218-1.453,6.219,6.219,0,0,0-.15-1.417,2.852,2.852,0,0,0-.5-1.084,2.238,2.238,0,0,0-.923-.691,3.71,3.71,0,0,0-1.417-.24h-1.629v6.543Z" transform="translate(-312.137 -23.673)"/><path class="a" d="M322.424,31.661a2.116,2.116,0,0,0,2.414.14,1.306,1.306,0,0,0,.551-.662h1.818a3.45,3.45,0,0,1-1.338,1.935,3.951,3.951,0,0,1-2.18.58,4.278,4.278,0,0,1-1.6-.284,3.331,3.331,0,0,1-1.207-.806,3.645,3.645,0,0,1-.763-1.252,4.555,4.555,0,0,1-.271-1.6,4.371,4.371,0,0,1,.279-1.57,3.62,3.62,0,0,1,2-2.093,3.878,3.878,0,0,1,1.563-.306,3.582,3.582,0,0,1,1.672.371,3.313,3.313,0,0,1,1.17,1,4.083,4.083,0,0,1,.663,1.425,5.266,5.266,0,0,1,.145,1.672h-5.421A2.07,2.07,0,0,0,322.424,31.661Zm2.332-3.953a1.443,1.443,0,0,0-1.125-.408,1.8,1.8,0,0,0-.823.168,1.578,1.578,0,0,0-.523.415,1.519,1.519,0,0,0-.275.523,2.13,2.13,0,0,0-.094.5h3.356A2.358,2.358,0,0,0,324.756,27.708Z" transform="translate(-309.948 -23.085)"/><path class="a" d="M328.425,33.42,325.852,25.9h2.163l1.587,5.132h.03l1.584-5.132h2.049l-2.543,7.516Z" transform="translate(-308.243 -23.04)"/><path class="a" d="M334.358,31.661a2.116,2.116,0,0,0,2.414.14,1.306,1.306,0,0,0,.551-.662h1.818a3.45,3.45,0,0,1-1.338,1.935,3.951,3.951,0,0,1-2.18.58,4.278,4.278,0,0,1-1.6-.284,3.331,3.331,0,0,1-1.207-.806,3.646,3.646,0,0,1-.763-1.252,4.556,4.556,0,0,1-.271-1.6,4.371,4.371,0,0,1,.279-1.57,3.619,3.619,0,0,1,2-2.093,3.877,3.877,0,0,1,1.563-.306,3.582,3.582,0,0,1,1.672.371,3.311,3.311,0,0,1,1.17,1,4.081,4.081,0,0,1,.663,1.425,5.3,5.3,0,0,1,.145,1.672h-5.421A2.07,2.07,0,0,0,334.358,31.661Zm2.332-3.953a1.443,1.443,0,0,0-1.125-.408,1.8,1.8,0,0,0-.823.168,1.579,1.579,0,0,0-.523.415,1.521,1.521,0,0,0-.275.523,2.131,2.131,0,0,0-.094.5h3.356A2.358,2.358,0,0,0,336.69,27.708Z" transform="translate(-306.56 -23.085)"/><path class="a" d="M340.449,23.673v10.38h-2.065V23.673Z" transform="translate(-304.685 -23.673)"/><path class="a" d="M341.131,28.078a3.435,3.435,0,0,1,2.005-2.05,4.686,4.686,0,0,1,3.2,0,3.418,3.418,0,0,1,2.014,2.05,4.63,4.63,0,0,1,.277,1.636,4.574,4.574,0,0,1-.277,1.629,3.526,3.526,0,0,1-.784,1.242,3.41,3.41,0,0,1-1.23.793,4.788,4.788,0,0,1-3.2,0,3.419,3.419,0,0,1-1.221-.793,3.543,3.543,0,0,1-.784-1.242,4.546,4.546,0,0,1-.275-1.629A4.6,4.6,0,0,1,341.131,28.078Zm1.874,2.516a2.4,2.4,0,0,0,.3.769,1.583,1.583,0,0,0,.56.546,1.711,1.711,0,0,0,.874.2,1.734,1.734,0,0,0,.877-.2,1.548,1.548,0,0,0,.569-.546,2.343,2.343,0,0,0,.3-.769,4.546,4.546,0,0,0,.087-.881,4.663,4.663,0,0,0-.087-.887,2.258,2.258,0,0,0-.3-.769,1.634,1.634,0,0,0-.569-.546,1.7,1.7,0,0,0-.877-.212,1.591,1.591,0,0,0-1.434.757,2.312,2.312,0,0,0-.3.769,4.654,4.654,0,0,0-.086.887A4.538,4.538,0,0,0,343.005,30.594Z" transform="translate(-303.984 -23.085)"/><path class="a" d="M349.693,25.949v.959h.028a2.273,2.273,0,0,1,.959-.887,2.948,2.948,0,0,1,1.277-.276,3.258,3.258,0,0,1,1.528.334,3.148,3.148,0,0,1,1.062.887,3.755,3.755,0,0,1,.625,1.286,5.711,5.711,0,0,1,.2,1.534,5.151,5.151,0,0,1-.2,1.453,3.671,3.671,0,0,1-.619,1.236,3.056,3.056,0,0,1-1.031.858,3.112,3.112,0,0,1-1.448.32,2.918,2.918,0,0,1-1.286-.284,2.423,2.423,0,0,1-.965-.836h-.028V36.1h-2.067V25.949Zm2.68,5.96a1.686,1.686,0,0,0,.555-.53,2.266,2.266,0,0,0,.3-.764,4.63,4.63,0,0,0,.087-.887,4.182,4.182,0,0,0-.1-.886,2.329,2.329,0,0,0-.312-.778,1.741,1.741,0,0,0-.56-.552,1.561,1.561,0,0,0-.834-.212,1.593,1.593,0,0,0-.851.212,1.686,1.686,0,0,0-.552.546,2.207,2.207,0,0,0-.3.769,4.53,4.53,0,0,0-.087.9,4.17,4.17,0,0,0,.094.887,2.223,2.223,0,0,0,.307.764,1.616,1.616,0,0,0,.559.53,1.648,1.648,0,0,0,.844.2A1.629,1.629,0,0,0,352.372,31.909Z" transform="translate(-302.033 -23.085)"/><path class="a" d="M356.711,31.661a2.116,2.116,0,0,0,2.414.14,1.306,1.306,0,0,0,.551-.662h1.818a3.45,3.45,0,0,1-1.338,1.935,3.951,3.951,0,0,1-2.18.58,4.278,4.278,0,0,1-1.6-.284,3.331,3.331,0,0,1-1.207-.806,3.645,3.645,0,0,1-.763-1.252,4.554,4.554,0,0,1-.271-1.6,4.373,4.373,0,0,1,.279-1.57,3.62,3.62,0,0,1,2-2.093,3.878,3.878,0,0,1,1.563-.306,3.582,3.582,0,0,1,1.672.371,3.312,3.312,0,0,1,1.17,1,4.082,4.082,0,0,1,.662,1.425,5.264,5.264,0,0,1,.145,1.672H356.2A2.07,2.07,0,0,0,356.711,31.661Zm2.332-3.953a1.443,1.443,0,0,0-1.125-.408,1.8,1.8,0,0,0-.823.168,1.578,1.578,0,0,0-.523.415,1.52,1.52,0,0,0-.275.523,2.129,2.129,0,0,0-.094.5h3.356A2.357,2.357,0,0,0,359.043,27.708Z" transform="translate(-300.214 -23.085)"/><path class="a" d="M366.1,33.093a2.159,2.159,0,0,1-.954.881,3.18,3.18,0,0,1-1.33.268,3.227,3.227,0,0,1-1.484-.327,3,3,0,0,1-1.054-.887,4.064,4.064,0,0,1-.624-1.286,5.411,5.411,0,0,1-.211-1.511,5.089,5.089,0,0,1,.211-1.461,3.854,3.854,0,0,1,.624-1.244,3.167,3.167,0,0,1,1.04-.864,3.079,3.079,0,0,1,1.453-.327,2.955,2.955,0,0,1,1.272.282,2.222,2.222,0,0,1,.954.837h.028v-3.78h2.065v10.38h-1.962v-.96Zm-.089-3.714a2.251,2.251,0,0,0-.3-.756,1.722,1.722,0,0,0-.546-.53,1.6,1.6,0,0,0-.843-.2,1.673,1.673,0,0,0-.858.2,1.61,1.61,0,0,0-.558.537,2.36,2.36,0,0,0-.307.764,4.164,4.164,0,0,0-.094.895,3.746,3.746,0,0,0,.1.872,2.376,2.376,0,0,0,.326.778,1.778,1.778,0,0,0,.568.552,1.521,1.521,0,0,0,.82.212,1.631,1.631,0,0,0,.85-.2,1.5,1.5,0,0,0,.544-.546,2.45,2.45,0,0,0,.293-.778,4.69,4.69,0,0,0,.089-.9A4.606,4.606,0,0,0,366.012,29.379Z" transform="translate(-298.423 -23.673)"/><path class="a" d="M372.373,23.673v3.78h.028a2.2,2.2,0,0,1,1.025-.851,3.478,3.478,0,0,1,1.343-.268,2.855,2.855,0,0,1,2.116.945,3.668,3.668,0,0,1,.722,1.227,5.913,5.913,0,0,1,0,3.563,3.661,3.661,0,0,1-.722,1.229,2.868,2.868,0,0,1-2.116.945,3.968,3.968,0,0,1-1.482-.262,1.872,1.872,0,0,1-.989-.887h-.028v.96h-1.964V23.673Zm3.342,5.713a2.354,2.354,0,0,0-.321-.772,1.68,1.68,0,0,0-.546-.53,1.5,1.5,0,0,0-.792-.2,1.516,1.516,0,0,0-.783.2,1.678,1.678,0,0,0-.553.53,2.407,2.407,0,0,0-.318.772,4.012,4.012,0,0,0-.1.915,3.938,3.938,0,0,0,.1.9,2.407,2.407,0,0,0,.318.772,1.648,1.648,0,0,0,.553.529,1.5,1.5,0,0,0,.783.2,1.486,1.486,0,0,0,.792-.2,1.651,1.651,0,0,0,.546-.529,2.354,2.354,0,0,0,.321-.772,3.934,3.934,0,0,0,.1-.9A4.008,4.008,0,0,0,375.715,29.386Z" transform="translate(-295.623 -23.673)"/><path class="a" d="M379.965,35.659a3,3,0,0,1-1.655.392c-.213,0-.426-.008-.633-.022s-.421-.031-.634-.051v-1.7c.2.019.4.037.6.058a4.215,4.215,0,0,0,.61.014.794.794,0,0,0,.6-.32,1.031,1.031,0,0,0,.2-.61,1.2,1.2,0,0,0-.089-.466L376.33,25.9h2.2l1.7,5.146h.028L381.9,25.9h2.139l-3.14,8.445A2.538,2.538,0,0,1,379.965,35.659Z" transform="translate(-293.913 -23.04)"/></g><g transform="translate(481.516 45.855)"><path class="a" d="M387.717,80.631l5.5.675c1.466.181,2.237-.372,2.407-1.755a2.529,2.529,0,0,0-.221-1.571c-.331-.562-.837-.818-1.841-.944l-5.318-.654-.618,1.081-.381-.046.41-3.311.379.045.334,1.213,5.078.625a2.913,2.913,0,0,1,2.491,1.476,4.208,4.208,0,0,1,.388,2.556c-.27,2.185-1.464,3.265-3.31,3.036l-5.512-.677-.616,1.1-.38-.048L387,79.438l.383.048" transform="translate(-386.504 -31.456)"/><path class="a" d="M390.468,72.911l5.915,2.1.817-.875.362.13-1.049,2.951-.36-.128-.069-1.241-6.971-2.476-.835.922-.36-.127.9-2.528,7.371-2.333-5-1.772-.812.857-.36-.127,1.042-2.94.362.128.069,1.242,7.911,2.808-.233.658" transform="translate(-386.102 -33.949)"/><path class="a" d="M401.785,59.692l2.084,1.577a13.076,13.076,0,0,1-1.536,2.817c-1.76,2.323-4.17,2.676-6.458.941-2.334-1.767-2.631-4.5-.75-6.984a12.169,12.169,0,0,1,1.857-1.883l.177-.141,1.8,1.361-.387.514-1.906-.587a5.187,5.187,0,0,0-1.479,3.424,4.227,4.227,0,0,0,1.8,2.836c1.887,1.426,3.871,1.233,5.207-.534a3,3,0,0,0,.375-.607l-1.81-1.369-1.075.628-.306-.234,2.42-3.194.306.23" transform="translate(-384.405 -36.592)"/><path class="a" d="M404.586,59.885l-5.058-5.4-1.165.434-.262-.277,2.977-2.788.262.28-.512,1.136,5.179,5.533,1.568-1.468-.539-1.819.418-.392L408.933,57l-4.6,4.3-.26-.282" transform="translate(-383.211 -37.774)"/><path class="a" d="M406.659,52.928c1.294,2.082,3.07,2.9,4.451,2.034,1.4-.865,1.452-2.723.144-4.825-1.257-2.021-3.035-2.834-4.382-2-1.394.868-1.47,2.766-.213,4.786M405.29,54.2a4.654,4.654,0,0,1,1.41-6.755,4.185,4.185,0,0,1,6.018,1.574,4.619,4.619,0,0,1-1.4,6.7A4.183,4.183,0,0,1,405.29,54.2" transform="translate(-381.418 -39.223)"/><path class="a" d="M416.479,52.186l.575-.221a2.027,2.027,0,0,0,1.274-.958,1.752,1.752,0,0,0,.044-1.5,1.835,1.835,0,0,0-2.642-1.04l-.588.23m-.221-.576.525-.2a1.643,1.643,0,0,0,.989-2.315,1.58,1.58,0,0,0-2.246-1l-.537.205Zm-.19,4.468-2.653-6.91-1.242-.037-.14-.357,3.922-1.5a2.981,2.981,0,0,1,2.262-.178,1.953,1.953,0,0,1,1.2,1.181c.448,1.162-.09,2.206-1.577,3,1.813-.625,3.072-.241,3.582,1.087a2.254,2.254,0,0,1-.226,2.077,4.251,4.251,0,0,1-2.186,1.442l-3.705,1.423-.139-.359Z" transform="translate(-379.636 -40.158)"/><path class="a" d="M421.44,46.82l2.316-.407L422.715,44.6a8.7,8.7,0,0,1-.54-1.1m-.852,4.008-.591,2.785,1.12.286.064.379-3.017.53-.064-.379.941-.651,2.183-8.906.673-.117,4.685,7.7,1.107.293.065.377-3.891.68-.067-.375.941-.652-1.388-2.448Z" transform="translate(-377.326 -40.731)"/><path class="a" d="M428.1,49.175l.159-7.4-1.137-.5.009-.383,4.078.087-.009.383-1.161.454-.165,7.579,2.15.047.884-1.678.575.014-.257,2.376-6.295-.137.007-.383" transform="translate(-375.026 -40.887)"/><path class="a" d="M441.445,51.268l1.225-1.6.594.166-.759,2.115h-.212a11.213,11.213,0,0,1-2.854-.353,4.188,4.188,0,0,1-3.174-5.6c.8-2.861,3.17-4.159,6.122-3.336a9.7,9.7,0,0,1,2.478,1.1l-.606,2.174-.579-.163-.16-1.972a1.923,1.923,0,0,0-.578-.217,3.662,3.662,0,0,0-2.986.177,4.34,4.34,0,0,0-1.91,2.69c-.642,2.3.279,4.051,2.425,4.648a5.785,5.785,0,0,0,.931.173" transform="translate(-372.441 -40.453)"/><path class="a" d="M445.183,48.515c-1.125,2.175-.912,4.115.535,4.862s3.08-.149,4.218-2.346c1.093-2.116.878-4.057-.53-4.786-1.461-.756-3.129.154-4.223,2.27m-1.791-.526a4.653,4.653,0,0,1,6.52-2.253,4.189,4.189,0,0,1,1.733,5.978,4.622,4.622,0,0,1-6.48,2.228,4.181,4.181,0,0,1-1.773-5.952" transform="translate(-370.521 -39.675)"/><path class="a" d="M454.57,56.855l6.121-3.06L462.9,55.71l-.253.289-1.19-.4-4.841,5.6.566,1.121-.251.291-3.043-2.633.253-.288,1.141.353,4.08-4.714L452.433,58.8l-.26-.222,2.456-7.353-4.081,4.718.515,1.074-.25.291-2.371-2.049.251-.288,1.184.389,4.839-5.6-.557-1.114.253-.289,2.3,1.995" transform="translate(-368.92 -38.765)"/><path class="a" d="M460.613,60.925l.238.32a2.016,2.016,0,0,0,1.182.927,2.072,2.072,0,0,0,1.74-.458,2.1,2.1,0,0,0,.924-1.369,1.712,1.712,0,0,0-.451-1.387l-.349-.472m-3.767,2.8-2.369,1.764.3,1.206-.306.229-2.391-3.216.306-.23,1.036.593,5.938-4.41-.267-1.164.307-.23,2.129,2.864a4.278,4.278,0,0,1,1.116,2.51,2.33,2.33,0,0,1-1.01,1.944c-1.349,1-2.976.579-4.242-1.125Z" transform="translate(-366.955 -36.646)"/><path class="a" d="M463.345,64.4l1.071,2.1,1.432-1.53a8.473,8.473,0,0,1,.892-.84m-4.085.365-2.837.248.05,1.157-.339.173-1.394-2.728.343-.173.9.706,9.164-.526.309.609L462.859,70.7l.045,1.143-.342.173-1.8-3.523.342-.173.9.707,1.935-2.048Z" transform="translate(-366.169 -34.562)"/><path class="a" d="M463.882,76.072l2.011.2.172.593-2.2.469-.113-.182a11.175,11.175,0,0,1-1.2-2.615,4.191,4.191,0,0,1,3.093-5.644c2.852-.828,5.206.508,6.061,3.454a9.8,9.8,0,0,1,.368,2.687l-2.168.629-.168-.578,1.6-1.177a2.043,2.043,0,0,0-.118-.606,3.678,3.678,0,0,0-1.723-2.448,4.348,4.348,0,0,0-3.3-.212c-2.3.669-3.3,2.371-2.68,4.514a5.876,5.876,0,0,0,.343.882" transform="translate(-364.984 -33.005)"/><path class="a" d="M472.188,80.042l-7.548.676-.342,1.543-.382.036-.427-4.754.383-.036.608,1.458,7.548-.68-.15-1.689-1.953-.5-.051-.557,2.577-.231.68,7.59-2.577.23-.049-.571,1.834-.854" transform="translate(-364.648 -31.114)"/><path class="a" d="M396.848,115.281c3.513,2.778,8.114,2.452,12.064,3.992-3.649-3.488-4.255-8.691-5.826-13.3a35.549,35.549,0,0,0-4.415-7.9c1.932,4.573,1.021,10.532,3.6,14.779a16.756,16.756,0,0,0,2.9,3.718l-.055.063a11.2,11.2,0,0,1-2.574-2.081c-4.413-4.287-10.991-4.871-13.613-11.906.713,5.172,4.224,9.719,7.918,12.637" transform="translate(-385.815 -24.653)"/><path class="a" d="M424.548,120.273a2.679,2.679,0,0,0,1-.191c-3.427-.761-6.312-1.388-9.243-3.831-3.865-3.22-6.823-6.493-11.094-9.14.535.333,2.972,5.309,5.011,8.3a9.685,9.685,0,0,0,5.716,3.758,13.367,13.367,0,0,1,2.1.607,1.4,1.4,0,0,1-.924.022,58.867,58.867,0,0,0-8.749-1.186c-12.239,0-15.4-4.675-15.4-4.675,3.619,6.572,11.092,9.013,15.987,9.013,6.973,0,12.237-2.679,15.593-2.679" transform="translate(-384.669 -22.086)"/><path class="a" d="M456.215,122.953c4.9,0,12.365-2.443,15.987-9.013,0,0-3.162,4.675-15.4,4.675a58.814,58.814,0,0,0-8.746,1.186,1.423,1.423,0,0,1-.927-.019,13.107,13.107,0,0,1,2.1-.61,9.692,9.692,0,0,0,5.716-3.755c2.039-3,4.476-7.972,5.011-8.306-4.272,2.649-7.227,5.92-11.094,9.14-2.931,2.442-5.815,3.07-9.241,3.831a2.679,2.679,0,0,0,1,.191c3.355,0,8.619,2.679,15.592,2.679" transform="translate(-371.424 -22.086)"/><path class="a" d="M394.286,107.738a44.839,44.839,0,0,1,4.119,3.957s-.277-.933-.553-2.076a29.711,29.711,0,0,0-1.815-6.389c-.9-1.907-4.636-8.114-5.354-11.515,0,0-2.66,10.69,3.6,16.023" transform="translate(-385.477 -26.457)"/><path class="a" d="M453.473,119.273c3.948-1.541,8.549-1.213,12.061-3.992,3.7-2.92,7.209-7.466,7.919-12.637-2.626,7.034-9.2,7.619-13.613,11.9a11.17,11.17,0,0,1-2.574,2.082l-.053-.063a16.8,16.8,0,0,0,2.9-3.718c2.581-4.25,1.672-10.206,3.6-14.781a35.621,35.621,0,0,0-4.414,7.9c-1.572,4.609-2.179,9.813-5.826,13.3" transform="translate(-367.492 -24.654)"/><path class="a" d="M458.829,121.607c-6.088-2.474-12.423-5.623-19.772-4.13a7.636,7.636,0,0,1-4.458,0c-7.349-1.493-13.681,1.656-19.773,4.13-4.549,1.673-10.5,1.4-14.491-1.177a16.742,16.742,0,0,0,7.353,4.72c5.077,1.9,11.109.606,15.316-2.143,3.6-1.9,6.7-5.626,11.45-4.211a45.756,45.756,0,0,0-13.246,8.836l2.506,1.932a36.266,36.266,0,0,1,13.112-10.1,36.271,36.271,0,0,1,13.118,10.1l2.5-1.932a45.75,45.75,0,0,0-13.245-8.836c4.741-1.415,7.843,2.316,11.445,4.211,4.212,2.749,10.244,4.042,15.319,2.143a16.732,16.732,0,0,0,7.354-4.72c-4,2.577-9.943,2.85-14.493,1.177" transform="translate(-382.577 -19.253)"/><path class="a" d="M465.51,107.738c6.262-5.333,3.605-16.023,3.605-16.023-.718,3.4-4.456,9.609-5.358,11.515a29.8,29.8,0,0,0-1.812,6.389c-.277,1.143-.553,2.076-.553,2.076a44.647,44.647,0,0,1,4.117-3.957" transform="translate(-365.243 -26.457)"/><path class="a" d="M448.415,72.186H448.4c-.092,0-.258.089-.478.32a20.728,20.728,0,0,1-5.743,3.931c-.539.268-.659.471-.659.715a1.723,1.723,0,0,0,.166.6,60.928,60.928,0,0,1,3.551,13.993s.08.9.3,1.094c.19.169.841-.227.9-.261a36.855,36.855,0,0,0,6.622-5.074,2.064,2.064,0,0,0,.783-1.6,5.351,5.351,0,0,0-.172-1.168,47.429,47.429,0,0,0-4.819-12.135c-.176-.3-.327-.421-.422-.421" transform="translate(-370.884 -32.001)"/><path class="a" d="M445.538,91.786a49.035,49.035,0,0,1-14.962,2.659c-1.007.064-.949.3-.992,1.089-.048,4.67-.149,9.071-.274,13.069,0,0-.036.407.109.56.131.128.529.1.529.1a47.015,47.015,0,0,0,14.86-3.345c.682-.284.792-.689.982-1.461a49.471,49.471,0,0,0,.944-11.74s.015-.832-.275-1.022a.473.473,0,0,0-.25-.058,2.212,2.212,0,0,0-.67.149" transform="translate(-374.353 -26.479)"/><path class="a" d="M434.287,64.1a56.656,56.656,0,0,1,7.738,12.4c.217.465.363.722.516.761a1.067,1.067,0,0,0,.731-.184,23.124,23.124,0,0,0,5.237-3.7,1.059,1.059,0,0,0,.374-.763,1.774,1.774,0,0,0-.407-.977,35.974,35.974,0,0,0-9.774-9.32,14.852,14.852,0,0,1-4.414,1.781" transform="translate(-372.939 -34.802)"/><path class="a" d="M429.187,64.387c.148,5.044.267,10.055.345,14.884a1.059,1.059,0,0,0,.209.787.887.887,0,0,0,.558.153,36.221,36.221,0,0,0,10.769-2.043c.271-.1.44-.171.529-.41a1.374,1.374,0,0,0-.125-.71,63.275,63.275,0,0,0-7.129-13.1,40.045,40.045,0,0,1-5.157.443" transform="translate(-374.387 -34.341)"/><path class="a" d="M444.578,104.464a2.7,2.7,0,0,0-.657.158,48.588,48.588,0,0,1-14.018,2.293c-.451.027-.574.152-.611.693l-.256,4.261a35.686,35.686,0,0,0,13.146-2.65A19.668,19.668,0,0,0,444.536,105a1.775,1.775,0,0,0,.14-.447c.006-.082-.045-.1-.078-.1h-.019" transform="translate(-374.429 -22.838)"/><path class="a" d="M453.986,86.067a32.582,32.582,0,0,1-7.658,5.3c-1.073.556-1.181.946-1.2,1.868a39.032,39.032,0,0,1-1.736,12.894s-.1.245.209.09a33.963,33.963,0,0,0,8.442-5.812,7.55,7.55,0,0,0,2.166-4.472,36.138,36.138,0,0,0-.114-9.856c0-.04-.018-.053-.037-.053a.143.143,0,0,0-.076.041" transform="translate(-370.357 -28.072)"/><path class="a" d="M449.748,66.484a10.157,10.157,0,0,1-.919,4.093,2.911,2.911,0,0,0-.309,1.1,1.665,1.665,0,0,0,.294.755A40.138,40.138,0,0,1,454.294,85.1a15.417,15.417,0,0,0,2.192-6.946,3.526,3.526,0,0,0-.035-.5A27.08,27.08,0,0,0,449.665,65.4a7.075,7.075,0,0,1,.082,1.085" transform="translate(-368.898 -33.928)"/><path class="a" d="M402.035,90.89c0,18.536,15.737,34.688,33.9,34.688-.018-.3-.23-4.35-.23-4.35-.022-.452-.13-.6-.683-.66,0,0-7.923-.611-10.524-1.941-.113-.069-.055-.176.086-.149a71.792,71.792,0,0,0,10.434.93.55.55,0,0,0,.567-.611c0-.575-.223-13.153-.223-13.153-.039-.946-.185-1.1-1.1-1.18a46.568,46.568,0,0,1-15.574-3.38c-.121-.051-.182-.064-.241-.03-.105.049-.105.253-.105.253a70.523,70.523,0,0,0,.24,11.513c.021.091-.014.135-.1.148-.105.013-.127-.11-.127-.11a39.731,39.731,0,0,1-1.258-10.174c0-.254.023-1.731.023-1.731a.821.821,0,0,0-.514-.811,32.1,32.1,0,0,1-5.935-3.877.147.147,0,0,1-.023-.222.17.17,0,0,1,.2-.021,36.932,36.932,0,0,0,6.036,3.036l.239.013c.13-.081.125-.258.148-.535a56.6,56.6,0,0,1,3.872-16.452.912.912,0,0,0,.062-.288c-.008-.163-.078-.259-.384-.4a19.434,19.434,0,0,1-7.692-5.727s-.105-.123,0-.216a.158.158,0,0,1,.208.017,23.007,23.007,0,0,0,8.005,4.644.954.954,0,0,0,.321.081c.144,0,.258-.086.483-.567a59.207,59.207,0,0,1,8.32-13.831c-2.731-.669-5.525-2.136-6.22-3.749,0,0-.092-.181.036-.249.151-.083.261.091.261.091,3.052,3.3,11.884,3.088,11.884,3.088,3.681,0,11.353-1.293,11.353-4.391,0-2.812-4.065-4.282-11.445-4.379-22.335,0-34.3,19.335-34.3,34.684" transform="translate(-382.095 -36.538)"/><path class="a" d="M439.857,59.782a4.175,4.175,0,0,1-1.2,2.686,38.487,38.487,0,0,1,10.011,8.217s.445.576.709.55c.189-.019.343-.474.343-.474a7.514,7.514,0,0,0,.063-5.233,9.255,9.255,0,0,0-2.549-2.908,32.674,32.674,0,0,0-7.819-4.345,2.889,2.889,0,0,1,.439,1.507" transform="translate(-371.697 -35.951)"/><path class="a" d="M454.548,83.667a3.94,3.94,0,0,0-.792,2.445c.2,2.323.207,4.374.207,4.374a35.146,35.146,0,0,1-.683,6.928,27.783,27.783,0,0,0,3.494-13.724,29.927,29.927,0,0,0-.4-4.853,14.787,14.787,0,0,1-1.823,4.83" transform="translate(-367.547 -30.113)"/><path class="a" d="M444.08,104.7a3.35,3.35,0,0,0-1.441,1.554,24.968,24.968,0,0,1-2.117,3.585,38.022,38.022,0,0,0,12-10.168,36.193,36.193,0,0,1-8.443,5.03" transform="translate(-371.169 -24.199)"/><path class="a" d="M418.994,76.435c-.11.012-.181.056-.288.331a64.08,64.08,0,0,0-3.836,16.682c-.028.41.074.49.356.615a48.037,48.037,0,0,0,15.466,2.581s.6-.017.755-.169c.223-.226.25-.388.245-1.085.017-4.283.1-15.594.1-15.594a.991.991,0,0,0-.991-1.126,40.569,40.569,0,0,1-11.418-2.145,1.769,1.769,0,0,0-.353-.089" transform="translate(-378.452 -30.795)"/><path class="a" d="M418.643,77.868v.005c-.213.456-.114.6-.114.6a.424.424,0,0,0,.207.146,42.9,42.9,0,0,0,11.1,1.69,1.1,1.1,0,0,0,.75-.2,1.248,1.248,0,0,0,.245-.891v-.005c.1-4.843.226-9.871.512-14.812a26.488,26.488,0,0,1-4.607-.556,61.2,61.2,0,0,0-8.089,14.019" transform="translate(-377.419 -34.368)"/><path class="a" d="M442.3,76.6a1.724,1.724,0,0,0-.517.13,40.45,40.45,0,0,1-11.278,1.931.983.983,0,0,0-1.009,1.12c.023,2.477.068,6.38.068,11.633,0,1.333.012,3.111.012,4.406a.971.971,0,0,0,.148.587.757.757,0,0,0,.575.128,49.273,49.273,0,0,0,14.888-2.98c.846-.327,1.036-.722,1.04-1.371a3.641,3.641,0,0,0-.035-.524,74.348,74.348,0,0,0-3.375-14.326c-.22-.627-.327-.734-.51-.734" transform="translate(-374.298 -30.749)"/></g><g transform="translate(388.755 45.945)"><g transform="translate(0.062 82.064)"><path class="a" d="M321.273,104.875v22.638h13.536v5.134H315.167V104.875Z" transform="translate(-315.167 -104.875)"/><path class="a" d="M333.606,113.92a6.638,6.638,0,0,1,2.179-2.062,9.511,9.511,0,0,1,2.975-1.108,16.875,16.875,0,0,1,3.325-.331,22.534,22.534,0,0,1,3.072.214,9.446,9.446,0,0,1,2.84.836,5.606,5.606,0,0,1,2.1,1.731,4.842,4.842,0,0,1,.817,2.938V126.6a21.209,21.209,0,0,0,.155,2.606,4.685,4.685,0,0,0,.546,1.867h-5.6a7.707,7.707,0,0,1-.253-.953,8.355,8.355,0,0,1-.136-.992,7.2,7.2,0,0,1-3.111,1.907,12.533,12.533,0,0,1-3.657.544,9.865,9.865,0,0,1-2.685-.351,6.126,6.126,0,0,1-2.177-1.089,5.058,5.058,0,0,1-1.458-1.867,6.306,6.306,0,0,1-.525-2.685,5.865,5.865,0,0,1,.6-2.819A5.04,5.04,0,0,1,334.169,121a6.988,6.988,0,0,1,2.179-.992,23.462,23.462,0,0,1,2.469-.525q1.244-.195,2.451-.311a14.81,14.81,0,0,0,2.139-.351,3.743,3.743,0,0,0,1.479-.68,1.5,1.5,0,0,0,.5-1.3,2.928,2.928,0,0,0-.291-1.42,2.137,2.137,0,0,0-.778-.817,3.086,3.086,0,0,0-1.127-.389,9.315,9.315,0,0,0-1.381-.1,4.188,4.188,0,0,0-2.567.7,3.118,3.118,0,0,0-1.089,2.333h-5.523A6.4,6.4,0,0,1,333.606,113.92Zm10.909,7.8a8.745,8.745,0,0,1-1.127.291q-.6.117-1.263.2t-1.324.194a10.065,10.065,0,0,0-1.225.312,3.609,3.609,0,0,0-1.05.525,2.5,2.5,0,0,0-.719.836,2.684,2.684,0,0,0-.272,1.284,2.587,2.587,0,0,0,.272,1.244,2.077,2.077,0,0,0,.738.8,3.093,3.093,0,0,0,1.09.408,6.9,6.9,0,0,0,1.283.117,4.874,4.874,0,0,0,2.528-.544,3.64,3.64,0,0,0,1.324-1.3,4.179,4.179,0,0,0,.525-1.536,10.667,10.667,0,0,0,.1-1.245v-2.062A2.462,2.462,0,0,1,344.515,121.719Z" transform="translate(-310.385 -103.301)"/><path class="a" d="M354.983,104.875v10.113h.078a5.9,5.9,0,0,1,2.742-2.275,9.272,9.272,0,0,1,3.6-.72,7.667,7.667,0,0,1,5.659,2.529,9.712,9.712,0,0,1,1.925,3.287,15.718,15.718,0,0,1,0,9.529,9.725,9.725,0,0,1-1.925,3.287,7.671,7.671,0,0,1-5.659,2.528,10.624,10.624,0,0,1-3.967-.7,5.042,5.042,0,0,1-2.645-2.373h-.078v2.566H349.46V104.875Zm8.946,15.287a6.385,6.385,0,0,0-.855-2.062,4.487,4.487,0,0,0-1.458-1.42,4.5,4.5,0,0,0-4.22,0,4.413,4.413,0,0,0-1.479,1.42,6.382,6.382,0,0,0-.855,2.062,10.689,10.689,0,0,0-.272,2.45,10.532,10.532,0,0,0,.272,2.411,6.382,6.382,0,0,0,.855,2.062A4.4,4.4,0,0,0,357.4,128.5a4.492,4.492,0,0,0,4.22,0,4.47,4.47,0,0,0,1.458-1.419,6.385,6.385,0,0,0,.855-2.062,10.607,10.607,0,0,0,.273-2.411A10.764,10.764,0,0,0,363.93,120.162Z" transform="translate(-305.431 -104.875)"/></g><path class="a" d="M329.724,51.739h13.349c3.25,0,7.527,0,9.743,1.34a8.734,8.734,0,0,1,4.328,7.682,8.5,8.5,0,0,1-5.462,8.245v.1c4.537.926,7.01,4.329,7.01,8.865,0,5.41-3.867,10.566-11.185,10.566H329.724Zm4.894,15.824h9.8c5.564,0,7.834-2.009,7.834-5.876,0-5.1-3.606-5.824-7.834-5.824h-9.8Zm0,16.855H346.89c4.225,0,6.907-2.577,6.907-6.6,0-4.794-3.867-6.134-7.992-6.134H334.618Z" transform="translate(-310.973 -37.896)"/><path class="a" d="M375.358,73.216a27.993,27.993,0,1,1-28-27.989A27.994,27.994,0,0,1,375.358,73.216Zm-28-32.259A32.244,32.244,0,1,0,379.61,73.2,32.244,32.244,0,0,0,347.361,40.957Z" transform="translate(-315.119 -40.957)"/><rect class="a" width="64.358" height="4.23" transform="translate(0.001 71.29)"/><path class="a" d="M364.1,93.252c.08,0,.154,0,.225-.009a.508.508,0,0,0,.186-.042.321.321,0,0,0,.132-.11.38.38,0,0,0,.046-.211.294.294,0,0,0-.044-.177.253.253,0,0,0-.113-.1.435.435,0,0,0-.158-.054c-.06,0-.117-.01-.177-.01h-.462v.715Zm.154-1a.933.933,0,0,1,.593.158.594.594,0,0,1,.2.484.568.568,0,0,1-.169.447.812.812,0,0,1-.426.168l.643.987h-.372l-.614-.967h-.368V94.5h-.353V92.253ZM362.67,94.02a1.469,1.469,0,0,0,.331.526,1.514,1.514,0,0,0,.5.348,1.572,1.572,0,0,0,.624.121,1.55,1.55,0,0,0,.624-.121,1.641,1.641,0,0,0,.5-.348,1.621,1.621,0,0,0,.33-.526,1.679,1.679,0,0,0,.123-.647,1.656,1.656,0,0,0-.123-.645,1.619,1.619,0,0,0-.33-.52,1.672,1.672,0,0,0-.5-.343,1.574,1.574,0,0,0-.624-.126,1.6,1.6,0,0,0-.624.126,1.539,1.539,0,0,0-.5.343,1.465,1.465,0,0,0-.331.52,1.656,1.656,0,0,0-.122.645,1.679,1.679,0,0,0,.122.647m-.318-1.41a2,2,0,0,1,.417-.6,1.951,1.951,0,0,1,.618-.4,1.871,1.871,0,0,1,.743-.144A1.918,1.918,0,0,1,365.9,92.61a1.8,1.8,0,0,1,.155.763,1.776,1.776,0,0,1-.155.761,1.854,1.854,0,0,1-.417.612,1.832,1.832,0,0,1-.6.406,2,2,0,0,1-.754.143,1.964,1.964,0,0,1-.743-.143,1.877,1.877,0,0,1-.618-.406,1.933,1.933,0,0,1-.417-.612,1.774,1.774,0,0,1-.15-.761,1.8,1.8,0,0,1,.15-.763" transform="translate(-301.753 -26.619)"/></g></g></svg>