<?xml version="1.0" encoding="utf-8"?>
<!-- Generator: Adobe Illustrator 26.0.0, SVG Export Plug-In . SVG Version: 6.00 Build 0)  -->
<svg version="1.1" id="Capa_1" xmlns="http://www.w3.org/2000/svg" xmlns:xlink="http://www.w3.org/1999/xlink" x="0px" y="0px"
	 viewBox="0 0 500 500" style="enable-background:new 0 0 500 500;" xml:space="preserve">
<style type="text/css">
	.st0{fill:#FFFFFF;}
</style>
<g>
	<path class="st0" d="M492.4,246.1c-37.6-81.9-135.2-136.8-243.1-136.8h-0.5C141.2,109.5,43.7,164.5,6.2,246.1l-1.9,4.1l1.9,4.1
		c37.6,81.9,135.3,136.8,243.1,136.8h0.5c107.6-0.2,205.1-55.1,242.6-136.8l1.9-4.1L492.4,246.1z M249.7,371.4h-0.5
		C150.8,371.4,61.8,323,26,250.2c35.7-72.5,124.6-121,222.9-121.2h0.5c98.5,0,187.5,48.5,223.3,121.2
		C436.9,322.8,348,371.3,249.7,371.4z"/>
	<path class="st0" d="M249.3,186.9c-35,0-63.4,28.4-63.4,63.4s28.4,63.4,63.4,63.4s63.4-28.4,63.4-63.4S284.2,186.9,249.3,186.9z
		 M249.3,294c-24.1,0-43.7-19.6-43.7-43.7c0-24.1,19.6-43.7,43.7-43.7c24.1,0,43.7,19.6,43.7,43.7C293,274.4,273.4,294,249.3,294z"
		/>
	<path class="st0" d="M182.5,190.6c-0.7,0.3-1.2,0.9-1.5,1.5l-1.4,2.9c1.4-1.7,2.8-3.4,4.3-5.1L182.5,190.6z M182.5,190.6
		c-0.7,0.3-1.2,0.9-1.5,1.5l-1.4,2.9c1.4-1.7,2.8-3.4,4.3-5.1L182.5,190.6z M182.5,190.6c-0.7,0.3-1.2,0.9-1.5,1.5l-1.4,2.9
		c1.4-1.7,2.8-3.4,4.3-5.1L182.5,190.6z M182.5,190.6c-0.7,0.3-1.2,0.9-1.5,1.5l-1.4,2.9c1.4-1.7,2.8-3.4,4.3-5.1L182.5,190.6z
		 M182.5,190.6c-0.7,0.3-1.2,0.9-1.5,1.5l-1.4,2.9c1.4-1.7,2.8-3.4,4.3-5.1L182.5,190.6z M182.5,190.6c-0.7,0.3-1.2,0.9-1.5,1.5
		l-1.4,2.9c1.4-1.7,2.8-3.4,4.3-5.1L182.5,190.6z M182.5,190.6c-0.7,0.3-1.2,0.9-1.5,1.5l-1.4,2.9c1.4-1.7,2.8-3.4,4.3-5.1
		L182.5,190.6z M182.5,190.6c-0.7,0.3-1.2,0.9-1.5,1.5l-1.4,2.9c1.4-1.7,2.8-3.4,4.3-5.1L182.5,190.6z M182.5,190.6
		c-0.7,0.3-1.2,0.9-1.5,1.5l-1.4,2.9c1.4-1.7,2.8-3.4,4.3-5.1L182.5,190.6z M182.5,190.6c-0.7,0.3-1.2,0.9-1.5,1.5l-1.4,2.9
		c1.4-1.7,2.8-3.4,4.3-5.1L182.5,190.6z M182.5,190.6c-0.7,0.3-1.2,0.9-1.5,1.5l-1.4,2.9c1.4-1.7,2.8-3.4,4.3-5.1L182.5,190.6z
		 M182.5,190.6c-0.7,0.3-1.2,0.9-1.5,1.5l-1.4,2.9c1.4-1.7,2.8-3.4,4.3-5.1L182.5,190.6z M182.5,190.6c-0.7,0.3-1.2,0.9-1.5,1.5
		l-1.4,2.9c1.4-1.7,2.8-3.4,4.3-5.1L182.5,190.6z M182.5,190.6c-0.7,0.3-1.2,0.9-1.5,1.5l-1.4,2.9c1.4-1.7,2.8-3.4,4.3-5.1
		L182.5,190.6z M182.5,190.6c-0.7,0.3-1.2,0.9-1.5,1.5l-1.4,2.9c1.4-1.7,2.8-3.4,4.3-5.1L182.5,190.6z M182.5,190.6
		c-0.7,0.3-1.2,0.9-1.5,1.5l-1.4,2.9c1.4-1.7,2.8-3.4,4.3-5.1L182.5,190.6z M182.5,190.6c-0.7,0.3-1.2,0.9-1.5,1.5l-1.4,2.9
		c1.4-1.7,2.8-3.4,4.3-5.1L182.5,190.6z M182.5,190.6c-0.7,0.3-1.2,0.9-1.5,1.5l-1.4,2.9c1.4-1.7,2.8-3.4,4.3-5.1L182.5,190.6z
		 M182.5,190.6c-0.7,0.3-1.2,0.9-1.5,1.5l-1.4,2.9c1.4-1.7,2.8-3.4,4.3-5.1L182.5,190.6z M182.5,190.6c-0.7,0.3-1.2,0.9-1.5,1.5
		l-1.4,2.9c1.4-1.7,2.8-3.4,4.3-5.1L182.5,190.6z M182.5,190.6c-0.7,0.3-1.2,0.9-1.5,1.5l-1.4,2.9c1.4-1.7,2.8-3.4,4.3-5.1
		L182.5,190.6z M182.5,190.6c-0.7,0.3-1.2,0.9-1.5,1.5l-1.4,2.9c1.4-1.7,2.8-3.4,4.3-5.1L182.5,190.6z M182.5,190.6
		c-0.7,0.3-1.2,0.9-1.5,1.5l-1.4,2.9c1.4-1.7,2.8-3.4,4.3-5.1L182.5,190.6z M182.5,190.6c-0.7,0.3-1.2,0.9-1.5,1.5l-1.4,2.9
		c1.4-1.7,2.8-3.4,4.3-5.1L182.5,190.6z M182.5,190.6c-0.7,0.3-1.2,0.9-1.5,1.5l-1.4,2.9c1.4-1.7,2.8-3.4,4.3-5.1L182.5,190.6z
		 M182.5,190.6c-0.7,0.3-1.2,0.9-1.5,1.5l-1.4,2.9c1.4-1.7,2.8-3.4,4.3-5.1L182.5,190.6z M182.5,190.6c-0.7,0.3-1.2,0.9-1.5,1.5
		l-1.4,2.9c1.4-1.7,2.8-3.4,4.3-5.1L182.5,190.6z M182.5,190.6c-0.7,0.3-1.2,0.9-1.5,1.5l-1.4,2.9c1.4-1.7,2.8-3.4,4.3-5.1
		L182.5,190.6z M182.5,190.6c-0.7,0.3-1.2,0.9-1.5,1.5l-1.4,2.9c1.4-1.7,2.8-3.4,4.3-5.1L182.5,190.6z M249.3,141.6
		c-22.2,0-42.8,6.7-60,18.1c-1.8,1.2-3.6,2.5-5.4,3.8c-1.8,1.3-3.5,2.8-5.2,4.2l2.4,4.7c0.3,0.7,0.9,1.2,1.5,1.5l10.4,5.2
		c0.6,0.3,1,0.7,1.3,1.1c1.7-1.4,3.5-2.7,5.3-3.9c1.8-1.2,3.7-2.4,5.6-3.5c13-7.5,28.1-11.8,44.2-11.8c49.1,0,89,39.9,89,89
		s-39.9,89.1-89,89.1s-89-40-89-89.1c0-11.9,2.4-23.3,6.6-33.6c0.8-2.1,1.7-4.1,2.8-6c1-2.1,2.1-4.1,3.3-6.1c-0.1,0-0.2,0-0.3,0
		c-1.2,0-2.5-0.6-3.1-1.9l-5.2-10.4c-0.3-0.7-0.9-1.2-1.5-1.5l-3.2-1.6c-1.2,1.8-2.4,3.7-3.5,5.6c-1.1,1.9-2.2,3.8-3.2,5.7
		c-7.8,15-12.2,32-12.2,50c0,59.9,48.7,108.7,108.7,108.7S358,310.2,358,250.2S309.2,141.6,249.3,141.6z M181,192.2l-1.4,2.9
		c1.4-1.7,2.8-3.4,4.3-5.1l-1.3,0.7C181.8,191,181.3,191.5,181,192.2z M182.5,190.6c-0.7,0.3-1.2,0.9-1.5,1.5l-1.4,2.9
		c1.4-1.7,2.8-3.4,4.3-5.1L182.5,190.6z M182.5,190.6c-0.7,0.3-1.2,0.9-1.5,1.5l-1.4,2.9c1.4-1.7,2.8-3.4,4.3-5.1L182.5,190.6z
		 M182.5,190.6c-0.7,0.3-1.2,0.9-1.5,1.5l-1.4,2.9c1.4-1.7,2.8-3.4,4.3-5.1L182.5,190.6z M182.5,190.6c-0.7,0.3-1.2,0.9-1.5,1.5
		l-1.4,2.9c1.4-1.7,2.8-3.4,4.3-5.1L182.5,190.6z M182.5,190.6c-0.7,0.3-1.2,0.9-1.5,1.5l-1.4,2.9c1.4-1.7,2.8-3.4,4.3-5.1
		L182.5,190.6z M182.5,190.6c-0.7,0.3-1.2,0.9-1.5,1.5l-1.4,2.9c1.4-1.7,2.8-3.4,4.3-5.1L182.5,190.6z M182.5,190.6
		c-0.7,0.3-1.2,0.9-1.5,1.5l-1.4,2.9c1.4-1.7,2.8-3.4,4.3-5.1L182.5,190.6z M182.5,190.6c-0.7,0.3-1.2,0.9-1.5,1.5l-1.4,2.9
		c1.4-1.7,2.8-3.4,4.3-5.1L182.5,190.6z M182.5,190.6c-0.7,0.3-1.2,0.9-1.5,1.5l-1.4,2.9c1.4-1.7,2.8-3.4,4.3-5.1L182.5,190.6z
		 M182.5,190.6c-0.7,0.3-1.2,0.9-1.5,1.5l-1.4,2.9c1.4-1.7,2.8-3.4,4.3-5.1L182.5,190.6z M182.5,190.6c-0.7,0.3-1.2,0.9-1.5,1.5
		l-1.4,2.9c1.4-1.7,2.8-3.4,4.3-5.1L182.5,190.6z M182.5,190.6c-0.7,0.3-1.2,0.9-1.5,1.5l-1.4,2.9c1.4-1.7,2.8-3.4,4.3-5.1
		L182.5,190.6z M182.5,190.6c-0.7,0.3-1.2,0.9-1.5,1.5l-1.4,2.9c1.4-1.7,2.8-3.4,4.3-5.1L182.5,190.6z M182.5,190.6
		c-0.7,0.3-1.2,0.9-1.5,1.5l-1.4,2.9c1.4-1.7,2.8-3.4,4.3-5.1L182.5,190.6z M182.5,190.6c-0.7,0.3-1.2,0.9-1.5,1.5l-1.4,2.9
		c1.4-1.7,2.8-3.4,4.3-5.1L182.5,190.6z M182.5,190.6c-0.7,0.3-1.2,0.9-1.5,1.5l-1.4,2.9c1.4-1.7,2.8-3.4,4.3-5.1L182.5,190.6z
		 M182.5,190.6c-0.7,0.3-1.2,0.9-1.5,1.5l-1.4,2.9c1.4-1.7,2.8-3.4,4.3-5.1L182.5,190.6z M182.5,190.6c-0.7,0.3-1.2,0.9-1.5,1.5
		l-1.4,2.9c1.4-1.7,2.8-3.4,4.3-5.1L182.5,190.6z M182.5,190.6c-0.7,0.3-1.2,0.9-1.5,1.5l-1.4,2.9c1.4-1.7,2.8-3.4,4.3-5.1
		L182.5,190.6z M182.5,190.6c-0.7,0.3-1.2,0.9-1.5,1.5l-1.4,2.9c1.4-1.7,2.8-3.4,4.3-5.1L182.5,190.6z M182.5,190.6
		c-0.7,0.3-1.2,0.9-1.5,1.5l-1.4,2.9c1.4-1.7,2.8-3.4,4.3-5.1L182.5,190.6z M182.5,190.6c-0.7,0.3-1.2,0.9-1.5,1.5l-1.4,2.9
		c1.4-1.7,2.8-3.4,4.3-5.1L182.5,190.6z M182.5,190.6c-0.7,0.3-1.2,0.9-1.5,1.5l-1.4,2.9c1.4-1.7,2.8-3.4,4.3-5.1L182.5,190.6z
		 M182.5,190.6c-0.7,0.3-1.2,0.9-1.5,1.5l-1.4,2.9c1.4-1.7,2.8-3.4,4.3-5.1L182.5,190.6z M182.5,190.6c-0.7,0.3-1.2,0.9-1.5,1.5
		l-1.4,2.9c1.4-1.7,2.8-3.4,4.3-5.1L182.5,190.6z M182.5,190.6c-0.7,0.3-1.2,0.9-1.5,1.5l-1.4,2.9c1.4-1.7,2.8-3.4,4.3-5.1
		L182.5,190.6z M182.5,190.6c-0.7,0.3-1.2,0.9-1.5,1.5l-1.4,2.9c1.4-1.7,2.8-3.4,4.3-5.1L182.5,190.6z M182.5,190.6
		c-0.7,0.3-1.2,0.9-1.5,1.5l-1.4,2.9c1.4-1.7,2.8-3.4,4.3-5.1L182.5,190.6z"/>
	<path class="st0" d="M205.1,173c-1.6-2.3-3.7-4.2-6.3-5.5l-7.6-3.8l-2-4l-1.8-3.6c-2.8-5.7-8.5-9.2-14.8-9.2
		c-6.3,0-12,3.5-14.8,9.2l-3.8,7.6l-7.6,3.8c-5.6,2.8-9.1,8.5-9.1,14.8c0,6.3,3.5,12,9.1,14.8l6.4,3.1l1.2,0.6l3.8,7.6
		c1.9,3.8,5.2,6.7,9,8.1c1.8,0.7,3.8,1,5.8,1c6.3,0,12-3.5,14.8-9.1l3.8-7.6l7.6-3.8c5.7-2.8,9.2-8.5,9.2-14.8
		C208,178.9,207,175.7,205.1,173z M192.9,185.4l-9.1,4.6l-1.3,0.7c-0.7,0.3-1.2,0.9-1.5,1.5l-1.4,2.9l-3.8,7.6
		c-0.6,1.2-1.6,1.8-2.8,1.9c-0.1,0-0.2,0-0.3,0c-1.2,0-2.5-0.6-3.1-1.9l-5.2-10.4c-0.3-0.7-0.9-1.2-1.5-1.5l-3.2-1.6l-7.2-3.6
		c-2.6-1.3-2.6-4.9,0-6.2l10.5-5.2c0.7-0.3,1.2-0.9,1.5-1.5l5.2-10.5c0.6-1.2,1.9-1.9,3.1-1.9c1.2,0,2.5,0.7,3.1,1.9l2.9,5.8
		l2.4,4.7c0.3,0.7,0.9,1.2,1.5,1.5l10.4,5.2c0.6,0.3,1,0.7,1.3,1.1C195.4,182,194.9,184.4,192.9,185.4z"/>
</g>
</svg>
